<svg viewBox="145.83783783783792 210.7874999999999 825.1351351351352 1168.9125000000001" xmlns="http://www.w3.org/2000/svg" overflow="visible" xmlns:xlink="http://www.w3.org/1999/xlink" width="825.1351351351352px" height="1168.9125000000001px"><g id="Master/Character/Bust" stroke="none" stroke-width="1" fill="none" fill-rule="evenodd"><g id="Body" transform="translate(147.000000, 639.000000) scale(1 1)"><g id="Body/Hoodie" stroke="none" stroke-width="1" fill="none" fill-rule="evenodd"><path d="M790.747889,715.54329 C810.073889,714.61029 802.300889,680.80529 800.913889,668.39029 C785.612889,623.04629 789.209889,573.57429 783.191889,526.04629 C779.442889,481.67829 774.625889,437.44829 770.573889,393.11429 C762.615889,303.12029 705.468901,119.916434 640.253589,90.4527903 C632.038589,54.4067903 598.107682,20.7585623 555.177749,20.7585623 C525.897749,-13.9004377 490.654889,-38.2927097 445.451889,-33.3677097 C426.771889,-32.5177097 408.656089,-12.7057097 390.757089,-8.87970967 C380.735089,-7.49770967 291.794889,-11.0547097 273.978889,-0.473709672 C261.568889,5.89829033 250.365889,17.6732903 254.014889,32.6642903 C259.836889,50.8262903 241.743889,31.1742903 204.000889,50.5592903 C127.037685,96.7824468 173.027685,158.618927 175.065685,160.534927 C127.037685,227.357927 85.058889,281.57029 65.635889,363.24729 C53.047889,423.88629 54.464889,486.48529 43.917889,547.43529 C40.193889,568.56929 34.480889,588.98029 28.298889,609.50329 C21.598889,636.36229 18.3410489,703.305961 14.6480489,703.903961 C7.92104891,705.574961 18.535889,719.38729 25.663889,719.39829 C223.287889,752.17929 424.025889,720.75629 622.711889,715.62229 C678.704889,713.67529 734.757889,713.22629 790.747889,715.54329 Z" id="Skin" fill="#ffffff"/><path d="M391.005505,49.9619361 C391.005505,70.9938224 464.035638,149.145838 489.239049,143.990015 C506.041322,140.5528 531.427969,118.136539 565.398988,76.7412327 L565.398988,49.9619361 L558.062162,20.8093272 C599.621816,22.274211 632.223459,55.2179668 640.253589,90.4527903 C704.816748,119.621798 761.472142,299.471587 770.320433,390.386754 L770.573889,393.11429 C774.625889,437.44829 779.442889,481.67829 783.191889,526.04629 C789.209889,573.57429 785.612889,623.04629 800.913889,668.39029 L801.004504,669.160424 C802.600969,682.144342 809.687369,714.62895 790.747889,715.54329 C734.757889,713.22629 678.704889,713.67529 622.711889,715.62229 C424.025889,720.75629 223.287889,752.17929 25.663889,719.39829 C18.535889,719.38729 7.92104891,705.574961 14.6480489,703.903961 C18.3410489,703.305961 21.598889,636.36229 28.298889,609.50329 L29.5707328,605.258477 C35.2594288,586.161541 40.4507165,567.111773 43.917889,547.43529 C54.464889,486.48529 53.047889,423.88629 65.635889,363.24729 C85.058889,281.57029 127.037685,227.357927 175.065685,160.534927 C173.027685,158.618927 127.037685,96.7824468 204.000889,50.5592903 C241.743889,31.1742903 259.836889,50.8262903 254.014889,32.6642903 C250.365889,17.6732903 261.568889,5.89829033 273.978889,-0.473709672 C291.794889,-11.0547097 380.735089,-7.49770967 390.757089,-8.87970967 C395.412787,-9.87488828 400.083154,-11.9516302 404.774302,-14.4949135 L403.960551,-11.7852106 C395.323696,17.1607061 391.005505,37.7433061 391.005505,49.9619361 Z" id="Jacket" fill="#ffffff"/><path d="M491.219189,166.43309 C491.311189,165.52809 492.531189,165.53009 492.625189,166.43309 L494.020438,179.90224 C495.718046,196.352315 497.352332,212.770376 498.537189,229.29709 C500.014189,249.90609 501.002189,270.51009 501.478189,291.16509 C503.138189,363.10209 503.468189,435.07709 503.608189,507.03209 C513.339189,506.35809 523.071189,505.70909 532.808189,505.08109 C539.414189,504.654424 546.020633,504.24509 552.627819,503.842424 L569.475189,502.82084 L569.475189,502.82084 L576.411189,502.39509 C581.098189,502.10509 586.423189,500.92509 589.700189,505.07709 C591.012189,506.73909 591.670189,508.89909 590.447189,510.87209 C587.626189,515.42309 583.293189,515.26409 578.392189,515.46109 C573.768189,515.64809 569.144189,515.83109 564.520189,516.00909 C554.611189,516.39409 544.703189,516.75709 534.791189,517.03509 C524.389189,517.32709 513.992189,517.56409 503.594189,517.74109 C503.488972,548.117612 502.232147,578.456327 500.873112,608.799315 L500.258189,622.45409 C498.595189,659.38009 496.806189,696.33809 494.265189,733.21509 C494.056189,736.23409 489.785189,736.22809 489.578189,733.21509 C486.716189,691.68609 484.828189,650.06809 482.956189,608.48309 C481.598189,578.33209 480.808189,548.17309 480.432189,518.01009 C479.057189,518.01909 477.683189,518.03809 476.309189,518.04309 C437.282189,518.21309 398.265189,518.38309 359.238189,518.01709 C359.303189,518.09409 359.367189,518.17109 359.410189,518.27309 C362.234189,524.94009 362.503189,533.44809 362.434189,540.60309 C362.355189,548.80909 361.250189,556.91509 359.360189,564.89509 C352.588791,593.483348 335.123141,619.088802 315.230705,640.258353 L314.581189,640.94709 C309.889189,645.90509 304.506189,650.88609 301.625189,657.20109 C298.682374,663.64909 297.66092,671.191302 296.208788,678.119504 L296.039189,678.91609 L290.361189,705.14209 C288.557189,713.47209 288.045189,725.62109 281.451189,731.63109 C275.299189,737.23909 267.149189,734.31009 264.254189,727.09009 C261.993189,721.45509 264.245189,715.26609 265.584189,709.63409 L276.075318,665.534056 C277.799164,658.342396 279.682775,651.103539 283.403189,644.64309 C287.214189,638.02609 292.801189,633.22909 298.502189,628.32109 C309.297189,619.02709 319.207189,608.38709 327.588189,596.86709 C335.966189,585.35109 343.126189,572.65709 348.147189,559.30909 C350.661189,552.62709 352.721189,545.68509 354.142189,538.68709 C355.493189,532.04609 355.481189,525.16809 356.926189,518.59809 C357.025189,518.14409 357.408189,517.83309 357.847189,517.69509 C357.743189,517.40209 357.902189,517.00609 358.312189,516.98009 L390.229732,514.929165 C418.601495,513.098909 446.972007,511.221818 475.318189,509.07709 L480.327189,508.71509 L480.327189,508.71509 C479.938189,468.47009 480.268189,428.21709 480.995189,387.95709 C481.661189,351.03809 481.675189,314.10909 482.773189,277.19509 C483.319189,258.87409 484.496189,240.59609 485.806189,222.31309 C487.146189,203.61509 489.291189,185.07509 491.219189,166.43309 Z M191.527089,380.49819 C191.187089,378.44819 193.766089,377.17819 194.955089,379.05319 C208.546089,400.47519 215.099089,423.74419 217.861089,448.81319 C220.301089,470.93819 219.582089,493.38219 218.367089,515.56519 C217.071089,539.22519 215.559089,562.87919 214.030089,586.52619 L211.680964,622.789315 L211.680964,622.789315 L205.786089,713.69819 C205.364089,720.20119 203.888089,726.11419 198.289089,729.13719 C197.580089,729.72919 196.841089,730.26019 195.980089,730.72019 C192.955089,732.33719 188.943089,731.52019 187.194089,728.41619 L187.895361,728.877502 C188.506209,729.26211 187.820289,728.72499 185.837089,727.26819 L184.154089,725.09019 L184.154089,725.09019 C182.931089,723.25219 182.150089,721.44519 181.836089,719.26019 C181.348089,715.86519 181.980089,712.14119 182.202089,708.72919 L186.066089,649.11719 L186.066089,649.11719 C189.071089,602.77419 192.580089,556.44419 195.225089,510.07719 C196.457089,488.46719 197.320089,466.83619 196.736089,445.18819 C196.154089,423.66019 195.057089,401.76719 191.527089,380.49819 Z M309.101031,-18.5571401 L309.855089,-18.6837097 C336.850089,-23.1677097 366.204089,-22.3287097 390.875089,-9.31570967 C391.079089,-9.20870967 390.986089,-8.86970967 390.757089,-8.87970967 L382.816201,-9.19684108 C357.67727,-10.1812856 332.616184,-10.7639954 307.898089,-4.85770967 L305.367671,-4.24815629 C296.465987,-2.07666619 287.170132,0.581203372 280.020089,6.46029033 C273.186089,12.0802903 269.783089,20.7492903 266.511089,28.7302903 L266.07348,29.7834895 C262.753654,37.6658132 258.551685,45.1413542 251.275089,50.0702903 C241.850089,56.4532903 230.515089,55.6712903 219.708089,56.5382903 C200.680089,58.0672903 185.123089,71.8572903 177.383089,88.7322903 C172.696089,98.9502903 170.697089,110.40629 170.301089,121.58029 C170.098089,127.26929 170.069089,133.18029 170.827089,138.83129 C171.069089,140.63829 173.303089,147.22129 174.442089,147.06329 C176.973089,146.71229 179.287089,148.03229 180.076089,150.05529 C186.328089,144.01529 192.760089,138.14929 199.399089,132.49429 C215.948089,118.40129 233.773089,105.62829 252.545089,94.6522903 C266.872089,86.2742903 281.984089,77.9742903 297.633089,71.6992903 C296.393089,71.6732903 295.170089,71.9192903 293.987089,72.5342903 C293.469089,72.8052903 292.954089,72.1552903 293.363089,71.7252903 C298.292089,66.5392903 304.196089,65.8012903 310.148089,67.1842903 C311.418089,66.7802903 312.689089,66.3892903 313.965089,66.0182903 C314.600089,65.8332903 314.916089,66.7082903 314.398089,67.0462903 L312.936089,67.9802903 L312.936089,67.9802903 C319.429089,70.1552903 325.804089,74.4302903 330.851089,77.8042903 C345.349089,87.4932903 358.110089,99.3382903 371.046089,110.96129 L373.398107,113.068393 C384.784663,123.235191 396.461283,133.114806 409.398089,141.27129 C416.170089,145.54029 423.283089,149.48929 430.744089,152.42629 C437.143089,154.94729 447.562089,156.53429 450.559089,163.29729 C453.223089,166.53329 452.110089,170.66329 448.990089,172.84129 C443.728089,178.63229 433.202089,174.89129 426.932089,172.47929 C419.373089,169.57129 412.050089,166.07629 405.066089,161.97729 C391.507089,154.01729 379.005089,144.12029 367.359089,133.59229 C355.196089,122.59629 343.723089,110.91529 331.893089,99.5742903 C326.767375,94.6602903 321.759946,89.6309434 316.626465,84.7242903 L314.048089,82.2822903 C311.428089,79.8252903 307.695089,75.9952903 303.704089,73.6772903 C296.185089,78.1622903 288.550089,82.4622903 281.099089,87.0632903 C270.698089,93.4852903 260.603089,100.37029 250.664089,107.48229 C231.530089,121.17329 213.398089,136.50729 196.565089,152.94329 C165.693089,183.08529 139.391089,217.50529 116.414089,253.95129 L114.669233,256.728789 C101.612441,277.589372 89.2649826,299.122758 80.510089,322.17329 C70.877089,347.53829 66.192089,374.21129 63.647089,401.13629 C61.121089,427.86829 60.269089,454.73529 57.446089,481.44229 C54.551089,508.83329 48.847089,535.61929 42.359089,562.35529 L40.8117302,568.69392 C34.9411204,592.638391 28.8818187,616.582885 25.864089,641.09229 C24.253089,654.18429 23.284089,667.45529 23.503089,680.65329 C23.723089,693.92829 25.809089,706.90929 27.492089,720.04429 C28.137089,725.07629 23.185089,729.27629 18.754089,729.94329 C13.658089,730.70829 9.28008896,727.45729 7.69608896,722.72329 C2.75808896,707.96629 1.86108896,691.65329 2.01608896,676.16429 C2.17208896,660.43929 4.17908896,644.81729 7.00308896,629.36329 C12.557089,598.96529 21.128089,569.19629 28.298089,539.16229 C34.617089,512.69029 38.858089,486.17229 41.144089,459.05329 C43.517089,430.91729 44.938089,402.68729 49.267089,374.75429 C53.540089,347.17829 61.580089,320.83829 73.705089,295.69329 C84.745089,272.79929 98.507089,251.25029 112.935089,230.36329 C130.456089,205.00029 149.699089,180.86529 171.209089,158.87529 C169.277089,158.79129 167.293089,158.16729 165.471089,157.03129 C159.897089,153.55429 157.301089,146.75329 156.503089,140.54329 C154.635089,126.01629 155.086089,110.85029 158.822089,96.6472903 C164.849089,73.7352903 180.491089,53.3772903 203.161089,45.1182903 C208.996089,42.9922903 215.199089,42.2162903 221.383089,42.0632903 C227.251089,41.9172903 233.660089,42.6822903 239.322089,40.8222903 C248.334437,37.8598661 252.197446,27.2456914 255.581237,19.1997793 L255.737089,18.8302903 C260.076089,8.57729033 265.284089,-0.210709672 274.682089,-6.61270967 C284.708756,-13.4443555 297.271362,-16.5511901 309.101031,-18.5571401 L309.101031,-18.5571401 Z M565.598589,21.9907903 C573.710589,19.1767903 583.852589,21.7307903 591.785589,24.1887903 C600.623589,26.9287903 608.790589,31.9747903 615.792589,37.9677903 C623.179589,44.2877903 629.284589,52.0917903 633.597589,60.8097903 L634.009945,61.6496832 C637.9494,69.7366025 642.435894,80.8385191 640.449589,89.7227903 C640.392589,89.9747903 640.327589,90.2177903 640.253589,90.4527903 C656.348589,98.3757903 671.212589,108.29979 684.156589,120.87779 C699.228589,135.52279 711.990589,152.18779 722.790589,170.19179 C765.684349,241.69931 773.233827,327.579182 778.299889,409.128087 L779.563387,429.805176 C782.313969,474.454103 785.533444,518.997318 793.895589,563.02979 L794.505713,566.208719 C803.444333,612.3112 816.239791,658.766004 814.943589,706.05979 C814.554589,720.22979 793.612589,720.13379 793.005589,706.05979 C790.719589,653.08679 778.357589,601.94079 769.986589,549.79579 C755.257589,458.05479 762.637589,363.47479 741.767589,272.65279 C733.577589,237.01079 720.890589,202.43779 702.773589,170.62279 C693.824589,154.90579 683.585589,139.71879 671.591589,126.15979 C661.272589,114.49279 650.547589,103.26479 638.488589,93.4567903 C634.634589,97.3167903 626.935589,95.3497903 624.923589,89.7227903 C623.541589,85.8557903 623.944589,81.3347903 623.057589,77.2837903 C622.234589,73.5247903 621.099589,69.7977903 619.587589,66.2577903 C616.573589,59.2027903 612.149589,52.4277903 607.042589,46.7177903 C601.525589,40.5457903 595.184589,35.4177903 588.089589,31.1837903 C580.945589,26.9207903 573.132589,25.6477903 565.598589,22.5327903 C565.344589,22.4277903 565.320589,22.0877903 565.598589,21.9907903 Z M597.114889,512.28569 C597.126889,511.91369 597.565889,511.73769 597.835889,511.98669 C600.679889,514.60369 602.398889,518.35969 604.491889,521.57869 C606.905889,525.29069 609.440889,528.92669 612.098889,532.46869 C617.424889,539.56469 623.353889,546.25269 629.329889,552.80569 C634.887889,558.89969 640.811889,564.73669 646.956889,570.23869 C653.614889,576.20169 661.075889,581.52069 667.124889,588.12269 C679.74668,601.89876 681.786273,620.806185 684.449169,638.559457 L684.740889,640.47969 C686.364889,651.01569 687.819889,661.57969 689.131889,672.15869 C689.769889,677.30469 690.405889,682.45569 690.925889,687.61469 L691.084712,689.24919 C691.548285,694.299869 691.673328,699.423763 688.772889,703.83669 C685.667889,708.55769 678.608889,710.21269 674.411889,705.68569 C667.200889,697.90869 668.552889,684.09469 667.614889,674.08969 C666.840032,665.816547 665.960848,657.55369 664.976708,649.303008 L664.475889,645.17869 C663.315889,635.79269 662.373889,626.21969 660.226889,616.99669 C658.333889,608.87469 654.726889,602.74469 648.808889,596.86069 C642.846889,590.93369 636.651889,585.40069 631.148889,579.01769 C625.311889,572.24769 620.046889,564.98869 615.302889,557.41269 C611.24531,550.93269 607.992795,543.880978 605.013074,536.837439 L604.518889,535.66369 C601.638889,528.79469 596.889889,519.85269 597.114889,512.28569 Z M701.227189,217.24119 C701.290189,216.28319 702.706189,216.26819 702.727189,217.24119 C702.906189,225.48119 703.078189,233.72119 703.249189,241.96219 C704.625189,308.36419 703.777189,374.92319 710.439189,441.09719 C713.581189,472.29819 719.367189,503.04019 726.062189,533.65419 C729.488189,549.31919 733.082189,564.94719 736.497189,580.61419 C739.825189,595.88319 743.394189,611.22619 746.034189,626.63719 C748.628397,641.783649 750.951677,657.046744 751.994512,672.387751 L752.123189,674.38919 C752.572189,681.82019 754.715189,692.75019 750.623189,699.33719 C746.189189,706.47319 737.700189,706.60119 732.949189,699.78919 C728.488189,693.39419 729.597189,682.01819 728.809189,674.38919 C728.008189,666.61619 727.161189,658.83719 726.199189,651.08219 C724.322189,635.95519 721.849189,620.86219 719.277189,605.83819 C713.920189,574.55019 706.150189,543.65619 700.415189,512.41819 C694.537189,480.40919 690.359189,448.17119 690.183189,415.58119 C690.008189,382.71419 693.487189,349.91119 695.243189,317.11619 C697.027189,283.80819 699.055189,250.52519 701.227189,217.24119 Z M387.546889,10.7074903 C389.329889,4.70449033 395.621889,0.951490328 401.759889,2.63749033 C407.384889,4.18349033 412.028889,11.0104903 409.829889,16.8514903 C407.429889,23.2254903 403.235889,28.6604903 399.699889,34.4534903 C396.433889,39.8064903 391.669889,44.0214903 388.342889,49.2794903 L392.009113,53.2320023 C393.843409,55.2036503 395.682889,57.1634903 397.542889,59.0894903 L403.937389,65.7133103 C408.917609,70.8609703 413.929189,75.9811903 419.081889,80.9504903 C434.233889,95.5654903 449.625889,109.70049 466.594889,122.21649 C470.457889,125.06449 474.350889,127.89649 478.352889,130.54849 L479.845142,131.537364 C482.590768,133.335008 485.654108,135.102084 488.970889,134.79749 C497.030492,134.057473 504.312615,125.498222 509.85101,120.170835 L510.140889,119.89349 C523.865889,106.83449 536.574889,92.5564903 547.685889,77.2044903 C550.152889,73.7934903 552.541889,70.3244903 554.867889,66.8144903 C549.495889,60.5394903 550.778889,48.2904903 550.482889,40.6804903 C550.273889,35.3294903 550.257889,29.9774903 550.228889,24.6224903 L550.214259,23.542654 C550.14882,20.076669 549.992576,16.7524591 552.241889,13.9004903 C552.372889,13.7354903 552.643889,13.7404903 552.810889,13.8274903 C555.891656,15.4418237 556.840955,18.1447848 558.155497,21.1767015 L558.292889,21.4914903 C559.892889,25.1304903 561.424889,28.8034903 562.974889,32.4634903 C564.597889,36.2954903 566.085889,40.1834903 567.593889,44.0614903 C568.295889,45.8654903 568.965889,47.6764903 569.620889,49.4974903 C570.019889,50.6604903 570.432889,51.8174903 570.856889,52.9724903 L570.956889,53.0614903 C571.516889,53.5364903 571.991889,54.0384903 572.400889,54.5564903 C574.119889,55.4164903 575.485889,56.9834903 576.126889,59.2854903 C577.521889,64.2964903 574.634889,68.3824903 572.059889,72.3594903 C561.599889,88.5194903 549.675889,103.91849 536.421889,117.88749 C529.837889,124.82749 522.912889,131.45549 515.702889,137.74249 L514.442459,138.834193 C507.965578,144.400073 500.933767,149.672409 492.283889,150.97449 C482.161308,152.497716 473.923015,147.463398 466.174191,141.664694 L465.400889,141.08249 C458.054889,135.52149 450.856889,129.76549 443.882889,123.74449 C429.663889,111.46849 416.136889,98.2874903 404.131889,83.8264903 C392.453889,69.7604903 380.910889,54.0324903 373.712889,37.1074903 C373.273889,36.0764903 374.427889,34.9974903 375.331889,35.8584903 C378.847889,39.2054903 382.230889,42.7344903 385.573889,46.3084903 C385.666889,41.0474903 384.695889,35.7414903 385.235889,30.4474903 C385.894889,24.0124903 385.704889,16.9034903 387.546889,10.7074903 Z" id="Ink" fill="#000000"/></g></g><g id="Head" transform="translate(372.000000, 180.000000) scale(0.9978902953586498 1)"><g id="Head/Long" stroke="none" stroke-width="1" fill="none" fill-rule="evenodd"><path d="M431.9006,270.053 C428.1106,207.851 407.9266,137.33 348.5226,106.79 C217.5636,54.232 45.3796,186.588 36.2636,321.8 C33.0856,368.084 58.7836,418.659 105.7446,431.527 C116.1856,445.36 131.9756,453.808 147.5606,461.14 C333.1876,557.447 453.0946,479.16 431.9006,270.053 L431.9006,270.053 Z" id="Skin" fill="#ffffff"/><path d="M474.1891,231.3601 C467.6291,213.1401 460.6991,195.0601 453.4091,177.1201 C446.3091,159.6601 439.896026,141.822713 431.0791,125.1901 C378.4191,25.8501 282.6591,25.8501 233.1591,38.8301 C207.4891,27.7701 159.408421,30.8898441 132.6791,40.8701 C89.4071,57.0271 36.6581,120.5851 18.6231,149.1411 C-21.1959,212.1901 -46.0459,296.1071 -19.5959,368.9631 C-16.1389,378.4851 -11.7299,387.3041 -6.7659,395.8031 C-9.8929,400.0411 -13.4919,404.0551 -17.4789,407.9991 C-29.3269,419.7211 -41.1749,431.0571 -51.4099,444.2781 C-61.5809,457.4171 -70.0129,471.3891 -76.2899,486.7941 C-88.1259,515.8461 -88.6959,548.7421 -73.0479,576.4631 C-59.4339,600.5831 -35.3169,618.5441 -8.1459,620.2571 C-6.7509,620.4511 -5.3539,620.6291 -3.9509,620.7701 C-0.3509,626.7001 4.0391,632.1601 9.0491,636.9201 C24.3991,651.5201 60.9891,659.0101 81.8591,659.4901 C82.9291,660.3501 84.0091,661.2101 85.0891,662.0601 C97.8591,672.1101 111.2591,682.2501 125.9191,689.4001 C135.8491,694.2501 148.8691,698.3001 159.2291,694.8001 C163.9291,697.9401 171.6391,697.2801 176.2991,694.7101 C183.9591,690.4901 190.1891,682.8901 193.9791,675.1101 C203.1691,656.2201 200.9591,635.5501 198.5991,615.3701 C195.9991,593.0801 193.4991,570.7801 190.9591,548.4901 C188.9691,531.0601 186.8891,513.3401 181.5891,496.5501 C178.8491,487.8501 175.2591,479.4901 170.6191,471.6301 C170.7391,470.9701 170.7191,470.3101 170.5291,469.6901 C169.0091,464.7501 165.8691,462.1601 162.1491,458.8001 C161.6691,458.3701 161.1891,457.9301 160.7191,457.4801 C158.8591,455.3601 156.8691,453.3901 154.7391,451.7201 C153.9191,450.8901 153.1091,450.0501 152.2991,449.2101 C145.5691,442.1601 139.2091,434.7501 133.5591,426.8101 C128.0791,419.1101 123.1291,411.0701 118.4191,402.8801 C113.6291,394.5501 110.4591,385.3601 105.6791,377.0901 C105.2691,376.3801 104.2291,376.2401 103.6491,376.8301 C102.1691,378.3601 101.2191,380.0601 101.3991,381.8501 L100.6591,381.9601 C100.3791,379.2601 97.8891,377.0601 94.5091,377.6501 C89.4491,378.5301 85.2891,378.8601 80.9091,377.1801 C81.6791,372.0701 82.3891,366.9501 83.0891,361.8201 C84.3691,352.3801 85.5591,342.9101 86.5791,333.4401 C89.0491,334.0301 91.4991,334.8801 93.8991,335.9601 C97.3191,337.4901 100.5491,339.5501 103.3091,342.0801 C106.0291,344.5801 107.9091,347.9501 111.2291,349.6901 C115.0491,351.6801 119.6591,348.3901 118.5391,344.0701 C116.2691,335.3401 103.4191,330.3401 95.4691,328.6901 C92.7391,328.1201 89.9491,327.8801 87.1591,327.9401 C87.7891,321.8601 88.3491,315.7801 88.8091,309.6901 C89.0291,306.8101 89.2291,303.9301 89.4191,301.0401 C95.5991,299.1701 102.2191,298.6101 108.6491,299.4901 C110.7691,301.1801 112.8891,302.8501 114.9391,304.5401 C121.4491,309.9201 127.9291,315.3301 134.3291,320.8401 C134.9091,321.3301 135.4791,321.8201 136.0591,322.3201 C139.8591,325.5901 144.5991,322.3501 143.9591,317.7201 C138.7391,279.7801 161.9791,249.6001 189.1891,226.2201 C219.3091,200.3301 274.0691,197.315396 309.8891,152.4701 C326.3862,155.827691 363.2191,165.8001 378.4191,190.0201 C399.6991,223.9601 396.9191,254.3701 398.5391,292.8701 C400.1591,331.4001 404.2791,371.5901 395.5291,409.5801 C387.4591,444.6101 365.6091,474.5401 331.7091,488.3001 C330.8691,488.6401 330.0191,488.9701 329.1691,489.2901 C311.6391,495.9001 292.5091,497.7701 274.0691,494.2901 C253.6591,490.4301 236.6191,481.0901 219.6391,469.6001 C218.6591,468.9501 217.2291,470.2901 217.9691,471.2701 C240.3491,500.9301 284.3091,510.8401 319.1791,503.0101 C320.8091,502.6401 322.4291,502.2401 324.0391,501.8001 C316.2391,524.2301 317.8091,548.8501 327.9691,570.6901 C334.0791,583.8301 343.3991,595.2001 354.7491,604.1701 C367.2591,614.0501 382.7791,622.0301 391.4591,635.9001 C399.4091,648.6101 397.0491,662.8901 383.4391,670.2301 C380.0091,672.0901 378.6891,678.1001 382.0891,680.7401 C383.3891,681.7401 384.6891,682.7601 386.0191,683.7601 C393.6391,689.5101 414.5691,700.3101 417.9591,700.7101 C448.0591,704.2801 468.2991,682.1801 481.2691,656.1101 C496.4991,625.5101 492.5391,588.2201 475.7591,559.0801 C462.2991,535.7001 435.7891,512.6601 446.3291,483.0701 C450.0891,472.5001 457.7791,463.4901 465.2491,455.3501 C473.7691,446.0801 482.9291,437.4001 491.0991,427.8001 C499.2191,418.2701 506.4191,407.9001 510.4391,395.9401 C516.3091,378.4601 513.3891,359.5601 508.9791,342.1101 C499.5291,304.6501 487.2591,267.6901 474.1891,231.3601 Z" id="Ink" fill="#000000"/></g></g><g id="Face" transform="translate(531.000000, 366.000000) scale(1 1)" fill="#000000"><g id="Face/Smile" stroke="none" stroke-width="1" fill="none" fill-rule="evenodd"><path d="M146.586567,240.926554 C139.864291,238.184203 133.866322,233.609781 129.481228,227.766254 C127.956691,225.734803 127.561405,223.589624 127.881219,221.627583 C128.240828,219.421406 129.546036,217.4219 131.326046,216.080693 C133.111571,214.735331 135.345035,214.071832 137.504329,214.410065 C139.380629,214.703969 141.248396,215.731287 142.726594,217.861908 L143.035427,218.287981 C145.642441,221.814933 149.039621,224.708755 152.91047,226.573991 C156.641339,228.371775 160.813939,229.21087 165.131898,228.722919 C173.355732,227.793938 179.024012,223.346401 185.048774,217.30672 C185.795561,216.544195 186.542826,215.757766 187.293714,214.958678 C187.767915,214.234308 188.425986,213.768756 189.156624,213.524488 C189.967867,213.253272 190.885573,213.268617 191.726122,213.56195 C192.536835,213.844871 193.261572,214.380994 193.747527,215.094538 C194.209389,215.772704 194.47125,216.610486 194.386283,217.574143 C193.834826,223.833283 190.562474,229.419299 185.914235,233.805502 C180.751772,238.67694 173.908551,242.047034 167.465957,243.229031 C160.36811,244.531047 153.135593,243.598228 146.586567,240.926554 L146.586567,240.926554 Z M170.814304,144.367155 C178.365682,148.9572 189.871664,159.660291 181.748119,171.039573 C172.185929,181.073062 158.418535,169.568982 151.634201,164.366134 C145.343449,160.333898 138.275437,170.704507 144.112,175.412823 C193.135736,211.708059 213.030606,145.567387 174.633685,138.970386 C170.406047,138.243425 168.835891,142.947174 170.814304,144.367155 Z M82.9633,102.1464 C83.7976284,91.7901242 99.5703,89.4384 101.1393,99.6864 C102.5443,108.8664 100.8903,117.2994 96.7553,125.5644 C92.8043,133.4604 82.8737826,129.776544 82.1227826,122.586544 C81.1160984,112.948648 82.4443,108.588596 82.9633,102.1464 Z M203.027,97.5615 C205.226,94.6815 208.401,92.7155 212.205,93.8265 C224.09,97.2995 220.587,114.1725 216.413,122.3855 C214.145,126.8455 206.814,127.9765 203.501,124.0495 C198.101,117.6455 195.515,104.8565 202.38,98.5485 C202.566,98.2225 202.773,97.8935 203.027,97.5615 Z M96.5879,56.8305 L98.465271,56.501905 C104.27307,55.49746 111.4944,54.5323 115.6029,59.2015 C117.7819,61.6775 118.5319,66.2795 115.6029,68.6495 C110.4509,72.8195 104.7549,71.2035 98.5809,71.5565 C93.4929,71.8485 88.6029,72.6905 83.7019,74.0915 C72.9499,77.1645 64.1889,82.7745 55.0059,88.9345 C53.8009,89.7425 52.5709,88.2015 53.1459,87.0745 C58.4469,76.6915 68.7199,68.1625 79.0099,62.9635 C84.5019,60.1885 90.5119,57.8865 96.5879,56.8305 Z M192.192876,52.1793876 L193.629806,52.4734684 C209.267042,55.742077 229.583473,62.2713911 236.988459,77.6308459 C237.270623,79.8027272 236.97249,80.2682047 236.730054,80.5723213 L236.649336,80.6735209 C236.449568,80.9332186 236.290169,81.2912104 235.348782,81.5868073 C235.087547,81.5245653 234.823712,81.4586426 234.557082,81.3887687 C231.162766,80.499243 228.477205,79.2737961 225.877298,78.0022488 L223.058339,76.6134493 C219.787784,75.0098309 216.488352,73.4645766 212.991711,72.3238115 C205.52958,69.8898666 197.854137,68.1753043 190.059777,67.259767 C188.37041,67.0615005 186.743655,66.4913394 185.460262,65.5141761 C184.242065,64.5866523 183.311441,63.3024737 182.887128,61.5955207 C182.33722,59.3864508 182.495251,57.7140037 183.680513,55.7210991 C184.571756,54.2244705 185.846982,53.1871113 187.311265,52.5914244 C188.804038,51.9841473 190.503545,51.840982 192.192876,52.1793876 Z" id="Ink" fill="#000000"/></g></g><g id="Beard" transform="translate(494.999934, 517.999659) scale(1 1)" fill="#000000"><g id="Beard/None" stroke="none" stroke-width="1" fill="none" fill-rule="evenodd" fill-opacity="0"/></g><g id="Mask" transform="translate(400.000000, 480.000000) scale(1 1)" fill="#000000"><g id="Mask/None" stroke="none" stroke-width="1" fill="none" fill-rule="evenodd" fill-opacity="0"/></g><g id="Accessories" transform="translate(419.000000, 421.000000) scale(1 1)" fill="#000000"><g id="Accessories/None" stroke="none" stroke-width="1" fill="none" fill-rule="evenodd" fill-opacity="0"/></g></g></svg>