<svg width="2804" height="2357" viewBox="0 0 2804 2357" fill="none" xmlns="http://www.w3.org/2000/svg">
<path fill-rule="evenodd" clip-rule="evenodd" d="M1981.84 1327.32C1979.6 1350.68 1984.18 1372.99 1995.08 1391.84L1998.63 1397.98L1991.88 1400.34C1979.59 1404.64 1965.92 1406.73 1950.09 1406.73C1933.81 1406.73 1916.87 1404.46 1903.26 1402.64L1894.55 1401.47L1898.83 1393.9C1902.27 1387.82 1902.91 1380.45 1903.58 1372.65C1903.76 1370.55 1903.95 1368.38 1904.2 1366.24C1917.09 1250.98 1933.39 1134.21 1949.16 1021.29C1953.3 991.579 1957.59 960.853 1961.75 930.629L1973.69 931.089C1976.9 987.033 1980.02 1043.92 1983.03 1098.94C1984.36 1123.13 1985.68 1147.32 1987.02 1171.51C1991.78 1232.67 1990.14 1282.19 1981.84 1327.32ZM1976.97 2018.49C1994.5 2018.49 2012.06 2016.66 2029.17 2013.06C2082.7 2001.83 2131.33 1975.32 2172.72 1951.35C2174.83 1950.15 2176.98 1948.95 2179.18 1947.72C2195.38 1938.65 2215.54 1927.38 2228.18 1913.62C2242.04 1898.52 2244.43 1883.48 2235.68 1866.28L2234.3 1863.56L2235.75 1860.87C2244.8 1844.03 2244.12 1823.18 2234.11 1810.19L2225.69 1799.27L2239.53 1800.74C2253.48 1802.22 2267.55 1804.22 2281.15 1806.16C2296.23 1808.32 2311.84 1810.54 2327.21 1812.03L2331.48 1812.45L2332.46 1816.56C2333.01 1818.85 2333.68 1820.24 2338.42 1820.24C2342.53 1820.24 2348.06 1819.04 2353.91 1817.77C2361.16 1816.18 2369.39 1814.39 2377.32 1814.39C2380.81 1814.39 2383.95 1814.72 2386.92 1815.41L2388.64 1815.81L2389.87 1817.07C2390.66 1817.87 2392 1818.37 2393.36 1818.37C2394.4 1818.37 2395.36 1818.08 2396 1817.58L2397.94 1816.07L2400.39 1816.34C2443.24 1821.04 2480.18 1829.3 2513.33 1841.57L2513.48 1841.63L2514.2 1841.94C2526.19 1847.11 2538.58 1852.46 2549.87 1852.46C2558.12 1852.46 2564.82 1849.66 2570.95 1843.63L2572.69 1841.93L2575.13 1841.9C2599.95 1841.67 2611.29 1812.73 2612.86 1793.34L2613.06 1790.9L2614.95 1789.31C2658.2 1753.01 2683.73 1703.16 2693.01 1636.91C2701.46 1576.56 2694.97 1512.93 2687.51 1458.65C2670.25 1317.97 2652.25 1191.86 2606.5 1072.25L2604.36 1066.66L2610.05 1064.62C2629.82 1057.51 2644.92 1049.04 2656.23 1038.71L2657.01 1037.99L2658 1037.59C2674.21 1030.93 2682.15 1006.35 2684.19 998.976L2684.36 998.381L2684.64 997.833C2687.95 991.49 2688.71 982.665 2686.73 973.622L2686.52 972.648L2686.65 971.658C2687.71 963.072 2684.17 954.095 2680.42 944.591C2678.7 940.249 2676.93 935.762 2675.63 931.292C2671.18 918.518 2666.73 905.518 2662.43 892.944C2652.78 864.734 2642.8 835.563 2632.17 807.187L2630.72 803.306L2633.92 800.631C2639.39 796.064 2637.56 790.687 2629.68 777.833C2627.81 774.796 2626.05 771.923 2624.71 769.093C2614.6 751.628 2603.77 734.863 2592.51 719.258L2592.28 718.937L2592.09 718.591C2534.3 610.662 2431.8 551.224 2303.46 551.224L2300.84 551.229L2299.39 550.359C2275.34 535.894 2258.17 511.075 2246.9 474.485L2246.54 473.318L2246.68 472.107C2247.07 468.734 2247.49 464.313 2247.34 460.022C2246.98 449.156 2242.72 439.46 2235.66 433.419C2222.27 421.957 2201.94 420.997 2182.26 420.997L2179.44 421.002C2154.28 421.074 2136.53 425.442 2123.55 434.749C2108.47 445.562 2100.14 463.018 2098.08 488.113C2097.46 495.622 2097.48 503.401 2097.5 510.924L2097.5 513.024L2097.25 513.857C2095.44 519.822 2093.33 525.553 2090.96 530.892L2088.52 536.386L2082.98 533.909C2079.4 532.308 2074.86 531.485 2069.09 531.392C2067.43 531.354 2065.81 531.336 2064.17 531.336C2050.79 531.336 2036.48 532.557 2022.63 533.739C2012.2 534.629 2001.41 535.55 1990.97 535.959L1990.82 535.965C1990.82 535.965 1989.38 535.956 1988.74 535.956C1963.36 535.956 1944.96 539.947 1930.84 548.518C1915.63 557.744 1904.7 572.553 1896.43 595.12C1852.09 724.48 1833.86 863.818 1817.78 986.748C1808.66 1051.03 1805.89 1116.94 1803.2 1180.67C1800.37 1247.94 1797.44 1317.5 1787.07 1385.5L1786.25 1390.88L1780.75 1390.52C1756.52 1388.96 1730.33 1385.59 1702.61 1382.02C1660.49 1376.61 1616.94 1371 1574.83 1371C1515.96 1371 1471.33 1382.59 1438.39 1406.41C1415.44 1428.05 1403.56 1457.34 1404.05 1491.14C1404.74 1538.9 1430 1591.71 1468.41 1625.67L1468.55 1625.8C1517.1 1671.66 1605.72 1711.44 1731.94 1744.03C1848.01 1774 1968.07 1790.28 2029.31 1797.32L2044.46 1799.07L2032.16 1807.96C2027.18 1811.56 2022.64 1814.73 2018.27 1817.65L2015.45 1819.54L2012.37 1818.12C2003.57 1814.09 1997.98 1813.24 1994.84 1813.24C1992.05 1813.24 1988.69 1813.84 1988.5 1816.73C1988.38 1818.62 1989.73 1821.42 1992.56 1821.77L2007.63 1823.65L1995.33 1832.43C1987.11 1838.29 1974.85 1845.35 1960.66 1853.53C1914.22 1880.28 1844.04 1920.72 1856.11 1956.23L1856.9 1958.56L1855.78 1960.76C1852.54 1967.12 1852.26 1973.02 1854.94 1978.8C1860.67 1991.2 1878.59 2000.6 1893.81 2004.43L1894.07 2004.49L1894.33 2004.58C1920.82 2013.81 1948.62 2018.49 1976.97 2018.49Z" fill="#F7CFC3"/>
<path fill-rule="evenodd" clip-rule="evenodd" d="M2096.54 1751.82C2096.07 1751.09 2095.65 1750.07 2095.43 1749.16C2092.21 1753.73 2040.82 1798.77 1990 1837C1942.8 1872.51 1888.65 1899.33 1867.64 1928.93C1859.65 1940.18 1855.59 1973.15 1857.12 1978.69C1860.56 1983.05 1898.35 2002.6 1898.35 2002.6C1906.88 2004.91 1975.41 2023.49 2005.86 2017.17C2017.05 2015.46 2097.8 1989.62 2108 1985L2194.77 1934.65C2196.67 1933.82 2198.55 1932.99 2200.43 1932.17L2202.96 1931.16C2222.31 1923.41 2247 1907 2241.95 1883.34C2236 1859 2246.67 1853.68 2244.22 1837.64C2242.11 1823.76 2237.5 1809.63 2230.12 1796.16C2201.64 1828.19 2165.49 1825.39 2147.28 1785.58L2146.87 1784.77L2146.46 1783.95C2140.5 1772.07 2134.87 1756.98 2120.77 1752.31C2112.99 1747.05 2103.04 1745.96 2096.54 1751.82ZM2356.8 1662.48L2355.04 1666.53C2346.47 1686.13 2328.28 1726.85 2321.05 1742.92C2322.66 1739.95 2324.5 1737.09 2326.57 1734.39C2332.62 1726.51 2325.53 1750.33 2325.47 1775.2C2325.42 1798.27 2332.54 1822.24 2334.19 1822.63C2336.2 1823.13 2364.38 1809.27 2390.8 1813.48C2412.13 1816.87 2444.46 1820.7 2476.59 1829.47C2502.7 1836.6 2528.67 1848.69 2548.48 1852.8C2564.57 1856.14 2567.72 1838.7 2578.23 1839.78C2587.7 1840.75 2589.23 1840.52 2591.57 1838.56C2604.72 1827.69 2617.15 1784.71 2615.91 1768.57C2605 1683 2436.53 1655.42 2356.8 1662.48Z" fill="white"/>
<path fill-rule="evenodd" clip-rule="evenodd" d="M2074.45 526L2054.31 526.711L2052.53 526.783C2045.82 527.072 2038.84 527.561 2029.01 528.378L2026.33 528.602L2006.93 531.69C2001.01 532.626 1995.45 533.498 1990.09 534.334L1979.55 535.97L1967.06 537.884L1965.68 538.102C1946.97 541.124 1934.16 545.673 1923.57 554.894L1923.11 555.304L1922.9 555.485L1922.71 555.68C1906.54 572.315 1894.34 598.47 1884.4 634.172L1883.75 636.519L1883.17 638.673C1876.92 661.858 1851.32 799.821 1851.32 799.821L1860.1 800.485C1861.17 800.566 1862.24 800.661 1863.29 800.772C1894.84 804.075 1931.81 822.196 1956.05 845.564C1957.5 846.964 1958.95 848.429 1960.4 849.954L1961.27 850.876L1969.08 859.229C1969.08 859.229 1996.08 1274.17 1992.01 1303.75L1991.8 1305.28L1991.55 1306.39C1981.69 1351.71 1986.13 1386.27 2005.43 1408.24L2006.01 1408.9L2006.63 1409.57C2027.05 1431.59 2061.75 1438.88 2109.4 1431.39C2110.06 1431.29 2110.71 1431.18 2111.34 1431.08L2119.24 1429.75L2118.36 1421.35L2118.22 1419.96C2111.97 1358.33 2113.1 1304.4 2123.61 1256.66C2135.77 1201.45 2160.21 1156.57 2199.06 1122.98L2200.24 1121.96L2200.41 1121.82L2203.38 1125.84L2211.43 1118.99C2288.26 1053.71 2479.52 904.929 2479.52 904.929L2448.85 860.945L2448.91 860.892C2449.21 860.594 2449.63 860.234 2450.18 859.811L2450.68 859.432L2450.92 859.252C2453.79 857.164 2576.12 802.349 2612.5 796.265L2614.26 795.974L2616.02 795.692L2617.44 795.469L2619.67 795.128L2629 793.722L2625.53 784.95C2625.06 783.775 2624.59 782.595 2624.12 781.408C2616.14 761.552 2608.17 757.984 2599.53 741.62L2598.82 740.273L2597.4 737.407C2578.18 699.004 2551.43 643.292 2494 606C2417 556 2327.95 548.492 2327.44 548.771C2327.44 548.771 2314.45 595.804 2287 629C2269.16 650.575 2235.39 669.217 2222.4 673.641L2221.4 673.979L2220.37 674.317C2185.76 685.619 2147.99 685.581 2116.26 673.871L2115.48 673.579L2114.99 673.366C2096.5 665.122 2083.34 650.682 2074.91 630.78L2074.61 630.084L2074.33 629.383C2064.85 606.15 2062 576.64 2064.69 545.012L2064.79 543.908L2064.93 542.328L2064.94 542.233L2074.45 526ZM2609.11 1064.44L2606.21 1065.38L2604.22 1066C2594.03 1069.21 2580.43 1074.94 2563.27 1079.63L2545.19 1084.57C2540.26 1085.92 2536.45 1086.99 2532.71 1088.05L2527.11 1089.66L2524.63 1090.39L2514.98 1093.29L2519.99 1101.57L2521.99 1104.88C2577.45 1197.13 2623.55 1296.04 2659.71 1399.83C2662.47 1407.75 2665.18 1415.73 2667.84 1423.75L2669.43 1428.57L2684 1425.3C2682.71 1414.92 2681.38 1404.82 2680.03 1394.94L2679.38 1390.26C2677.3 1375.4 2675.01 1360.08 2672.48 1344.03L2671.68 1338.99L2671.19 1335.4L2670.86 1333.07C2665.61 1295.91 2659.27 1263.94 2645.34 1200.69L2638.71 1170.62C2630.98 1135.4 2609.11 1064.44 2609.11 1064.44Z" fill="#FFCF77"/>
<path fill-rule="evenodd" clip-rule="evenodd" d="M1889.02 1399.97C1885.91 1383.01 1891.81 1365.49 1892.83 1348.41C1908.27 1226.58 1925.32 1104.83 1947.91 984.068C1953.45 955.167 1959.05 926.384 1965.47 897.641C1964.5 880.235 1963.65 862.83 1963.09 845.414C1931.74 825.704 1896.39 812.947 1859.83 806.515C1849.95 861.559 1840.08 916.564 1833.23 972.1C1811.88 1109.56 1824.06 1249.44 1803.35 1386.74C1832.08 1389.96 1860.59 1394.73 1889.02 1399.97ZM1833.87 1507.06C1855.48 1512.81 1877.1 1518.3 1898.88 1523.37C1937.63 1532.4 1976.38 1541.45 2015.03 1550.88C2034.33 1555.58 2053.66 1560.15 2072.92 1565C2082.06 1567.31 2091.13 1569.87 2100.07 1572.84C2104.54 1574.32 2108.9 1576.02 2113.26 1577.77C2117.08 1579.29 2120.68 1581.4 2124.88 1581.1C2125.13 1581.08 2125.29 1580.84 2125.16 1580.61C2122.97 1576.58 2118.44 1574.66 2114.44 1572.62C2110.04 1570.37 2105.44 1568.43 2100.85 1566.59C2090.64 1562.49 2080.01 1559.48 2069.4 1556.56C2030.86 1545.95 1991.98 1536.45 1953.15 1526.94C1914.13 1517.39 1875.11 1508.24 1835.57 1501.01C1831.58 1500.28 1829.86 1506 1833.87 1507.06ZM2025.26 1833.68C2023.53 1833.22 2021.79 1832.8 2020.06 1832.39C1992.34 1855.47 1861.79 1915.4 1871.72 1951.2C1875.23 1955.65 1883.63 1956.66 1888.94 1958.1C1898.19 1960.6 1907.53 1962.77 1916.96 1964.49C1947.44 1970.03 1979.01 1971 2009.45 1964.67C2020.65 1962.97 2030.76 1958.19 2040.96 1953.57C2073.92 1939.07 2110.22 1923.05 2143.02 1908.67C2184.69 1892.15 2257.78 1859.6 2227.72 1804.66C2199.24 1836.7 2163.09 1833.9 2144.88 1794.08C2138.6 1782 2133.12 1765.71 2118.37 1760.82C2110.59 1755.56 2100.64 1754.47 2094.14 1760.33C2093.67 1759.6 2093.25 1758.57 2093.02 1757.67C2085.69 1768.1 2079.37 1779.08 2070.78 1788.62C2073.73 1788.77 2104.43 1811.5 2095.37 1811.51C2084.47 1805.89 2073.64 1801.22 2061.87 1798.19C2053.34 1806.77 2043.96 1814.75 2034.24 1822.13C2043.68 1828.36 2052.16 1836 2058.98 1844.28C2059.57 1845.01 2058.85 1845.96 2057.97 1845.56C2047.38 1840.84 2036.49 1836.7 2025.26 1833.68ZM1884.74 1988.47C1990.77 2036.1 2103.02 1983.06 2193.44 1926.52C2214.31 1914.87 2241.76 1898.35 2237.54 1870.92C2222.17 1893.41 2196.83 1906.21 2172.51 1917.31C2131.65 1935.78 2090.52 1953.66 2049.56 1971.9C2045.69 1984.74 2027.19 1985.23 2016.01 1988.08C1966.24 1997.73 1912.74 1992.93 1865.9 1973.69C1868.61 1981.71 1877.48 1985.4 1884.74 1988.47ZM2307.78 1803.02C2310.4 1803.35 2313.02 1803.66 2315.64 1803.95C2315.37 1800.49 2317.46 1797.02 2320.82 1795.95C2319.31 1788.6 2318.75 1781 2319.56 1773.55C2315.18 1784.86 2301.04 1781.43 2292.06 1778.16C2279.23 1774.68 2266.48 1770.93 2253.8 1766.93C2248.8 1776.22 2243.5 1785.37 2236.99 1793.78C2260.69 1795.89 2284.17 1800.07 2307.78 1803.02ZM2318.21 1767.42C2318.84 1768.75 2319.74 1770.16 2319.76 1771.75C2320.4 1766.25 2321.65 1760.81 2323.55 1755.6C2321.77 1759.54 2319.99 1763.48 2318.21 1767.42ZM2333.17 1737.9C2344.83 1722.7 2366.38 1710.28 2386.3 1714.51C2387.58 1714.79 2387.61 1716.85 2386.3 1717.1C2359.54 1720.74 2336.04 1741.96 2335.11 1769.41C2333 1781.83 2341.64 1794.03 2338.73 1805.94C2339.31 1805.98 2339.89 1806.01 2340.46 1806.05C2340.67 1806.85 2340.86 1807.56 2341.11 1808.18C2338.22 1808.66 2337.37 1813.31 2340.78 1814.14C2342.8 1814.63 2344.91 1814.89 2347.06 1815C2357.97 1812.05 2369.48 1811.37 2379.91 1807.02C2390.23 1802.46 2387.65 1789.64 2391.29 1780.77C2393.96 1770.53 2397.03 1760.34 2400.9 1750.52C2401.18 1749.73 2402.25 1749.91 2402.34 1750.7C2405.07 1770.3 2404.98 1790.22 2404.32 1809.97C2407.9 1810.34 2411.46 1810.74 2415.03 1811.18C2414.8 1805.67 2431.35 1738.46 2440.07 1755.71C2435.68 1774.67 2435.15 1794.48 2434.68 1813.99C2460.57 1818.26 2486.08 1824.61 2510.9 1833.26C2528.39 1838.56 2549.19 1854.24 2566.17 1840.06C2579.32 1829.19 2583.75 1810.22 2582.51 1794.07C2565.41 1698.56 2430.35 1687.39 2350.62 1694.46C2343.09 1711.83 2335.42 1729.15 2327.65 1746.43C2329.26 1743.45 2331.1 1740.6 2333.17 1737.9ZM2605.1 1792.21C2606.56 1770.52 2602.91 1743.52 2586.84 1727.36C2550.06 1696.26 2498.56 1686.48 2452.6 1675.22C2431.19 1670.99 2409.49 1668.19 2387.7 1666.79C2379.97 1666.18 2370.15 1667.93 2364.69 1661.61C2361.88 1668.27 2359.03 1674.91 2356.18 1681.56C2447.68 1669.58 2638.58 1711.22 2585.12 1836.57C2596.44 1824.3 2603.94 1809.37 2605.1 1792.21ZM2668.98 1390.71C2666.42 1372.09 2663.62 1353.5 2660.66 1334.93C2648.56 1246.12 2623.55 1159.68 2608.64 1071.47C2582.83 1079.86 2556.4 1086.26 2530.34 1093.81C2586.81 1187.72 2633 1287.45 2668.98 1390.71ZM2456.93 1303.32C2461.9 1279.72 2467.47 1255.67 2470 1231.68C2470.11 1230.6 2468.45 1230.48 2468.16 1231.43C2464.01 1244.72 2461.18 1258.49 2457.68 1271.96C2454.17 1285.48 2450.91 1299.06 2447.45 1312.59C2446.35 1316.91 2445.24 1321.23 2444.13 1325.55C2443.47 1325.58 2442.81 1325.6 2442.15 1325.62C2439.62 1325.67 2438.86 1328.85 2440.89 1330.18C2441.49 1330.56 2442.09 1330.9 2442.68 1331.2C2432.1 1372.38 2421.25 1413.46 2409.41 1454.33C2395.62 1501.94 2380.09 1548.98 2367.68 1596.99C2367.39 1598.1 2367.9 1598.87 2368.66 1599.21C2362.2 1621.05 2356.79 1643.18 2350.89 1665.19C2349.66 1669.77 2356.43 1672.74 2358.74 1668.45C2362.3 1661.84 2363.09 1652.81 2364.83 1645.55C2366.8 1637.37 2368.67 1629.17 2370.53 1620.97C2373.5 1607.92 2376.16 1594.71 2378.35 1581.48C2386.52 1560.95 2393.84 1540.18 2400.31 1519.01C2414.82 1471.59 2428.2 1423.86 2440.1 1375.75C2443.62 1361.55 2447.07 1347.33 2450.35 1333.07C2465.32 1333.3 2480.97 1316.37 2496.01 1325.38C2496.7 1325.8 2497.41 1324.85 2496.86 1324.29C2490.86 1318.22 2482.58 1317.69 2474.52 1319.19C2469.29 1320.17 2464.27 1322.02 2459.15 1323.42C2456.89 1324.04 2454.58 1324.49 2452.23 1324.82C2453.85 1317.67 2455.42 1310.5 2456.93 1303.32ZM2134.42 1750.21C2142.07 1755.21 2148.31 1762.61 2152.71 1770.56C2180.91 1844.34 2211.07 1804.82 2248.54 1765.23C2216.83 1753.26 2174.83 1744.3 2150.51 1720.51C2146.3 1731.03 2141.15 1741.05 2134.42 1750.21ZM2144.5 1570.25C2146.95 1558.11 2148.97 1545.89 2150.81 1533.65C2152.57 1521.91 2155.32 1509.33 2154.87 1497.45C2154.86 1496.98 2154.19 1496.89 2154.04 1497.34C2150.23 1509.19 2149.09 1522.29 2146.67 1534.49C2144.33 1546.29 2141.76 1558.04 2139.17 1569.78C2133.86 1593.89 2126.34 1617.63 2121.79 1641.89C2121.3 1644.49 2124.81 1645.4 2125.77 1642.97C2134.88 1619.77 2139.6 1594.56 2144.5 1570.25ZM2660.27 1023.3C2672.59 1010.03 2682.27 993.091 2680.4 975.114C2673 965.244 2670.55 952.37 2666.24 940.963C2649.39 893.228 2633.75 845.128 2615.41 797.906C2576.4 809.904 2538.02 824.295 2501.82 843.198C2495.16 846.596 2488.57 850.123 2482.06 853.777C2475.24 857.599 2467.8 864.238 2459.62 862.337C2468.56 874.995 2486.97 888.165 2490.08 902.793C2490.75 907.422 2487.47 911.717 2482.43 910.683C2403.54 966.722 2322.07 1021.58 2247.5 1084C2191.66 1128.21 2148.79 1164.06 2129.64 1235.79C2116.73 1282.26 2116.69 1330.82 2118.59 1378.6C2118.96 1387.88 2118.97 1397.39 2119.72 1406.74C2118.6 1413.73 2120.73 1427.97 2128.59 1428.22C2128.41 1429.92 2127.85 1431.48 2126.96 1432.86C2127.21 1433.2 2127.47 1433.51 2127.74 1433.84C2128.13 1431.93 2128.51 1430.02 2128.87 1428.11C2134.99 1401 2135.81 1369.55 2134.79 1340.69C2134.36 1332.42 2147.05 1332.61 2147.76 1340.69C2149.67 1362.51 2151.58 1384.33 2153.49 1406.14C2155.78 1420.27 2152.17 1438.76 2163.47 1449.51C2174.96 1438.89 2171.16 1417.95 2170.6 1404.25C2169.7 1381.9 2168.73 1359.55 2167.9 1337.2C2167.64 1330.12 2179.37 1328.3 2180.7 1335.5C2184.47 1356.03 2188.55 1376.5 2192.94 1396.91C2195.59 1404.8 2197.41 1440.2 2210.65 1434.05C2218.54 1428.66 2212.85 1397.07 2213.89 1386.61C2213.4 1365.91 2213.11 1345.23 2211.59 1324.58C2210.97 1316.24 2224.54 1314.47 2226.4 1322.61C2229.42 1335.78 2232.31 1348.95 2234.93 1362.2C2240.68 1384.55 2238.59 1414.85 2259.35 1429.71C2267.48 1371.65 2255.78 1314 2254.14 1256.15C2255.12 1237.4 2258.34 1218.84 2261.18 1200.32C2264.32 1179.84 2266.15 1157.55 2258.8 1137.8C2260.81 1128.96 2268.71 1152.88 2269.45 1154.87C2275.4 1143.15 2289.89 1142.25 2301.35 1138.59C2326.82 1130.35 2352.91 1124.13 2378.68 1116.8C2447.02 1097.82 2515.44 1079.13 2583.88 1060.49C2611.22 1052.92 2640 1043.97 2660.27 1023.3ZM1975.92 1332.12C1985.35 1281.01 1985.09 1229.21 1981.06 1177.54C1976.63 1097.4 1972.33 1017.23 1967.73 937.102C1947.76 1082.14 1926.47 1227.01 1910.19 1372.51C1909.03 1382.63 1909.21 1393.35 1904.1 1402.38C1932.34 1406.17 1962.44 1409.98 1989.9 1400.37C1977.85 1379.54 1973.6 1355.82 1975.92 1332.12ZM2588.86 739.464C2541.26 641.738 2444.2 572.362 2335.35 557.232C2335.23 557.35 2335.1 557.468 2334.98 557.596C2335.34 557.921 2335.67 558.276 2335.97 558.64C2333.04 556.483 2329.02 559.192 2330.32 562.176C2328.71 565.851 2327.52 569.633 2326.03 573.337C2325.4 573.278 2324.76 573.219 2324.12 573.12C2317.66 585.946 2314.16 600.731 2307.41 613.517C2270.47 677.525 2179.31 703.51 2110.93 677.671C2056.67 654.159 2048.97 587.206 2053.83 535.738C2054.08 532.271 2055.84 529.818 2058.19 528.37C2028.6 533.108 1999.01 537.886 1969.39 542.387C1955.12 544.554 1940.46 547.687 1929.44 557.488C1886.07 602.12 1878.33 722.226 1863.74 784.667C1898.65 788.322 1937.67 808.219 1962.69 832.343C1961.51 804.919 1963.2 777.634 1966.36 750.407C1966.41 749.078 1968.63 748.625 1968.84 750.082C1975.09 777.683 1979.9 805.52 1981.88 833.8C1990.11 947.602 1995 1061.63 2002.05 1175.51C2004.46 1217.42 2007.47 1259.7 2001.5 1301.47C1982.28 1387.45 2016.17 1429.65 2107.13 1415.36C2096.08 1306.39 2104.09 1181.72 2195.34 1106.16C2198.12 1103.68 2201.46 1103.85 2203.99 1105.33C2278.18 1042.28 2356.48 983.891 2439.82 933.042C2439.22 922.533 2465.51 913.244 2472.87 905.994C2445.54 877.684 2424.73 843.267 2406.58 808.653C2404.98 804.89 2384.11 767.025 2390.75 769.409C2410.58 798.792 2430.3 828.363 2453.65 855.255C2452.38 842.853 2484.51 834.538 2494.4 828.875C2532.61 812.78 2572.56 800.181 2613.73 793.659C2606.32 775.211 2598.22 757.037 2588.86 739.464ZM2080.38 540.141C2081.63 538.004 2082.82 535.817 2083.96 533.601C2080.1 533.748 2076.34 533.886 2072.54 534.517C2072.71 540.634 2072.37 546.8 2072.3 552.967C2074.2 548.455 2077.92 544.338 2080.38 540.141ZM1435.56 1401.57C1526.75 1335.25 1676.53 1377.5 1782.17 1384.32C1802.31 1252.25 1794.09 1118.03 1812.86 985.753C1830.15 853.6 1848.38 719.605 1891.8 592.989C1909.72 544.032 1940.72 529.493 1991.76 529.887C2017.66 528.873 2045.05 524.726 2070.22 525.317C2075.74 525.405 2081.51 526.134 2086.49 528.36C2093.49 512.58 2097.29 495.637 2099.21 478.567C2099.33 477.483 2100.71 477.286 2101.12 478.32C2107.04 493.185 2107.67 509.408 2104.45 524.972C2102.12 536.122 2088.25 580.006 2072.14 562.837C2070.86 598.84 2078.77 641.837 2114.04 660.523C2175.67 687.395 2260.86 662.926 2296.56 605.893C2303.46 594.496 2309.41 582.369 2317.05 571.426C2263.82 556.355 2233.94 492.574 2246.48 444.002C2254.23 481.778 2268.36 523.987 2303.55 545.145C2431.69 544.86 2538.23 603.223 2598.43 715.636C2610.21 731.958 2621.1 748.92 2631.08 766.178C2636.45 777.723 2652.18 793.779 2638.83 804.929C2654.25 846.084 2667.93 887.81 2682.39 929.29C2686.36 943.11 2695.44 957.61 2693.63 972.139C2695.59 981.093 2695.5 991.682 2691.01 1000.29C2686.75 1015.64 2677.19 1036.28 2661.34 1042.8C2647.89 1055.08 2630.88 1063.54 2613.14 1069.91C2660.45 1193.56 2678.46 1326.9 2694.49 1457.54C2710.2 1571.82 2718.31 1710.84 2619.87 1793.43C2617.96 1817.07 2603.94 1847.18 2576.22 1847.43C2557.02 1866.29 2533.62 1855.94 2512.25 1846.72C2476.18 1833.37 2438.35 1825.96 2400.76 1821.83C2396.73 1824.98 2390.17 1824.46 2386.58 1820.79C2363.81 1815.54 2332.25 1836.8 2327.65 1817.54C2298.29 1814.69 2269.25 1809.35 2239.92 1806.24C2252.28 1822.28 2251.39 1845.93 2242.08 1863.25C2265.79 1909.89 2210.56 1936.9 2176.79 1956.04C2131.2 1982.44 2083.59 2007.49 2031.45 2018.44C1985.61 2028.08 1937.59 2025.15 1893.36 2009.75C1870.12 2003.91 1837.66 1984.73 1851.45 1957.71C1833.97 1906.29 1956.73 1853.01 1992.84 1827.26C1978.08 1825.42 1977.54 1794.78 2015.93 1812.39C2020.57 1809.28 2025.13 1806.08 2029.64 1802.82C1874.36 1784.97 1577.81 1735.87 1465.43 1629.72C1403.69 1575.14 1368.07 1464.74 1435.56 1401.57Z" fill="black"/>
<path fill-rule="evenodd" clip-rule="evenodd" d="M2010.74 225.318C1999.36 217.146 2016.32 190.259 2022.09 182.259C2027.1 171.823 2032.12 161.386 2037.13 150.949C2036.52 142.39 2044.88 134.775 2053.14 137.379C2060.32 132.226 2072.36 134.693 2076.01 142.761C2155.46 108.159 2292.92 122.554 2300.03 229.326C2315.4 259.726 2330.63 290.386 2344.27 321.607C2363.18 322.623 2372.35 345.606 2361.09 360.459C2359.59 384.578 2344.3 386.487 2323.89 385.414C2315.69 387.573 2307.19 388.743 2301.04 395.074C2296.37 399.849 2293.19 405.904 2290.13 411.779C2275.98 438.885 2258.01 462.333 2233.65 481.084C2195.77 509.435 2144.49 529.79 2097.25 515.989C1995.69 476.107 1975.75 316.721 2010.74 225.318Z" fill="#F7CFC3"/>
<path fill-rule="evenodd" clip-rule="evenodd" d="M2222.68 69.9931C2156.33 54.5831 2081.79 75.2631 2035.74 126.213C2032.5 129.793 2032.85 134.453 2035.7 137.473C2034.37 138.553 2033.07 139.663 2031.75 140.773C2030.37 141.943 2030.57 144.293 2031.75 145.483C2032.92 146.653 2035.35 146.893 2036.46 145.483L2038.1 143.415C2038.92 142.382 2039.73 141.345 2040.51 140.283C2041.46 140.633 2042.39 141.003 2043.32 141.363C2029.25 150.713 2017.52 163.133 2009.48 178.083C2000.78 194.253 1995.23 211.513 1991.62 229.473C1985.19 261.511 1984.25 294.369 1985.11 326.948L1985.16 328.693C1986.27 367.963 1990.1 407.883 2006.66 443.993C2019.94 472.933 2043.54 499.543 2073.13 512.213C2090.17 519.503 2108.49 522.613 2127 521.313C2136.76 520.633 2146.49 519.093 2155.99 516.743L2158.27 516.176C2166.93 514.009 2175.9 511.496 2183.29 506.543C2190.87 501.453 2185.76 491.343 2177.4 492.573C2167.33 494.063 2157.74 498.263 2147.75 500.443C2137.98 502.583 2128.09 503.703 2118.08 503.413C2100.37 502.913 2084.24 497.473 2069.6 487.593C2013.63 449.803 2006.83 373.823 2005.37 312.423C2004.66 282.423 2005.76 252.033 2012.66 222.723C2019.29 194.543 2030.7 166.793 2046.85 142.723C2050.41 144.053 2053.97 145.163 2057.76 145.513C2064.52 149.574 2072.55 149.682 2080.36 149.683L2081.45 149.683C2089.58 149.673 2097.71 149.193 2105.8 148.463C2134.43 145.923 2163.89 139.483 2192.67 143.583L2193.85 143.755C2205.7 145.537 2220.38 149.277 2229.08 157.803C2238.48 167.003 2232.18 184.413 2224.74 189.943C2219.93 193.523 2218.43 201.583 2224.74 204.833C2237.2 211.263 2267.36 207.693 2270.75 211.253C2274.82 215.508 2274.54 221.994 2274.65 227.516L2274.66 227.883C2275.08 243.603 2274.69 259.273 2273.36 274.953C2272.08 290.113 2269.17 305.303 2268.52 320.503C2268.3 325.513 2274.35 327.033 2277.66 324.283C2278.31 323.743 2278.98 323.233 2279.65 322.773C2285.66 318.513 2292.49 316.713 2299.82 315.573C2300.21 315.512 2300.51 315.32 2300.72 315.066L2300.81 314.953L2301.59 315.593C2300.07 317.483 2298.77 319.623 2297.74 322.023C2297.53 322.503 2297.98 323.113 2298.51 322.793C2308.65 316.763 2319.69 314.203 2331.36 316.643C2341.86 318.833 2351.36 325.493 2354.44 336.153C2357.27 345.963 2355.19 357.273 2348.84 365.343C2339.45 377.303 2324.2 376.223 2310.52 376.773C2307.84 376.883 2304.85 378.183 2303.6 380.743C2302.13 383.763 2302.23 385.823 2303.6 388.833C2303.79 389.263 2304.04 389.653 2304.33 390.003C2303.17 390.961 2302.08 392.01 2301.01 393.079L2297.44 396.677C2294.99 399.144 2292.56 401.633 2290.22 404.183C2283.34 411.683 2276.87 419.663 2270.78 427.813L2270.22 428.574C2263.08 438.332 2255.68 452.424 2243.32 455.503C2239.08 456.563 2235.14 458.653 2233.88 463.243C2232.62 467.833 2235.59 472.283 2239.58 474.203C2246.5 477.533 2255.28 473.573 2260.99 469.373C2273.3 460.302 2281.35 445.504 2288.91 432.477L2290.98 428.917C2294.88 422.195 2298.68 415.394 2301.93 408.333C2303.78 404.303 2305.77 400.303 2307.49 396.213C2307.99 395.023 2308.49 393.813 2308.88 392.573C2309.43 392.693 2309.99 392.773 2310.52 392.803C2327.03 393.883 2346.04 391.263 2357.97 378.733C2374.42 361.463 2376.35 330.583 2357.66 314.103C2355.69 312.363 2353.47 310.833 2351.07 309.523C2354.41 303.873 2356.62 297.323 2358.25 291.173C2360.63 282.193 2361.96 273.043 2362.62 263.783C2363.95 244.893 2361.74 225.663 2357.2 207.313C2340.74 140.803 2290.2 85.6731 2222.68 69.9931ZM2342.25 345.983C2345.52 327.034 2307.6 341.046 2299.33 342.367L2299.09 342.403C2289.61 343.719 2294.89 360.355 2304.23 355.4L2304.51 355.243C2309.56 352.349 2315.11 350.275 2320.41 347.824L2321.54 347.293C2325.75 345.273 2339.66 336.203 2341.17 345.983C2341.25 346.523 2342.16 346.513 2342.25 345.983Z" fill="black"/>
<path fill-rule="evenodd" clip-rule="evenodd" d="M1508.36 1941.95C1478.68 1899.71 1416.12 1892.71 1375.93 1863.11C1354.75 1846.88 1332.35 1836.13 1315.9 1814.27C1342.09 1783.48 1309.69 1711.32 1303.03 1669.64C1276.61 1560.53 1252.17 1449.68 1220.75 1340.69C1275.21 1357.65 1261.02 1256.13 1253.24 1232.66C1252.7 1229.43 1248.71 1228.78 1246.26 1227.77C1246.94 1223.16 1248.83 1222.15 1243.11 1220.87C1241.2 1193.25 1249.01 1162.32 1234.89 1137.92C1218.97 1111.29 1180.93 1089 1149.49 1088.64C1127.41 1000.93 1123.37 959.558 1018.75 996.738C1021.06 988.195 1021.78 980.36 1017.75 971.73C1002.02 924.183 982.249 872.168 965.057 823.984C945.243 768.535 924.754 711.198 898.254 657.921C879.798 624.089 822.057 615.044 782.919 620.645C773.583 604.17 750.049 558.6 720.279 569.136C720.055 555.392 719.842 541.648 719.664 527.903C719.51 515.955 720.767 503.704 716.174 492.36C711.308 480.343 701.401 474.001 689.765 469.401C654.545 457.765 614.082 439.071 576.916 450.638C544.444 465.461 548.226 521.199 532.512 551.498C510.49 518.839 472.935 540.737 464.99 575.763C374.525 611.83 296.768 570.857 290.979 712.438C295.967 738.247 300.208 762.456 297.844 788.518L295.107 788.798C271.953 914.247 263.049 1048.72 268.646 1188.52C267.525 1243.57 247.47 1294.94 228.076 1344.61C213.811 1381.14 199.081 1418.9 192.098 1457.65C184.355 1489.93 155.892 1645.12 219.183 1593.6C221.608 1770.16 378.914 1792.76 520.569 1753.77C670.95 1722.5 840.24 1731.49 934.094 1580.21C965.933 1634.71 976.918 1668.36 984.91 1725.34C993.681 1767.09 1006.42 1814.5 1029.83 1842.11C1009.67 1878.41 999.797 1922.62 1000.77 1951.43C1001.15 1962.75 995.976 1967.99 1003.41 1975.03C1039.1 2008.78 1118.71 2009.16 1179.24 2024.18C1220.75 2029.47 1370.84 2049.68 1393.78 2036.5C1409.78 2040.98 1391.18 1999.34 1407.17 1998.45C1412.64 1998.49 1413.38 1991.52 1419 1991.78C1454.87 1993.41 1532.23 2003.96 1513.52 1975.03L1508.36 1941.95Z" fill="#D08B5B"/>
<path fill-rule="evenodd" clip-rule="evenodd" d="M1352 2044C1261.16 2040.55 1135.36 2015 1046.88 1995.8C1023.91 1991.48 1007.57 1979.47 1002.78 1969.28C1000.61 1964.66 1001.31 1956.32 1003.4 1946.59C1005.08 1938.78 1000.12 1930.07 1001.04 1921.66C1002.34 1909.74 1010.46 1890.26 1014.65 1883.15C1023 1869 1028.71 1832.9 1029.33 1833.28C1040.43 1840.05 1053.02 1843 1065.98 1846.62C1066.15 1846.67 1069.31 1854.72 1069.48 1854.76C1069.53 1854.92 1069.59 1855.09 1069.65 1855.25C1073.1 1864.85 1077.79 1868.93 1083.35 1873.91C1089.44 1879.35 1096.58 1879.26 1104.25 1880.24C1123.29 1882.67 1135.59 1873.26 1153.65 1860.75L1154.99 1860.71C1157 1860.67 1159.07 1860.67 1161.18 1860.68C1171.77 1860.7 1183.25 1860.81 1191.44 1854.15C1191.66 1853.97 1191.88 1853.78 1192.09 1853.6C1192.29 1853.79 1192.49 1853.97 1192.71 1854.15C1193.11 1854.48 1193.52 1854.77 1193.95 1855.03C1195.77 1853.95 1197.56 1852.86 1199.33 1851.78C1205.34 1848.12 1221.81 1838.9 1221.96 1839.15C1226.92 1847.55 1307.97 1800.33 1315 1807C1324 1815.55 1344.42 1848.1 1374.59 1862.14C1428 1887 1465 1905 1493 1926C1521 1947 1506.24 1959.82 1509 1961C1516 1964 1513.35 1985.78 1513 1989C1512.7 1991.85 1474.01 1996.68 1450 1996C1422.79 1995.23 1409.74 1988.92 1407.28 1992.6C1397.49 2005.97 1404 2035 1404 2035C1404 2035 1382 2050 1352 2044Z" fill="white"/>
<path fill-rule="evenodd" clip-rule="evenodd" d="M570.349 1202.22L577.972 1205.29C605.989 1216.46 636.75 1221.02 682.604 1222.88L738.875 1225.09C768.897 1226.25 790.944 1227.02 812.994 1227.68L820.156 1227.89L831.262 1228.21L834.967 1228.36L837.09 1231.4C840.814 1236.74 847.957 1241.02 858.315 1244.28L859.407 1244.62C867.456 1247.06 876.407 1248.71 889.097 1250.38L889.95 1250.49L900.294 1251.81L902.467 1252.1L904.116 1252.32C904.816 1252.42 905.474 1252.52 906.102 1252.61L907.036 1252.75L907.101 1252.68C907.231 1252.52 907.355 1252.34 907.455 1252.15L907.546 1251.96L907.605 1251.81C910.199 1244.36 912.926 1236.77 915.81 1228.97L916.68 1226.63C916.68 1226.63 916.227 1222.73 919 1222C924.806 1220.46 942.417 1223.81 942.417 1223.81C954.278 1225.97 966.814 1224.18 982.778 1226.93L1001.68 1230.17L1037.23 1236.25L1057.33 1239.76L1059.18 1240.08L1060.13 1240.83L1060.46 1240.94L1060.83 1241.06C1060.96 1241.11 1061.1 1241.15 1061.26 1241.2L1061.74 1241.34C1063.14 1241.74 1065.02 1242.21 1067.51 1242.8L1070.29 1243.43C1074.71 1244.43 1084.95 1246.7 1088.52 1247.53L1090.67 1248.04L1093.48 1248.71C1103.97 1251.27 1111.32 1253.52 1116.31 1255.93L1116.62 1256.08L1116.92 1256.23L1117.02 1256.28C1130.22 1261.76 1143.44 1272.15 1167.07 1293.82L1168.53 1295.16L1177.87 1303.77C1198.36 1322.63 1209.88 1332.07 1220.44 1337.72L1221.09 1338.06L1225.87 1340.5L1226.35 1345.07L1226.44 1345.93L1226.55 1346.81C1227.02 1350.66 1227.75 1354.68 1228.96 1360.43L1229.23 1361.74L1230.53 1367.81L1230.94 1369.77L1231.22 1371.17C1231.82 1374.11 1232.28 1376.59 1232.66 1379.02L1232.78 1379.78L1239.78 1412.43C1245.65 1439.69 1251.93 1468.62 1259.43 1502.94L1265.13 1528.99L1292.26 1652.82L1298.82 1682.94L1301.58 1695.64L1302.02 1697.83L1302.3 1699.16C1302.76 1701.33 1303.34 1703.83 1304.15 1707.23L1305.43 1712.54L1306.82 1718.31L1307.5 1721.14L1308.17 1723.98C1314.46 1751.02 1316.86 1768.55 1315.1 1785.11C1313.15 1803.6 1305.38 1817.18 1290.73 1824.16L1290.5 1824.26L1290.34 1824.36L1289.56 1824.77C1281.76 1828.85 1274.68 1830.28 1260.61 1831.64L1256.24 1832.05L1255.68 1832.11L1255.03 1832.19C1250.17 1832.81 1240.92 1834.67 1233.47 1836.67L1232.29 1836.99L1231.14 1837.32C1227.36 1838.4 1224.19 1839.49 1221.88 1840.51C1221.25 1840.79 1220.71 1841.05 1220.27 1841.29L1220.02 1841.42L1219.9 1842.23L1217.71 1844.04C1210.7 1849.83 1203.46 1854.37 1195.2 1858.32L1194.27 1858.75L1192.56 1859.55L1189.03 1859.35L1185.34 1859.17C1181.75 1859 1177.84 1858.85 1173.17 1858.68L1169.2 1858.55L1154.72 1858.08L1148.52 1857.86L1144.19 1857.69C1129.4 1857.08 1118.15 1856.3 1106.74 1854.99C1089.03 1852.97 1073.7 1849.85 1060.21 1845.19L1059.25 1844.85L1057.89 1844.37C1033.77 1835.56 1016.39 1821.73 1006.84 1801.71L1006.46 1800.91L1006.08 1799.95L1005.79 1799.19C1001.06 1786.53 996.529 1764.2 990.474 1727.82L986.244 1702.17L985.489 1697.73C985.023 1695.04 984.626 1692.83 984.276 1691C976.903 1653.93 960.999 1618.02 934.502 1574.03C932.982 1571.5 931.334 1569.81 929.755 1568.88L929.583 1568.79L931.287 1571.87L929.065 1575.98C902.791 1624.45 860.711 1660.39 804.623 1686.22C759.731 1706.88 707.985 1720.41 645.094 1730.12L643.185 1730.41L641.291 1730.67C611.914 1734.63 506.867 1752.84 497.093 1756.53L496.821 1756.64L496.005 1756.99L495.129 1757.15C453.988 1764.37 421.843 1767.82 392.63 1767.33L391.624 1767.32C356.204 1766.62 326.332 1759.9 301.065 1745.88C256.794 1721.32 227.684 1674.8 213.963 1601.92L213.552 1599.7L213 1596.68L214.726 1594.14C215.959 1592.32 217.087 1590.75 218.446 1588.94L219.412 1587.67L222.141 1584.11L222.992 1583.02C223.189 1582.77 223.378 1582.53 223.565 1582.3L227.134 1577.87C235.524 1567.42 243.912 1556.62 255.1 1541.94L260.473 1534.88L273.337 1517.93C310.908 1468.45 332.407 1442.72 359.727 1417.28L361.513 1415.62L365.35 1412.37C372.752 1406.13 380.482 1399.74 390.148 1391.84L397.261 1386.05L418.173 1369.05L424.96 1363.51C454.203 1339.56 472.895 1323.38 491.422 1305.53L492.038 1304.94C517.618 1280.24 538.395 1256.12 555.488 1230.48L556.502 1228.95L556.647 1228.76C559.358 1225.17 562.898 1218.66 567.113 1209.39L570.349 1202.22ZM1109.16 991.848L1109.69 992.181L1110.25 992.538L1110.75 992.989C1120.1 1001.57 1126.8 1012.18 1131.8 1025.3L1132.31 1026.67L1132.65 1027.6C1135.83 1036.4 1137.98 1045.1 1141.17 1060.5L1142.67 1067.75L1143.28 1070.59C1145.53 1081.13 1147.24 1087.7 1149.54 1094.23L1149.76 1094.86L1149.82 1095.07C1154.71 1111.98 1159.75 1126.84 1165.41 1140.64L1165.95 1141.94L1174.77 1163.09L1158.53 1156.98C1145.56 1152.11 1131.55 1148.73 1115.45 1146.34L1113.19 1146.01L1111.47 1145.77C1100.77 1144.3 1095.95 1139.32 1078.79 1138.11L1076.03 1137.92L1068.06 1137.36L1057.54 1136.62L1057.53 1136.54L1040.18 1135.37L1037.19 1135.14L1036.49 1135.08C1036.02 1135.04 1035.65 1135.01 1035.35 1134.97C1035.1 1134.94 1034.88 1134.91 1034.64 1134.86L1033.06 1134.57L1032.46 1134.44C1032.08 1134.37 1031.75 1134.29 1031.46 1134.21L1031.18 1134.13L1029.94 1133.98C1008.75 1131.37 991.054 1124.44 974.465 1118.18L973.451 1117.79L972.478 1117.42L963.898 1114.02L961.532 1110.71C961.63 1110.52 961.728 1110.3 961.828 1110.08C962.138 1109.38 962.333 1108.82 962.436 1108.4L962.47 1108.25L962.49 1108.15L962.364 1108.03C961.981 1107.69 961.225 1107.13 959.924 1106.3L959.435 1105.99L956.352 1104.1L955.344 1103.47L954.415 1102.88C953.966 1102.59 953.538 1102.31 953.117 1102.03L952.427 1101.56L951.82 1101.18C941.463 1094.75 933.133 1086.66 924.771 1084.28L924.159 1084.11L923.643 1083.97L923.294 1083.89C920.131 1083.2 916.092 1083.07 913.193 1083.66L912.787 1083.75L912.414 1083.84C911.91 1083.98 911.512 1084.12 911.225 1084.26L911.09 1084.32L910.987 1084.38L895.117 1092.48C894.99 1092.21 894.86 1092.01 894.749 1091.9L894.71 1091.86L894.693 1091.85L893.349 1091.42C886.55 1089.27 879.527 1087.59 869.365 1085.57L866.202 1084.94L854.59 1082.71L852.181 1082.24C847.977 1081.4 844.877 1080.75 841.717 1080.02L839.407 1079.48L822.027 1075.84L800.434 1071.37L748.063 1060.54L724.335 1055.57L739.678 1045.67L741.769 1044.33C749.814 1039.2 757.924 1034.37 766.09 1029.83L768.434 1028.54L768.552 1028.48C797.844 1013.76 827.993 1002.81 858.159 996.2C889.894 989.228 921.387 987.113 951.973 990.219L953.808 990.411L954.182 990.49C963.746 992.512 970.554 997.615 977.135 1006.34L977.581 1006.94L986.833 1004.37C991.039 1003.19 993.887 1002.36 995.316 1001.91L995.957 1001.7L1004.88 998.624C1028.37 990.544 1042.84 986.403 1058.01 984.244C1078.46 981.335 1095.46 983.393 1109.16 991.848Z" fill="#FFCF77"/>
<path fill-rule="evenodd" clip-rule="evenodd" d="M967.41 1107.43L964.195 1113.9C949.441 1143.67 906.42 1249.37 906.42 1249.37C906.42 1249.37 856.314 1239.1 847.608 1234.62L847.249 1234.43C847.249 1234.43 863 1173.43 872 1150C882.555 1122.53 900.924 1094.74 902.055 1091.77L904.698 1084.78L909.306 1084.3C909.623 1084.27 909.938 1084.24 910.252 1084.22C913.283 1084.03 921.691 1082.9 935.478 1088.83C944.045 1092.51 967.41 1107.43 967.41 1107.43ZM605 1033C588 1062 512.781 925.533 535.391 911.766C558 898 622 1004 605 1033ZM910.565 929.099C878.13 938.199 844.209 781.578 877.104 772.289C910 763 943 920 910.565 929.099ZM295 754C295 754 364 904 342 916C320 928 285.396 794.602 285.396 794.602L295 754ZM578 688C580.795 689.572 578.279 710.603 575.386 711.439C574.659 711.649 555.834 704.343 544 710C527.496 717.889 514.796 739.031 497 735C478.811 730.88 470.81 693.122 468.053 684.856C467.024 681.768 477.494 672.71 479 670C479.658 668.816 490.969 684.619 510 688C534.503 692.353 568.797 682.822 578 688ZM819.897 677.174C821.26 677.426 832.436 691.701 832 701C831.558 710.427 819.486 714.873 817.987 714.223C817.987 714.223 769.303 726.02 766.387 725.215C765.098 724.859 760.749 718.701 761 711C761.299 701.815 766.54 690.666 769.27 687.731C774.513 682.095 817.059 676.65 819.897 677.174Z" fill="white"/>
<path fill-rule="evenodd" clip-rule="evenodd" d="M738.476 1051.21C734.638 1050.78 701.056 1044.94 691.09 1041.58C689.067 1037.53 673.668 977.791 673.668 977.791C665.169 947.575 656.81 917.318 648.451 887.06C637.034 845.731 613.433 756.756 613.235 756.052C613.568 756.213 649.669 769.598 685 770C719.594 770.393 768.436 753.807 768.62 753.671C768.75 754.117 856.366 994.765 855.938 994.884C847.727 997.156 822.767 1005.18 793.718 1019.3C771.052 1030.32 742.767 1047.78 738.476 1051.21Z" fill="white"/>
<path fill-rule="evenodd" clip-rule="evenodd" d="M1499.45 1982.83C1473 1988.55 1445.8 1986.95 1419 1989.19C1419.86 1986.94 1420.59 1984.65 1421.16 1982.31C1448.85 1978.96 1477.89 1977.36 1504.29 1968.21C1504.92 1971.19 1505.38 1974.2 1505.57 1977.24C1505.59 1977.65 1505.54 1982.19 1506.19 1981.35C1505.38 1982.4 1500.65 1982.61 1499.45 1982.83ZM1365.82 1914.16C1317.5 1898.28 1266.24 1884.58 1229.1 1847.57C1263.46 1835.1 1288.19 1850.99 1317.73 1819.08C1318.85 1819.32 1319.94 1819.66 1321 1820.07C1352.72 1874.06 1420.3 1884.34 1469.79 1915.62C1489.85 1927.31 1527.22 1958.77 1479.41 1959.48C1460.54 1962.34 1441.56 1964.46 1422.53 1965.92C1421.06 1935.52 1390.97 1922.21 1365.82 1914.16ZM1399.47 1992.02C1389.89 2005.08 1372.61 2010.24 1356.98 2008.97C1345.48 2007.4 1335.33 2003.36 1323.37 2004.23C1232.69 2000.78 1143.53 1981.99 1055.11 1962.8C975.907 1947.93 1036.43 1889.43 1029.83 1842.1C1041 1848.92 1053.67 1853.9 1066.72 1857.56C1083.53 1904.37 1129.46 1892.15 1161.99 1869.72C1193.82 1872.25 1199.33 1861.51 1225.36 1849.08C1253.34 1899.23 1315.97 1910.42 1365.51 1929.47C1395.61 1937.59 1420.26 1960.87 1399.47 1992.02ZM1397.82 2033.86C1372.38 2041.47 1345.45 2040.15 1319.19 2038.01C1232.94 2030.53 1147.26 2015.82 1063.59 1993.56C1043.74 1988.28 1005.24 1982.15 1003.41 1957.23C1021.08 1980.41 1052.62 1983.14 1079.11 1989.12C1166.07 2006.18 1255.15 2028.2 1344.08 2023.96C1362.87 2029.31 1383.34 2025.08 1399.23 2014.67C1398.73 2021.06 1398.27 2027.46 1397.82 2033.86ZM1126.26 1867.49C1107.1 1875.51 1089.24 1873.53 1073.66 1859.36C1091.45 1863.71 1108.46 1865.5 1126.26 1867.49ZM1014.33 1795.27C1005.74 1773.83 996.979 1709.53 992.689 1687.11C984.209 1644.47 964.709 1605.35 941.86 1567.41C895.037 1489.68 834.143 1416.92 824.984 1329.06C825.156 1323.91 825.349 1318.77 825.447 1313.62C825.652 1302.91 826.627 1291.3 824.607 1280.79C824.539 1280.44 824.077 1280.52 823.973 1280.79C819.958 1291.32 818.733 1303.82 817.185 1314.99C815.753 1325.33 814.575 1335.63 814.493 1346.08C814.415 1356.01 815.058 1366.11 817.339 1375.8C817.431 1376.19 817.526 1376.58 817.621 1376.97C816.274 1380.83 814.805 1384.65 813.189 1388.42C809.366 1397.31 805.104 1406.06 800.826 1414.74C792.136 1432.38 783.392 1449.99 774.597 1467.58C765.634 1485.5 756.711 1503.44 747.555 1521.26C744.703 1526.81 742.026 1532.45 739.419 1538.13C716.768 1572.49 692.135 1605.52 665.519 1636.9C642.399 1661.91 621.809 1691.83 590.47 1706.99C559.36 1722.82 525.41 1732.75 493.51 1746.61C368.019 1768.59 253.549 1768.71 221.99 1595.94C225.16 1592.16 228.049 1588.12 230.91 1584.59C246.45 1565.38 261.35 1545.66 276.28 1525.98C304.45 1488.85 332.879 1451.45 367.24 1419.74C436.419 1361.01 512.7 1308.61 563.539 1231.6C568.339 1225.26 572.269 1218.37 574.899 1210.95C608.97 1224.54 647.35 1227.77 683.74 1229.2C732.641 1231.12 781.56 1233.14 830.479 1234.45C844.19 1254.07 886.689 1255.8 906.879 1259.09C911.019 1259.54 914.479 1255.9 915.709 1252.37C919.11 1242.6 922.64 1232.89 926.269 1223.22C969.389 1231.32 1012.71 1238.27 1055.93 1245.9C1058.84 1248.32 1060 1251.65 1061.11 1255.83C1062.82 1262.25 1064.47 1268.69 1066.21 1275.1C1069.51 1287.28 1073.22 1299.37 1076.63 1311.52C1078.54 1318.3 1080.2 1325.4 1082.43 1332.26C1119.89 1491.29 1172.69 1667.65 1210.62 1817.13C1211.87 1822.66 1212.96 1829.87 1212.02 1835.87C1205.34 1841.07 1198.3 1845.29 1190.75 1848.82C1137.45 1845.09 1041.12 1852.75 1014.33 1795.27ZM641.979 1719.78C626.51 1721.77 610.769 1724.36 594.899 1727.24C608.78 1721.02 621.82 1713.23 632.37 1701.99C707.839 1625.7 769.079 1534.34 808.62 1434.46C814.015 1421.03 819.478 1407.45 824.123 1393.67C824.967 1394.95 825.909 1396.16 826.966 1397.29C845.268 1457.66 886.882 1512.73 921.669 1569.7C867.24 1670.11 747.499 1703.68 641.979 1719.78ZM213.524 1604.14C213.863 1603.88 214.208 1603.64 214.539 1603.38C214.571 1603.85 214.616 1604.31 214.649 1604.79C214.274 1604.57 213.897 1604.35 213.524 1604.14ZM481.913 680.586C486.668 694.848 491.52 709.092 499.041 722.143C511.351 714.149 521.573 703.143 534.37 695.974C547.583 688.572 560.995 690.571 573.846 697.802C577.215 699.697 574.187 704.878 570.818 702.982C564.327 699.33 557.181 696.394 549.583 697.078C543.642 697.612 538.294 700.356 533.408 703.623C521.66 711.48 511.73 721.604 499.542 728.902C498.125 729.751 496.277 729.196 495.438 727.826C486.737 713.634 481.366 697.892 476.127 682.182C474.901 678.504 480.698 676.941 481.913 680.586ZM601.494 1024.39C604.698 1026.52 601.69 1031.72 598.466 1029.57C562.215 1005.46 560.074 957.532 538.638 923.09C536.589 919.799 541.782 916.79 543.818 920.062C564.477 953.255 566.683 1001.24 601.494 1024.39ZM726.66 774.131C734.32 772.121 751.229 770.111 760.019 764.331C781.149 836.791 809.91 906.811 839.829 976.041C841.89 980.761 843.729 987.011 846.64 991.961C831.97 996.021 818.57 1000.72 807.829 1005.46C794.448 1011.32 781.353 1018.21 768.945 1026.15C758.052 1032.52 747.648 1039.62 737.821 1047.47C734.813 1046.84 731.807 1046.21 728.799 1045.57C718.62 1043.37 708.309 1041.02 698.379 1037.67C695.839 1031.44 695.01 1024.12 692.85 1017.98C689.1 1004.51 685.35 991.031 681.6 977.561C661.49 906.071 642.169 834.351 621.769 762.941C653.979 777.871 692.18 779.951 726.66 774.131ZM766.431 713.418C769.192 701.765 774.822 687.386 789.059 687.813C799.968 688.142 810.409 694.542 820.29 699.352C819.828 695.827 817.341 692.82 815.117 689.81C812.818 686.699 818.028 683.71 820.298 686.782C824.375 692.3 827.81 697.632 825.784 704.646C825.197 706.679 823.141 707.203 821.377 706.438C811.756 702.268 802.045 695.789 791.559 694.07C778.831 691.984 774.609 704.915 772.216 715.014C771.325 718.775 765.541 717.173 766.431 713.418ZM952.6 996.591C965.72 999.371 971.97 1011.15 978.559 1021.67C994.95 1047.82 1010.67 1074.39 1025.76 1101.31C1029.85 1108.6 1033.89 1115.92 1037.88 1123.27C1038.96 1125.08 1039.91 1127.04 1040.89 1128.97C1016.58 1126.8 992.57 1123.22 969.68 1114.28C974.479 1103.41 966.329 1101.55 957.189 1095.23C947.399 1089.1 937.049 1083.47 925.809 1080.5C919.379 1078.8 904.589 1078.43 902.85 1086.97C902.039 1084.66 900.329 1082.63 897.749 1081.65C879.479 1075.64 860.07 1073.42 841.36 1068.96C809.732 1062.29 778.056 1055.89 746.416 1049.27C754.936 1043.83 763.628 1038.67 772.477 1033.83C800.242 1019.88 829.751 1008.91 860.059 1002.27C890.419 995.601 921.589 993.271 952.6 996.591ZM882.808 782.538C891.447 827.586 898.586 872.964 910.456 917.322C911.457 921.063 905.667 922.644 904.67 918.917C892.8 874.559 885.662 829.182 877.022 784.133C876.298 780.354 882.081 778.75 882.808 782.538ZM1105.22 997.131C1132 1021.71 1130.24 1062.9 1141.75 1095.26C1146.62 1112.1 1152.17 1128.76 1158.99 1144.92C1159.14 1145.28 1159.29 1145.64 1159.44 1146C1127.26 1134.4 1092.97 1132.8 1058.85 1130.38C1058.59 1129.23 1058.21 1128.17 1057.72 1127.3C1052.24 1116.76 1046.29 1106.43 1040.55 1096.02C1025.29 1068.82 1009.3 1042.04 992.669 1015.65C991.629 1014.01 990.589 1012.32 989.53 1010.63C1024.68 999.131 1074.3 977.551 1105.22 997.131ZM1231.57 1154.24C1234.76 1169.33 1232.71 1185.2 1231.85 1200.56C1217.26 1181.17 1198.77 1164.62 1177.14 1153.6C1175.7 1143.9 1169.59 1135.45 1166.77 1126.03C1161.56 1112.74 1157.34 1099.16 1153.54 1085.45C1188.81 1092.8 1223.14 1118.42 1231.57 1154.24ZM903.35 1090.86C903.37 1090.52 903.379 1090.19 903.37 1089.85C903.39 1089.84 903.41 1089.83 903.419 1089.82C904.339 1088.92 905.36 1088.23 906.479 1087.74C905.419 1088.75 904.379 1089.79 903.35 1090.86ZM908.61 1219.83C906.01 1226.47 903.459 1233.13 900.951 1239.8C888.519 1237.67 862.06 1232.65 851.229 1226.93C855.089 1227.06 858.911 1225.05 859.891 1220.44C860.32 1218.4 861 1216.49 861.531 1214.5C868.06 1193.21 873.63 1171.49 882.85 1151.08C891.87 1129.53 902.6 1108.59 910.799 1086.72C924.701 1085.84 946.661 1103.1 956.589 1110.14C938.88 1145.87 923.149 1182.52 908.669 1219.67C908.399 1219.67 908.12 1219.67 907.85 1219.68C908.1 1219.73 908.36 1219.78 908.61 1219.83ZM1239.14 1243.12C1240.12 1248.43 1241.23 1253.7 1241.98 1259.06C1243.88 1280.01 1246.47 1302.08 1238.39 1322.18C1233.38 1334.49 1223.11 1324.59 1216.3 1319.77C1205.22 1312.03 1195.02 1303.15 1184.85 1294.27C1153.61 1264.88 1117.1 1239.89 1073.28 1235.76C1025.97 1229.18 974.709 1220.96 927.57 1219.76C940.451 1185.57 954.419 1151.84 967.93 1117.86C993 1131.92 1021.3 1137.06 1050.2 1140.34C1050.88 1140.68 1051.6 1140.98 1052.38 1141.22C1053.75 1141.5 1054.9 1141.37 1055.82 1140.95C1094.36 1145.03 1133.67 1146.63 1167.57 1162.4C1180.69 1168.5 1193 1176.72 1204.14 1188.04C1216.33 1199.72 1226.15 1213.82 1232.74 1229.38C1234.8 1234.18 1235.89 1239.17 1239.14 1243.12ZM1293.35 1695.21C1299.42 1726.73 1324.62 1796.96 1286.75 1814.44C1269.84 1823.81 1248.54 1818.41 1231.79 1826.99C1231.36 1821.61 1230.35 1816.28 1229.14 1811.34C1180.31 1651.75 1135.18 1442.83 1078.31 1283.37C1076.52 1276.89 1074.71 1270.42 1072.77 1263.99C1071.15 1258.61 1069.87 1252.88 1067.5 1247.94C1083.31 1250.85 1099.05 1254.26 1113.42 1261.72C1143.76 1274.06 1186.25 1327.65 1217.97 1343.74C1219.23 1355.58 1222.71 1367.37 1224.49 1379.06C1247 1484.53 1270.49 1589.8 1293.35 1695.21ZM1519.28 1959.19C1518.75 1956.62 1517.33 1954.96 1515.54 1954.06C1515.82 1900.28 1402.77 1882.8 1368.52 1848.55C1352.84 1837.47 1341.44 1819.17 1323.24 1812.31C1323.57 1811.85 1323.91 1811.41 1324.23 1810.94C1343.53 1779.12 1313.05 1701.79 1307.65 1668.58C1282.87 1564.77 1258.84 1460.71 1230.8 1357.72C1230.23 1355.75 1229.17 1351.85 1227.84 1347.54C1230.86 1348.27 1233.75 1348.51 1236.46 1348.16C1275.79 1339.44 1266.96 1259.88 1257.72 1231.05C1256.73 1227.65 1254.42 1225.5 1251.71 1224.49C1252.06 1222.73 1251.74 1220.86 1250.49 1219.07C1249.82 1218.11 1248.79 1217.42 1247.67 1217.07C1246.48 1189.71 1253.31 1160.3 1238.91 1135.3C1222.73 1107.96 1184.13 1085.34 1153.07 1083.75C1148.62 1067.63 1144.72 1051.35 1140.42 1035.2C1135.7 1018.29 1128.98 1000.12 1114.85 988.781C1096.57 972.521 1057.55 977.481 1025.18 988.971C1026.95 980.501 1022.92 972.841 1020.45 964.901C1012.4 941.141 1004.11 917.461 995.649 893.851C965.28 814.251 940.339 731.741 902.35 655.421C886.62 629.551 856.37 617.891 827.329 615.491C813.709 614.121 799.22 613.591 785.47 615.201C785.03 614.361 784.579 613.531 784.12 612.701C772.85 593.171 749.979 556.811 723.66 563.051C720.879 544.481 720.839 525.451 723.129 506.871C723.289 505.551 721.129 504.981 720.589 506.181C703.149 545.301 706.391 593.441 727.669 630.481C729.229 633.051 731.351 634.381 733.549 634.761C736.94 673.651 745.41 712.031 755.86 749.701C754.289 749.761 752.78 750.091 751.519 750.651C718.18 762.861 681.519 764.851 646.82 757.721C637.049 755.661 627.589 752.891 618.079 750.071C616.28 743.831 614.479 737.611 612.669 731.381C608.129 711.701 606.97 692.791 595.45 676.941C594.769 675.771 594.07 674.611 593.399 673.451C584.149 656.671 574.749 639.981 565.28 623.331C562.979 620.601 547.6 590.291 535.629 571.961C537.129 571.921 538.68 571.541 540.189 570.781C548.629 566.571 548.539 554.361 550.079 546.171C554.799 520.721 560.26 495.231 561.76 469.341C561.839 468.021 559.82 467.461 559.229 468.661C547.72 491.481 539.74 515.901 531.22 539.951C531.049 540.431 530.87 540.921 530.68 541.421C522.78 531.461 508.91 529.091 496.829 531.771C476.64 537.041 466.459 553.451 460.589 572.111C402.539 599.821 333.459 571.521 298.229 644.831C289.404 666.136 285.585 689.028 285.697 712.929C286.948 718.361 287.899 723.871 288.758 729.331C290.836 742.542 292.211 755.86 294.551 769.029C297.109 783.42 301.193 797.575 305.695 811.466C315.628 842.115 328.806 871.546 341.643 901.054C343.169 904.563 337.998 907.613 336.462 904.082C329.392 887.831 322.224 871.62 315.52 855.213C305.815 831.462 296.663 806.947 291.03 781.786C265.78 915.654 257.925 1052.43 263.36 1188.49C261.379 1282.82 203.519 1364.66 186.939 1456.46C178.669 1492.64 173.479 1529.73 174.12 1566.9C172.977 1584.57 179.881 1609.81 199.603 1609.12C203.059 1610.52 206.505 1611.78 209.989 1612.98C210.969 1613.35 211.907 1613.67 212.773 1613.94C213.751 1614.24 214.651 1614.17 215.436 1613.88C230.584 1763.75 350.783 1792.56 488.87 1765.79C494.589 1765.89 500.209 1764.57 506.22 1762.88C509.14 1762.01 512.039 1761.1 514.939 1760.14C517.12 1759.62 519.309 1759.09 521.499 1758.54C615.95 1739.31 714.95 1736.14 804.22 1696.75C855.85 1674.16 904.44 1638.89 933.701 1590.05C950.76 1620.02 964.99 1650.74 972.141 1683.23C977.25 1706.66 986.01 1771.26 992.589 1794.37C995.66 1805.87 1000.96 1815.55 1007.88 1823.7C1007.86 1823.74 1007.84 1823.77 1007.83 1823.81C1013.76 1827.13 1019.03 1831.53 1023.25 1836.82C1018.76 1874.94 979.898 1911.62 999.768 1951.43C990.393 1973.01 1013.4 1990.57 1032.34 1995.02C1061.37 2004.31 1091.33 2011.29 1121.06 2017.91C1179.93 2028.89 1364.15 2069.46 1408.25 2037.88C1407.62 2031.14 1415.91 2009.24 1406.13 2008.92C1410.46 2004.63 1414.06 1999.63 1416.78 1994.2C1443.77 2002.98 1473.76 1999.83 1501.24 1996.59C1523.47 1997.07 1522.65 1975.42 1519.28 1959.19Z" fill="black"/>
<path fill-rule="evenodd" clip-rule="evenodd" d="M831.63 424.844C827.666 418.982 818.121 376.442 812.024 369.899C812.484 344.769 819.431 257.762 799.588 218.65C803.762 214.429 814.854 178.074 812.024 164.331C821.372 135.549 761.319 89.8356 738.464 77.4828C632.243 20.5241 478.321 83.3968 430.014 188.912C400.985 252.457 400.45 323.603 397.168 391.978C396.78 406.614 395.435 421.364 395.45 435.982C397.549 448.827 407.734 461.908 400.013 472.589C391.484 478.488 374.246 492.86 381.921 501.01C386.419 504.755 393.604 502.582 398.485 506.183C400.97 507.573 402.52 510.62 405.426 511.083C431.972 510.075 450.704 509.989 477.332 508.913C488.989 508.531 506.739 513.462 520.12 503.646C566.858 529.642 547.308 491.927 556.759 465.075C585.539 474.806 642.869 505.837 673.546 506.839C698.475 509.92 721.786 495.402 746.294 498.707C776.741 510.018 812.423 512.533 840.312 493.395C847.272 488.383 855.015 494.189 863.787 488.776C880.836 480.623 840.234 433.889 831.63 424.844Z" fill="#D08B5B"/>
<path fill-rule="evenodd" clip-rule="evenodd" d="M430.014 188.912C478.321 83.3968 632.243 20.5241 738.464 77.4828C761.319 89.8356 821.372 135.549 812.024 164.331C814.163 174.721 808.346 198.032 803.577 210.615C781.429 226.983 716.758 223.586 609.567 200.423L605.452 199.529L568.848 221.218L553.813 277.717C543.718 287.705 535.561 299.899 529.341 314.299C529.341 314.299 514.208 297.678 491.773 299.799C477.185 306.008 466.444 312.774 459.548 320.096C452.791 327.271 452.655 343.358 459.143 368.357L459.548 369.899L491.773 379.932H506.727L547.813 430.143L553.812 481.795C552.462 504.407 557.564 524.473 520.12 503.646C506.739 513.462 488.989 508.531 477.332 508.913C450.704 509.989 431.972 510.075 405.426 511.083C402.52 510.62 400.97 507.573 398.485 506.183C393.604 502.582 386.419 504.755 381.921 501.01C374.246 492.86 391.484 478.488 400.013 472.589C407.734 461.908 397.549 448.827 395.45 435.982C395.435 421.364 396.78 406.614 397.168 391.978L397.457 385.817C400.507 319.341 401.856 250.551 430.014 188.912ZM803.067 393.495L812.425 358.055L812.218 363.385C812.127 365.863 812.058 368.049 812.024 369.899C818.121 376.442 827.666 418.982 831.63 424.844L832.488 425.758C842.618 436.658 880.325 480.867 863.787 488.777C855.015 494.189 847.272 488.383 840.312 493.395C812.423 512.533 776.741 510.018 746.294 498.707C742.724 498.226 739.18 498.122 735.653 498.288L734.199 493.736L767.517 465.075L803.067 393.495Z" fill="#DDD2BE"/>
<path fill-rule="evenodd" clip-rule="evenodd" d="M796.823 215.312C796.445 213.141 799.436 211.522 800.593 213.722C808.998 229.703 812.365 248.211 815.342 265.863C818.349 283.701 820.336 301.613 820.446 319.721C820.53 333.65 819.265 347.74 816.89 361.679L817.179 362.671C817.712 364.493 818.25 366.314 818.794 368.133L819.615 370.861C821.201 376.099 822.703 381.361 824.332 386.586C827.733 397.491 831.314 408.427 835.7 418.98C839.98 429.278 845.185 439.209 851.372 448.491C857.335 457.439 866.798 465.005 870.999 474.943C872.463 478.406 870.298 482.984 866.254 482.431C865.991 482.748 865.59 482.978 865.046 483.026C861.906 483.3 858.963 483.039 855.83 482.745C854.081 482.581 854.084 480.19 855.83 480.026C857.161 479.901 858.457 479.791 859.752 479.716C850.792 474.407 844.4 464.04 839.289 455.553C832.721 444.649 827.76 432.735 823.716 420.687C819.563 408.317 816.622 395.689 814.259 382.867C813.988 381.391 813.73 379.914 813.482 378.435C810.496 391.128 806.651 403.589 802.094 415.565L801.455 417.232C790.95 444.466 776.722 471.961 753.057 489.961C751.983 490.777 750.886 491.552 749.78 492.31L751.126 493.082C752.466 493.847 753.786 494.581 755.077 495.183C759.859 497.414 765.05 499.115 770.185 500.32C780.791 502.811 791.929 502.097 802.749 502.444C806.298 502.558 808.317 507.879 804.689 509.607C792.738 515.298 779.83 514.09 767.494 510.086C761.39 508.103 755.662 505.328 750.363 501.705C748.172 500.208 745.628 498.36 743.48 496.224C719.813 509.466 690.397 510.948 664.055 506.212C650.366 503.75 637.101 499.255 625.43 491.566C614.204 484.172 606.202 474.81 600.489 462.681C599.982 461.606 601.391 460.267 602.256 461.318C620.201 483.113 651.083 492.207 678.251 493.937C692.747 494.861 707.576 494.093 721.513 489.756C734.734 485.64 746.078 478.096 755.55 468.063C774.749 447.726 786.253 420.06 794.515 393.731C803.503 365.088 807.783 334.952 808.666 304.976C809.113 289.789 808.55 274.474 806.165 259.455C803.799 244.56 799.408 230.144 796.823 215.312ZM527.772 86.2817C529.043 85.6357 529.938 87.3167 528.86 88.1437C506.483 105.305 486.443 127.065 470.223 150.096C440.31 192.573 421.126 241.727 412.292 292.803C407.076 322.966 405.714 353.586 406.235 384.151C406.441 396.292 407.135 408.397 407.906 420.505L408.777 433.927C409.181 440.18 409.519 446.38 409.258 452.664L409.187 454.116C408.773 461.428 409.492 468.799 407.658 475.932C406.717 479.59 401.558 480.166 399.69 476.973C399.324 476.348 398.982 475.703 398.65 475.052C394.272 482.192 388.602 488.575 382.311 494.277C385.318 493.637 388.354 493.229 391.471 493.602C396.412 494.194 400.844 496.102 403.98 499.446C407.093 498.043 410.294 497.077 413.975 497.057C416.686 497.043 418.719 500.248 417.172 502.629C414.086 507.381 409.78 510.045 404.887 512.678C401.419 514.544 397.281 512.948 396 509.258L395.927 509.034C394.486 504.366 386.822 505.12 383.206 505.842L382.142 506.059C375.411 507.46 368.838 509.252 361.981 507.404C357.558 506.211 356.402 499.553 360.666 497.343C374.136 490.363 385.444 480.987 397.065 471.573C394.499 465.282 393.042 458.253 391.362 451.856C388.997 442.852 388.306 433.164 387.452 423.915C385.829 406.33 385.21 388.554 385.384 370.9C385.973 311.272 396.171 251.459 422.22 197.464C433.632 173.811 448.624 151.924 466.345 132.551C483.961 113.292 504.536 98.0837 527.772 86.2817ZM506.917 378.296C506.226 377.338 507.575 376.071 508.521 376.692C529.002 390.145 543.215 410.573 552.386 433.014C561.464 455.231 567.038 482.444 558.085 505.612C556.66 509.302 549.835 510.672 549.136 505.612C546.015 483.016 545.53 460.388 538.667 438.42C531.863 416.643 520.221 396.701 506.917 378.296ZM491.036 451.652C491.148 451.253 491.8 451.322 491.772 451.752C491.259 459.72 490.911 467.785 489.909 475.709C489.422 479.56 488.778 483.386 488.23 487.228C487.668 491.168 487.753 495.146 485.462 498.511C482.426 502.972 474.36 501.717 474.631 495.578C474.818 491.343 476.764 488.625 478.587 484.908C479.757 482.525 480.776 480.062 481.758 477.587L483.218 473.875C486.12 466.514 488.897 459.277 491.036 451.652ZM454.361 430.545C454.485 429.918 455.496 430.069 455.466 430.694C454.919 441.972 453.647 453.123 451.655 464.236C450.747 469.301 449.688 474.338 448.568 479.361L448.084 481.513C446.886 486.803 446.113 493.022 443.429 497.748C440.747 502.471 434.379 499.041 435.204 494.28C436.168 488.722 439.579 483.131 441.562 477.793C443.392 472.865 444.992 467.85 446.487 462.811C449.634 452.204 452.215 441.398 454.361 430.545ZM522.658 461.855L522.896 461.61C523.828 460.597 525.218 461.272 525.663 462.341C527.485 466.722 526.573 471.888 526.443 476.539L526.419 477.554C526.322 482.265 526.389 486.678 524.253 491.027C521.659 496.308 514.824 493.028 514.295 488.33C513.717 483.203 516.142 478.184 517.708 473.382C518.703 470.33 519.428 467.156 520.941 464.386C519.647 464.609 518.355 465.056 517.172 465.379C516.642 465.522 516.442 464.744 516.948 464.564C518.904 463.872 521.112 463.352 522.658 461.855ZM795.316 477.402C794.691 476.703 795.47 475.772 796.281 476.15C806.021 480.699 815.132 483.658 825.879 484.627C830.535 485.047 830.565 492.363 825.879 491.939C814.663 490.929 802.908 485.9 795.316 477.402ZM452.641 323.709C461.216 304.42 488.344 287.309 506.535 305.247C506.876 305.582 506.529 306.313 506.034 306.108C494.719 301.419 480.867 307.383 473.036 315.913C466.823 322.679 463.09 331.367 462.349 340.524C461.608 349.689 463.799 359.255 469.886 366.344C473.079 370.063 477.391 373.583 482.465 374.03C487.588 374.481 491.858 370.873 496.701 369.893C500.352 369.155 503.108 371.446 503.466 375.045C504.255 382.988 496.347 388.319 489.492 389.614C482.118 391.006 474.592 389.485 468.238 385.489C447.716 372.583 443.289 344.748 452.641 323.709ZM645.186 134.646C648.915 131.082 655.258 134.625 653.883 139.709C650.956 150.529 644.737 159.674 637.848 168.354C631.218 176.705 624.117 184.73 616.505 192.199C608.943 199.619 600.727 206.485 592.092 212.618L589.491 214.46C583.371 218.774 576.889 223.137 570.038 226.244C568.384 240.494 565.148 254.554 560.253 268.015C555.537 280.977 549.537 293.504 542.268 305.227L541.224 306.906C534.543 317.613 526.51 329.578 515.173 335.447C514.833 335.624 514.492 335.732 514.156 335.795C516.692 337.486 518.835 339.613 520.109 342.669C521.505 346.015 518.587 349.172 515.79 350.277C509.876 352.614 504.105 348.658 498.788 344.438C498.563 344.944 498.352 345.455 498.169 345.97C496.98 349.34 496.63 352.784 493.564 355.02C492.107 356.083 490.313 355.132 489.395 353.928C486.389 349.978 489.501 344.597 492.145 341.369C492.51 340.923 492.888 340.499 493.277 340.092C492.16 339.271 491.07 338.543 490.014 337.984C483.805 334.696 474.601 334.113 471.026 341.392C470.752 341.951 469.891 341.662 469.891 341.084C469.9 332.143 479.059 327.287 487.007 326.627C492.815 326.145 498.431 328.182 503.658 330.553L504.633 331.001C506.578 331.904 508.582 332.756 510.501 333.709C510.188 332.886 510.193 331.918 510.684 330.958C516.695 319.219 527.018 309.673 534.462 298.801C541.843 288.015 548.181 276.472 553.24 264.419C558.15 252.72 561.997 240.654 564.688 228.347C563.801 228.53 562.802 227.741 562.865 226.816C563.015 224.578 564.11 222.562 566.033 221.703C568.151 210.127 569.232 198.355 569.169 186.488C569.164 185.568 570.497 185.601 570.576 186.488C571.511 197.039 571.587 207.693 570.801 218.285C575.803 213.683 581.077 209.308 585.893 204.584C593.14 197.476 600.151 190.178 606.914 182.609C613.814 174.887 620.336 166.881 626.301 158.41L629.422 153.968C634.22 147.158 639.15 140.419 645.186 134.646ZM635.777 58.6203C676.933 56.0513 720.887 61.1093 757.855 80.4283C778.158 91.0373 793.851 107.072 805.064 127.027C811.759 138.943 816.838 152.138 818.762 165.704C820.738 179.643 818.418 192.072 809.518 203.152C805.983 207.552 800.029 202.637 800.9 198.135C806.228 170.591 797.586 143.377 782.259 120.574C760.018 87.4843 721.177 72.7853 683.36 66.2283C664.78 63.0083 645.935 61.6623 627.085 62.3173C612.714 62.8173 597.972 64.1563 584.334 68.9913C583.759 69.1953 583.53 68.2993 584.084 68.0883C600.352 61.8753 618.512 59.6983 635.777 58.6203ZM696.815 120.903C698.934 119.56 701.526 120.938 702.254 123.117C704.822 130.799 699.44 140.948 695.84 147.596C691.766 155.119 686.527 162.153 681.117 168.76C670.294 181.974 656.069 193 640.459 199.93C639.503 200.355 638.389 199.201 639.266 198.385C651.344 187.138 662.295 175.08 671.775 161.553C676.433 154.906 680.318 147.894 684.028 140.691C687.348 134.245 690.47 124.925 696.815 120.903ZM766.033 129.953C767.387 125.225 775.099 126.03 774.78 131.137C773.955 144.33 767.731 157.573 760.968 168.754C754.004 180.267 745.185 190.527 735.076 199.388C734.578 199.825 733.896 199.152 734.347 198.659C743.069 189.111 750.114 178.235 755.331 166.399C760.542 154.58 762.509 142.248 766.033 129.953ZM727.703 127.817C729.178 123.706 736.238 124.011 735.805 128.914C734.615 142.392 726.705 156.517 719.379 167.649C711.605 179.46 701.682 189.865 690.592 198.604C690.177 198.931 689.59 198.389 689.995 198.007C699.956 188.622 708.034 177.781 714.429 165.689C717.693 159.519 720.431 153.094 722.593 146.457C724.593 140.317 725.532 133.869 727.703 127.817Z" fill="black"/>
<path fill-rule="evenodd" clip-rule="evenodd" d="M640.832 395.758C648.834 379.758 722.223 386.949 722.223 386.949L728.422 437.807C728.422 437.807 693.011 449.19 671.933 446.805C650.854 444.42 632.83 411.758 640.832 395.758Z" fill="white"/>
<path fill-rule="evenodd" clip-rule="evenodd" d="M646.003 422.471C643.468 417.047 695.934 402.256 712.178 412.364C728.422 422.471 723.343 436.256 723.343 436.256C723.343 436.256 655.021 451.84 646.003 422.471Z" fill="#FF8181"/>
<path fill-rule="evenodd" clip-rule="evenodd" d="M636.281 386.29C648.527 372.06 669.152 371.069 686.237 374.627C697.201 376.911 707.876 380.715 719.012 382.125C724.213 382.784 729.47 382.981 734.709 382.884C739.855 382.789 745.009 381.752 750.137 381.945C750.925 381.974 751.223 383.009 750.54 383.43C743.505 387.751 734.028 389.137 725.718 389.982C725.744 390.597 725.781 391.197 725.866 391.706C726.093 393.063 726.3 394.411 726.467 395.777C726.844 398.858 727.266 401.929 727.687 405.004C728.517 411.055 728.778 417.298 730.237 423.245L730.492 424.234C730.83 425.484 730.907 426.611 730.794 427.627L731.132 427.474L732.199 426.957L732.899 426.626C735.453 425.442 737.89 424.58 740.893 424.868C743.179 425.086 745.098 426.645 745.112 429.086C745.169 440.041 730.405 443.564 721.96 445.661L719.483 446.271C708.734 448.893 697.758 451.191 686.703 451.741C668.961 452.622 649.024 447.728 637.418 433.337C626.589 419.91 624.604 399.858 636.281 386.29ZM716.852 432.318C714.99 415.824 694.722 414.917 688.891 425.377C686.304 410.798 648.028 424.117 651.021 427.015C662.365 438.001 679.58 438.99 694.379 436.958C701.916 435.923 709.459 434.238 716.852 432.318ZM694.358 389.088L689.262 388.355L687.255 388.078C674.623 386.386 660.416 385.513 650.03 393.612C646.238 396.568 644.104 400.424 643.307 404.566C653.135 403.109 662.998 401.998 672.891 401.073L675.59 400.825C681.78 400.267 687.967 399.679 694.151 399.062L698.546 398.617L702.939 398.161C704.485 397.999 714.904 397.466 716.863 397.824C717.072 396.064 717.345 392.255 717.787 390.542C710.385 390.793 703.015 390.243 695.656 389.265L694.358 389.088ZM717.814 315.367C725.366 319.957 736.872 330.66 728.748 342.04C719.186 352.073 705.419 340.569 698.634 335.366C692.343 331.334 685.275 341.704 691.112 346.413C740.136 382.708 760.031 316.567 721.634 309.97C717.406 309.243 715.836 313.947 717.814 315.367ZM731.328 334.704L731.691 334.506L731.814 334.432C732.026 334.295 731.891 334.31 731.408 334.477L731.046 334.607V334.863C731.139 334.806 731.238 334.763 731.328 334.704ZM634.617 293.924L634.616 293.699C634.63 287.322 638.344 272.762 647.524 272.762C653.259 272.762 656.741 282.671 657.344 292.886L657.365 293.302C657.631 299.653 655.888 313.534 647.524 313.534C639.072 313.534 634.704 300.386 634.617 293.924ZM769.773 291.924L769.774 291.699C769.76 285.322 766.046 270.762 756.866 270.762C751.274 270.762 747.824 280.182 747.097 290.12L747.046 290.886C746.684 297.022 748.314 311.534 756.866 311.534C765.318 311.534 769.686 298.386 769.773 291.924ZM639.855 229.285C647.347 228.146 657.268 230.31 660.761 237.928C662.317 241.322 660.474 245.075 656.551 245.263C647.07 245.717 638.567 243.607 630.245 249.772C626.664 252.425 623.653 256.1 621.126 259.764L620.17 261.159L619.378 262.308C617.662 264.831 616.037 267.571 616.291 270.615C616.366 271.516 615.445 272.371 614.57 272.335C609.116 272.111 608.529 265.273 609.246 261.166C610.58 253.544 614.269 246.389 619.382 240.626C624.752 234.574 631.841 230.504 639.855 229.285ZM743.044 238.535C748.21 235.214 754.818 233.938 760.87 234.427C772.803 235.388 792.822 245.532 790.187 260.107C789.374 264.602 783.122 266.974 779.438 264.48C775.477 261.799 774.513 257.632 771.565 254.128C769.213 251.329 766.232 249.304 763.04 247.579C759.894 245.878 756.254 244.847 752.684 244.471L752.089 244.414C749.94 244.231 739.088 244.28 740.681 248.331C740.993 249.124 739.813 249.752 739.271 249.152C735.944 245.472 739.712 240.677 743.044 238.535Z" fill="black"/>
<path fill-rule="evenodd" clip-rule="evenodd" d="M2188.8 368.799C2177.88 362.222 2137.06 367.043 2104.99 368.799C2079.52 370.193 2061.33 367.43 2055.51 371.348C2042.36 380.2 2048.75 423.006 2071.41 428.86C2094.07 434.714 2178.09 442.89 2192.57 428.86C2207.06 414.83 2208.4 380.598 2188.8 368.799Z" fill="white"/>
<path fill-rule="evenodd" clip-rule="evenodd" d="M2174.65 357.477C2157.51 355.396 2140.9 360.644 2124.14 363.29C2115.29 364.685 2106.43 365.728 2097.48 366.115C2095.68 366.194 2093.87 366.24 2092.07 366.277C2091.9 364.69 2091.02 363.234 2089.09 362.361C2085.15 360.573 2081.99 359.767 2077.66 359.94C2073.7 360.096 2069.72 360.504 2065.82 361.218C2058.73 362.517 2051.61 365.466 2046.43 370.588C2034.43 382.441 2036.26 401.48 2045.53 414.391C2064.68 441.068 2099.64 442.306 2129.57 441.958L2132.34 441.922C2159.6 441.533 2198.6 445.597 2210.98 414.583C2215.53 403.178 2214.9 389.959 2209.33 379.021C2202.67 365.974 2188.68 359.178 2174.65 357.477ZM2089.5 401.895L2089.75 401.905C2102.32 402.389 2114.88 402.73 2127.46 402.952C2127.08 406.181 2126.7 409.412 2126.26 412.634C2125.91 415.17 2125.55 417.703 2125.16 420.233C2125 421.304 2124.4 422.967 2124.57 424.028L2124.63 424.447C2123.99 424.739 2123.4 425.21 2122.96 425.892C2122.81 426.128 2122.7 426.367 2122.59 426.604C2112.83 426.68 2102.32 426.491 2092.37 424.716L2092.35 424.5C2092.17 423.229 2091.64 422.373 2090.94 421.786C2090.24 417.732 2090.3 413.411 2090.03 409.389C2089.86 406.89 2089.68 404.393 2089.5 401.895ZM2137.06 403.124C2146.12 403.278 2155.18 403.396 2164.24 403.286L2168.35 403.222C2167.48 407.88 2166.54 412.523 2165.75 417.212C2164.93 422.099 2169.24 425.206 2172.96 425.08C2172.54 425.149 2172.12 425.22 2171.71 425.278C2160.07 426.923 2148 426.487 2136.19 426.474C2136.83 422.767 2136.57 418.585 2136.66 415.491L2136.68 415.012C2136.86 411.047 2136.99 407.085 2137.06 403.124ZM2198.59 402.269C2198.28 404.691 2197.67 407.061 2196.75 409.268C2192.89 418.593 2184.02 422.944 2174.64 424.776C2176.27 424.214 2177.56 422.864 2177.89 420.552C2178.7 414.801 2178.99 408.955 2179.01 403.117C2185.55 403.056 2192.13 402.916 2198.59 402.269ZM2055.42 400.278C2060.07 401.376 2065.48 400.873 2070.04 401.08C2074.32 401.274 2078.6 401.444 2082.88 401.617C2082.68 404.537 2082.48 407.457 2082.27 410.375C2081.99 414.148 2081.97 418.134 2081.24 421.891C2072.63 418.952 2064.92 414.24 2059.13 406.706C2057.69 404.828 2056.4 402.625 2055.42 400.278ZM2176.62 372.775C2184.37 374.61 2191.7 378.485 2195.64 385.574C2197.98 389.781 2199.01 394.767 2198.81 399.68C2192.26 398.918 2185.6 398.629 2178.97 398.39C2178.95 397.196 2178.92 396.004 2178.89 394.814L2178.78 391.764C2178.6 385.948 2178.51 378.644 2176.62 372.775ZM2136.52 373.485L2139.93 373.102C2149.4 372.022 2158.87 370.889 2168.34 371.539C2169.72 371.633 2171.11 371.783 2172.5 371.987C2170.83 378.029 2170.97 385.126 2170.27 391.107C2170 393.42 2169.66 395.713 2169.28 397.998L2167.64 397.921C2157.47 397.37 2147.3 397.032 2137.12 396.628C2137.12 394.718 2137.11 392.807 2137.08 390.895L2137.05 388.983C2136.93 384.099 2137.24 378.598 2136.52 373.485ZM2088.95 372.709C2098.87 374.311 2109.13 374.651 2118.87 374.663C2122.77 374.668 2126.66 374.429 2130.54 374.084C2130.29 376.155 2130.16 378.249 2129.97 380.291C2129.58 384.417 2129.15 388.536 2128.67 392.652L2128.24 396.253C2115.74 395.686 2103.24 395.074 2090.74 394.439L2088.97 394.344L2088.48 387.423C2088.14 382.808 2087.77 378.194 2087.25 373.6L2087.64 373.459C2088.1 373.269 2088.54 373.008 2088.95 372.709ZM2084.64 374.427C2084.1 380.953 2083.79 387.505 2083.39 394.041L2075.15 393.601C2073.78 393.526 2072.4 393.45 2071.03 393.371C2065.69 393.063 2058.83 391.446 2053.55 392.954C2053.14 388.155 2054.52 383.479 2058.85 380.254C2066.45 374.591 2076.14 376.607 2084.64 374.427ZM2112.8 316.094C2100.53 309.066 2069.74 301.883 2067.79 323.968C2066.89 334.131 2074.44 342.551 2083.27 346.309L2083.6 346.448C2091.87 349.85 2106.54 353.692 2113.7 346.315C2119.66 340.175 2111.76 329.166 2104.35 334.196C2100.55 336.78 2092.53 334.876 2088.29 333.646L2088.02 333.569C2083.44 332.222 2077.33 327.911 2079.22 322.268C2080.9 317.276 2088.04 316.364 2092.51 316.202C2099.18 315.963 2105.67 317.512 2112.28 318.016C2113.33 318.096 2113.65 316.58 2112.8 316.094ZM2061.96 280.581C2045.31 279.801 2034.95 297.987 2038.78 312.888C2039.44 315.459 2042.32 317.983 2045.09 317.694L2045.79 317.63C2046.15 317.595 2046.5 317.551 2046.83 317.46C2049.47 316.73 2051.83 313.988 2051.64 311.146L2051.59 310.318C2051.2 303.279 2051.96 295.169 2060.33 293.464C2067.42 292.018 2071.38 298.847 2071.47 305.133C2071.48 306.249 2072.74 307.028 2073.72 306.428C2078.85 303.307 2079.74 297.098 2077.78 291.751C2075.3 284.976 2069.09 280.914 2061.96 280.581ZM2185.57 284.481C2173.45 280.437 2160.37 286.898 2154.5 297.614C2152.44 298.21 2150.39 299.797 2150.67 302.227C2151.08 305.723 2151.71 307.927 2154.13 310.578C2157.92 314.726 2165.02 312.605 2166.6 307.5L2166.67 307.269C2168.46 300.67 2175.72 296.316 2182.34 298.626C2190.07 301.324 2189.84 309.488 2195.26 314.244C2195.9 314.803 2196.67 314.892 2197.43 314.523C2203.19 311.74 2202.15 303.364 2200.1 298.57C2197.41 292.279 2192.17 286.684 2185.57 284.481ZM2202.07 247.674C2192.25 237.652 2166.64 227.954 2159.92 246.461C2158.64 249.986 2161.37 254.739 2165.04 255.47C2171.05 256.666 2176.38 254.057 2182.35 254.525C2187.18 254.906 2192.22 256.521 2196.09 259.515C2206.79 267.807 2209.14 281.832 2216.6 292.386C2216.96 292.9 2217.67 292.684 2217.73 292.078C2219.43 276.713 2212.83 258.65 2202.07 247.674ZM2073.98 237.808C2067.46 235.506 2060.08 235.703 2053.53 237.745C2046.93 239.803 2040.87 243.711 2036.2 248.817C2034.08 251.135 2032.12 253.693 2030.55 256.416C2029.72 257.859 2028.84 260.84 2027.89 262.615C2022.75 265.58 2020.56 272.335 2025.16 277.14L2025.36 277.351L2025.98 277.961C2028.45 280.407 2032.18 281.467 2035.55 280.49C2043.1 278.306 2044.01 272.361 2046.63 266.051C2048.35 261.883 2051.31 258.195 2054.9 255.486C2063.37 249.086 2077.26 247.047 2087.46 250.063C2088.01 250.224 2088.64 249.532 2088.26 249.03C2086.32 246.526 2085.21 244.471 2082.62 242.451C2079.99 240.401 2077.13 238.92 2073.98 237.808Z" fill="black"/>
</svg>
