<svg width="844" height="1204" viewBox="0 0 844 1204" fill="none" xmlns="http://www.w3.org/2000/svg">
<path fill-rule="evenodd" clip-rule="evenodd" d="M661.546 635.572C652.841 632.468 644.451 628.882 636.806 623.607C614.769 607.2 600.4 582.508 586.823 559.113C567.699 525.087 554.074 488.831 544.656 451.008C540.61 434.758 539.235 415.916 530.041 401.509C509.198 371.342 448.08 375.251 415.626 380.546C393.893 384.393 389.401 408.721 384.465 426.723C380.355 441.68 377.664 456.808 375.406 472.137C370.033 475.671 363.967 478.541 358.185 481.04C295.172 500.368 284.097 536.2 260.029 591.548C219.379 671.996 109.075 703.495 92.4134 798.703C81.6782 861.559 112.206 920.693 143.679 972.947C172.991 1030.02 213.912 1057.42 279.08 1043.93C340.204 1030.22 398.947 1007.27 458.995 989.545C488.079 982.393 517.117 963.788 547.711 970.275C610.75 984.436 675.519 991.094 740.122 989.256C830.827 992.925 830.813 905.843 821.504 838.407C814.983 733.46 762.064 666.073 661.546 635.572V635.572Z" fill="white"/>
<path fill-rule="evenodd" clip-rule="evenodd" d="M667.611 787.43C675.19 792.444 681.565 800.045 686.682 808.045C665.318 805.822 643.991 803.259 622.711 800.341C625.497 798.56 628.309 796.819 631.185 795.174C641.678 789.26 655.894 779.681 667.611 787.43ZM312.66 850.6C308.746 849.067 307.231 843.097 305.705 839.674C300.921 828.942 296.556 818.027 292.014 807.191C309.26 802.273 326.031 796.818 343.896 794.196C363.106 791.381 382.6 790.699 401.987 791.332C441.257 792.613 480.162 799.033 518.77 805.916C557.333 812.792 595.894 819.398 634.727 824.582C672.772 829.661 710.939 833.378 749.176 836.641C756.605 837.276 768.992 839.948 774.967 834.1C779.697 829.468 779.851 820.926 773.931 817.161C770.244 814.814 764.902 814.779 760.69 814.238C755.385 813.555 750.059 813.101 744.722 812.747C742.548 812.604 740.373 812.471 738.198 812.339C755.658 805.754 773.893 802.163 792.821 803.164C793.892 809.669 798.715 816.361 801.354 821.725C805.963 831.091 809.556 840.57 811.915 850.753C816.845 872.039 817.059 894.131 815.667 915.841C814.388 933.943 811.64 953.965 797.446 966.785C786.698 976.492 771.535 980.085 757.468 981.215C741.118 982.529 724.516 981.126 708.303 978.934C685.564 975.859 662.718 971.792 640.426 966.341C597.249 955.784 555.864 938.986 517.682 916.212C499.062 905.107 481.294 892.613 462.418 881.93C443.184 871.043 422.719 862.597 401.228 857.352C377.178 851.483 352.037 848.979 327.319 850.426C323.029 850.677 316.832 852.233 312.66 850.6ZM284.79 839.702C287.317 847.906 289.251 857.272 294.645 864.165C299.988 870.995 308.049 873.406 316.399 874.014C326.468 874.745 336.655 874.276 346.745 874.651C367.441 875.42 387.853 878.783 407.637 884.95C426.074 890.699 443.189 899.665 459.675 909.613C474.92 918.812 489.718 928.687 504.968 937.858C500.909 939.719 496.896 941.733 492.862 943.486C484.399 947.162 475.884 950.708 467.331 954.167C450.465 960.985 433.528 967.638 416.417 973.819C381.915 986.282 346.846 997.171 311.354 1006.45C294.427 1010.87 277.259 1016.04 259.673 1016.77C244.079 1017.42 229.635 1013.02 217.058 1003.74C190.972 984.505 170.219 956.74 153.442 929.352C143.474 913.081 134.776 895.984 127.582 878.307C123.943 869.368 120.643 860.291 117.673 851.108C116.279 846.797 114.958 842.461 113.707 838.105C113.157 836.19 112.629 834.268 112.107 832.345C138.781 824.203 165.772 816.853 193.396 812.773C208.145 810.594 223.091 809.491 238.001 809.651C245.402 809.731 252.799 810.131 260.161 810.895C264.124 811.306 268.07 811.835 272 812.491C273.624 812.761 275.293 813.16 276.967 813.454C279.524 822.219 282.103 830.977 284.79 839.702ZM836.177 804.853C837.615 801.945 838.221 799.083 838.736 795.916C839.129 793.501 840.172 790.1 839.258 786.964C838.236 783.451 835.45 780.31 833.45 777.314C831.242 774.003 829.036 770.689 826.832 767.374C822.424 760.745 818.027 754.11 813.636 747.47C795.705 720.356 777.897 693.163 760.06 665.987C744.232 641.87 728.67 617.537 712.359 593.744C698.412 573.399 683.21 553.389 664.119 537.566C639.981 517.56 611.239 508.135 581.217 500.781C577.938 497.377 573.558 495.518 568.877 495.895C562.263 488.391 557.006 483.15 554.623 473.608C553.481 469.038 553.839 456.196 549.39 453.491C544.104 450.279 541.343 454.531 539.885 459.323C535.008 475.357 540.606 496.914 553.487 512.974C548.06 531.736 540.865 558.401 528.028 573.432C514.283 589.527 495.274 594.536 474.763 594.866C435.65 595.496 396.578 580.955 366.744 555.755C357.676 548.096 349.254 539.542 341.635 530.444C335.92 523.618 329.159 513.085 324.688 505.123C324.688 502.02 321.026 498.776 358.31 496.269C395.595 493.762 398.422 442.696 399.251 435.746C399.925 430.103 402.79 421.343 398.814 416.741C397.127 414.787 393.665 414.472 391.525 415.8C387.492 418.306 386.166 424.713 384.898 429.064C383.122 435.159 377.315 472.989 366.311 477.369C361.159 479.42 355.251 479.458 349.802 479.837C343.072 480.307 336.329 480.651 329.626 481.434C327.154 481.723 324.458 482.523 322.019 482.546C320.432 482.561 318.795 481.79 317.261 481.249C312.085 479.419 306.912 480.792 301.579 481.509C254.428 487.847 205.879 502.313 165.661 528.343C130.212 551.285 105.238 584.28 88.759 622.857C71.945 662.226 62.3075 704.799 54.2308 746.709C51.5252 760.751 49.1624 774.859 47.1325 789.014C45.1707 802.693 42.7167 816.677 42.1293 830.493C41.8967 835.96 43.2029 841.039 45.2128 846.033C47.4763 851.653 52.8264 853.869 57.9579 856.493C69.2224 862.257 81.1053 866.727 93.3482 869.892C100.827 883.502 107.122 897.644 112.18 912.321C110.304 916.04 110.264 921.594 109.904 925.209C109.008 934.21 108.625 943.259 108.545 952.302C108.384 970.426 109.474 988.532 110.328 1006.63C111.194 1024.98 114.073 1097.4 114.542 1106.24C114.907 1113.11 114.416 1122.72 118.033 1128.82C123.593 1138.19 137.314 1137.88 143.67 1130.28C301.579 1164.23 598.404 1154.01 717.95 1136.92C733.504 1134.7 728.62 1137.16 732.575 1133.23C735.544 1130.28 738.07 1125.23 738.891 1121.16C739.987 1115.74 738.217 1110.83 735.113 1106.45C731.851 1101.83 731.256 1094.36 730.044 1088.88C727.178 1075.91 725.754 1018.97 724.414 1012.66C723.997 1010.69 723.593 1008.61 723.106 1006.53C745.035 1008.61 767.883 1008.61 788.745 1001.27C800.575 997.114 811.608 990.579 820.101 981.248C830.384 969.951 836.105 955.728 839.047 940.883C842.843 921.74 843.649 901.911 842.903 882.451C841.867 859.452 838.054 836.13 828.588 815.013C831.703 812.12 834.313 808.63 836.177 804.853Z" fill="black"/>
<path fill-rule="evenodd" clip-rule="evenodd" d="M367.299 76.8427C419.256 74.0094 465.289 59.4268 501.862 92.0633C501.862 92.0633 561.027 47.9271 570.899 64.737C577.514 76.0008 568.34 91.1216 570.8 105.021C586.839 132.333 585.932 178.562 586.839 189.396C589.124 216.702 603.521 319.456 603.521 343.856C603.521 356.311 593.241 388.931 586.839 407.084C572.589 447.488 545.389 468.08 500.781 468.08C456.173 468.08 383.365 430.837 360.014 397.771C357.968 394.873 344.734 403.327 330.892 388.662C315.897 372.774 307.578 342.471 307.578 324.407C307.578 301.485 292.748 285.589 294.473 256.248C298.325 190.721 311.703 79.8745 367.299 76.8427Z" fill="white"/>
<path fill-rule="evenodd" clip-rule="evenodd" d="M361.494 0.658277C362.171 0.617095 362.855 0.650041 363.539 0.716755C364.29 0.7497 365.04 0.823004 365.79 0.972081C369.608 1.70429 373.013 3.72219 375.652 6.56373C375.726 6.63785 375.783 6.72104 375.849 6.79434C377.086 7.72505 378.232 8.78012 379.263 9.89944C379.444 9.72648 379.618 9.55434 379.807 9.38138C380.351 8.90284 380.92 8.44985 381.514 8.02238C383.998 5.89447 386.913 4.34756 390.048 3.46743L390.477 3.35156C390.559 3.32685 390.641 3.31038 390.724 3.2939C392.95 2.55346 395.292 2.17459 397.65 2.182C400.47 2.0914 403.298 2.55346 405.936 3.63983C409.061 4.93376 411.782 6.97554 414.066 9.43079C415.567 10.6498 416.878 11.9915 418.263 13.4666C421.124 16.5215 423.383 20.096 424.81 24.0338C425.008 24.5856 425.181 25.1531 425.337 25.7214C428.825 25.3187 432.329 25.0304 435.834 24.8896C439.767 24.6515 443.7 24.5683 447.641 24.701C458.5 25.0543 469.12 26.9659 479.401 30.4664C481.463 31.075 483.466 31.8493 485.396 32.8047C488.422 34.0072 491.283 35.5391 493.979 37.3923L496.276 38.753C497.43 39.4379 498.583 40.1317 499.701 40.8433C502.364 42.5491 504.888 44.4591 507.279 46.5182C509.802 48.5534 512.185 50.7689 514.452 53.0908C515.068 53.7192 515.662 54.3559 516.249 54.9966C521.475 57.8143 526.118 61.4218 530.449 65.7245C533.883 63.751 537.439 61.9621 541.109 60.3717C544.893 58.7327 549.7 57.0442 553.666 55.9331C557.228 54.9365 560.749 54.2529 564.319 53.7497C565.944 53.4696 567.576 53.2473 569.217 53.0578L569.151 53.0833V53.0833C570.305 52.959 571.451 52.8519 572.614 52.7531L572.581 52.7448V52.7448C573.076 52.7045 573.579 52.6625 574.073 52.6295L575.277 52.5315V52.5315C575.64 52.4986 576.168 53.3461 576.201 53.6426L576.242 53.9473V53.9473C576.514 54.2529 576.761 54.5906 576.934 54.7965C577.149 54.7792 577.363 54.7636 577.578 54.7545C578.221 54.6977 578.963 55.8417 579.342 56.2782L579.685 56.6807C580.076 57.15 580.466 57.6904 580.529 58.2797C580.95 61.6986 581.346 65.124 581.708 68.5504C581.849 71.1448 581.708 73.7145 581.28 76.2596C580.958 78.7305 580.628 81.2014 580.299 83.664C579.771 85.3945 579.251 87.1241 578.732 88.8529C578.526 89.5126 578.295 90.1625 578.072 90.8132C576.754 95.1586 575.208 99.3888 573.367 103.488C574.71 104.972 575.962 106.511 577.127 108.1C577.406 108.385 577.686 108.67 577.949 108.966C578.023 108.852 578.13 108.744 578.245 108.686C578.641 108.513 578.93 108.719 579.177 109.057C581.774 111.536 583.663 114.428 584.833 117.729L585.563 119.452C585.684 119.74 585.804 120.028 585.922 120.316C586.853 122.82 587.571 125.39 588.164 127.992C588.695 130.04 589.076 132.115 589.322 134.213C591.103 140.187 592.511 146.298 593.84 152.327C594.049 153.276 593.95 154.123 593.646 154.844L594.423 155.6V155.6L595.75 156.92C597.979 159.141 600.253 161.475 601.909 164.117C603.624 166.859 604.886 169.791 606.288 172.7L606.589 173.317V173.317L607.207 174.556C607.874 175.909 608.194 176.656 608.786 178.291C609.767 181.018 610.295 183.76 610.542 186.652C610.905 190.86 610.855 195.448 609.008 199.36C609 199.393 608.984 199.418 608.967 199.442C608.126 203.223 606.048 206.731 602.89 208.972C602.214 209.607 601.489 210.175 600.714 210.627C598.854 211.718 597.145 211.816 595.115 211.311L594.86 211.245C594.604 211.179 594.373 211.121 594.151 211.072C594.48 211.344 594.645 211.666 594.151 211.895C593.672 212.126 593.244 212.258 592.84 212.307C593.013 212.53 593.029 212.769 592.666 212.966C591.875 213.386 591.232 213.519 590.572 213.403L590.711 214.548C591.792 223.212 592.76 224.926 593.606 234.233C594.167 243.762 595.057 253.267 596.286 262.731L596.709 266.17C598.066 277.069 599.591 288.049 601.926 298.772C603.105 303.459 604.119 308.178 604.977 312.931C606.189 316.546 607.038 320.244 607.508 324.017C608.192 327.855 608.662 331.726 608.934 335.63C609.882 338.126 610.344 340.662 610.319 343.248C610.443 346.724 610.328 350.193 609.957 353.644C609.751 357.234 609.256 360.792 608.473 364.317C607.772 369.153 606.494 373.823 604.663 378.353C603.196 383.409 601.398 388.368 599.353 393.218C596.179 400.73 592.345 407.706 587.983 414.583C583.893 421.032 579.507 427.243 574.494 433.017C568.013 440.478 560.625 447.315 552.529 453.08C547.911 456.491 543.038 459.554 537.943 462.174C531.709 465.385 525.377 468.276 518.624 470.228C514.411 471.447 510.123 472.287 505.786 472.93C497.269 474.19 488.446 474 479.88 472.526C474.355 471.785 468.922 470.5 463.785 468.663C459.563 467.148 455.54 465.41 451.516 463.45C449.446 462.453 447.451 461.3 445.538 460.007C442.323 457.923 439.313 455.568 436.51 452.965C435.594 452.182 434.704 451.383 433.83 450.543C433.409 450.173 433.64 449.621 434.127 449.49L434.275 449.472V449.472C434.086 449.299 433.888 449.126 433.698 448.945C433.657 448.912 433.624 448.872 433.591 448.83C433.5 448.748 433.401 448.666 433.319 448.584C432.997 448.303 433.319 447.677 433.599 447.529C433.706 447.471 433.846 447.464 434.003 447.479C433.97 447.446 433.945 447.422 433.912 447.398C433.879 447.372 433.871 447.306 433.879 447.24L433.756 447.142V447.142C433.335 446.771 433.55 446.228 434.044 446.087C434.286 446.014 434.684 446.052 435.1 446.142L435.256 446.178L434.976 445.914C434.481 445.486 434.638 445.008 435.248 444.861C435.703 444.887 436.153 444.95 436.598 445.058L436.93 445.148C437.095 445.19 437.252 445.239 437.417 445.289C437.136 445.033 436.856 444.787 436.584 444.531C436.312 444.293 436.6 443.608 436.848 443.469C437.186 443.28 437.845 443.542 438.151 443.765C438.901 443.848 439.89 444.176 440.253 444.489C441.251 445.445 442.281 446.359 443.329 447.249C443.963 447.446 444.565 447.71 445.027 448.105C446.214 449.242 447.451 450.313 448.713 451.35L449.672 452.01C449.832 452.119 449.993 452.226 450.156 452.33C451.97 453.393 453.783 454.447 455.589 455.51C462.21 457.75 468.831 459.991 475.444 462.223L476.318 462.486V462.486L482.741 463.277V463.277C486.962 463.721 491.192 463.697 495.414 463.211C498.58 463.253 501.721 462.939 504.813 462.296C510.066 461.407 515.219 460.098 520.232 458.269C526.004 456.169 531.503 453.402 536.871 450.42C538.8 449.341 540.697 448.196 542.56 446.986C543.162 446.558 543.764 446.12 544.366 445.676C548.332 442.702 552.125 439.531 555.777 436.179C557.492 434.606 559.141 432.968 560.733 431.271C560.963 431.023 561.186 430.785 561.409 430.537C562.934 428.873 564.41 427.153 565.82 425.373L567.164 423.858V423.858C572.589 417.113 577.413 409.857 581.75 402.385C586.054 394.981 589.599 387.189 592.419 379.126C593.326 376.251 594.118 373.337 594.777 370.388C595.997 366.846 596.797 363.214 597.168 359.508C597.292 358.782 597.391 358.057 597.49 357.333L597.547 356.19C597.555 355.999 597.561 355.809 597.564 355.619C597.729 354.467 597.869 353.313 597.976 352.16C598.042 351 598.084 349.838 598.092 348.676L598.001 341.552V341.552C597.976 341.329 597.952 341.1 597.935 340.868L597.754 339.296C597.358 336.05 597.053 332.797 596.657 329.552C596.657 329.535 596.657 329.51 596.649 329.486C596.5 328.275 596.344 327.056 596.162 325.837C596.072 325.112 595.956 324.387 595.849 323.662L595.643 322.395V322.395C595.261 320.19 594.796 318.003 594.233 315.835L593.986 314.907L592.551 307.7L590.935 300.609C589.888 295.857 589.014 291.071 588.321 286.245C587.068 278.553 585.996 270.851 585.064 263.117C585.015 262.747 584.965 262.368 584.924 261.997C583.976 254.824 583.292 247.625 582.846 240.401C582.244 233.286 581.898 226.153 581.807 219.012C581.799 218.69 582.014 218.428 582.269 218.279L582.246 216.906C582.216 215.691 582.194 217.148 582.183 215.764L582.168 211.955C582.169 211.638 582.172 211.417 582.178 211.401C577.773 211.706 574.81 211.456 570.557 211.232L569.835 211.195C565.935 211.015 562.06 210.587 558.209 209.943C558.193 210.142 558.061 210.281 557.838 210.322C557.443 210.339 557.072 210.339 556.692 210.348L556.833 210.882V210.882C556.841 211.155 556.717 211.327 556.453 211.401L555.353 211.451C553.885 211.512 552.411 211.541 550.954 211.344C549.643 211.171 548.365 210.866 547.095 210.504C546.312 210.372 545.512 210.191 544.696 209.96C542.601 209.359 540.523 208.552 538.421 207.91C536.277 207.456 534.1 207.309 531.825 207.851C529.417 208.42 527.381 209.449 524.857 208.823C524.355 208.701 523.868 208.511 523.382 208.313L522.931 208.281C522.855 208.275 522.777 208.266 522.697 208.255C520.067 207.877 517.725 206.213 515.219 205.323C514.344 205.11 513.475 205.164 512.627 205.517L512.415 205.612L511.583 206.23C511.247 206.624 510.916 207.023 510.588 207.423L510.099 208.024C509.2 209.136 508.243 210.133 507.081 210.858C505.679 212.151 504.014 212.909 502.026 212.958C500.897 212.991 499.775 212.752 498.687 212.407C494.581 213.675 490.186 213.931 486.088 212.695C484.464 212.447 482.873 212.012 481.347 211.327C480.63 211.006 479.913 210.627 479.22 210.207C476.326 211.427 473.589 213.049 470.793 214.45L470.164 214.765C467.308 216.186 464.147 217.572 460.916 217.365C456.842 217.101 452.844 216.558 448.853 215.874C448.82 215.874 448.779 215.865 448.746 215.857L448.196 215.766V215.766L446.2 215.416V215.416L444.59 215.117V215.117L443.767 215.432C437.158 217.929 429.917 219.878 423.276 218.13C420.382 217.777 417.669 216.804 415.22 215.149C415.138 215.091 415.056 215.034 414.973 214.968C414.586 214.77 414.223 214.548 413.901 214.31L413.832 214.256V214.256L413.769 214.202L413.736 214.185C410.117 212.522 408.039 208.98 408.402 205.011C408.179 203.75 408.187 202.514 408.435 201.197C407.256 202.588 406.052 203.965 404.831 205.331C400.368 210.7 395.997 216.176 391.949 221.877L391.021 223.197C388.794 226.334 386.725 229.58 384.812 232.923C382.874 236.226 380.887 239.496 378.834 242.725C376.165 245.672 373.584 248.689 371.097 251.781L370.037 253.11L366.458 257.813C363.927 260.812 361.824 264.09 360.167 267.647C358.807 270.177 357.553 272.755 356.424 275.398C356.061 276.196 355.715 277.004 355.377 277.811C354.214 280.965 353.233 284.178 352.466 287.497C351.85 289.898 351.408 292.334 351.145 294.803L351.064 295.627C350.965 296.598 350.891 297.57 350.85 298.542C351.089 298.683 351.287 298.822 351.435 298.962L352.037 299.177V299.177L352.524 299.321C353.283 299.556 354.593 300.042 354.28 300.642L352.689 303.674V303.674C352.853 303.847 352.928 304.027 352.82 304.226C351.757 306.259 350.685 308.293 349.613 310.329C349.58 310.403 349.522 310.46 349.465 310.502C350.38 310.921 351.27 311.382 352.12 311.885C353.777 312.874 354.997 314.018 356.127 315.352C357.314 316.061 358.435 316.835 359.491 317.724C360.794 319.091 361.931 320.591 362.896 322.213C363.787 323.745 364.512 325.343 365.073 327.015C365.32 327.896 365.436 328.81 365.427 329.741C364.43 336.776 356.374 331.956 356.218 331.339C355.113 327.089 353.843 324.405 350.99 321.242L350.916 321.192V321.192C349.267 320.467 347.634 319.75 345.927 319.19C345.672 319.24 345.408 319.273 345.144 319.314C345.441 319.735 345.293 320.146 344.691 320.22C342.093 320.731 339.471 320.87 336.833 320.648L332.826 320.08V320.08C331.164 320.717 329.575 321.535 328.077 322.509L327.582 322.839L327.491 322.905C323.624 326.01 320.639 330.136 318.594 334.633C318.413 335.034 318.239 335.439 318.072 335.847L317.828 336.462L317.811 336.495C315.14 346.98 317.523 358.494 322.404 368.007C325.067 372.265 327.846 376.441 330.748 380.534L333.568 384.217V384.217C335.233 385.782 336.866 387.387 338.457 389.034C338.705 389.282 338.968 389.528 339.232 389.767C340.073 390.319 340.931 390.806 341.805 391.218C342.143 391.332 342.489 391.439 342.835 391.531C344.518 392.337 346.282 392.766 348.137 392.816C350.588 392.978 352.965 392.69 355.264 391.962L355.723 391.81L356.061 391.686C357.314 390.887 358.477 389.891 359.582 388.721C359.829 388.466 360.291 388.466 360.818 388.606C361.107 388.309 361.396 387.996 361.668 387.659C361.857 387.453 362.154 387.445 362.385 387.601C363.168 387.511 365.287 388.714 364.735 389.347C364.644 389.495 364.529 389.627 364.43 389.767C364.801 389.957 365.172 390.171 365.502 390.394C367.233 390.874 369.791 392.6 369.583 393.119L369.558 393.161C369.158 393.917 368.637 394.553 367.996 395.057L367.777 395.22L367.291 395.557C367.975 395.987 368.552 396.48 368.264 396.826C368.132 397.081 367.992 397.329 367.827 397.551C369.229 399.281 370.622 401.026 372.007 402.772C373.392 405.771 375.107 408.571 377.152 411.165C378.859 413.982 380.912 416.511 383.311 418.767C383.509 418.966 383.715 419.155 383.913 419.345C385.681 420.649 387.531 421.871 389.457 423.045L390.287 423.545C390.724 423.808 391.458 424.137 391.111 424.772C391.07 424.854 391.021 424.921 390.963 424.969C392.175 425.761 393.428 426.51 394.723 427.202L394.846 427.278C395.335 427.59 395.998 428.156 395.3 428.618C394.706 429.013 393.131 427.943 392.389 427.448C392.249 427.448 392.084 427.408 391.919 427.359C392.167 427.49 392.41 427.633 392.658 427.772L393.033 427.976C393.321 428.149 394.739 429.088 393.75 429.484C393.263 429.524 392.818 429.4 392.406 429.12C391.919 428.882 391.441 428.627 390.971 428.363C391.136 428.618 391.136 428.873 390.724 429.039C390.584 429.046 390.444 429.039 390.303 429.022C391.276 429.64 392.274 430.216 393.305 430.76L393.471 430.864C393.907 431.146 394.601 431.682 394.096 432.144C393.527 432.654 391.961 431.567 391.557 431.32L390.353 430.603V430.603C390.262 430.644 390.163 430.661 390.056 430.67C390.419 430.892 390.757 431.131 391.128 431.344L391.633 431.619C392.265 431.968 393.158 432.542 392.835 433.115C392.511 433.682 391.549 433.215 390.928 432.848L390.26 432.434C390.231 432.416 390.202 432.399 390.171 432.382L390.146 432.481C390.14 432.497 390.133 432.514 390.122 432.53C389.813 433.068 389.035 432.716 388.499 432.406L388.069 432.144C387.338 431.704 386.614 431.268 385.895 430.829L384.82 430.167H384.804C381.085 427.934 377.647 425.711 374.407 422.845C372.469 421.131 370.663 419.319 368.948 417.384C365.502 413.504 362.937 409.066 360.464 404.536C360.423 404.461 360.48 404.271 360.579 404.066C360.307 403.506 360.043 402.937 359.779 402.352C357.24 403.062 354.404 403.267 351.79 403.094C350.388 403.003 349.003 402.756 347.626 402.385C343.231 401.776 338.993 399.774 335.332 397.378C335.101 397.229 334.895 397.065 334.681 396.917C333.172 396.068 331.737 395.081 330.377 393.951C327.722 391.76 325.191 389.323 322.89 386.777C321.225 384.802 319.65 382.75 318.174 380.625C316.673 378.525 315.156 376.425 313.639 374.324C309.426 367.735 306.73 360.149 305.682 352.399C305.171 349.542 304.907 346.65 304.965 343.767C305.006 341.684 305.237 339.575 305.641 337.476C305.402 337.244 305.163 337.014 304.924 336.776C304.792 337.005 304.66 337.171 304.578 337.088L302.688 335.198C301.347 333.848 300.448 332.854 298.905 330.672C296.448 327.188 294.617 323.358 293.257 319.323C292.276 316.44 291.624 313.161 291.369 309.991C291.286 309.463 291.204 308.928 291.138 308.384C290.61 304.093 291.097 299.983 291.748 295.75C291.789 295.47 291.929 295.297 292.119 295.206C292.167 294.871 292.224 294.526 292.28 294.183C286.818 288.408 282.888 281.447 283.208 273.041C283.309 270.392 283.853 267.781 284.892 265.343L285.018 265.068V265.068C280.459 264.368 276.843 261.169 274.126 257.204C273.885 257.014 273.652 256.822 273.428 256.631C268.57 252.487 265.202 246.618 262.895 240.42C261.244 236.82 260.15 232.974 259.686 228.984C259.653 228.699 259.633 228.417 259.607 228.133C258.479 221.825 258.192 215.454 258.713 209.177C257.581 205.292 256.66 201.338 256.03 197.292C255.733 195.366 255.527 193.438 255.37 191.511L255.353 191.404L255.329 191.058L255.259 190.193C255.248 190.05 255.238 189.907 255.23 189.764C253.836 172.122 257.786 154.76 264.316 138.419C264.885 136.95 265.472 135.484 266.078 134.03L266.721 132.51V132.51C273.276 121.951 283.119 113.411 291.456 104.392C294.333 101.28 289.68 96.6082 286.793 99.7323C281.253 105.725 275.311 111.465 269.946 117.625C268.999 117.694 268.049 117.72 267.103 117.673C265.454 117.589 263.854 117.327 262.304 116.906C258.437 116.338 254.916 114.781 251.717 112.491C247.438 110.499 243.785 106.742 243.423 101.842C243.381 101.347 243.39 100.861 243.423 100.376C243.027 97.9788 243.381 95.4675 244.387 93.1523C244.56 92.5181 244.783 91.8921 245.063 91.2744C245.88 89.4377 247.224 87.6759 248.864 86.4808C248.906 86.4561 248.939 86.4405 248.972 86.415C249.145 86.2346 249.31 86.0526 249.499 85.8887C249.78 85.6325 250.077 85.3945 250.39 85.1721C249.277 83.3428 248.271 81.4657 247.413 79.4635C246.482 77.2891 246.003 75.0826 245.74 72.7509C245.632 71.8284 245.591 70.9142 245.575 70.0008C245.525 69.5799 245.492 69.1516 245.459 68.7233C245.253 65.4617 245.632 62.0774 246.853 59.0292C246.943 58.7994 247.059 58.5679 247.166 58.3291C247.397 57.6372 247.652 56.9462 247.966 56.27C249.186 53.6755 250.918 51.4764 253.053 49.6727C254.207 48.5114 255.502 47.4818 256.912 46.6088C257.745 46.0899 258.693 45.6286 259.69 45.2498C261.471 44.3108 263.755 43.4543 265.611 43.3892C265.833 43.3801 266.031 43.4057 266.245 43.4057C266.419 38.6772 267.029 33.5295 268.9 29.2466C269.989 26.1423 271.621 23.3831 274.078 21.3974C275.503 19.9116 277.259 18.705 279.451 17.9164L279.842 17.7816L279.99 17.7404C281.961 16.785 284.088 16.4061 286.273 16.4152C288.821 16.2826 291.418 16.7611 293.636 17.9299C294.098 18.177 294.593 18.4817 295.063 18.8112C295.417 18.1028 295.813 17.3863 296.266 16.6705C297.858 14.1247 299.779 11.9091 302.005 9.8912C302.269 9.65235 302.557 9.43821 302.838 9.20841C303.918 8.22829 305.064 7.32229 306.251 6.49866C308.816 4.71879 311.627 3.39356 314.579 2.53616C317.987 1.27825 321.583 0.694229 325.18 0.81711L325.924 0.848536V0.848536C326.089 0.864185 326.254 0.872422 326.411 0.880658C329.981 1.1121 333.502 1.98515 336.866 3.30214C340.354 4.67843 343.305 6.7614 346.051 9.14993C346.694 8.26123 347.428 7.4203 348.327 6.62962C348.582 6.40806 348.855 6.20956 349.11 6.00366C349.308 5.80598 349.514 5.61655 349.729 5.42711C350.71 4.5623 351.749 3.81279 352.886 3.14565C354.164 2.39697 355.541 1.87808 356.968 1.55686C358.419 1.06186 359.944 0.757113 361.494 0.658277ZM344.551 340.201C344.697 340.193 352.333 343.054 356.138 344.903L356.325 344.995C360.711 347.169 362.822 348.734 366.763 351.526C367.027 351.716 367.299 352.004 367.299 352.284C367.299 356.351 366.31 361.323 362.888 359.12C362.393 358.802 361.895 358.49 361.393 358.184L360.637 357.728L360.612 357.736C360.621 357.736 360.629 357.728 360.637 357.72C353.183 353.182 345.309 349.624 336.998 347.079C336.429 346.873 340.642 340.514 341.805 340.868C341.137 340.605 344.44 340.207 344.551 340.201ZM422.866 160.579C417.91 161.109 412.954 161.63 407.998 162.14C404.84 162.502 401.674 162.823 398.507 163.095C393.75 163.45 388.992 163.507 384.251 162.856C382.569 162.627 380.92 162.296 379.288 161.893C378.175 162.708 377.02 163.474 375.841 164.208L362.748 174.214V174.214C353.967 181.109 345.375 188.414 337.641 196.477C324.134 210.564 313.132 227.045 306.215 245.301C305.588 245.671 305.103 246.316 304.941 247.305C303.719 254.788 300.146 261.612 298.855 269.065C297.583 276.405 299.274 282.645 303.89 288.463C304.875 289.706 306.894 289.64 308.132 288.801C308.42 289.366 309.667 289.342 310.104 286.846C312.157 284.626 313.912 282.3 315.101 279.419C315.977 277.297 314.505 275.826 312.719 275.537C313.461 272.868 314.298 270.224 315.239 267.607C318.026 259.831 321.571 252.403 326.032 245.435C329.956 239.306 334.5 233.969 339.381 228.615C339.438 228.541 339.537 228.517 339.645 228.501L340.659 227.38V227.38C340.799 227.223 341.087 227.24 341.409 227.322C341.714 227.001 342.011 226.671 342.324 226.35C342.629 226.021 342.967 226.12 343.157 226.383C343.677 226.268 344.625 226.828 344.913 227.01C345.408 227.339 345.565 227.709 345.144 228.179C345.07 228.262 344.996 228.344 344.922 228.418C345.49 228.657 346.051 228.978 346.488 229.291C348.013 229.628 350.157 231.045 349.786 231.466C349.003 232.28 348.244 233.113 347.494 233.961C348.154 234.423 348.582 234.875 348.409 235.073C345.194 238.458 342.225 242.041 339.504 245.837C337.435 248.671 335.563 251.619 333.889 254.691C331.399 259.04 329.289 263.513 327.417 268.108C327.153 268.809 326.897 269.509 326.65 270.209C323.913 277.86 321.868 285.8 321.002 293.888L320.966 294.434C320.805 297.347 320.742 305.148 320.441 307.009C322.264 307.906 324.16 308.672 326.131 309.299C326.502 309.406 326.881 309.505 327.26 309.596C327.475 309.505 327.697 309.43 327.92 309.364C329.734 308.631 331.63 308.104 333.568 307.849C334.874 307.677 336.173 307.617 337.472 307.654L338.029 307.676C338.606 307.692 339.175 307.733 339.752 307.792C339.719 307.462 339.702 307.141 339.678 306.811C339.513 306.704 339.389 306.556 339.381 306.358C338.993 302.652 338.985 298.945 339.356 295.239C339.603 293.303 339.892 291.376 340.205 289.45C340.527 287.867 340.898 286.312 341.302 284.754C342.374 280.39 343.8 276.131 345.532 271.964C350.462 260.078 357.529 249.363 364.636 238.705C369.822 230.922 374.728 222.965 380.096 215.314C384.664 208.799 389.462 202.383 394.583 196.288C399.695 190.202 405.095 184.345 410.925 178.926C411.865 178.061 412.813 177.221 413.778 176.389C419.302 171.448 425.304 167.386 431.554 163.401C431.793 163.244 432.222 163.417 432.577 163.713L433.585 163.094C433.754 162.991 433.923 162.889 434.094 162.79C434.25 162.692 434.424 162.856 434.514 162.996C434.943 162.774 435.372 162.561 435.801 162.346C436.113 162.094 436.435 161.855 436.75 161.606C432.116 161.373 427.488 161.027 422.866 160.579ZM480.993 105.672C477.249 104.923 473.49 104.815 469.713 105.375C468.131 105.606 466.556 105.885 464.995 106.222C468.541 109.31 471.393 113.263 473.244 117.812C475.244 122.729 467.265 124.848 465.293 120.002C463.391 115.327 459.79 111.741 455.441 109.591C454.501 110.116 453.59 110.684 452.72 111.313C451.582 112.236 450.51 113.232 449.504 114.328C447.311 116.709 445.299 119.887 443.98 123.034C443.469 124.747 443.089 126.509 442.85 128.321C442.801 128.733 442.751 129.153 442.71 129.573C441.897 138.097 444.337 146.39 448.535 153.729L448.699 153.731V153.731C452.446 151.702 456.368 149.992 460.404 148.599C463.637 146.426 466.992 144.415 470.447 142.595C477.792 138.725 485.549 135.741 493.542 133.7L494.466 133.469C496.348 132.989 498.248 132.565 500.156 132.195L501.301 131.979H501.317L501.194 130.751V130.751C500.551 125.933 498.662 121.461 496.222 117.327C494.391 114.205 491.629 111.009 488.562 108.456L488.545 108.447C487.153 107.656 485.689 107.002 484.182 106.462L483.615 106.265L480.993 105.672ZM380.483 98.3502C372.7 97.6164 364.916 97.6905 357.133 98.3247C352.045 98.8279 346.991 99.5272 341.961 100.417C338.556 101.002 335.217 101.825 331.935 102.847L333.812 106.639C336.949 112.954 340.163 119.227 343.949 125.192C345.903 128.264 348.022 131.188 350.33 133.996C351.889 136.006 353.604 137.868 355.484 139.58C355.978 140.183 356.506 140.751 357.042 141.302C358.757 142.768 360.604 144.053 362.624 145.115C364.244 146.294 365.935 147.324 367.698 148.226L368.363 148.559L374.547 150.93C374.877 151.023 375.21 151.117 375.545 151.206L376.047 151.335L376.987 151.531L377.693 151.149C377.811 151.086 377.93 151.023 378.051 150.963C378.249 150.857 378.389 151.063 378.43 151.21C378.447 151.269 378.422 151.35 378.381 151.433L379.282 150.946V150.946C380.831 151.574 382.475 152.077 384.239 152.408C385.037 152.557 385.837 152.671 386.638 152.769L386.745 152.841C386.763 152.853 386.781 152.867 386.799 152.883H387.675V152.883C393.839 153.477 400.09 152.692 406.245 151.587C414.953 150.713 423.66 149.748 432.362 148.846C432.527 148.831 432.593 148.904 432.593 149.02L433.129 148.971V148.971C433.904 148.888 434.811 150.181 434.226 150.651C434.696 150.93 435.149 151.335 435.487 151.648L435.685 151.63C434.49 149.291 433.566 146.845 432.907 144.301L432.066 140.033V140.033C431.835 138.444 431.703 136.748 431.678 135.075C431.62 134.309 431.579 133.593 431.579 132.967C431.579 132.374 431.587 131.781 431.612 131.188C429.971 130.512 428.306 129.92 426.607 129.417C421.784 128.825 416.968 128.231 412.145 127.646C409.251 127.753 406.357 127.959 403.471 128.28C400.198 128.569 396.933 128.939 393.676 129.384C393.371 129.417 392.826 129.005 392.497 128.527L391.103 128.718V128.718C390.378 128.808 389.619 127.358 390.575 127.061C390.922 126.924 391.268 126.794 391.614 126.669L392.134 126.485L391.837 126.518C391.738 126.527 391.614 126.501 391.474 126.453C390.707 126.551 389.941 126.649 389.182 126.74C388.22 126.86 388.439 125.593 389.113 125.295L389.438 125.175C388.868 124.82 388.366 123.849 389.071 123.531L389.166 123.495C389.495 123.364 389.817 123.256 390.147 123.133C390.122 123.026 390.122 122.927 390.155 122.837L388.794 123.009V123.009C388.67 123.025 389.262 122.158 389.545 121.987L389.594 121.963L390.246 121.765C390.345 121.485 390.872 120.868 391.054 120.811C393.445 120.06 395.671 119.386 397.996 118.866C398.112 118.726 398.244 118.619 398.392 118.586C399.843 118.24 401.311 117.968 402.778 117.739C402.877 117.589 402.976 117.483 403.092 117.474C406.728 117.013 410.372 116.906 414.033 117.154C414.734 117.219 415.435 117.294 416.136 117.384C417.48 117.533 418.824 117.722 420.159 117.977C423.505 118.551 426.773 119.423 429.956 120.599L430.689 120.876C431.488 121.173 432.28 121.485 433.063 121.824C433.459 120.415 433.954 119.031 434.539 117.673C434.63 117.408 434.729 117.154 434.836 116.898L434.036 116.42V116.42C433.863 116.749 433.508 117.005 433.278 116.866C427.547 113.003 421.487 109.781 415.097 107.212C411.518 105.63 407.857 104.289 404.106 103.168C402.234 102.567 400.346 102.024 398.45 101.505C397.501 101.306 396.553 101.109 395.589 100.944C390.633 99.6096 385.595 98.7456 380.483 98.3502ZM569.31 111.424C568.614 112.625 567.89 113.814 567.123 114.987C563.395 120.686 558.926 126.033 553.858 130.696C555.18 130.693 556.499 130.743 557.801 130.865C560.046 131.076 562.245 131.449 564.388 131.97C564.562 131.831 564.757 131.761 564.913 131.871L565.472 132.258V132.258C570.07 133.497 574.387 135.446 578.298 138.057L578.228 137.541C578.216 137.455 578.203 137.369 578.188 137.283C578.254 136.27 578.27 135.256 578.237 134.252C577.429 128.313 575.409 122.844 573.1 117.31C573.057 117.203 573.088 117.064 573.155 116.922C571.99 115.021 570.714 113.183 569.31 111.424ZM570.371 64.7369C568.648 65.0499 566.941 65.4535 565.243 65.9559C562.052 66.4344 558.96 67.2745 555.975 68.468C551.861 69.9258 547.87 71.6225 543.896 73.4188C536.178 76.9102 528.939 81.3257 522.351 86.6464C521.93 86.9668 521.526 87.2971 521.122 87.6265C519.646 88.9023 518.212 90.2366 516.851 91.645C515.425 93.1935 513.99 94.7427 512.564 96.2986C510.816 98.1278 508.804 99.7825 507.221 101.759C506.899 102.163 506.619 102.608 506.363 103.053L507.295 103.374V103.374C508.078 103.637 507.946 105.103 507.171 104.889C506.908 104.815 506.66 104.724 506.413 104.626C506.52 104.766 506.594 104.906 506.611 105.029C506.66 105.424 506.355 105.969 505.869 105.829C505.646 105.77 505.423 105.688 505.201 105.597C505.135 105.853 505.085 106.108 505.085 106.355C505.127 106.372 505.168 106.388 505.217 106.397C505.761 106.587 506.784 107.434 506.932 108.011C507.048 108.456 506.668 108.933 506.182 108.801C505.819 108.702 505.465 108.554 505.118 108.389C505.349 108.613 505.531 108.852 505.547 109.057C505.58 109.436 505.25 109.971 504.797 109.848C503.956 109.617 503.28 109.263 502.719 108.819C502.571 109.015 502.356 109.172 502.183 109.123L501.861 109.025V109.025C501.949 109.106 502.03 109.193 502.108 109.277L502.224 109.403C504.5 111.857 506.487 114.575 508.078 117.5C508.153 117.417 508.243 117.342 508.359 117.252C509.101 116.626 509.868 116.016 510.634 115.424L510.866 115.222V115.222L511.104 115.02L509.381 115.588L509.419 115.543C509.541 115.388 509.92 114.868 510.097 114.695L510.14 114.657C512.506 112.541 515.087 110.745 517.874 109.28C519.679 108.109 521.576 107.121 523.563 106.306C528.304 104.107 533.136 102.435 538.099 100.887C538.841 100.648 539.583 100.393 540.326 100.161C540.54 100.087 540.581 100.178 540.548 100.326L540.936 100.211V100.211C541.628 99.9884 542.807 101.207 542.337 101.776C542.621 102.006 542.899 102.263 543.143 102.504L543.319 102.682L543.516 102.624C544.105 102.443 545.099 103.36 545.731 104.01L546.196 104.502C546.551 104.881 547.243 105.663 546.394 105.969L545.33 106.33V106.33C545.363 106.545 545.273 106.726 544.943 106.849C544.572 106.973 544.209 107.105 543.846 107.237C544.066 107.429 544.282 107.628 544.495 107.83L544.811 108.134C545.184 108.515 546.07 109.354 545.288 109.724L545.19 109.765L544.176 110.127C544.308 110.424 544.275 110.705 543.83 110.869C537.91 112.878 532.13 115.235 526.482 117.912C522.252 120.25 517.783 121.997 513.075 123.141C512.687 123.265 511.846 122.68 511.5 122.096L510.797 122.302C510.68 122.336 510.563 122.369 510.445 122.399L510.329 122.425V122.425C511.212 124.772 511.863 127.317 512.226 129.779C512.267 130.002 512.3 130.233 512.325 130.455C513.248 130.38 514.163 130.315 515.087 130.266C521.477 129.927 527.941 130.133 534.348 130.891C536.937 129.351 539.427 127.663 541.81 125.835C542.535 125.274 543.253 124.697 543.962 124.113C548.216 120.423 552.067 116.281 555.48 111.808C558.638 107.665 561.384 103.217 563.693 98.5561C565.737 94.1818 567.428 89.6354 568.706 84.9407C569.876 80.6495 570.28 76.4737 570.577 72.0343C570.676 71.3095 570.742 70.5855 570.8 69.8599L570.793 69.5494V69.5494L570.783 69.3987C570.701 67.8429 570.544 66.2854 570.371 64.7369ZM509.958 119.896C509.769 119.962 509.571 120.027 509.373 120.085C509.488 120.34 509.596 120.588 509.703 120.843L509.715 120.838V120.838L510.494 120.225V120.225C510.329 120.151 510.14 120.036 509.958 119.896ZM569.217 53.0581C570.701 52.5062 571.822 52.3992 572.581 52.7451C571.46 52.8274 570.338 52.9345 569.217 53.0581Z" fill="black"/>
<path fill-rule="evenodd" clip-rule="evenodd" d="M452.781 340.383C467.432 338.593 481.633 343.107 495.956 345.382C503.518 346.583 511.089 347.479 518.742 347.813C520.281 347.88 521.821 347.92 523.361 347.951C523.505 346.587 524.264 345.334 525.908 344.583C529.278 343.046 531.976 342.353 535.676 342.501C539.064 342.636 542.463 342.986 545.799 343.601C551.856 344.718 557.94 347.254 562.37 351.659C572.624 361.854 571.063 378.229 563.14 389.333C546.771 412.277 516.896 413.342 491.309 413.043L488.948 413.012C465.65 412.677 432.318 416.172 421.733 389.498C417.841 379.689 418.382 368.32 423.147 358.912C428.832 347.691 440.797 341.846 452.781 340.383ZM525.555 378.585L525.346 378.594C514.605 379.011 503.865 379.304 493.117 379.495C493.439 382.272 493.767 385.05 494.143 387.822C494.437 390.003 494.752 392.181 495.081 394.357C495.22 395.278 495.73 396.709 495.586 397.621L495.533 397.982V397.982C496.085 398.233 496.586 398.638 496.959 399.225C497.088 399.428 497.182 399.633 497.276 399.837C505.62 399.903 514.599 399.74 523.106 398.214L523.123 398.028V398.028C523.277 396.934 523.729 396.198 524.329 395.693C524.927 392.206 524.873 388.49 525.104 385.031C525.248 382.881 525.404 380.734 525.555 378.585ZM484.909 379.642C477.167 379.775 469.421 379.877 461.681 379.782L458.167 379.727V379.727C458.909 383.733 459.716 387.726 460.387 391.759C461.088 395.962 457.411 398.634 454.229 398.526C454.586 398.585 454.943 398.646 455.3 398.697C465.242 400.112 475.564 399.736 485.653 399.725C485.111 396.537 485.331 392.94 485.249 390.279L485.234 389.867C485.079 386.457 484.971 383.049 484.909 379.642ZM432.32 378.907C432.588 380.99 433.111 383.029 433.893 384.927C437.198 392.947 444.775 396.689 452.791 398.265C451.4 397.782 450.296 396.62 450.017 394.631C449.322 389.686 449.072 384.658 449.053 379.636C443.466 379.584 437.842 379.464 432.32 378.907ZM554.69 377.195C550.713 378.139 546.09 377.706 542.188 377.884C538.532 378.052 534.874 378.197 531.218 378.346C531.39 380.858 531.558 383.369 531.741 385.879C531.976 389.124 531.998 392.552 532.616 395.783C539.974 393.256 546.567 389.203 551.514 382.723C552.746 381.108 553.849 379.214 554.69 377.195ZM451.1 353.54C444.479 355.118 438.212 358.451 434.844 364.548C432.845 368.166 431.966 372.455 432.135 376.68C437.731 376.025 443.424 375.776 449.089 375.571C449.108 374.544 449.132 373.518 449.162 372.495L449.25 369.872C449.404 364.87 449.482 358.588 451.1 353.54ZM485.372 354.151L482.457 353.821C474.361 352.893 466.269 351.918 458.173 352.477C457.001 352.558 455.811 352.687 454.619 352.863C456.05 358.059 455.93 364.163 456.527 369.307C456.759 371.296 457.05 373.269 457.373 375.234L458.778 375.168V375.168C467.466 374.694 476.162 374.403 484.857 374.056C484.856 372.413 484.865 370.769 484.891 369.125L484.923 367.48C485.022 363.28 484.753 358.549 485.372 354.151ZM526.028 353.484C517.549 354.861 508.785 355.154 500.455 355.164C497.128 355.169 493.803 354.963 490.48 354.667C490.696 356.447 490.809 358.249 490.972 360.005C491.3 363.553 491.675 367.096 492.083 370.636L492.446 373.733V373.733C503.133 373.246 513.819 372.719 524.503 372.173L526.011 372.091V372.091L526.434 366.139C526.722 362.17 527.038 358.201 527.485 354.25L527.15 354.128V354.128C526.756 353.966 526.382 353.741 526.028 353.484ZM529.711 354.961C530.178 360.574 530.437 366.209 530.78 371.831L537.824 371.452C538.998 371.388 540.171 371.322 541.345 371.254C545.91 370.989 551.774 369.598 556.287 370.896C556.631 366.768 555.459 362.746 551.757 359.973C545.257 355.102 536.981 356.836 529.711 354.961ZM505.646 304.791C516.134 298.746 542.451 292.568 544.117 311.563C544.884 320.304 538.426 327.546 530.886 330.778L530.602 330.897C523.53 333.823 510.994 337.127 504.874 330.783C499.78 325.502 506.536 316.033 512.866 320.36C516.119 322.582 522.966 320.944 526.596 319.887L526.823 319.82C530.74 318.662 535.962 314.954 534.342 310.101C532.909 305.807 526.81 305.023 522.991 304.883C517.289 304.678 511.741 306.01 506.091 306.444C505.196 306.512 504.92 305.209 505.646 304.791ZM549.093 274.247C563.329 273.576 572.184 289.218 568.91 302.033C568.345 304.245 565.887 306.415 563.514 306.167L562.916 306.112C562.612 306.082 562.307 306.044 562.027 305.966C559.774 305.338 557.754 302.979 557.918 300.535L557.962 299.823C558.294 293.769 557.642 286.794 550.492 285.327C544.428 284.084 541.043 289.957 540.971 295.364C540.958 296.323 539.886 296.993 539.042 296.477C534.659 293.793 533.9 288.453 535.574 283.854C537.696 278.027 543.007 274.534 549.093 274.247ZM443.453 277.602C453.813 274.124 464.989 279.681 470.005 288.897C471.765 289.41 473.522 290.775 473.278 292.865C472.925 295.871 472.393 297.767 470.321 300.047C467.081 303.614 461.012 301.79 459.665 297.399L459.608 297.201C458.078 291.525 451.87 287.781 446.215 289.767C439.608 292.088 439.799 299.11 435.165 303.2C434.621 303.681 433.968 303.757 433.315 303.44C428.393 301.046 429.278 293.842 431.032 289.719C433.334 284.309 437.807 279.497 443.453 277.602ZM429.345 245.945C437.739 237.325 459.629 228.984 465.372 244.902C466.466 247.933 464.137 252.021 461 252.65C455.863 253.679 451.306 251.435 446.204 251.837C442.073 252.165 437.765 253.554 434.462 256.129C425.316 263.261 423.304 275.323 416.931 284.4C416.62 284.842 416.018 284.657 415.961 284.135C414.509 270.921 420.15 255.385 429.345 245.945ZM538.824 237.46C544.395 235.48 550.703 235.649 556.303 237.405C561.944 239.176 567.122 242.537 571.112 246.928C572.922 248.922 574.597 251.122 575.941 253.464C576.654 254.705 577.405 257.269 578.216 258.795C582.604 261.345 584.48 267.155 580.551 271.288L580.374 271.469L579.848 271.994C577.736 274.098 574.552 275.009 571.669 274.169C565.218 272.291 564.434 267.178 562.201 261.751C560.726 258.166 558.199 254.994 555.135 252.664C547.893 247.16 536.019 245.406 527.3 248C526.836 248.138 526.291 247.543 526.622 247.111C528.274 244.958 529.226 243.19 531.438 241.453C533.683 239.69 536.133 238.416 538.824 237.46Z" fill="black"/>
</svg>
