<svg width="335" height="199" viewBox="0 0 335 199" fill="none" xmlns="http://www.w3.org/2000/svg">
<g clip-path="url(#clip0_3_3359)">
<path d="M230.659 45.092C231.349 43.4341 233.697 43.4341 234.387 45.092L238.457 54.8774C238.747 55.5763 239.405 56.0539 240.159 56.1144L250.723 56.9613C252.513 57.1048 253.239 59.3385 251.875 60.5066L243.827 67.4013C243.252 67.8937 243.001 68.6664 243.176 69.4028L245.635 79.7116C246.052 81.4582 244.152 82.8387 242.62 81.9027L233.575 76.3784C232.929 75.9838 232.117 75.9838 231.471 76.3784L222.426 81.9027C220.894 82.8387 218.994 81.4582 219.41 79.7116L221.869 69.4028C222.045 68.6664 221.794 67.8937 221.219 67.4013L213.17 60.5066C211.807 59.3385 212.532 57.1048 214.322 56.9613L224.886 56.1144C225.641 56.0539 226.298 55.5763 226.589 54.8774L230.659 45.092Z" fill="black"/>
<path fill-rule="evenodd" clip-rule="evenodd" d="M241.634 112.426C239.269 105.911 241.045 97.6627 236.17 92.2717C234.728 91.3952 233.963 91.8829 233.369 93.4112C233.011 95.4223 232.171 102.347 235.191 102.344C235.571 106.668 235.333 111.024 234.403 115.269C232.175 114.911 230.55 116.056 228.925 116.908C227.713 117.543 226.5 118.015 225.036 117.579C218.993 116.514 217.271 122.86 217.197 128.04C217.109 130.567 216.871 136.459 215.758 138.912C210.719 128.476 200.136 123.725 190.053 121.379C188.472 120.942 187.124 120.344 186.11 119.323C177.614 115.969 181.696 104.979 177.787 98.6625C171.669 91.1536 164.322 88.993 155.066 90.2799C146.968 91.1754 141.463 99.4017 141.962 107.167C142.112 108.751 141.161 110.418 140.602 112.048C135.012 118.737 126.314 121.73 118.832 125.771C93.8797 137.967 85.2323 147.287 75.5355 173.238C70.9992 183.001 65.5704 192.477 63.7675 203.231C61.6488 215.902 61.6422 228.874 62.3797 241.67C61.0027 241.835 62.5012 251.672 63.709 255.08C64.1228 256.248 65.1144 257.09 66.3499 257.07C68.8352 258.278 74.6702 263.146 77.2696 262.984C85.6684 262.467 93.8322 263.267 101.924 262.853C110.678 262.406 119.348 260.773 128.139 260.985C143.471 261.354 132.494 262.264 148.356 262.984C158.369 263.446 194.9 257.977 204.885 258.87C213.006 260.579 216.711 257.698 215.472 249.214C215.014 245.962 213.552 238.729 218.364 238.422C220.64 238.686 222.524 240.96 224.229 242.289C239.292 253.503 254.679 245.429 255.892 226.993C258.175 211.531 261.376 207.878 254.418 192.438C232.404 134.957 265.57 142.767 243.177 115.844C241.428 117.366 241.873 113.302 241.634 112.426Z" fill="#D08B5B"/>
<path fill-rule="evenodd" clip-rule="evenodd" d="M135.936 124.693C150.283 132.01 161.629 135.669 169.974 135.669C178.319 135.669 193.017 137.373 214.068 140.781L224.462 163.625L247.399 168.106L247.501 168.703C248.619 175.114 250.754 182.871 254.418 192.438C261.376 207.878 258.175 211.531 255.892 226.993C254.679 245.429 239.292 253.503 224.229 242.289C222.524 240.96 220.64 238.686 218.364 238.422C213.648 238.723 214.958 245.675 215.444 249.014L215.472 249.214C216.711 257.698 213.006 260.579 204.885 258.87C194.9 257.977 158.369 263.446 148.356 262.984C132.494 262.264 143.471 261.354 128.139 260.985C119.348 260.773 110.678 262.406 101.924 262.853C94.2578 263.245 86.5271 262.548 78.5931 262.913L66.3499 257.07C61.8218 224.648 62.5098 203.389 68.4138 193.294C74.2881 183.249 82.1541 166.737 92.0119 143.757C92.1628 143.595 92.3153 143.435 92.4688 143.276L135.936 124.693Z" fill="#78E185"/>
<path fill-rule="evenodd" clip-rule="evenodd" d="M233.268 91.8414C234.47 90.6606 236.379 90.9543 237.551 92.0041C238.743 93.0702 239.461 94.7462 240.073 96.1908C242.819 102.686 242.18 109.797 243.569 116.593C246.112 117.966 248.407 119.759 250.032 122.171C252.501 125.835 253.673 130.102 252.435 134.444C251.795 136.69 250.708 138.772 249.934 140.971C249.106 143.312 248.599 145.744 248.356 148.216C248.118 150.642 248.086 153.081 248.154 155.515C248.191 156.776 248.258 158.035 248.324 159.294C248.384 160.422 248.584 161.599 248.314 162.704L248.28 162.832C248.386 162.815 248.489 162.795 248.592 162.772C249.477 162.575 250.257 162.267 251.181 162.389C251.901 162.483 252.274 163.084 251.969 163.762C251.836 164.058 251.66 164.306 251.447 164.516C253.304 178.25 256.548 191.762 258.682 205.452C259.65 211.663 260.239 217.892 259.907 224.181L259.872 224.804C259.533 230.578 258.7 236.941 255.766 241.99C254.395 244.354 252.51 246.452 250.227 247.963C249.181 248.655 248.06 249.196 246.843 249.466C240.534 251.979 233.862 251.363 227.912 248.041C225.237 246.548 222.568 244.808 220.383 242.648C219.322 241.598 218.297 240.261 217.669 238.801C217.671 239.129 217.612 239.464 217.678 239.787L217.81 240.426C218.801 245.172 222.578 262.711 222.628 264.183C222.655 264.978 215.968 264.959 215.243 264.983L215.223 264.983C204.393 265.435 193.556 265.194 182.733 264.746L181.878 264.71C171.381 264.266 159.958 263.669 149.45 263.363L149.472 263.187C149.598 262.243 150.21 258.046 150.278 257.724L150.281 257.713C150.578 256.513 151.153 252.78 150.851 251.541C150.072 248.351 146.562 249.08 144.092 249.418L143.572 249.486C143.172 249.541 142.199 249.684 142.208 249.694C141.946 249.42 142.57 248.645 142.724 248.437L142.847 248.266C143.511 247.338 144.111 246.373 144.045 245.177C143.886 242.254 139.709 242.419 137.657 242.621C137.512 242.636 137.453 242.862 137.62 242.896L138.024 242.98C139.327 243.259 142.219 243.972 142.153 245.049C142.116 245.661 141.464 246.112 141.066 246.498C140.627 246.923 140.191 247.381 139.867 247.903C139.243 248.908 139.102 250.264 139.719 251.31C140.43 252.516 141.693 252.657 142.957 252.547L143.028 252.541C143.307 252.515 143.585 252.488 143.863 252.461L145.532 252.298C145.946 252.258 147.274 251.91 147.662 252.15C148.211 252.49 147.55 253.998 147.426 254.494L147.42 254.529C147.313 255.249 147.249 262.783 147.238 263.281C139.049 263.091 130.859 261.27 122.67 261.698C116.164 262.038 109.676 262.625 103.183 263.135L103.019 261.741C101.219 246.563 98.3974 226.535 99.7517 211.521C99.8576 210.346 98.0228 210.353 97.9176 211.521C96.5172 227.046 99.5825 247.9 101.366 263.275C98.6012 263.485 95.8358 263.676 93.0672 263.821L92.3612 263.857C82.9401 264.328 73.2161 264.356 63.9962 262.195C63.712 262.129 63.6157 261.845 63.6753 261.608C63.5836 261.661 63.446 261.631 63.407 261.503C62.333 257.962 61.7874 248.948 61.3007 245.047L61.268 244.792C60.7682 241.002 60.4816 237.169 60.2753 233.356C59.858 225.728 59.9084 218.091 60.4724 210.473C62.2676 186.173 69.4161 161.623 84.4193 142.094C88.0463 137.374 92.1754 133.054 97.1298 129.714C101.99 126.436 107.442 124.127 112.974 122.251C116.631 121.011 120.345 119.949 124.059 118.89C124.2 118.82 124.341 118.751 124.482 118.682L124.695 118.581C126.015 117.955 127.315 117.269 128.668 116.712L128.967 116.591C130.927 115.804 133.211 115.109 135.332 115.133C138.769 113.402 141.656 110.786 141.376 106.59C141.261 104.866 143.967 104.868 144.063 106.59C144.315 111.171 141.493 114.42 137.896 116.6L137.913 116.617L137.93 116.637C138.492 117.274 139.092 117.865 139.741 118.416C143.625 121.722 148.538 124.466 153.449 126.273C159.211 128.393 164.967 129.028 170.926 127.314C174.042 126.417 176.983 125.035 179.686 123.246C180.512 122.701 181.303 122.116 182.062 121.49C181.344 120.509 180.771 119.452 180.289 118.331C179.322 116.075 178.522 113.019 179.51 110.637C179.753 110.05 180.718 109.687 181.055 110.435C181.984 112.48 182.371 114.69 183.453 116.689C183.866 117.45 184.34 118.173 184.872 118.854C184.872 118.89 188.935 119.585 188.935 119.585C193.846 119.583 198.47 121.469 202.815 123.826C205.383 125.22 207.907 126.702 210.423 128.186L215.342 131.087C215.704 131.3 216.11 131.507 216.516 131.727C216.041 129.384 215.81 126.995 215.965 124.626C216.202 121.054 217.591 117.148 221.271 115.875C223.011 115.272 225.024 115.458 226.713 116.128C227.493 116.437 228.341 116.847 229.066 117.395C229.417 115.818 230.895 114.635 232.381 114.113C232.862 113.943 233.355 113.835 233.855 113.782C233.84 113.529 233.839 113.273 233.842 113.009L233.846 112.81C233.869 111.641 233.86 110.472 233.834 109.305C233.789 107.092 233.683 104.926 233.458 102.72C233.271 100.894 232.945 99.0893 232.703 97.2709L232.603 96.4892C232.399 94.9493 232.056 93.0316 233.268 91.8414ZM85.5415 241.137L85.1316 240.893C83.789 240.101 82.4061 239.371 80.7797 239.737C79.2303 240.087 78.1312 241.345 77.5537 242.762C77.2809 243.432 77.1385 244.107 77.0332 244.821C76.9741 245.22 76.9342 245.623 76.864 246.021L76.8406 246.144C76.8088 246.302 76.7602 246.523 76.7159 246.714C76.2932 246.528 75.8674 246.233 75.5215 246.058L75.2424 245.918C74.5876 245.592 73.9064 245.281 73.1928 245.13C71.6471 244.804 69.9324 245.276 69.0488 246.661C68.2931 247.845 68.3085 249.241 68.5976 250.568L68.6183 250.66C68.7437 251.211 69.3918 253.416 70.3345 253.095C71.2514 252.782 71.3738 251.563 71.4433 250.751L71.4484 250.673C71.4797 250.061 71.3583 248.774 72.0518 248.542C72.9181 248.252 74.5851 249.578 75.3397 249.925C76.6889 250.544 78.1711 250.727 79.2691 249.522C80.2535 248.441 80.3365 246.859 80.5913 245.488L80.6571 245.143C80.7922 244.447 81.0538 243.334 81.8245 243.362C82.4542 243.385 83.1457 244.038 83.6648 244.348C84.2377 244.69 84.8327 244.975 85.4544 245.218C86.9055 245.785 88.5188 245.966 90.0625 245.799C90.9568 245.702 91.5392 245.275 91.8553 244.434C91.9624 244.187 92.044 243.932 92.1004 243.669C92.6016 241.786 89.8632 240.442 88.8535 242.126C87.6886 242.082 86.6042 241.768 85.5415 241.137ZM254.074 228.545C253.239 227.949 252.105 228.078 251.359 228.749L251.314 228.79C251.107 228.99 250.641 229.51 250.339 229.967L250.244 229.894C250.229 229.882 250.214 229.87 250.2 229.859L250.159 229.825C249.542 229.303 248.897 228.825 248.103 228.612C246.034 228.056 244.153 229.441 243.249 231.218C242.821 232.06 242.638 232.93 242.424 233.839L242.406 233.923C242.32 234.346 242.208 235.205 241.836 235.414C241.7 235.491 241.39 235.339 241.084 235.162C240.385 234.759 239.758 234.246 239.074 233.821C237.468 232.824 235.642 232.412 233.839 233.131C232.053 233.842 230.773 235.52 230.743 237.475C230.721 238.917 231.686 241.432 233.503 241.256C233.867 241.221 234.335 240.997 234.394 240.578C234.551 239.465 233.673 238.098 234.679 237.179C235.653 236.29 236.661 237.037 237.542 237.654L238.173 238.097C239.199 238.809 240.255 239.461 241.553 239.539C243.195 239.637 244.712 238.73 245.538 237.331C246.285 236.068 246.296 234.638 246.881 233.34C247.008 233.057 247.338 232.796 247.228 232.665C247.671 232.896 248.242 233.56 248.518 233.746C249.891 234.673 251.727 234.666 252.931 233.437C253.41 232.949 253.716 232.345 254.071 231.769C254.199 231.561 254.359 231.369 254.477 231.155C254.52 231.076 254.59 230.783 254.648 230.523L254.737 230.109L254.746 230.041C254.822 229.414 254.601 228.921 254.074 228.545ZM201.179 223.072C199.601 222.244 197.656 222.559 196.235 223.562C194.641 224.688 193.859 226.417 193.327 228.244C192.94 229.574 192.755 231.409 191.643 232.372C190.348 233.494 188.178 232.303 186.812 231.861C185.159 231.327 183.172 231.108 181.559 231.899C179.978 232.674 179.216 234.255 179.053 235.948C178.901 237.529 179.127 239.61 180.029 240.933C180.118 241.063 180.287 241.03 180.343 240.892C180.936 239.432 180.822 237.763 181.303 236.253C181.817 234.641 183.021 234.3 184.55 234.733C186.144 235.186 187.604 236.032 189.244 236.333C190.993 236.654 192.724 236.323 194.102 235.168C195.262 234.196 195.964 232.78 196.439 231.369C196.901 229.994 196.976 228.153 197.961 227.011C198.21 226.723 198.643 226.375 199.045 226.338C199.643 226.283 199.859 226.727 200.341 227.067C201.614 227.965 203.646 227.983 204.426 226.403C204.681 225.886 204.808 225.151 204.426 224.645C203.757 223.757 203.207 223.765 202.324 223.957C202.296 223.933 202.265 223.902 202.229 223.861L202.202 223.828C201.969 223.532 201.515 223.249 201.179 223.072ZM138.695 213.746C138.643 212.558 137.213 211.418 136.085 212.248C135.903 212.38 135.724 212.516 135.548 212.657L135.476 212.735C135.266 212.734 135.071 212.679 134.863 212.613L134.501 212.497C133.549 212.195 132.634 211.952 131.618 212.174C129.87 212.558 128.761 214.066 128.191 215.667C127.66 217.159 127.835 218.681 127.586 220.211C127.35 221.661 126.604 222.227 125.205 221.917L125.133 221.9C122.35 221.234 119.178 219.369 116.738 221.925C114.101 224.686 115.826 229.07 118.712 230.844C118.838 230.921 118.977 230.794 118.949 230.662C118.565 228.879 117.447 227.178 117.822 225.285C118.081 223.973 118.993 223.352 120.294 223.561C123.03 224.002 125.589 226.182 128.395 224.6C129.797 223.809 130.569 222.323 130.918 220.802C131.233 219.433 131.144 217.889 131.747 216.597C132.406 215.183 133.516 216.208 134.713 216.401C136.406 216.674 138.785 215.786 138.695 213.746ZM230.488 171.508C230.494 170.327 228.659 170.326 228.654 171.508C228.586 186.461 221.591 200.282 220.334 215.087C220.235 216.263 222.069 216.256 222.168 215.087C223.426 200.278 230.42 186.485 230.488 171.508ZM79.0345 195.984C78.0688 194.891 76.6543 195.23 75.5052 195.778C73.7793 196.601 72.1276 197.526 70.5443 198.595C70.1548 198.858 70.4003 199.43 70.8589 199.342C72.0201 199.118 73.1504 198.868 74.277 198.506C75.1237 198.234 76.005 197.839 76.8879 197.699C76.8326 197.902 76.7655 198.101 76.6864 198.297C76.5415 198.697 76.3732 199.09 76.2304 199.492C75.9462 200.292 75.6902 201.104 75.4419 201.917L75.3183 202.324C74.8023 204.028 74.3009 206.508 76.6825 207.032C77.5661 207.226 78.4419 206.841 79.2639 206.539L79.4332 206.477L82.4316 205.415C82.7887 205.288 83.4504 205.2 83.7466 204.978L83.6993 205.206C83.6379 205.508 83.5777 205.804 83.4477 206.105L83.3751 206.271C82.6303 207.96 81.6913 209.649 82.5599 211.516C83.3041 213.115 85.0633 213.874 86.7585 213.42C88.3695 212.988 89.5354 211.174 88.7013 209.596C88.3905 209.008 87.4811 208.72 86.9033 209.088L86.7481 209.191C86.5661 209.31 86.2528 209.514 86.2452 209.551C86.2021 209.562 86.1569 209.574 86.111 209.585C86.2083 209.299 86.2738 208.859 86.3591 208.664L86.6729 207.952C87.2566 206.613 87.7626 205.251 87.3172 203.749C86.0418 199.449 81.7167 201.894 78.5262 203.121C78.5728 202.939 78.6189 202.759 78.6578 202.584C78.7954 201.961 78.9458 201.342 79.0947 200.722L79.3999 199.443C79.6746 198.265 79.8885 196.952 79.0345 195.984ZM242.269 191.185C242.272 191.083 242.147 191.005 242.059 191.064C240.019 192.436 238.655 195.299 239.421 197.738C239.793 198.922 240.585 199.961 241.696 200.536C243.077 201.25 244.602 200.979 246.054 200.673L246.67 200.541C247.105 200.45 247.533 200.383 247.976 200.505C248.127 200.547 248.303 200.679 248.448 200.707C248.388 200.809 248.325 200.985 248.293 201.05L248.188 201.261C248.082 201.476 247.979 201.698 247.914 201.924C247.697 202.679 247.751 203.49 248.102 204.195C248.757 205.509 250.129 206.249 251.558 206.375C252.409 206.45 254.554 205.705 255.061 206.608C256.068 208.4 258.934 207.195 258.376 205.21C258 203.868 256.931 203.001 255.607 202.638C254.902 202.445 254.172 202.471 253.454 202.55C253.173 202.581 252.893 202.624 252.612 202.654L252.4 202.674C252.455 202.669 251.817 202.654 251.561 202.637L251.616 202.49C251.624 202.469 251.631 202.451 251.638 202.437C251.923 201.827 252.134 201.219 252.117 200.538C252.086 199.309 251.29 198.236 250.245 197.645C249.281 197.099 248.134 196.881 247.038 197.003C245.834 197.136 244.123 198.09 242.939 197.588C242.047 197.209 241.744 195.888 241.73 195.023C241.71 193.719 242.233 192.484 242.269 191.185ZM159.188 182.635C155.907 181.162 153.088 183.678 151.163 186.084C151.063 186.209 151.188 186.418 151.345 186.321L151.601 186.162C153.173 185.175 154.917 184.01 156.865 184.346C158.629 184.65 159.066 185.805 158.715 187.378L158.612 187.82C158.239 189.44 157.953 191.116 158.882 192.623C159.759 194.045 161.471 194.667 163.074 194.705C164.924 194.748 166.52 193.888 168.211 193.288L168.345 193.241C169.063 192.994 171.683 192.346 171.719 193.821C171.736 194.496 171.014 195.288 170.736 195.894C170.373 196.688 170.131 197.521 170.135 198.402C170.146 200.598 171.979 202.382 174.147 201.317C174.99 200.902 175.208 199.713 174.768 198.95C174.149 197.873 173.898 197.929 174.332 196.798L174.457 196.48C174.991 195.117 175.416 193.715 174.816 192.285C173.618 189.429 170.025 189.083 167.459 190.029L167.365 190.064C165.768 190.683 160.983 193.163 161.313 189.656C161.443 188.275 161.862 186.95 161.569 185.554C161.296 184.257 160.391 183.175 159.188 182.635ZM143.375 170.906C142.776 169.851 140.765 170.228 140.932 171.568L140.985 171.984C141.053 172.555 141.068 173.091 140.674 173.598C140.196 174.214 139.377 174.4 138.634 174.306C137.061 174.107 136.057 172.648 134.326 172.989C132.921 173.265 131.95 174.415 131.388 175.669C130.793 176.997 130.806 178.437 130.363 179.804C129.852 181.376 128.764 181.304 127.405 180.754L127.112 180.634C125.812 180.093 124.508 179.492 123.059 179.751C120.653 180.18 118.581 183.88 120.835 185.666C121.242 185.989 121.953 185.82 121.936 185.211L121.934 185.095C121.922 183.985 122.202 182.553 123.474 182.291C124.823 182.014 126.347 183.245 127.599 183.599C130.843 184.517 132.691 182.075 133.242 179.188L133.262 179.077C133.438 178.066 133.577 176.196 134.634 175.723C135.198 175.47 135.799 176.091 136.27 176.342C137.002 176.73 137.788 176.977 138.616 177.04C141.679 177.273 145.16 174.051 143.375 170.906ZM220.036 166.917C219.026 166.48 217.521 166.723 217.274 168.041L217.125 168.87C216.831 170.471 216.364 172.473 214.79 173.05C213.806 173.41 212.675 172.778 211.793 172.393C210.732 171.93 209.698 171.532 208.537 171.422C206.181 171.199 204.426 172.562 203.593 174.692L203.52 174.882C202.848 176.672 201.939 180.096 203.411 181.548C203.626 181.76 204.059 181.863 204.323 181.665C205.192 181.013 205.412 179.941 205.711 178.935L205.736 178.849C206.053 177.805 206.313 176.655 206.885 175.714C207.948 173.965 210.723 175.962 212.057 176.423C214.249 177.18 216.522 176.738 218.196 175.118C219.254 174.095 219.88 172.8 220.31 171.429C220.584 171.571 220.869 171.694 221.176 171.777C222.346 172.093 223.733 171.927 224.623 171.041C226.294 169.378 225.388 166.396 222.84 166.878C222.338 166.973 222.009 167.452 221.949 167.942L221.915 168.019C221.274 167.807 220.573 167.15 220.036 166.917ZM101.983 152.065C99.6027 149.616 95.472 150.943 93.844 153.541C93.5063 154.079 94.0641 154.762 94.657 154.598C96.074 154.208 98.0737 152.671 99.5713 153.649C100.681 154.374 100.077 156.27 99.9759 157.33L99.9613 157.488C99.8328 158.932 99.8037 160.907 100.928 161.987C101.575 162.609 102.567 162.525 103.421 162.436L103.692 162.408C104.698 162.307 105.697 162.129 106.661 161.82C107.547 161.536 108.386 161.149 109.219 160.74L109.427 160.637C109.795 160.455 111.024 159.73 111.392 160.185C111.584 160.423 111.108 161.463 111.009 161.695C110.636 162.568 110.162 163.389 109.819 164.278C109.216 165.842 109.166 167.608 110.013 169.101C110.834 170.548 112.612 171.72 114.188 170.609C115.091 169.972 115.088 168.814 114.188 168.177C113.712 167.84 113.232 167.618 113.035 167.053C112.778 166.316 113.109 165.534 113.429 164.851L113.812 164.04C114.66 162.227 115.507 160.142 114.322 158.289C113.098 156.376 110.611 156.345 108.73 157.142C107.656 157.597 106.676 158.207 105.557 158.559C104.782 158.803 104.005 158.966 103.212 159.055C103.035 158.101 103.286 157.033 103.288 156.085C103.292 154.645 103.024 153.136 101.983 152.065ZM224.723 118.001C220.707 117.411 218.762 121.004 218.485 124.464C218.235 127.605 218.744 130.755 219.54 133.809C219.838 134.941 220.172 136.06 220.523 137.16C221.087 138.928 221.699 140.693 222.444 142.395C222.671 142.908 222.901 143.424 223.157 143.919C224.037 144.64 224.79 145.612 225.474 146.545L225.923 147.162L226.044 147.328C227.206 148.919 228.199 150.57 229.011 152.365C229.784 154.075 230.359 155.857 230.806 157.677L230.916 158.131C231.26 159.532 231.767 161.203 231.154 162.506C232.358 162.877 233.555 163.214 234.834 163.393C236.599 163.641 238.436 163.657 240.217 163.593C241.938 163.529 243.658 163.395 245.372 163.213L246.606 163.077C246.734 163.062 246.862 163.047 246.99 163.031C246.942 162.971 246.9 162.905 246.871 162.832C246.431 161.777 246.487 160.554 246.439 159.419L246.433 159.294C246.368 158.035 246.329 156.776 246.313 155.515C246.284 153.149 246.348 150.777 246.607 148.422C246.831 146.361 247.182 144.3 247.73 142.298C248.283 140.269 249.126 138.364 249.906 136.415C250.676 134.489 251.312 132.511 251.243 130.411C251.199 129.076 250.906 127.779 250.408 126.552C250.385 126.571 250.356 126.584 250.321 126.582C248.76 126.525 247.281 126.073 245.772 125.693C244.172 125.287 242.533 124.954 240.896 124.757L240.548 124.716C239.184 124.563 237.697 124.489 236.437 125.074C235.072 125.709 234.213 127.121 233.695 128.476L233.637 128.632C232.716 131.201 232.927 134.629 235.774 135.844C236.657 136.223 238.672 136.454 239.126 135.258C239.33 134.712 238.91 133.905 238.752 133.389C238.566 132.775 238.445 132.169 238.459 131.527C238.47 130.964 238.9 130.54 239.447 130.494L239.497 130.491C240.492 130.448 242.544 129.301 242.744 130.952C242.783 131.273 242.537 131.61 242.278 131.766C241.756 132.075 241.21 132.282 240.641 132.408C240.719 132.752 240.829 133.089 240.937 133.423C241.001 133.391 241.072 133.371 241.148 133.364C241.989 133.295 242.822 133.428 243.663 133.437L244.123 133.44C244.776 133.447 245.345 133.482 245.979 133.82C246.563 134.132 246.46 134.914 245.979 135.248C244.715 136.124 242.576 135.611 241.26 134.721C241.318 135.173 241.29 135.634 241.098 136.117C240.529 137.553 238.899 138.268 237.441 138.33C236.145 138.385 234.907 137.977 233.873 137.261C233.662 138.016 233.323 138.74 233.176 139.522C232.984 140.549 233.213 141.75 232.856 142.716C232.498 143.688 231.115 144.339 230.315 143.385C229.144 141.991 229.508 139.783 230.538 138.371C231.086 137.624 232.081 136.766 233.094 136.631C232.39 135.968 231.826 135.15 231.471 134.246C231.445 134.258 231.416 134.26 231.384 134.251C228.089 133.35 226.296 130.365 226.186 127.231C225.943 127.405 225.691 127.561 225.427 127.701C224.797 128.04 223.987 127.742 223.793 127.038C223.614 126.383 224.134 125.574 224.866 125.628C225.283 125.663 225.702 125.665 226.117 125.596C226.175 125.587 226.23 125.576 226.287 125.564C226.324 125.323 226.372 125.083 226.431 124.844C225.187 124.986 223.884 124.782 222.681 124.516C221.644 124.289 221.885 122.641 222.928 122.68L223.096 122.687C224.465 122.753 226.485 122.974 227.658 122.107C227.864 121.809 228.094 121.527 228.341 121.261C228.373 121.194 228.401 121.123 228.426 121.05C229.057 119.234 226.069 118.198 224.723 118.001ZM188.666 143.545C187.102 143.127 185.457 143.697 184.381 144.878C183.478 145.87 183.009 147.089 182.591 148.335L182.352 149.051C182.005 150.066 181.605 150.871 180.363 150.484C178.77 149.989 177.39 149.125 175.658 149.193C174.084 149.255 172.544 149.932 171.448 151.067C170.327 152.228 169.792 153.845 170.03 155.438L170.045 155.536C170.169 156.27 171.243 158.89 172.381 157.684C172.889 157.146 172.789 156.551 172.909 155.867C173.024 155.216 173.269 154.578 173.671 154.05C174.384 153.114 175.53 152.749 176.65 153.08C178.128 153.517 179.433 154.417 181.025 154.438C182.7 154.461 184.122 153.592 185.046 152.229C185.791 151.128 186.057 149.84 186.582 148.643L186.633 148.529C187.073 147.544 187.374 147.189 188.383 147.659L188.736 147.829C190.247 148.547 191.946 149.204 193.509 148.191C194.96 147.251 195.579 145.362 194.358 143.986C193.684 143.226 192.125 143.355 191.687 144.33C191.611 144.497 191.539 144.667 191.469 144.838C191.336 144.797 191.206 144.747 191.082 144.678C190.263 144.309 189.552 143.782 188.666 143.545ZM143.015 132.421C141.231 131.46 139.742 133.351 140.027 135.058L140.041 135.133C140.051 135.184 140.075 135.297 140.105 135.426C140.014 135.415 139.924 135.399 139.834 135.376L139.42 135.325C138.768 135.249 138.137 135.21 137.485 135.419C135.946 135.913 135.189 137.409 135.152 138.942C135.115 140.47 135.905 141.702 136.138 143.161C136.375 144.654 134.83 144.228 133.822 144.119L133.782 144.115C132.379 143.973 130.904 143.97 129.738 144.885C128.534 145.829 128 147.461 128.17 148.955C128.324 150.304 129.168 152.381 130.698 152.595C130.849 152.616 131.021 152.582 131.098 152.432C131.717 151.229 130.856 149.901 130.953 148.632C131.061 147.236 131.95 147.004 133.177 147.094C134.368 147.182 135.555 147.435 136.731 147.079C138.007 146.694 138.933 145.599 139.194 144.308C139.483 142.885 138.953 141.561 138.608 140.209C138.494 139.759 138.438 139.308 138.517 138.848C138.534 138.749 138.62 138.657 138.651 138.618C138.847 138.581 139.14 138.675 139.307 138.693L139.545 138.717C140.837 138.833 142.082 138.755 143.005 137.688C143.478 137.141 143.653 136.472 143.605 135.767L143.582 135.482C143.557 135.208 143.508 134.846 143.366 134.695L143.364 134.688C143.412 134.624 143.457 134.558 143.499 134.489L143.539 134.42C143.935 133.76 143.705 132.793 143.015 132.421ZM234.403 115.687C232.626 115.687 230.948 116.267 229.604 117.847C230.084 118.303 230.467 118.833 230.678 119.454C231.335 119.094 232.032 118.812 232.745 118.613C234.921 118.005 237.897 118.014 239.727 119.507C240.685 120.286 239.633 121.685 238.601 121.444C237.677 121.229 236.875 120.83 235.905 120.784C235.063 120.743 234.238 120.853 233.431 121.096C232.2 121.467 231.081 122.171 230.258 123.141C229.983 123.466 229.742 123.819 229.54 124.2C228.004 127.116 229.162 131.298 231.283 133.699C230.45 130.934 231.28 127.673 232.938 125.383C234.934 122.626 237.918 122.313 241.063 122.743L241.167 122.758C244.209 123.187 247.976 123.936 250.25 126.172C250.023 125.656 249.762 125.156 249.468 124.672C247.744 121.834 244.885 119.619 241.918 118.04C241.421 117.771 240.919 117.524 240.419 117.295C238.518 116.421 236.4 115.687 234.403 115.687ZM235.375 94.0263L235.368 94.0585C235.367 94.0645 235.365 94.0706 235.364 94.0767C235.259 95.009 235.507 96.0791 235.633 97.02L235.65 97.1535C235.916 99.2948 236.267 101.438 236.382 103.596C236.493 105.67 236.45 107.822 236.201 109.888L236.164 110.183C236.017 111.308 235.93 112.629 235.55 113.784C237.012 113.924 238.475 114.394 239.805 114.894C240.281 115.075 240.756 115.265 241.228 115.467C240.637 112.324 240.32 109.135 239.678 106.001L239.552 105.377C238.854 101.91 238.199 98.4209 236.395 95.3193C236.155 94.9067 235.896 94.5605 235.602 94.1913C235.538 94.1067 235.462 94.0517 235.375 94.0263Z" fill="black"/>
<path fill-rule="evenodd" clip-rule="evenodd" d="M195.237 30.8866C194.728 29.6015 193.827 27.9864 192.322 27.9219C191.158 24.3626 188.263 20.7376 184.237 20.8339C172.418 8.74839 157.54 9.31812 141.984 11.8765C133.777 13.3986 125.444 16.3791 119.323 22.2607C111.992 29.185 109.138 41.2671 114.879 50.023C109.917 52.6818 109.821 58.9912 111.943 63.5442C109.392 65.3079 109.237 69.5888 112.109 70.9341C111.956 71.5596 112.064 72.2061 112.355 72.7618C110.932 73.9471 109.078 74.8227 107.546 75.5754C106.869 75.9081 106.478 76.4514 106.316 77.0638C101.285 80.3643 88.7397 88.4304 88.8892 94.85C88.8153 98.1992 91.2997 100.403 94.3186 101.281C92.5223 104.872 91.1589 109.066 92.8784 112.94C93.3537 114.11 96.9147 117.55 97.094 117.614C97.4074 117.882 102.516 115.537 104.999 114.341C105.48 117.472 108.829 119.113 111.716 118.04C114.453 117.215 116.136 114.898 117.862 112.79C120.154 117.789 126.896 117.846 131.253 115.691C135.167 113.883 138.141 110.57 139.798 106.577C148.598 110.885 158.894 112.141 168.454 110.42C169.067 111.506 170.426 112.235 171.635 111.815C176.719 110.287 182.34 110.201 186.649 106.699C195.632 100.252 196.388 88.3662 195.762 78.2342C195.206 68.132 195.693 57.9457 193.856 47.9527C194.653 45.0105 195.979 42.4095 197.205 39.6455C198.538 36.7471 198.51 32.4385 195.237 30.8866Z" fill="#D08B5B"/>
<path fill-rule="evenodd" clip-rule="evenodd" d="M154.458 10.8342L154.807 10.8356C155.384 10.8394 155.96 10.8508 156.535 10.8697C159.573 10.9697 162.741 11.3638 166.308 12.0383L166.85 12.1425C167.738 12.3162 168.532 12.4905 169.8 12.7866L172.316 13.3795C173.597 13.678 174.539 13.8845 175.409 14.0506L175.523 14.0721C175.523 14.0721 182.227 17.2855 184.393 19.3995L184.609 19.6121L184.7 19.7041L185.642 19.7338L185.651 19.8526L185.659 19.8538C186.594 19.9993 187.439 20.4833 188.225 21.237L188.309 21.3188L188.39 21.3998C189.003 22.0229 189.491 22.6868 190.165 23.7392L190.317 23.9796L190.591 24.4137L190.812 24.7623C190.956 24.9903 191.095 25.2158 191.228 25.4393L191.359 25.6621L191.453 25.8259L193.883 27.2437C194.234 27.448 194.552 27.7124 194.844 28.029L194.923 28.1166L195 28.2068L195.662 28.9948L195.529 29.1338L195.593 29.2187L195.709 29.377L195.822 29.5376L195.932 29.7002L195.979 29.7717L196.05 29.9259L196.085 30.003L196.113 30.0664L196.196 30.1091L196.365 30.4138C197.241 31.9947 197.713 33.7901 197.745 35.6351C197.767 36.9077 197.61 38.0634 197.237 39.1784C196.979 39.9493 196.634 40.555 196.036 41.389L195.564 42.0367L195.467 42.1703L195.352 42.3329C195.334 42.3589 195.316 42.3846 195.299 42.4101C194.531 43.5221 187.969 45.627 183.935 45.7287L183.814 45.7312L183.659 45.7327C183.274 45.7344 182.902 45.7206 182.544 45.6906C180.992 45.5609 179.541 45.2344 177.856 44.7005L177.507 44.5876L175.65 43.9639C175.591 43.9443 175.543 43.9287 175.51 43.9181L175.341 43.8651C174.932 43.7397 174.635 43.6676 174.432 43.6415L174.391 43.6365L174.387 43.7133L174.385 43.7857L174.385 43.8445C174.397 44.699 173.878 45.322 173.073 45.7189C172.561 45.9717 171.9 46.1523 171.071 46.2878L170.939 46.3088C169.584 46.5181 167.967 46.6076 165.264 46.6689C165.161 46.6712 165.057 46.6699 164.952 46.6651C164.372 46.6385 163.916 46.5396 163.068 46.2961L162.667 46.1811L162.449 46.121C162.046 46.012 161.821 45.9685 161.609 45.9567L161.547 45.9541L161.486 45.953C161.231 45.9527 161.047 46.0094 160.866 46.1477L160.773 46.2219L159.527 47.266C159.365 47.4011 159.219 47.521 159.112 47.6059L159.069 47.6401C157.358 48.9815 155.727 49.7477 153.806 49.8205L153.677 49.8244L153.543 49.8259C153.446 49.8261 153.348 49.8243 153.249 49.8206C152.44 49.7898 151.6 49.4898 150.453 48.9115L150.216 48.7899L150.049 48.7031C149.964 48.6584 149.876 48.6114 149.78 48.56L148.924 48.1021L148.487 47.8736C147.964 47.605 147.673 47.4753 147.477 47.4219L147.445 47.4134L147.426 47.4311C146.973 47.8742 146.583 48.4318 146.164 49.2017L146.101 49.3187L146.009 49.4932L145.414 50.6781L145.301 50.8985C144.86 51.7538 144.51 52.3004 144.053 52.78C143.389 53.4761 142.585 53.8799 141.6 53.9447L141.501 53.9501L141.383 53.953C140.919 53.9575 140.428 53.8863 139.895 53.7382L139.771 53.7027L139.65 53.6657C138.856 53.4149 137.601 53.5711 136.604 54.1002C135.521 54.6749 134.925 55.5517 134.951 56.6723C134.965 57.2289 135.029 57.8256 135.141 58.4723L135.173 58.65C135.321 59.4495 135.521 60.2516 135.83 61.3217L136.493 63.56L136.568 63.8212L136.643 64.0899C136.751 64.4813 136.837 64.8223 136.908 65.1434C137.178 66.3712 137.224 67.2931 136.952 68.0786C135.755 71.5419 133.678 73.3817 131.314 73.4593L131.232 73.4613L131.131 73.4615C129.315 73.4419 127.669 72.2584 127.689 70.7251C127.691 70.5645 127.721 70.4149 127.775 70.2795L127.799 70.2223L127.811 70.1979L127.792 70.152C127.234 68.8157 125.942 67.8402 124.426 67.6489L124.34 67.6389L124.255 67.6307C124.172 67.6236 124.089 67.6186 124.01 67.6158L123.933 67.6139L123.841 67.6131C121.821 67.6162 119.821 68.9613 118.249 71.1614C117.921 71.6202 117.616 72.1211 117.343 72.6504L117.253 72.8278L116.816 73.7224L116.52 74.5876C114.893 79.3514 115.717 84.3365 118.893 86.9138L118.99 86.9911C120.135 87.8885 121.481 88.4339 122.917 88.5808C123.083 88.5977 123.249 88.6083 123.409 88.6126L123.528 88.6147L123.665 88.6143C124.133 88.6081 124.581 88.5499 124.983 88.4413C125.311 88.3527 125.539 88.2454 125.698 88.1082C125.74 88.0722 125.774 88.0396 125.803 88.0071L125.827 87.978L125.836 87.9656L128.007 88.2875C128.376 90.6315 129.443 93.0603 131.178 95.8457L131.288 96.0202L131.478 96.3206L131.673 96.6213C133.714 99.7618 135.992 102.406 138.495 104.436L138.67 104.576L138.904 104.762L139.12 104.931C139.538 105.255 139.886 105.508 140.235 105.734L140.322 105.789L141.146 106.311L140.763 107.207C139.872 109.299 138.641 111.2 137.125 112.819L136.982 112.97L135.928 114.057L135.117 113.025C135.111 113.017 135.093 113.007 135.071 113.003L135.056 113.001H135.048L135.037 113.003L135.024 113.006L135.011 113.012C134.404 113.341 134.071 113.593 133.592 114.085L133.522 114.157L133.441 114.242L133.33 114.358C132.832 114.868 132.301 115.302 131.721 115.663C130.382 116.498 128.897 116.961 127.358 117.003L127.214 117.006L127.068 117.006C127.016 117.005 126.964 117.004 126.912 117.003C123.702 116.914 120.825 114.858 119.411 111.843C119.355 111.724 119.304 111.685 119.208 111.677L119.181 111.675L119.147 111.675C118.912 111.676 118.623 111.817 118.462 112.005L118.433 112.041L117.892 112.768L117.684 113.043C115.754 115.577 114.169 116.963 112.04 117.384C111.873 117.417 111.695 117.438 111.507 117.446L111.393 117.451H111.326C110.41 117.453 109.355 117.188 108.533 116.721C107.445 116.103 106.773 115.153 106.858 113.975L106.864 113.9L106.879 113.774C106.95 113.145 106.447 112.804 106.062 113.112L106.036 113.134L106.004 113.163C104.418 114.651 102.594 115.792 100.629 116.496L100.456 116.557L100.197 116.645C98.9584 117.063 98.0846 117.271 97.1646 117.287C96.3683 117.301 95.7063 117.014 95.2274 116.461C94.908 116.093 94.7129 115.684 94.5181 115.087L94.4856 114.985L94.4145 114.753L94.3703 114.602C93.8003 112.597 93.7879 110.452 94.2355 108.085C94.5698 106.318 95.102 104.61 95.9969 102.217L96.1707 101.755L96.5291 100.814C96.5651 100.719 96.3498 100.39 96.2166 100.353L96.2009 100.35L96.0793 100.363C95.994 100.371 95.9081 100.377 95.82 100.38L95.6861 100.383H95.5982C92.6912 100.353 90.4709 97.5028 90.4915 94.4831C90.5139 91.6543 91.9365 89.222 94.6527 86.3348L94.8887 86.0862L95.144 85.8217L95.3962 85.5635C97.8098 83.1061 100.277 80.9609 102.847 79.1211L103.06 78.9694L103.296 78.8022C104.162 78.1953 105.003 77.6449 106.167 76.9214L106.852 76.4981L109.63 73.2206C109.697 73.1828 109.762 73.1451 109.827 73.1074L109.862 71.9704L112.538 72.0256C111.859 71.6772 111.297 71.2544 110.84 70.7128C109.321 68.9117 109.511 66.4095 111.358 65.18L111.423 65.1377L112.202 64.657L112.839 65.2159C113.394 65.7026 113.983 66.0255 114.596 66.1744L114.693 66.1965L115.174 66.2983L115.267 66.4496L115.321 66.3712C115.321 66.3634 115.319 66.3556 115.317 66.3481L115.312 66.337L115.302 66.3213L115.242 66.2469L115.175 66.1671C114.961 65.916 114.721 65.6721 114.286 65.2528L113.98 64.9592L113.742 64.7278C113.118 64.1148 112.786 63.7351 112.432 63.2078C111.553 61.8958 111.056 60.4165 111.036 58.914C110.992 55.7896 112.936 52.8357 115.816 51.4875C115.916 51.4403 115.991 51.1047 115.87 50.8829C113.082 45.767 112.308 39.6345 113.708 33.9298C115.015 28.6073 118.267 23.9094 122.922 20.3106C130.913 14.1323 141.998 10.9463 153.759 10.8366L154.115 10.8342H154.458Z" fill="#BB9B62"/>
<path fill-rule="evenodd" clip-rule="evenodd" d="M111.725 73.7668C112.254 73.6339 112.538 74.3453 112.089 74.6312C109.236 76.4458 106.289 78.0665 103.533 80.0409C100.911 81.9179 98.4902 84.056 96.2325 86.3547L95.9823 86.6108C93.9411 88.7107 91.6806 91.3821 91.6576 94.4797C91.64 96.8874 93.4964 99.5155 96.0864 99.1991C97.0621 99.0799 97.959 100.318 97.6186 101.21L97.2603 102.151C95.8193 105.958 94.3531 110.272 95.4914 114.277L95.5332 114.42C95.8085 115.337 96.0988 116.147 97.1632 116.129C98.1512 116.111 99.1792 115.778 100.104 115.46C102.023 114.8 103.762 113.7 105.239 112.315C106.544 111.091 108.213 112.335 108.037 113.891L108.031 113.94C107.79 115.687 110.572 116.497 111.837 116.248C114.333 115.754 116.114 113.252 117.532 111.345C118.213 110.428 119.869 110.067 120.468 111.345C121.654 113.875 124.1 115.766 126.962 115.845C128.448 115.886 129.874 115.463 131.133 114.678C131.647 114.358 132.107 113.977 132.528 113.545L132.633 113.436C133.256 112.775 133.687 112.424 134.483 111.992C135.268 111.567 136.283 112.094 136.278 113.022C136.272 114.224 135.92 115.023 135.091 115.895C134.405 116.616 133.59 117.25 132.734 117.757C131.012 118.774 128.966 119.346 126.962 119.28C123.803 119.175 120.788 117.601 118.833 115.152C116.838 117.538 114.363 119.73 111.146 119.671C108.738 119.627 106.493 118.374 105.418 116.431C103.9 117.478 102.234 118.296 100.452 118.831L100.293 118.878C97.77 119.612 94.8667 119.904 93.2428 117.399C91.7182 115.048 91.6045 111.792 91.9539 109.104C92.2659 106.703 93.0046 104.423 93.8529 102.174C91.4382 101.453 89.564 99.1849 88.9202 96.74C87.9463 93.0429 89.8357 89.4574 92.1714 86.7103C94.7087 83.7262 97.9022 81.2022 101.119 78.993C104.328 76.79 107.923 74.7197 111.725 73.7668ZM194.231 44.849C194.237 44.7463 194.405 44.7103 194.42 44.8231C195.529 52.8653 196.17 60.8912 196.702 68.9886C196.971 73.0909 197.277 77.189 197.612 81.2863C197.933 85.2152 198.467 89.2487 198.347 93.1937C198.158 99.371 195.158 104.394 190.239 108.008C185.526 111.472 179.679 113.185 173.943 113.909C170.611 114.329 167.234 114.349 163.898 113.954C162.166 113.749 160.436 113.476 158.74 113.066L158.006 112.883C156.67 112.542 155.178 112.078 154.988 110.496C154.895 109.729 155.303 109.164 155.96 108.779C156.817 108.278 157.8 108.573 158.684 108.802C160.172 109.187 161.677 109.517 163.198 109.746C166.466 110.238 169.825 110.267 173.109 109.926C178.634 109.354 184.462 107.562 188.722 103.861C190.573 102.253 192.183 100.293 193.03 97.9654C194.118 94.9725 193.957 91.7076 193.921 88.5735C193.836 81.2863 193.911 73.999 193.809 66.7111C193.707 59.401 193.796 52.1483 194.231 44.849ZM138.672 10.7927C145.127 9.12776 151.679 8.69514 158.31 9.19631C164.564 9.6686 171.688 11.0678 176.796 14.9142C177.043 15.1008 176.895 15.4541 176.588 15.4053C173.174 14.861 169.845 13.8711 166.445 13.216C163.175 12.586 159.846 12.113 156.516 12.0034C145.254 11.6323 132.722 14.1842 123.641 21.2055C119.383 24.4975 116.133 28.9242 114.84 34.1912C113.514 39.5934 114.231 45.4355 116.895 50.3223C117.278 51.0259 117.12 52.139 116.32 52.5137C113.892 53.6504 112.163 56.1686 112.2 58.8861C112.218 60.2042 112.673 61.4681 113.403 62.5576C114.175 63.7096 115.351 64.5157 116.214 65.5917C116.554 66.0154 116.567 66.5989 116.298 66.9891C116.803 67.2103 117.348 67.3291 117.845 67.5904C118.266 67.8121 118.278 68.5043 117.845 68.7226C116.749 69.2744 115.564 68.6886 114.825 67.7988C114.692 67.64 114.578 67.4747 114.474 67.3059C113.588 67.1181 112.795 66.6736 112.102 66.0656C110.781 66.8563 110.6 68.6166 111.734 69.9617C112.314 70.6484 113.137 71.0723 113.969 71.377L114.069 71.413C114.878 71.7005 115.62 71.861 116.146 72.5087C116.492 71.7856 116.891 71.1039 117.335 70.4829C118.948 68.2253 121.429 66.2224 124.373 66.4767C126.678 66.6754 128.676 68.3261 129.148 70.6037C129.183 70.7722 128.929 70.9038 128.854 70.7279C127.747 68.1485 124.247 68.0538 122.162 69.398C119.71 70.979 118.37 73.9583 117.832 76.7331C117.303 79.4664 117.609 82.7908 119.655 84.8698C120.492 85.7206 121.631 86.3089 122.819 86.4639C123.4 86.54 123.913 86.4651 124.468 86.3533L124.837 86.2763C125.092 86.2235 125.346 86.1808 125.614 86.2046L126.013 86.2582L126.24 86.3643C126.436 86.4527 126.419 86.4285 126.186 86.2915C126.865 86.236 127.215 86.7371 127.252 87.2867C127.274 87.3005 127.295 87.3154 127.312 87.3367C129.886 90.4863 131.797 94.1067 134.528 97.1532L135.328 98.0456C137.383 100.332 139.73 102.811 142.522 103.997L142.854 104.135C143.666 104.478 144.482 104.947 144.586 105.927C144.679 106.804 143.987 107.464 143.19 107.668C141.375 108.134 139.305 106.521 137.976 105.462C135.117 103.187 132.714 100.286 130.73 97.2341L130.534 96.9301C128.903 94.3827 127.369 91.4773 126.893 88.4539L126.807 88.5932C126.801 88.6031 126.796 88.6106 126.792 88.6151C126.695 88.7471 126.588 88.8586 126.464 88.9654C126.13 89.2536 125.723 89.4219 125.3 89.536C124.506 89.7504 123.635 89.7926 122.819 89.7091C121.161 89.5397 119.612 88.9088 118.301 87.8812C114.311 84.7519 113.84 78.929 115.454 74.205C114.13 74.5212 112.621 73.63 111.587 72.8663C110.402 71.9901 109.424 70.7252 109.19 69.2373C108.958 67.7608 109.899 65.8056 111.296 65.2359C109.847 63.4964 109.003 61.0279 108.916 59.0514C108.765 55.6133 110.592 52.3637 113.396 50.4879C110.759 44.8362 110.251 38.2794 112.026 32.2786C115.55 20.3708 127.353 13.7117 138.672 10.7927ZM128.625 101.267L128.658 101.162C128.939 100.241 129.302 98.4092 130.677 99.1066C131.992 99.7727 131.153 101.744 130.693 102.704C130.143 103.852 129.193 104.773 127.918 105.02C126.88 105.22 125.74 104.963 125.015 104.161C124.803 103.927 124.683 103.671 124.558 103.388C124.509 103.278 124.487 103.202 124.478 103.153C124.466 103.207 124.432 103.288 124.346 103.382C123.766 104.015 123.219 104.751 122.799 105.5C122.7 105.677 122.386 105.553 122.465 105.359C122.955 104.162 122.872 102.311 123.964 101.445C124.925 100.681 125.829 101.282 126.338 102.171L126.364 102.217C127.107 103.567 128.292 102.285 128.625 101.267ZM118.164 96.9407L118.264 96.8013C119.293 95.3959 121.027 93.7053 122.762 95.0124C123.314 95.428 123.334 96.1218 122.762 96.5342L122.545 96.6888C121.787 97.2262 121.033 97.7338 120.476 98.5046C119.871 99.3425 119.327 100.23 118.514 100.887C117.075 102.049 114.75 102.279 113.502 100.712L113.379 100.556C113.275 100.422 113.155 100.26 113.058 100.098L112.982 100.203C112.974 100.214 112.967 100.224 112.961 100.233L112.944 100.26C112.431 101.08 111.782 101.755 110.975 102.288C109.441 103.3 107.712 103.441 105.976 102.905C105.806 102.852 105.852 102.624 106.016 102.609C108.073 102.417 110.077 100.956 110.914 99.0745L111.008 98.8633C111.347 98.1149 111.726 97.4036 112.562 97.1097C113.376 96.8236 114.231 97.1258 114.789 97.7416C115.256 98.2563 115.376 99.2795 116.218 99.0539C117.141 98.8067 117.66 97.6519 118.164 96.9407ZM112.273 84.4404C112.728 84.0942 113.442 84.4656 113.567 84.9672C114.136 87.2384 111.775 89.9146 109.507 89.985C108.923 90.0028 108.361 89.8616 107.844 89.5913C107.443 89.3818 106.968 88.8462 106.527 88.7575C105.959 88.6431 105.455 89.4006 105.054 89.7894C104.557 90.272 104.066 90.72 103.509 91.1313C103.287 91.2957 102.942 91.0196 103.036 90.7672L103.224 90.2653C103.906 88.479 105.08 85.8712 107.276 86.6125C108.353 86.9756 109.163 88.2003 110.297 87.2306C111.204 86.454 111.289 85.188 112.273 84.4404ZM121.966 75.2974C124.014 72.9465 128.828 74.1882 129.741 77.0483C129.943 77.68 129.733 78.501 129.239 78.948C128.589 79.537 127.662 79.7154 126.873 79.2534C126.194 78.8561 125.915 78.2059 125.416 77.6481C124.684 76.8308 123.688 76.377 122.662 76.0519C122.406 76.1868 122.167 76.364 121.953 76.5777C121.843 76.687 121.636 76.5371 121.733 76.4082C121.865 76.2331 122.027 76.0682 122.211 75.9162L122.122 75.8903C121.852 75.8151 121.794 75.4955 121.966 75.2974ZM135.276 49.3412C135.735 49.3419 136.27 49.7729 136.211 50.2762L136.194 50.4159C136.062 51.374 135.754 51.9164 134.795 52.3616C133.981 52.7387 133.126 52.9471 132.235 53.0296C131.897 53.0608 131.54 53.0627 131.178 53.0358L131.102 53.4756C130.95 54.3552 130.81 55.2353 130.784 56.1318C130.735 57.7938 131.355 59.1634 132.02 60.6472C133.297 63.4975 133.44 66.3427 132.05 69.1888C131.847 69.6049 131.271 69.9442 130.807 69.902C130.204 69.8475 129.913 69.6732 129.563 69.1888C129.269 68.782 129.336 68.207 129.54 67.7816L129.563 67.735C130.264 66.378 130.484 64.8449 130.127 63.3533C129.791 61.9513 129.029 60.6913 128.689 59.2937C128.135 57.017 128.725 54.7588 129.878 52.8056C129.008 52.5551 128.203 52.1085 127.666 51.4273L127.669 51.4264C127.464 51.2074 127.575 50.75 127.935 50.7776L128.342 50.8104C129.506 50.9077 130.577 51.0088 131.754 50.6845C132.357 50.518 132.878 50.2405 133.395 49.9045L133.506 49.8316C134.154 49.401 134.513 49.3403 135.276 49.3412ZM138.061 32.5147C140.979 32.3489 143.469 34.2741 144.68 36.8368C145.995 39.6191 145.443 42.8115 144.282 45.5489L143.953 46.315C143.375 47.6424 142.618 49.221 141.435 49.9332C140.107 50.7334 138.959 49.8055 139.351 48.3306C139.584 47.4523 140.216 46.7748 140.727 46.0499C141.204 45.3729 141.649 44.6722 142.039 43.9413C142.804 42.508 143.374 40.9109 143.368 39.2687C143.357 36.2712 141.377 32.8361 138.061 32.8802C137.825 32.8829 137.829 32.5278 138.061 32.5147ZM152.815 27.6782C152.634 27.5402 152.796 27.2332 153 27.3627C156.382 29.5142 158.908 33.5554 159.417 37.5256C159.699 39.7284 159.483 42.0825 158.545 44.1154C158.007 45.282 157.084 46.3955 155.792 46.7153C154.605 47.009 153.382 46.3311 153.013 45.1724C152.87 44.7228 153.116 44.2525 153.487 44.007C154.691 43.2112 155.66 42.207 156.227 40.8562C156.817 39.4517 157.052 37.9613 157.059 36.4463C157.077 32.8984 155.661 29.8406 152.815 27.6782ZM194.138 29.2159C193.982 29.0424 194.179 28.7865 194.386 28.8952C196.832 30.1814 198.386 32.645 198.831 35.3433C199.267 37.9849 198.68 41.5812 196.635 43.4916C195.481 44.5701 193.414 43.1358 194.374 41.7467C195.05 40.767 195.781 39.9602 196.168 38.8027C196.514 37.7698 196.636 36.7283 196.617 35.6429C196.576 33.2751 195.73 30.9813 194.138 29.2159ZM164.238 25.908C168.416 25.709 170.949 30.4789 171.529 34.0341C171.887 36.2307 171.618 38.4931 170.405 40.3983L170.333 40.5092C169.332 42.0312 167.513 43.7835 165.553 43.0629C164.723 42.7582 164.502 41.8693 165.06 41.195C165.912 40.1629 167.231 39.7422 168.033 38.6401C168.932 37.4041 169.227 35.8556 169.175 34.3526L169.168 34.1865C169.029 31.4217 167.71 26.1151 164.238 26.209C164.043 26.2141 164.046 25.917 164.238 25.908ZM177.308 25.1155C181.349 24.5989 183.811 29.3535 184.57 32.6288C185.044 34.6763 185.147 36.9605 184.541 38.9927L184.496 39.1375C184.002 40.6542 182.546 43.2529 180.645 42.4778C180.124 42.2655 179.592 41.6871 179.841 41.0635C180.16 40.2663 180.62 40.0595 181.232 39.5494C181.704 39.1567 182.033 38.5929 182.276 38.0376C182.922 36.5577 183.066 34.8288 182.978 33.234L182.966 33.0453C182.737 29.9303 181.048 25.288 177.308 25.3734C177.137 25.3773 177.149 25.1357 177.308 25.1155ZM184.707 20.6457C186.956 19.7891 188.799 21.9399 190.092 23.4748C191.712 25.3981 193.181 27.47 194.012 29.8642C194.752 31.9976 194.882 34.3695 194.216 36.5412C193.886 37.6164 193.372 38.6135 192.67 39.4911L192.581 39.6018C191.85 40.4921 191.145 41.0392 189.949 40.7204C189.463 40.5905 189.257 40.1092 189.341 39.6493C189.521 38.6667 190.028 38.4115 190.684 37.7255C191.262 37.1205 191.691 36.3754 191.98 35.592C192.575 33.9759 192.606 32.225 192.207 30.5601C191.759 28.6962 190.88 26.975 189.861 25.3621L189.642 25.0167C188.563 23.3115 187.025 20.6856 184.75 20.9623C184.555 20.9861 184.552 20.7044 184.707 20.6457Z" fill="black"/>
<path fill-rule="evenodd" clip-rule="evenodd" d="M150.835 86.446C153.339 84.9382 162.699 86.0434 170.051 86.446C175.889 86.7657 180.059 86.1321 181.394 87.0304C184.409 89.06 182.945 98.8739 177.749 100.216C172.553 101.558 153.291 103.433 149.97 100.216C146.649 96.9993 146.343 89.1511 150.835 86.446Z" fill="white"/>
<path fill-rule="evenodd" clip-rule="evenodd" d="M154.079 83.8501C158.009 83.3731 161.818 84.5763 165.66 85.1829C167.689 85.5029 169.72 85.7419 171.773 85.8307C172.186 85.8488 172.599 85.8593 173.012 85.8677C173.05 85.504 173.254 85.1701 173.695 84.97C174.599 84.5601 175.323 84.3753 176.315 84.4148C177.224 84.4507 178.136 84.5441 179.031 84.7079C180.656 85.0058 182.288 85.6818 183.476 86.8562C186.227 89.5737 185.808 93.9388 183.683 96.8987C179.292 103.015 171.278 103.299 164.414 103.219L163.781 103.211C157.531 103.121 148.589 104.053 145.75 96.9427C144.706 94.328 144.851 91.2973 146.129 88.7895C147.654 85.7983 150.864 84.2403 154.079 83.8501ZM173.6 94.0338L173.544 94.0361C170.663 94.1471 167.782 94.2252 164.899 94.2762C164.985 95.0165 165.073 95.7571 165.174 96.4959C165.253 97.0773 165.338 97.658 165.426 98.238C165.463 98.4836 165.6 98.8648 165.561 99.1081L165.547 99.2043C165.695 99.2712 165.829 99.3791 165.929 99.5355C165.964 99.5897 165.989 99.6443 166.014 99.6987C168.253 99.7162 170.662 99.6728 172.943 99.266L172.948 99.2164C172.989 98.9249 173.111 98.7287 173.272 98.5941C173.432 97.6646 173.417 96.6741 173.479 95.7519C173.518 95.179 173.56 94.6065 173.6 94.0338ZM162.697 94.3155C160.62 94.3508 158.542 94.378 156.466 94.3526L155.523 94.3381C155.722 95.406 155.939 96.4703 156.119 97.5454C156.307 98.6659 155.321 99.3782 154.467 99.3494C154.563 99.3651 154.659 99.3814 154.754 99.3948C157.421 99.772 160.19 99.6719 162.897 99.669C162.751 98.8191 162.81 97.8602 162.788 97.1509L162.784 97.041C162.743 96.132 162.714 95.2237 162.697 94.3155ZM148.59 94.1195C148.662 94.6748 148.802 95.2183 149.012 95.7242C149.899 97.862 151.931 98.8596 154.081 99.2797C153.708 99.1509 153.412 98.8413 153.337 98.3111C153.151 96.9928 153.084 95.6525 153.079 94.3139C151.58 94.2999 150.071 94.2679 148.59 94.1195ZM181.416 93.663C180.349 93.9148 179.109 93.7994 178.062 93.8469C177.081 93.8915 176.1 93.9303 175.119 93.9701C175.166 94.6396 175.211 95.3089 175.26 95.978C175.323 96.8429 175.329 97.7569 175.494 98.6181C177.468 97.9445 179.237 96.8642 180.564 95.1367C180.894 94.7063 181.19 94.2012 181.416 93.663ZM153.628 87.3576C151.852 87.7782 150.171 88.6666 149.267 90.2919C148.731 91.2564 148.495 92.3995 148.54 93.526C150.042 93.3512 151.569 93.285 153.088 93.2301C153.093 92.9565 153.1 92.6831 153.108 92.4103L153.131 91.7111C153.173 90.3776 153.194 88.7031 153.628 87.3576ZM162.821 87.5203L162.039 87.4324C159.868 87.185 157.697 86.9252 155.525 87.0741C155.211 87.0958 154.892 87.1301 154.572 87.1769C154.956 88.5622 154.923 90.1891 155.084 91.5605C155.146 92.0907 155.224 92.6165 155.311 93.1404L155.687 93.1228C158.018 92.9964 160.351 92.9188 162.683 92.8262C162.683 92.3883 162.685 91.9502 162.692 91.5118L162.701 91.0734C162.727 89.9538 162.655 88.6926 162.821 87.5203ZM173.727 87.3425C171.453 87.7096 169.102 87.7878 166.867 87.7905C165.975 87.7916 165.083 87.7368 164.191 87.6578C164.249 88.1325 164.28 88.6127 164.323 89.0807C164.411 90.0267 164.512 90.9711 164.621 91.9147L164.719 92.7404C167.586 92.6104 170.452 92.4699 173.318 92.3244L173.723 92.3027L173.836 90.7159C173.913 89.6579 173.998 88.6 174.118 87.5468L174.028 87.5143C173.922 87.4709 173.822 87.4111 173.727 87.3425ZM174.715 87.7364C174.841 89.2324 174.91 90.7346 175.002 92.2332L176.892 92.1323C177.206 92.1151 177.521 92.0976 177.836 92.0795C179.061 92.0089 180.634 91.6381 181.844 91.984C181.937 90.8836 181.622 89.8115 180.629 89.0723C178.886 87.7738 176.665 88.2362 174.715 87.7364ZM168.26 74.3625C171.073 72.7512 178.133 71.1044 178.58 76.1677C178.785 78.4977 177.053 80.4283 175.03 81.2898L174.954 81.3216C173.057 82.1016 169.695 82.9824 168.053 81.2911C166.686 79.8834 168.499 77.3594 170.197 78.5126C171.069 79.1051 172.906 78.6685 173.88 78.3867L173.941 78.3689C174.991 78.0601 176.392 77.0717 175.958 75.7779C175.573 74.6335 173.937 74.4244 172.912 74.3872C171.383 74.3324 169.895 74.6876 168.379 74.8031C168.139 74.8214 168.065 74.4739 168.26 74.3625ZM179.915 66.2206C183.733 66.0418 186.109 70.2112 185.231 73.6275C185.079 74.2169 184.419 74.7956 183.783 74.7294L183.623 74.7146C183.541 74.7068 183.459 74.6965 183.384 74.6757C182.78 74.5083 182.238 73.8797 182.282 73.2281L182.294 73.0383C182.383 71.4244 182.208 69.5651 180.29 69.1742C178.663 68.8427 177.755 70.4084 177.736 71.8495C177.732 72.1054 177.445 72.284 177.218 72.1464C176.042 71.4309 175.839 70.0074 176.288 68.7815C176.857 67.2282 178.282 66.2969 179.915 66.2206ZM151.577 67.1148C154.355 66.1877 157.354 67.669 158.699 70.1258C159.171 70.2624 159.643 70.6263 159.577 71.1834C159.482 71.9849 159.34 72.4902 158.784 73.098C157.915 74.0488 156.287 73.5626 155.925 72.3922L155.91 72.3393C155.5 70.8264 153.834 69.8282 152.317 70.3578C150.545 70.9764 150.596 72.8481 149.353 73.9385C149.207 74.0666 149.032 74.087 148.857 74.0024C147.537 73.3644 147.774 71.4441 148.245 70.345C148.862 68.9026 150.062 67.6199 151.577 67.1148ZM147.792 58.6761C150.044 56.3784 155.916 54.155 157.456 58.398C157.75 59.2062 157.125 60.2959 156.283 60.4635C154.906 60.7377 153.683 60.1396 152.314 60.2469C151.206 60.3342 150.051 60.7045 149.165 61.3909C146.711 63.292 146.171 66.5074 144.462 68.9271C144.379 69.0449 144.217 68.9954 144.202 68.8565C143.812 65.3338 145.325 61.1926 147.792 58.6761ZM177.16 56.4142C178.654 55.8865 180.346 55.9316 181.849 56.3998C183.362 56.8716 184.751 57.7676 185.821 58.9382C186.307 59.4697 186.756 60.0561 187.116 60.6804C187.308 61.0112 187.509 61.6947 187.727 62.1016C188.904 62.7813 189.407 64.33 188.353 65.4318L188.306 65.4801L188.165 65.62C187.598 66.1807 186.744 66.4238 185.971 66.1998C184.24 65.6991 184.03 64.3361 183.431 62.8894C183.035 61.9338 182.357 61.0883 181.535 60.4672C179.593 58.9999 176.407 58.5324 174.069 59.2239C173.944 59.2608 173.798 59.1021 173.887 58.9871C174.33 58.413 174.585 57.9418 175.178 57.4787C175.781 57.0087 176.438 56.6692 177.16 56.4142Z" fill="black"/>
<path fill-rule="evenodd" clip-rule="evenodd" d="M193.036 77.5693C190.931 80.1988 182.692 83.1174 178.307 79.949C173.922 76.7806 172.189 74.5726 171.603 70.6135C171.54 70.1914 170.777 69.9106 170.454 70.2103C168.648 71.8886 167.478 74.0261 166.319 76.1691C165.012 78.5861 163.725 81.0179 161.35 82.6541C157.143 84.909 149.533 85.2301 147.285 84.2355C142.978 82.3301 139.571 78.2551 138.796 72.6473C138.796 72.6473 138.008 70.1598 137.318 69.6364C136.663 69.1403 133.052 68.6982 132.656 68.6248C125.526 67.3019 116.508 66.4586 110.158 71.1129C109.299 71.6324 106.356 73.5841 106.313 73.1042C106.282 71.2244 108.412 66.9698 113.257 64.9453C119.248 62.4418 128.154 62.2954 133.314 62.8479C133.573 62.8757 134.458 62.6583 134.52 62.6313C142.337 59.2471 151.33 60.1459 159.694 61.5683C160.892 61.8008 171.621 64.4574 175.889 62.8479C182.945 59.9674 190.468 57.8805 198.088 58.7016C198.151 58.7084 199.113 64.547 198.364 64.9453C197.768 65.2623 196.753 66.0745 196.392 66.519C196.07 66.9164 195.867 67.4105 195.885 68.0949C196.03 72.0541 194.9 75.2398 193.036 77.5693ZM164.025 74.0365C164.919 72.7423 165.202 69.835 164.827 67.714C164.637 66.6401 164.269 65.7853 163.807 65.3597C163.5 65.0769 163.149 64.9437 162.767 64.9635C162.557 64.9743 162.33 65.034 162.09 65.1636C158.836 63.4034 154.894 62.7696 151.157 62.9519C148.183 62.9513 146.06 63.6534 144.621 64.7464C142.889 66.0615 142.109 67.9521 142.064 70.0024C142.01 72.4353 143.01 75.0969 144.649 77.2029C146.218 79.2186 148.365 80.713 150.693 81.0578C153.337 81.5826 156.031 81.0749 158.373 79.833C160.776 78.5593 162.805 76.5136 164.025 74.0365ZM190.11 75.409C191.618 73.6273 192.621 71.3093 192.773 69.0127C192.912 66.9226 192.353 64.8522 190.805 63.1413C189.402 61.9371 186.923 61.9171 184.315 62.5877C180.943 63.4548 177.455 65.3925 176.292 66.6439C176.018 66.7876 175.764 67.0377 175.542 67.5742L175.541 67.7654C175.188 69.3901 175.397 71.0389 176.007 72.5598C176.669 74.212 177.804 75.7118 179.188 76.8562C181.027 78.3711 182.947 78.8349 184.744 78.5903C186.78 78.3131 188.672 77.1084 190.11 75.409Z" fill="white"/>
<path fill-rule="evenodd" clip-rule="evenodd" d="M175.646 62.2044C182.792 59.2872 190.429 57.1846 198.161 58.0178C198.801 57.7745 199.594 57.9795 199.878 58.8837C202.632 67.2737 196.49 64.9405 196.573 68.0768C197.216 85.6622 173.58 88.6654 170.923 70.7143L170.874 70.7432C167.05 74.3113 166.245 80.1174 161.74 83.2205C152.654 89.8658 139.773 84.6007 138.119 72.7706L138.083 72.6105C137.527 70.1962 136.863 69.5976 134.124 69.6095L133.692 69.5235C126.576 68.1214 117.099 66.8615 110.545 71.6832C109.119 72.5122 109.052 74.6435 107.848 75.5695C106.528 75.8258 105.715 74.2386 105.626 73.1402C105.417 62.1897 125.012 61.402 133.788 62.3417C133.955 62.1682 134.313 62.1897 134.434 62.4059C142.371 58.9697 151.312 59.4452 159.81 60.8902C165.074 61.9093 170.274 64.2306 175.646 62.2044ZM197.45 60.0394C193.162 59.8251 189.197 60.0596 184.988 61.0902C182.77 61.6253 181.068 62.3018 178.945 63.1155C165.703 68.9822 164.176 58.554 134.493 62.6418C134.877 64.2866 134.948 65.9151 134.968 67.4603C141.029 67.2161 139.602 73.0032 141.873 77.068L141.943 77.1906C145.252 83.1213 153.061 85.8876 159.36 81.9539C164.615 78.8909 165.128 71.1222 170.36 68.039C174.896 67.8606 173.084 73.982 175.552 76.498C179.026 81.134 186.411 81.7821 190.768 77.4215C192.812 75.3232 193.898 72.6592 193.958 69.797C194.072 67.9684 193.758 66.1102 195.141 64.824C196.11 63.8395 197.832 64.1681 198.029 62.6799C198.155 61.8 197.789 60.8455 197.45 60.0394ZM150.854 62.4363C155.113 62.2265 159.619 62.9661 163.276 65.0549C165.983 62.9007 166.646 71.462 164.85 73.9383C162.261 79.2348 156.234 82.7171 150.431 81.5607C141.379 80.2489 135.071 62.4204 150.854 62.4363ZM163.016 65.629L162.785 65.5952C158.861 64.9965 148.179 62.2232 144.058 66.6004C140.06 73.861 150.204 86.0566 160.761 76.3426C163.699 73.3514 164.838 69.7242 163.016 65.629ZM175.449 66.557C177.481 64.1513 187.836 59.2785 191.445 62.4054C198.033 69.788 187.586 84.7208 178.835 77.4455C175.921 75.0137 174.004 71.1391 174.843 67.3871L174.844 67.2299C174.846 67.1729 174.857 67.1858 174.918 67.1148C175.026 66.8312 175.22 66.6501 175.449 66.557ZM191.353 71.0316C193.575 58.982 184.29 63.5628 176.664 66.7789C177.074 67.1528 177.072 67.6634 176.954 68.083C176.15 77.0234 187.016 82.0898 191.353 71.0316ZM133.634 62.9273C130.453 64.0044 109.416 62.0781 107.472 71.9397C109.523 68.6161 113.772 67.2971 117.592 66.5813C122.787 65.6076 127.954 66.1714 133.077 67.196L133.183 66.1358C133.296 65.0113 133.416 63.9594 133.634 62.9273Z" fill="black"/>
<path d="M230.979 48.0914C231.55 46.7139 233.496 46.7139 234.067 48.0914L237.44 56.2215C237.68 56.8022 238.225 57.199 238.85 57.2492L247.603 57.9529C249.086 58.0721 249.688 59.9279 248.558 60.8985L241.889 66.6268C241.413 67.036 241.204 67.678 241.35 68.2897L243.388 76.8547C243.733 78.3059 242.158 79.4529 240.889 78.6752L233.395 74.0854C232.859 73.7576 232.186 73.7576 231.651 74.0854L224.157 78.6752C222.887 79.4529 221.313 78.3059 221.658 76.8547L223.696 68.2897C223.841 67.678 223.633 67.036 223.157 66.6268L216.488 60.8985C215.358 59.9279 215.959 58.0721 217.442 57.9529L226.196 57.2492C226.821 57.199 227.365 56.8022 227.606 56.2215L230.979 48.0914Z" fill="#FFF500"/>
</g>
<defs>
<clipPath id="clip0_3_3359">
<rect width="200" height="256.225" fill="white" transform="translate(60 9)"/>
</clipPath>
</defs>
</svg>
