<svg width="1638" height="1278" viewBox="0 0 1638 1278" fill="none" xmlns="http://www.w3.org/2000/svg">
<path d="M576 448.014L597 426.321L893.975 733.107L872.975 754.801L576 448.014Z" fill="#424A60"/>
<path d="M303.623 569.83H273.925V845.943H303.623V569.83Z" fill="#424A60"/>
<path d="M566.557 243.196L545.557 221.503L322.825 451.592L343.825 473.286L566.557 243.196Z" fill="#424A60"/>
<path d="M362.975 469.014L341.976 447.321L45.0002 754.107L65.9997 775.801L362.975 469.014Z" fill="#424A60"/>
<path d="M239.875 436.261L76.5401 267.53L55.5406 289.224L218.875 457.954L239.875 436.261Z" fill="#424A60"/>
<path d="M551.7 758.383L328.968 528.293L307.969 549.987L530.7 780.077L551.7 758.383Z" fill="#424A60"/>
<path d="M585.755 293.717C626.759 293.717 660 259.378 660 217.019C660 174.66 626.759 140.321 585.755 140.321C544.75 140.321 511.509 174.66 511.509 217.019C511.509 259.378 544.75 293.717 585.755 293.717Z" fill="#618B6B"/>
<path d="M288.774 953.321C329.778 953.321 363.019 918.982 363.019 876.623C363.019 834.263 329.778 799.925 288.774 799.925C247.769 799.925 214.528 834.263 214.528 876.623C214.528 918.982 247.769 953.321 288.774 953.321Z" fill="#5E9097"/>
<path d="M74.2453 807.717C115.25 807.717 148.491 773.378 148.491 731.019C148.491 688.66 115.25 654.321 74.2453 654.321C33.2407 654.321 0 688.66 0 731.019C0 773.378 33.2407 807.717 74.2453 807.717Z" fill="#57D8AB"/>
<path d="M51.1887 309.057C75.7914 309.057 95.7358 288.453 95.7358 263.038C95.7358 237.622 75.7914 217.019 51.1887 217.019C26.586 217.019 6.64151 237.622 6.64151 263.038C6.64151 288.453 26.586 309.057 51.1887 309.057Z" fill="#8A6D69"/>
<path d="M526.359 799.925C550.961 799.925 570.906 779.321 570.906 753.906C570.906 728.49 550.961 707.887 526.359 707.887C501.756 707.887 481.811 728.49 481.811 753.906C481.811 779.321 501.756 799.925 526.359 799.925Z" fill="#B38F19"/>
<path d="M288.774 615.849C346.18 615.849 392.717 567.775 392.717 508.472C392.717 449.169 346.18 401.094 288.774 401.094C231.367 401.094 184.83 449.169 184.83 508.472C184.83 567.775 231.367 615.849 288.774 615.849Z" fill="#4B6DAA"/>
<path d="M876.443 679.446L897.443 701.139L1120.17 471.049L1099.18 449.356L876.443 679.446Z" fill="#424A60"/>
<path d="M1173.43 372.647L1194.43 394.34L1491.4 87.5539L1470.4 65.8606L1173.43 372.647Z" fill="#424A60"/>
<path d="M1203.13 486.381L1366.46 655.111L1387.46 633.418L1224.12 464.687L1203.13 486.381Z" fill="#424A60"/>
<path d="M891.3 164.258L1114.03 394.348L1135.03 372.655L912.3 142.565L891.3 164.258Z" fill="#424A60"/>
<path d="M857.245 628.925C816.241 628.925 783 663.263 783 705.623C783 747.982 816.241 782.321 857.245 782.321C898.25 782.321 931.491 747.982 931.491 705.623C931.491 663.263 898.25 628.925 857.245 628.925Z" fill="#618B6B"/>
<path d="M1495.75 0C1454.75 0 1421.51 34.3389 1421.51 76.6981C1421.51 119.057 1454.75 153.396 1495.75 153.396C1536.76 153.396 1570 119.057 1570 76.6981C1570 34.3389 1536.76 0 1495.75 0Z" fill="#57D8AB"/>
<path d="M1391.81 613.585C1367.21 613.585 1347.26 634.188 1347.26 659.604C1347.26 685.019 1367.21 705.623 1391.81 705.623C1416.41 705.623 1436.36 685.019 1436.36 659.604C1436.36 634.188 1416.41 613.585 1391.81 613.585Z" fill="#8A6D69"/>
<path d="M916.641 122.717C892.039 122.717 872.094 143.32 872.094 168.736C872.094 194.151 892.039 214.755 916.641 214.755C941.244 214.755 961.189 194.151 961.189 168.736C961.189 143.32 941.244 122.717 916.641 122.717Z" fill="#B38F19"/>
<path d="M1154.23 306.792C1096.82 306.792 1050.28 354.867 1050.28 414.17C1050.28 473.473 1096.82 521.547 1154.23 521.547C1211.63 521.547 1258.17 473.473 1258.17 414.17C1258.17 354.867 1211.63 306.792 1154.23 306.792Z" fill="#4B6DAA"/>
<path d="M893.975 202.014L872.976 180.321L576 487.107L597 508.801L893.975 202.014Z" fill="#424A60"/>
<path fill-rule="evenodd" clip-rule="evenodd" d="M782.704 962.663C776.018 942.118 783.981 918.388 778.776 896.24C776.992 887.48 773.602 854.933 770.197 835.901C768.293 825.256 779.686 821.95 781.437 817.701C793.759 779.531 703.872 689.734 698.385 686.425C690.163 681.674 682.887 677.583 674.853 672.729C651.417 664.497 623.314 641.595 602.068 656.305C565.256 601.506 579.819 533.992 559.844 525.968C539.868 517.943 480.881 501.725 447.157 522.435C426.943 537.391 428.433 563.138 419.21 584.371C413.796 594.366 411.136 608.845 404.834 615.364C383.421 637.513 356.718 641.332 326.866 645.091C324.592 645.378 322.2 639.194 319.991 639.957C269.635 657.362 211.041 662.44 154.013 759.894C145.959 773.832 124.232 796.193 131.497 812.299C83.6286 923.609 36.5282 1174.14 167.873 1236.62C172.072 1239.31 200.554 1224.91 205.195 1225.04C212.931 1225.27 198.108 1244.05 205.195 1240.7C257.223 1244.65 543.511 1234.47 653.249 1244.65C728.712 1244.08 776.508 1257.32 793.934 1244.08C786.968 1227.25 787.291 1209.22 789.493 1191.42C805.53 1179.49 785.705 1095.39 787.383 1070.76C802.395 1052.76 790.442 985.271 782.704 962.663Z" fill="#FAC9A6"/>
<path fill-rule="evenodd" clip-rule="evenodd" d="M323.923 644.927L323.44 645.238C323.36 645.29 323.281 645.344 323.206 645.401C322.692 645.787 322.773 646.485 323.379 646.719C324.185 647.034 325.032 647.272 325.904 647.46C328.552 651.301 330.621 656.049 332.066 658.455C336.217 665.369 371.85 708.84 377.176 714.426C385.829 723.502 428.442 757.629 429.02 756.948C435.874 761.043 442.976 764.717 450.353 767.852C494.009 786.403 550.004 788.086 587.521 757.27C590.317 758.035 616.841 719.844 620.942 706.164C622.941 706.719 625.418 692.057 624.035 692.281C625.241 683.992 610.714 654.219 609.335 652.795C609.542 652.73 609.749 652.668 609.957 652.608C610.078 652.869 610.355 653.067 610.68 652.983C613.45 652.261 616.259 651.879 619.064 651.936C621.198 651.979 636.434 658.92 637.025 659.205C637.388 659.379 637.753 659.555 638.12 659.731C760 718.32 778.785 813.536 783 813.32C781.226 815.568 733.068 883.658 730.479 889.676C729.941 876.664 738.84 1223.54 739.462 1230.79C739.717 1233.77 739.736 1240.82 740.157 1243.66C737.098 1243.83 629.918 1236.51 430.616 1237.71C366.974 1238.1 209.674 1245.02 209.674 1245.02L209.622 1244.59C209.171 1240.34 209.563 1232.1 209.501 1227.87C215.542 1224.38 221.471 1220.67 227.331 1217.03C240.673 1208.73 323 1133.32 383.505 1065.85C419.375 1025.85 464.121 998.934 466.543 996.317C466.59 996.264 466.613 996.205 466.648 996.15C466.774 996.243 466.93 996.331 467.13 996.303C495 992.32 536.583 1000.89 567.197 985.043C580.864 977.969 627.239 929.805 640.907 916.495C641.316 916.095 641.612 915.673 641.819 915.243C650.933 909.69 686.449 881.538 688.961 878.061L689.71 877.014C692.487 873.083 696.661 868.94 691.822 865.164C686.723 861.185 676.951 865.965 671.573 868.255L670.824 868.569C668.207 869.643 665.64 870.812 663.113 872.055C659.922 863.115 652.141 862.93 643.756 864.164C637.778 865.045 631.975 867.09 626.149 868.647C618.752 870.623 611.324 872.483 603.869 874.229C590.444 877.371 574.927 883.118 561.346 885.498C560.987 885.081 560.489 884.752 559.824 884.586C555.174 883.424 550.043 884.314 545.273 884.402C541.186 884.478 537.099 884.486 533.012 884.428L530.56 884.385C521.799 884.206 510.047 880.133 501.288 879.981L500.764 879.659L500.247 879.331C497.986 877.873 495.536 875.921 494.868 873.465C494.784 873.158 503.74 852.547 503.87 835.869C503.942 826.596 500.759 817.92 500 813.32C498.147 802.09 494 809.32 488 820.32C482 831.32 474 841.32 468 849.32C460.266 859.632 452.681 862.747 448.739 868.724C448.071 869.737 447.414 870.782 446.773 871.854C445.231 870.316 432.23 900.943 434.503 906.842C432.92 906.317 369 988.32 230 1047.32C230.886 1041.8 255 896.32 249 872.32C243 848.32 163.651 759.619 155.4 757.65C156.226 756.304 124 778.32 182 721.32C240 664.32 278.649 654.668 307.524 644.077C309.14 643.575 310.748 643.067 312.349 642.554C311.945 643.269 312.861 644.058 313.566 643.477C317.558 640.176 321.023 641.725 323.923 644.927Z" fill="#313636"/>
<path fill-rule="evenodd" clip-rule="evenodd" d="M758.779 839.473C751.58 849.943 744.966 860.722 738.987 871.934C735.904 877.717 733.028 883.615 730.439 889.633C729.901 876.621 729.783 863.455 728.262 850.571C728.153 849.641 726.602 849.189 726.439 850.323C724.759 862.006 724.482 873.991 723.847 885.799C723.116 885.575 722.308 885.446 721.418 885.446C712.778 885.446 704.268 886.154 695.659 886.852C691.801 887.164 687.765 887.403 683.83 888.018C686.997 884.52 689.947 880.825 692.67 876.971C695.447 873.04 698.621 866.897 693.782 863.121C688.437 858.95 677.955 864.405 672.784 866.526C670.167 867.6 667.6 868.769 665.073 870.012C661.882 861.072 652.101 859.887 643.716 861.121C637.738 862.002 631.935 864.047 626.109 865.604C618.712 867.58 611.284 869.44 603.829 871.186C590.404 874.328 576.887 877.075 563.306 879.455C562.947 879.038 562.449 878.709 561.784 878.543C557.134 877.381 552.003 878.271 547.233 878.359C542.329 878.45 537.424 878.443 532.52 878.342C523.759 878.163 515.007 878.09 506.248 877.938C503.758 876.429 500.601 874.263 499.828 871.422C498.863 867.877 501.877 863.95 503.276 860.932C508.649 849.344 510.528 836.376 508.42 823.756C508.044 821.506 507.27 819.046 506.152 816.741C515.749 817.768 525.221 818.465 534.87 818.78C554.137 819.407 573.403 820.064 592.679 820.207C631.22 820.494 669.762 820.496 708.303 820.214C730.095 820.055 751.837 819.855 773.602 818.742C771.828 820.99 770.103 823.287 768.419 825.619C768.071 825.515 767.616 825.702 767.669 826.134C767.686 826.285 767.704 826.435 767.722 826.585C764.649 830.877 761.691 835.237 758.779 839.473ZM715.924 1237.94C706.967 1237.65 698.012 1237.37 689.056 1237.08C671.476 1236.52 653.896 1235.96 636.317 1235.41C601.49 1234.3 566.664 1233.23 531.832 1232.27C497.084 1231.31 462.319 1230.29 427.561 1231.38C392.724 1232.47 357.976 1235.28 323.204 1237.53C303.873 1238.79 284.528 1239.87 265.161 1240.39C246.716 1240.89 228.108 1240.14 209.692 1241.45C209.073 1236.9 209.528 1232.36 209.461 1227.83C215.502 1224.34 221.431 1220.63 227.291 1216.98C248.655 1203.7 268.849 1188.66 287.897 1172.23C290.825 1169.7 293.696 1167.12 296.538 1164.52C294.56 1168.84 296.143 1174.41 301.812 1176.24C308.725 1178.47 315.803 1177.68 322.983 1177.51C330.274 1177.34 337.565 1177.18 344.857 1177.02C359.108 1176.72 373.36 1176.45 387.612 1176.21C415.454 1175.74 443.297 1175.4 471.141 1175.17C527.161 1174.72 583.142 1175.48 639.153 1176.49C654.903 1176.78 670.637 1177.13 686.387 1176.78C694.267 1176.6 702.179 1176.54 710.05 1176.12C716.356 1175.78 722.7 1174.88 729.005 1174.08C729.8 1185.06 730.631 1196.04 731.557 1207.01C732.17 1214.26 732.8 1221.5 733.422 1228.74C733.677 1231.73 733.696 1234.78 734.117 1237.62C728.064 1237.95 722.048 1238.13 715.924 1237.94ZM722.083 927.863C721.863 936.268 721.746 944.679 721.686 953.091C720.959 952.674 720.14 952.37 719.217 952.23C709.422 950.735 698.941 951.869 689.031 952.036C679.452 952.196 669.84 952.142 660.27 952.594C650.681 953.047 641.096 953.588 631.509 954.084C627.011 954.319 622.562 954.52 618.099 955.129C615.041 955.546 611.13 955.516 607.863 956.386C621.568 943.113 635.199 929.762 648.867 916.452C649.276 916.052 649.572 915.63 649.779 915.2C658.893 909.647 667.641 903.397 675.563 896.24C681.846 898.662 688.998 898.968 695.659 899.508C704.27 900.207 712.775 900.914 721.418 900.914C722.002 900.914 722.549 900.857 723.064 900.756C722.641 909.787 722.32 918.818 722.083 927.863ZM366.236 1091.15C387.159 1097.83 409.828 1097.76 431.595 1099.09C454.8 1100.52 477.97 1101.71 501.202 1102.61C547.601 1104.41 593.97 1106.86 640.362 1108.81C666.861 1109.93 693.354 1111.15 719.842 1112.49C721.721 1112.58 723.513 1112.1 725.094 1111.22C725.983 1128.66 727.025 1146.1 728.238 1163.52C728.389 1165.7 728.557 1167.88 728.712 1170.06C716.245 1168.49 703.873 1167 691.313 1165.94C677.209 1164.74 663.112 1163.74 648.988 1162.8C621.465 1160.98 593.898 1158.54 566.325 1157.65C510.117 1155.83 453.785 1156.45 397.556 1156.85C381.646 1156.96 365.737 1157.11 349.828 1157.3C341.874 1157.4 333.92 1157.51 325.966 1157.62C317.972 1157.74 309.381 1156.91 301.812 1159.7C301.74 1159.72 301.679 1159.76 301.608 1159.79C324.443 1138.16 344.9 1114.24 366.236 1091.15ZM439.788 1021.98C474.755 1028.34 510.27 1027.91 545.714 1028.54C581.981 1029.18 618.297 1028.76 654.57 1028.83C675.175 1028.87 695.957 1029.78 716.488 1027.95C718.914 1027.73 720.794 1026.81 722.135 1025.5C722.509 1047.34 723.194 1069.17 724.139 1090.99C722.807 1090.42 721.353 1090.08 719.842 1089.99C673.492 1087.26 627.139 1084.79 580.732 1083.27C534.362 1081.76 487.935 1079.97 441.54 1080.53C418.899 1080.81 394.957 1079.36 372.627 1084.29C381.113 1075.28 389.781 1066.43 398.848 1057.95C412.067 1045.6 426.173 1034.03 439.788 1021.98ZM466.503 996.274C466.55 996.221 466.573 996.162 466.608 996.107C466.734 996.2 466.888 996.264 467.09 996.26C499.822 995.522 536.543 1005.85 567.157 990C580.824 982.926 592.142 971.745 603.129 960.998C603.135 961.077 603.142 961.157 603.148 961.237C603.22 962.109 603.589 963.159 604.473 963.545C608.084 965.129 612.313 965.233 616.19 965.797C620.649 966.447 625.028 966.827 629.526 967.097C639.443 967.692 649.359 968.322 659.279 968.883C669.177 969.443 679.12 969.489 689.031 969.736C698.969 969.983 709.38 971.186 719.217 969.768C720.12 969.638 720.923 969.354 721.636 968.961C721.651 981.686 721.767 994.41 721.886 1007.13C721.906 1009.2 721.946 1011.27 721.97 1013.34C720.642 1012.13 718.817 1011.28 716.488 1011.07C698.247 1009.46 679.865 1010.18 661.56 1010.24C643.585 1010.3 625.608 1010.36 607.632 1010.42C571.335 1010.54 535.067 1010.89 498.776 1011.59C481.128 1011.92 463.557 1013.41 446.167 1016.26C453.208 1009.85 460.053 1003.24 466.503 996.274ZM182.099 1227.64C175.398 1229.69 168.746 1228.8 162.032 1230.2C161.619 1230.29 161.238 1230.45 160.889 1230.66C140.783 1222.07 127.381 1204.83 118.209 1185.52C108.541 1165.15 101.877 1143.39 97.4126 1121.32C88.2086 1075.84 88.1926 1028.67 92.9566 982.656C97.6376 937.446 106.906 892.481 120.132 849.002C129.213 819.148 140.786 788.987 156.855 761.766C175.41 774.198 189.8 792.098 203.356 809.594C219.555 830.503 234.153 852.629 247.22 875.619C245.869 879.557 245.659 884.497 245.011 888.017C243.762 894.805 242.634 901.678 241.747 908.524C239.852 923.157 238.034 937.798 236.097 952.425C232.266 981.349 227.692 1010.19 222.639 1038.93C222.23 1041.26 222.884 1043.23 224.087 1044.7C214.065 1049.99 204.174 1055.5 194.537 1061.48C173.35 1074.63 153.549 1089.94 138.003 1109.59C137.599 1110.1 138.232 1110.78 138.732 1110.32C172.07 1079.51 213.488 1060.17 254.153 1041.06C274.934 1031.29 295.613 1021.37 315.551 1009.95C336.401 998.006 356.285 984.512 375.343 969.888C397.105 953.19 417.59 934.934 436.793 915.348C439.055 913.039 438.507 910.149 436.805 908.323C437.38 908.145 437.844 907.645 437.874 906.811C438.335 894.02 442.176 883.123 449.696 872.771C456.672 863.166 465.563 855.251 473.583 846.561C477.147 842.699 480.553 838.676 483.594 834.384C486.725 829.967 488.632 825.091 491.357 820.476C494.54 815.083 497.248 817.838 498.723 822.72C500.396 828.254 500.292 834.733 499.62 840.422C498.909 846.442 497.076 852.311 494.436 857.752C491.956 862.863 489.097 868.062 490.766 873.92C493.509 883.547 505.269 889.122 514.178 891.29C524.098 893.704 534.475 893.235 544.52 891.983C557.1 890.414 569.62 888.118 582.055 885.676C596.456 882.849 610.772 879.586 624.976 875.899C631.653 874.166 638.283 871.887 645.025 870.452C647.429 869.941 651.878 869.173 654.703 870.426C618.388 892.074 578.797 906.496 538.586 919.063C533.59 920.623 535.639 928.168 540.752 926.918C583.951 916.356 624.593 896.753 663.272 875.283C663.864 874.953 664.366 874.444 664.735 873.842C668.626 872.473 672.582 871.284 676.616 870.303C678.419 869.865 687.693 866.805 688.852 867.981C690.495 869.646 684.81 875.053 683.39 876.625C673.282 887.822 661.259 896.961 648.245 904.516C635.044 912.178 620.998 918.287 606.886 924.052C591.078 930.51 574.369 935.586 559.003 943.009C552.899 945.958 557.182 955.975 563.613 953.944C571.901 951.325 579.954 947.476 588.008 944.206C594.85 941.43 601.693 938.655 608.496 935.784C613.239 933.782 617.95 931.713 622.615 929.551C615.627 936.127 608.638 942.703 601.651 949.282C589.551 960.674 578.054 973.651 563.262 981.641C548.648 989.535 531.976 990.453 515.709 990.283C507.542 990.197 499.411 989.938 491.244 990.267C482.649 990.613 475.016 991.934 466.871 994.639C466.721 994.689 466.612 994.779 466.52 994.881C466.235 994.534 465.752 994.36 465.253 994.655C443.12 1007.74 422.945 1024.72 403.542 1041.49C383.544 1058.79 364.727 1077.18 346.798 1096.6C329.637 1115.19 312.613 1133.86 293.939 1150.96C275.706 1167.66 256.221 1182.83 235.875 1196.87C224.789 1204.51 213.429 1211.88 201.675 1218.46C195.394 1221.98 189.015 1225.52 182.099 1227.64ZM183.96 724.241C191.886 715.338 200.417 707.086 209.444 699.452C213.427 700.631 217.608 700.961 221.821 701.004C228.25 701.068 234.693 701.336 241.122 701.27C253.501 701.143 265.875 700.752 278.257 700.685C303.574 700.547 328.899 700.54 354.216 700.76C357.533 700.789 359.926 699.371 361.403 697.311C366.528 703.121 371.81 708.797 377.136 714.383C385.789 723.459 395.014 732.118 404.834 740.009C402.922 740.022 401.011 740.039 399.11 740.026C390.353 739.967 381.595 739.912 372.839 739.865C355.266 739.768 337.693 739.696 320.12 739.649C285.184 739.557 250.139 739.848 215.248 741.637C205.564 742.133 195.804 742.334 186.154 743.278C180.92 743.79 175.692 744.387 170.463 744.944C169.393 745.058 168.367 745.201 167.36 745.362C172.481 738.004 177.997 730.938 183.96 724.241ZM323.883 644.884C323.647 645.044 323.392 645.187 323.166 645.358C322.652 645.744 322.733 646.442 323.339 646.676C324.145 646.991 324.992 647.229 325.864 647.417C328.512 651.258 330.581 656.006 332.026 658.412C336.177 665.326 340.95 671.912 345.806 678.342C346.782 679.633 347.777 680.91 348.776 682.184C325.261 682.128 301.758 682.248 278.257 683.137C265.884 683.606 253.469 683.999 241.122 684.927C236.045 685.309 230.971 685.95 225.91 686.584C252.25 667.544 281.872 653.005 312.559 642.211C312.517 642.258 312.474 642.293 312.432 642.34C311.756 643.09 312.765 644.062 313.526 643.434C317.518 640.133 320.983 641.682 323.883 644.884ZM442.699 868.681C442.031 869.694 441.374 870.739 440.733 871.811C439.191 870.273 437.037 869.245 434.262 869.159C403.457 868.198 372.667 867.358 341.845 867.337C326.645 867.327 311.307 866.815 296.126 867.567C288.503 867.945 280.883 868.395 273.264 868.827C267.937 869.129 262.278 869.505 257.076 871.047C245.087 850.077 231.778 829.916 217.244 810.639C250.22 814.684 283.761 814.253 316.924 815.376C354.497 816.649 392.091 816.923 429.677 817.813C439.987 818.057 450.297 818.325 460.605 818.613C465.925 818.762 471.246 818.916 476.567 819.077C478.23 819.127 479.951 819.173 481.674 819.128C481.544 819.397 481.412 819.666 481.283 819.932C478.382 825.924 474.734 831.439 470.483 836.557C461.445 847.439 450.528 856.813 442.699 868.681ZM402.286 933.276C401.145 930.104 398.365 927.664 393.936 927.866C368.696 929.012 343.409 929.807 318.198 931.468C305.917 932.278 293.586 932.823 281.325 933.897C275.001 934.452 268.688 935.483 262.391 936.303C258.074 936.866 253.554 937.519 249.413 939.053C250.216 930.188 250.924 921.316 251.539 912.431C252.032 905.293 252.182 898.09 252.144 890.934C252.125 887.312 252.002 883.669 251.827 880.048C252.199 880.123 252.572 880.16 252.938 880.115C253.584 880.035 254.187 879.959 254.747 879.809C260.55 882.08 267.118 882.581 273.264 883.02C280.554 883.539 287.842 884.092 295.132 884.612C310.643 885.719 326.3 885.647 341.845 886.154C372.446 887.151 403.053 887.731 433.66 888.55C432.24 894.643 432.19 900.9 434.463 906.799C432.88 906.274 431.057 906.518 429.501 908.055C420.685 916.764 411.606 925.164 402.286 933.276ZM313.252 998.061C312.629 996.338 311.453 994.755 310.061 993.682C304.709 989.558 294.939 991.932 288.515 992.246C280.91 992.619 273.304 992.991 265.699 993.363C263.391 993.475 251.611 994.076 242.959 995.92C244.747 982.419 246.369 968.896 247.819 955.348C248.123 952.504 248.405 949.659 248.684 946.814C252.76 948.125 257.19 948.606 261.394 948.806C267.694 949.106 274.023 949.614 280.329 949.713C292.928 949.911 305.597 949.289 318.198 949.079C340.89 948.702 363.585 947.619 386.267 946.724C363.494 965.209 339.431 982.075 314.331 997.417C313.973 997.636 313.61 997.844 313.252 998.061ZM241.58 1006.07C243.497 1006.33 245.398 1006.41 246.852 1006.56C254.152 1007.29 261.338 1007.96 268.675 1008.07C275.95 1008.18 283.224 1008.28 290.499 1008.39C292.046 1008.41 293.593 1008.43 295.14 1008.46C275.984 1018.92 256.24 1028.29 236.775 1038.16C238.49 1027.48 240.091 1016.78 241.58 1006.07ZM450.313 767.809C493.969 786.36 549.964 788.043 587.481 757.227C591.209 758.247 595.332 758.586 598.624 758.916C606.02 759.659 613.348 760.342 620.78 760.575C635.265 761.027 649.763 761.704 664.254 761.883C693.569 762.245 722.886 762.414 752.202 762.675C754.697 762.698 756.693 761.938 758.207 760.717C761.176 765.75 763.938 770.91 766.459 776.201C770.136 783.918 773.252 791.893 775.811 800.047C775.263 799.952 774.693 799.886 774.083 799.875C735.556 799.209 697 800.317 658.466 800.478C619.923 800.639 581.385 800.474 542.843 800.748C532.177 800.825 521.59 800.827 510.951 801.618C505.414 802.03 499.811 802.21 494.327 803.104C493.714 803.203 493.09 803.291 492.461 803.379C485.112 799.084 475.989 799.981 467.589 799.823C457.944 799.641 448.3 799.479 438.656 799.336C419.7 799.055 400.742 798.85 381.784 798.72C344.159 798.462 306.626 799.423 269.025 800.734C250.317 801.385 231.68 802.492 213.213 805.371C211.973 803.766 210.745 802.153 209.489 800.561C196.404 783.977 180.892 762.746 159.36 757.607C160.186 756.261 161.024 754.923 161.875 753.594C176.793 757.528 193.25 757.329 208.492 758.153C226.061 759.102 243.593 759.758 261.183 760.19C296.148 761.049 331.106 761.588 366.078 762.119C375.784 762.267 385.49 762.422 395.196 762.584C400.431 762.671 405.667 762.772 410.903 762.852C413.828 762.897 416.443 762.889 419.23 761.918C421.811 761.019 424.327 759.67 426.823 758.553C427.694 758.163 428.402 757.586 428.98 756.905C435.834 761 442.936 764.674 450.313 767.809ZM620.902 706.121C626.393 707.645 632.06 707.898 637.865 708.336C645.485 708.913 653.087 709.01 660.727 709.059C672.908 709.137 685.092 709.053 697.269 708.717C702.5 708.573 705.556 705.072 706.463 701.062C706.589 701.164 706.719 701.264 706.845 701.368C721.666 713.579 735.095 727.545 746.475 743.004C719.069 743.09 691.66 743.108 664.254 743.292C649.765 743.39 635.265 743.985 620.78 744.358C613.674 744.54 606.672 745.129 599.596 745.801C599.456 745.815 599.308 745.827 599.165 745.84C599.915 744.975 600.659 744.098 601.386 743.196C609.844 732.715 616.801 719.801 620.902 706.121ZM799.089 1256.31C801.507 1249.66 800.568 1242.52 800.431 1235.53C800.291 1228.35 800.214 1221.18 800.19 1214C800.143 1199.96 800.048 1185.93 799.893 1171.9C799.579 1143.51 799.251 1115.1 798.134 1086.73C795.926 1030.64 791.673 974.696 784.731 918.987C781.357 891.903 777.169 864.881 771.486 838.18C771.566 838.073 771.644 837.963 771.724 837.855C777.383 830.293 783.819 823.303 789.379 815.69C789.872 815.014 790.078 814.148 790.073 813.273C790.276 813.174 790.48 813.07 790.687 812.952C795.299 810.326 791.134 803.167 786.523 805.828C787.055 805.522 779.397 785.868 778.586 783.889C775.671 776.781 772.393 769.831 768.697 763.095C766.467 759.032 764.08 755.054 761.58 751.149C761.143 748.233 759.568 745.53 756.862 744.084C752.114 737.282 746.985 730.744 741.518 724.515C719.137 699.015 691.182 678.43 660.641 663.767C656.228 661.649 651.684 659.883 647.156 658.034C642.336 656.063 637.866 653.487 633.116 651.418C625.387 648.053 617.756 648.246 610.164 651.809C609.515 652.114 609.98 653.112 610.64 652.94C615.528 651.666 620.535 651.452 625.435 652.836C630.236 654.192 633.886 657.188 638.08 659.688C645.55 664.143 653.901 667.047 661.558 671.205C671.683 676.707 681.578 682.748 691.043 689.38C681.236 689.899 671.422 690.274 661.605 690.534C654.314 690.728 647.026 690.761 639.745 691.185C634.563 691.486 629.174 691.401 623.995 692.238C625.244 683.653 625.246 674.991 623.685 666.628C623.685 666.625 623.684 666.622 623.684 666.619C623.307 664.604 622.85 662.604 622.288 660.627C621.091 656.42 617.256 655.789 614.472 657.381C614.196 657.178 613.918 656.978 613.651 656.761C610.316 654.053 607.314 650.813 604.703 647.408C599.28 640.333 594.897 632.143 591.578 623.888C588.216 615.528 585.834 606.781 583.501 598.09C582.331 593.733 581.065 589.399 579.873 585.045C578.837 581.26 578.083 577.079 576.18 573.63C575.823 572.984 574.749 573.106 574.578 573.84C573.57 578.16 574.103 583.087 574.288 587.492C574.492 592.381 574.773 597.225 575.424 602.077C576.773 612.145 578.949 622.042 582.436 631.602C585.779 640.77 590.191 649.325 596.183 657.049C600.164 662.18 605.818 668.972 612.367 671.739C613.223 681.371 613.125 691.013 610.85 700.549C607.874 713.031 602.175 724.896 594.345 735.061C577.927 756.375 552.527 768.418 526.028 770.9C498.612 773.467 470.556 767.336 445.921 755.278C418.52 741.866 395.789 721.174 375.372 698.84C363.602 685.966 351.398 673.299 340.49 659.678C338.557 657.264 335.463 652.363 331.793 647.948C335.528 647.914 339.361 647.355 342.667 646.931C349.507 646.053 356.192 644.694 362.876 642.994C375.373 639.816 388.551 635.394 399.471 628.399C422.578 613.596 431.598 594.819 434.679 568.95C435.653 560.772 421.512 558.786 420.195 566.989C418.172 579.599 415.111 585.735 411.086 597.848C407.215 609.491 401.608 613.828 390.891 620.246C380.83 626.272 369.396 629.772 358.312 633.389C352.17 635.393 345.955 637.221 339.761 639.063C335.818 640.236 331.137 641.259 327.137 643.07C325.05 641.239 322.873 639.858 320.681 639.335C320.842 639.064 320.633 638.643 320.229 638.723C319.585 638.852 318.943 638.994 318.299 639.127C317.652 639.173 317.008 639.301 316.365 639.533C277.759 647.893 240.685 665.696 209.247 689.948C207.662 690.609 206.129 691.42 204.67 692.445C203.919 692.972 203.421 693.809 203.278 694.676C198.552 698.534 193.966 702.538 189.535 706.682C153.849 740.059 131.238 784.459 115.409 830.127C99.8156 875.118 89.2606 922.297 83.4566 969.534C77.5396 1017.68 76.8576 1066.83 85.4396 1114.71C90.0476 1140.42 97.5076 1165.68 108.519 1189.4C118.407 1210.69 134.502 1234.95 159.782 1237.54C159.863 1237.63 159.939 1237.71 160.03 1237.79C169.949 1245.95 184.717 1240.31 195.087 1235.43C196.731 1234.66 198.362 1233.85 199.986 1233.01C199.128 1236.31 198.741 1239.77 198.562 1243.01C198.189 1249.74 207.68 1250.13 209.477 1244.54C224.862 1247.25 240.749 1247.28 256.31 1247.2C273.697 1247.1 291.078 1246.5 308.445 1245.68C342.903 1244.06 377.32 1241.57 411.801 1240.44C481.619 1238.16 551.628 1243.04 621.39 1245.5C640.96 1246.19 660.53 1246.88 680.1 1247.57C700.095 1248.28 720.07 1248.41 739.904 1251.12C747.197 1252.11 749.991 1244.96 747.934 1240.51C748.447 1237.52 747.936 1234.24 747.655 1230.72C747.131 1224.14 746.636 1217.55 746.172 1210.96C745.266 1198.12 744.391 1185.27 743.561 1172.42C741.879 1146.38 740.432 1120.32 739.024 1094.27C736.225 1042.46 734.082 990.619 732.506 938.763C732.121 926.123 731.619 913.479 730.985 900.848C731.74 899.651 732.493 898.452 733.221 897.239C735.645 893.196 738.022 889.127 740.477 885.102C745.402 877.034 750.357 869.019 755.535 861.11C760.007 854.28 764.62 847.555 769.44 840.969C775.424 891.502 780.743 942.086 783.185 992.943C785.874 1048.96 787.301 1105.06 788.077 1161.13C788.294 1176.79 788.44 1192.46 788.607 1208.12C788.694 1216.28 788.781 1224.43 788.714 1232.59C788.649 1240.39 787.47 1248.93 790.238 1256.31C791.852 1260.62 797.496 1260.69 799.089 1256.31Z" fill="black"/>
<path fill-rule="evenodd" clip-rule="evenodd" d="M660.501 776.793C674.781 778.195 689.06 779.595 703.339 780.997C771.727 786.222 840.088 797.134 907.953 803.683C909.643 800.933 912.95 801.386 914.958 803.297C921.73 802.704 929.319 797.528 935.454 802.912C935.653 802.884 935.852 802.851 936.053 802.832C946.975 781.869 954.525 759.51 961.852 737.121C966.529 723.356 972.821 710.031 984.449 700.789C1004.29 687.014 1049.76 659.081 1073.06 660.255C1073.45 656.083 1075.39 651.783 1078.59 649.005C1071.55 637.006 1099.69 629.177 1101.68 630.568C1100.4 590.48 1119.26 555.666 1160.84 547.683C1198.09 539.921 1251.07 538.617 1271.11 577.546C1273.31 577.298 1295.82 577.181 1298 577.425C1301.39 573.136 1338.57 613.778 1323.33 627.927C1459.6 688.209 1537.09 681.016 1574.81 850.485C1579.91 866.405 1580.28 883.826 1585.66 899.391C1604.82 944.122 1620.36 991.753 1624.22 1040.42C1633.56 1042.82 1634.64 1059.28 1623.82 1061.67C1619.69 1062.58 1616.23 1063.82 1613.22 1066.18C1615.57 1106.07 1605.93 1197.18 1599.85 1196.9C1587.46 1236.34 1532.17 1247.47 1493.04 1233.61C1499.78 1246.31 1493.04 1254.29 1493.04 1261.07C1352.21 1266.4 1198.23 1263.33 1057.44 1270.64C1039.43 1270.38 1020.49 1275.06 1002.73 1272.37C991.895 1269.77 991.877 1252.74 1002.86 1250.63L954.852 1240.2C955.925 1239.8 935.061 1225.92 919.292 1199.99C904.614 1170.98 914.604 1135.96 907.953 1104.4C856.008 1100.15 803.205 1098.34 751.829 1089.54C744.824 1110.5 714.501 1085.43 704.862 1075.35C704.874 1075.33 704.886 1075.32 704.898 1075.3C700.233 1074.03 696.492 1069.66 696.367 1064.48C693.096 1059.81 692.409 1053.22 695.547 1048.7C681.168 965.733 659.248 881.021 651.325 797.273C648.524 796.653 645.886 795.425 643.65 793.533L643.831 793.352C640.043 789.128 639.306 781.837 645.622 778.248C650.717 775.35 654.972 776.249 660.501 776.793Z" fill="#D08B5B"/>
<path fill-rule="evenodd" clip-rule="evenodd" d="M1203.58 1087.32L1192.58 1094.32L1102.58 1123.32L1047.58 1130.32L1002.58 1123.32V1200.32L993.583 1272.32C997.583 1279.65 1035.58 1279.65 1107.58 1272.32C1153.48 1267.65 1321.23 1265.38 1359.42 1264.38L1361.58 1264.32C1406.46 1263.03 1450.8 1263.03 1494.58 1264.32V1237.32L1369.58 1175.32L1257.58 1112.32L1203.58 1087.32ZM1267.35 571.252L1259.09 577.424L1277.14 607.075L1189.22 678.185V734.984L1161.39 761.309L1145.48 734.984L1123.06 705.173L1107.13 656.849L1112.56 625.012L1101.65 623.985C1101.6 626.161 1101.61 628.356 1101.68 630.568C1099.69 629.177 1071.55 637.006 1078.59 649.005C1075.39 651.783 1073.45 656.083 1073.06 660.255C1049.76 659.081 1004.29 687.014 984.449 700.789C972.821 710.031 966.529 723.356 961.852 737.121L960.751 740.479L959.614 743.926L958.469 747.37C952.14 766.306 945.307 785.07 936.053 802.832C935.852 802.851 935.653 802.884 935.454 802.912C929.319 797.528 921.73 802.704 914.958 803.297C912.997 801.43 909.796 800.955 908.073 803.496L907.953 803.683L992.324 820.304L1047.98 1015.55L1096.46 976.201L1122.48 980.071L1191.18 1004.85L1271.1 1025.61L1453.53 1075.9H1476.76L1611.94 1043.26L1624.13 1039.24C1620.1 990.979 1604.66 943.758 1585.66 899.391C1580.28 883.826 1579.91 866.405 1574.81 850.485C1537.09 681.016 1459.6 688.209 1323.33 627.927C1338.57 613.778 1301.39 573.136 1298 577.425L1297.79 577.406L1297.32 577.381L1296.73 577.361C1291.41 577.206 1273.08 577.323 1271.11 577.546C1269.96 575.319 1268.71 573.223 1267.35 571.252Z" fill="#CBD1D1"/>
<path fill-rule="evenodd" clip-rule="evenodd" d="M647.016 782.721L649.529 796.726C650.126 796.921 650.734 797.087 651.35 797.223C652.139 805.572 653.068 813.93 654.115 822.296L669.696 909.135C672.383 924.498 674.934 939.894 677.467 955.296L682.901 982.121C687.388 1004.39 691.746 1026.58 695.571 1048.65C694.994 1049.48 694.546 1050.38 694.22 1051.33L694.514 1052.57L694.719 1053.4L694.928 1054.22C697.946 1065.82 703.197 1077.07 715.572 1080.49C724.906 1083.06 735.148 1083.29 744.786 1084.31L745.855 1084.43L914.514 1103.39C934.893 1105.68 955.263 1108.04 975.63 1110.43L993.287 1112.5C1017.9 1115.35 1042.65 1117.59 1066.9 1122.75C1067.79 1122.94 1068.53 1123.3 1069.13 1123.77C1064.24 1105.28 1059.57 1086.82 1055.33 1068.15C1050.57 1047.14 1046.04 1026.09 1040.94 1005.15C1030.67 962.97 1019.15 921.067 1006.54 879.524C1003.9 870.805 1001.19 862.103 998.424 853.422L996.483 847.353L994.989 842.517C992.677 835.144 989.816 827.565 983.037 823.498C975.103 818.738 964.285 817.949 955.287 816.302L949.193 815.158C940.077 813.457 930.949 811.821 921.81 810.249C878.054 802.723 834.05 796.686 789.884 792.151C743.926 787.432 697.808 784.365 651.633 782.866L647.016 782.721ZM1065.63 1072.26L1065.2 1072.3L1071.5 1122.66C1072.51 1121.96 1073.79 1121.52 1075.35 1121.53C1096.01 1121.59 1115.82 1114.98 1134.98 1107.72L1137.9 1106.61L1146.04 1103.49C1154.3 1100.32 1162.62 1097.22 1171.09 1094.65L1174.51 1093.62L1176.25 1093.1C1182.66 1091.23 1189.4 1089.53 1196.07 1089.11L1196.98 1089.06L1195.04 1088.04C1194.76 1087.89 1194.51 1087.72 1194.29 1087.54C1190.62 1087.81 1186.94 1087.74 1183.07 1087.04C1175.78 1085.73 1168.7 1083.2 1162.2 1079.67L1159.3 1078.1L1158.11 1077.47L1157.32 1077.06L1156.54 1076.66C1150.96 1073.88 1145.62 1072.14 1138.57 1073.62C1130.56 1075.3 1123.55 1079.62 1116.33 1083.26L1115.05 1083.9L1114.19 1084.32L1113.31 1084.73L1112.43 1085.14C1102.67 1089.53 1087.14 1094.26 1083.4 1081C1081.9 1075.67 1083.07 1070.68 1085.68 1066.3C1080.82 1065.88 1072.14 1071.61 1065.63 1072.26ZM822.756 906.336L822.638 906.941C821.258 914.368 824.718 921.473 829.954 926.653C834.249 930.901 841.85 933.262 844.003 939.373C845.229 942.85 843.925 946.147 841.407 948.446L841.987 948.733L842.554 949.022L843.108 949.315L843.647 949.61L844.173 949.907C852.727 954.821 859.693 962.813 851.978 972.466C843.226 983.417 824.939 983.772 812.055 982.915L811.187 982.854C798.694 981.917 783.895 977.721 777.12 966.185C774.013 960.893 774.355 954.493 778.686 949.964C781.299 947.232 785.96 944.426 790.234 944.094C790.047 941.686 790.334 939.36 791.181 937.397C793.013 933.154 797.888 930.297 802.59 930.194C802.209 921.185 809.426 912.291 814.739 905.089L815.282 904.35L815.808 903.623C818.246 900.231 823.463 902.131 822.756 906.336ZM815.626 915.926L810.785 934.06L810.868 934.209C812.574 937.447 808.104 941.123 805.452 938.402L805.185 938.115C802.038 934.865 797.208 939.233 797.148 942.692C797.062 947.561 800.232 951.326 804.009 953.813L804.273 953.985L804.969 954.417C808.069 956.466 805.722 960.748 802.315 960.227C798.099 959.582 794.644 956.238 792.514 952.063C790.238 952.715 787.648 952.636 785.251 953.977C779.211 957.355 782.685 963.265 786.618 966.837L786.778 966.98L787.098 967.259C794.314 973.413 804.139 975.55 813.401 976.009L813.934 976.033C823.289 976.433 835.477 976.567 843.495 971.065C848.485 967.641 849.93 962.785 845.707 958.186C843.319 955.587 840.908 952.965 838.426 950.431C834.711 952.204 831.393 951.485 827.594 949.807C827.107 949.591 827.377 948.846 827.854 948.846C829.95 948.844 837.641 944.953 838.015 942.467C838.361 940.166 834.106 938.226 832.037 937.115L831.737 936.95L831.477 936.799C829.313 935.488 827.276 933.962 825.414 932.248C820.688 927.898 817.256 922.442 815.757 916.47L815.626 915.926Z" fill="white"/>
<path fill-rule="evenodd" clip-rule="evenodd" d="M1268.51 568.505C1264.27 557.842 1249.93 561.987 1251.52 573.189C1252.48 579.899 1256.16 586.986 1259.46 592.867C1262.15 597.654 1265.21 602.326 1269.37 605.914C1261.97 612.818 1254.29 619.47 1246.41 625.786C1237.82 632.677 1228.78 639.029 1219.44 644.867C1211.25 649.987 1202.69 654.523 1194.97 660.365C1187.79 665.796 1181.25 672.328 1177.92 680.855C1174.37 689.935 1175.91 699.313 1178.53 708.387L1178.83 709.413C1181.49 718.403 1186.11 729.24 1179.71 737.71C1176.45 742.022 1171.71 745.076 1167.62 748.523C1163.98 751.587 1160.57 754.919 1157.44 758.498C1150.62 766.3 1145.06 775.079 1141.56 784.861L1141.25 785.75C1138.25 794.409 1136.05 805.017 1140.11 813.519C1141.27 815.956 1145.03 815.164 1145.68 812.791C1147.15 807.415 1147.08 801.785 1148.31 796.333C1149.6 790.663 1151.74 785.281 1154.53 780.189C1159.94 770.338 1167.26 761.924 1175.92 754.81L1178.51 752.703C1185.26 747.164 1191.46 741.287 1192.83 732.119C1194.3 722.31 1190.37 712.966 1187.84 703.682C1186.08 697.212 1185.5 691.01 1187.41 685.163C1189.73 688.958 1192.9 692.56 1195.41 695.773C1200.41 702.174 1205.45 708.536 1210.48 714.91C1215.64 721.446 1220.67 728.085 1225.46 734.896C1227.61 737.943 1229.73 741.008 1231.84 744.076C1233.43 746.382 1235.64 748.686 1237.38 751.038C1236.96 752.296 1236.99 753.746 1237.75 754.776C1246.94 767.186 1260 741.292 1263.41 734.75C1270.35 721.427 1275.52 707.273 1282.48 693.953C1289.69 680.145 1297.91 666.705 1307.07 654.099C1312.61 646.474 1318.81 639.312 1323.88 631.445C1335.82 642.269 1351.53 649.525 1365.95 656.105C1381.81 663.333 1398.27 669.239 1414.53 675.509L1419.33 677.374C1447.33 688.303 1476.02 700.311 1499.3 719.724C1526.65 742.537 1542.84 774.333 1554.88 807.259C1568.75 845.164 1580.22 884.092 1590.92 922.995C1596.39 942.9 1601.58 962.895 1606.47 982.954C1610.77 1000.63 1614.33 1018.47 1619.31 1035.96C1609.21 1035.61 1597.7 1039.52 1589.07 1040.65C1549.77 1045.79 1511 1053.99 1473.9 1068.19C1469.32 1069.94 1467.99 1074.52 1468.99 1078.23C1466.35 1077.48 1463.71 1076.73 1461.06 1075.98C1463.96 1071.55 1462.58 1063.61 1462.35 1058.7L1462.33 1058.36C1462.1 1051.81 1461.39 1045.25 1460.93 1038.7C1460.05 1026.24 1458.91 1013.86 1457.39 1001.46L1457 998.361C1455.28 984.873 1454.01 971.306 1452.13 957.841L1451.9 956.3C1452.81 952.855 1453.85 949.452 1454.96 946.064C1457.89 937.039 1462.03 928.544 1465.66 919.803C1466.09 918.774 1464.62 918.183 1463.94 918.8C1457.79 924.329 1452.91 931.343 1448.99 938.679C1448.92 938.333 1448.86 937.986 1448.79 937.64L1448.34 935.437C1447.24 930.065 1445.89 924.413 1442.6 920.056C1442.25 919.593 1441.55 919.496 1441.22 920.056C1438.07 925.393 1437.71 932.152 1437.23 938.225C1436.68 945.095 1436.61 952.052 1436.71 958.941C1436.9 972.404 1437.85 985.905 1438.6 999.346C1439.34 1012.55 1440.8 1025.59 1442.68 1038.67L1443.03 1041.13C1443.95 1047.35 1444.7 1053.65 1445.91 1059.84L1446.26 1061.52C1446.9 1064.58 1447.3 1068.91 1448.59 1072.5C1415.45 1063.26 1382.26 1054.22 1349.01 1045.35C1324.98 1038.94 1300.92 1032.62 1276.87 1026.26C1275.6 1023.97 1274.02 1021.84 1272.05 1019.93C1265.55 1013.64 1256.94 1010.83 1249.05 1015.67C1248.4 1016.07 1248.35 1017.07 1249.05 1017.45C1250.56 1018.28 1252.07 1019.13 1253.56 1020.01L1239.12 1016.1C1228.33 1013.18 1217.41 1009.52 1206.36 1007.48C1186.01 997.443 1164.13 990.175 1142.7 982.992L1140.17 982.137C1129.2 978.396 1117.84 974.207 1106.51 972.133C1098.2 970.615 1088.46 972.447 1085.12 980.951C1080.9 983.736 1076.92 987.009 1073.08 990.228C1070.31 992.554 1067.65 995.027 1064.95 997.435L1064.45 997.872C1062.24 999.79 1060.49 1001.07 1059.94 1004.13C1059.66 1005.7 1060.67 1007.84 1062.61 1007.63C1068.56 1006.99 1073.4 1000.09 1077.44 995.974C1080.55 992.79 1083.7 989.498 1086.54 985.999C1088.2 986.902 1090.48 986.74 1091.53 984.74C1097.01 974.371 1112.01 981.556 1120.31 984.015L1132.2 987.534C1138.14 989.296 1144.09 991.067 1150.02 992.869C1166.32 997.82 1182.55 1003.36 1199 1007.91C1197.53 1009.53 1197.73 1012.4 1200.53 1013.5C1213.4 1018.55 1227.53 1021.16 1240.91 1024.63C1249.36 1026.82 1257.8 1029.03 1266.24 1031.24C1267.69 1033.59 1268.73 1036.24 1269.16 1039.33C1270.77 1050.68 1267.67 1063.77 1264.64 1074.75L1264.19 1076.39C1261.7 1085.22 1258.04 1096.04 1250.43 1101.61C1248.57 1102.97 1246.2 1103.91 1243.81 1104.13C1228.91 1096.45 1214 1088.78 1199.09 1081.12C1196.32 1079.71 1193.77 1081.63 1193.15 1083.91C1187.89 1083.05 1182.64 1081.69 1177.87 1080.07C1169.84 1077.34 1163.57 1072.14 1156.04 1068.54C1141.47 1061.58 1126.6 1070.13 1113.55 1076.63L1110.55 1078.1C1104.7 1080.94 1092.53 1086.39 1089.73 1078.63C1087.01 1071.12 1095.59 1063.1 1101.14 1059.72C1107.74 1055.69 1115.43 1053.54 1122.9 1051.74C1127.16 1050.71 1131.48 1049.88 1135.82 1049.27C1140.74 1048.57 1145.83 1048.68 1150.57 1047.08C1152.93 1046.29 1153.29 1042.55 1150.57 1041.93C1143.27 1040.27 1134.56 1042.08 1126.95 1043.93L1122.97 1044.91C1115.29 1046.79 1107.55 1049.16 1100.56 1052.91C1095.47 1055.65 1090.11 1059.8 1086.61 1064.88C1083.56 1062.05 1079.78 1062.14 1075.83 1063.19L1073.69 1063.79C1070.15 1064.77 1067.29 1065.44 1063.85 1064.76C1063.39 1062.26 1062.92 1059.76 1062.42 1057.25C1057.52 1032.64 1052.14 1008.12 1046.21 983.73C1035.98 941.662 1024.13 900.056 1010.78 858.876L1009.44 854.76C1006.36 845.341 1003.89 835.079 998.922 826.426C994.227 818.244 986.705 813.531 977.768 811.035C967.626 808.203 956.969 806.721 946.623 804.808C944.315 804.382 942.001 803.977 939.691 803.558C941.643 800.033 943.101 796.032 944.413 792.962L944.643 792.43C947.463 786.001 949.996 779.457 952.442 772.877L954.271 767.931C958.688 756.02 963.247 744.305 969.456 733.165C975.992 721.441 984.663 711.856 995.472 703.923C1017.51 687.747 1044.07 679.496 1065.45 662.209C1066.32 661.501 1065.2 660.29 1064.31 660.738C1049.88 667.99 1034.3 672.921 1019.29 678.825L1016.32 679.993C1004.46 684.697 992.409 689.817 982.139 697.433C970.689 705.925 961.671 716.471 954.893 729.012C948.213 741.374 943.94 755.211 939.227 768.415L937.967 771.933C936.066 777.209 934.102 782.469 931.852 787.603C930.066 791.679 926.733 796.332 925.218 800.988C921.073 800.269 916.929 799.548 912.78 798.855C822.913 783.851 732.042 775.035 640.969 772.456C637.406 772.355 635.563 775.755 636.088 778.863C644.828 830.544 652.595 882.402 661.117 934.122C664.837 956.695 668.631 979.251 672.514 1001.8C674.481 1013.22 676.755 1024.6 678.618 1036.03C680.122 1045.27 681.214 1054.58 683.796 1063.61C686.112 1071.7 689.666 1079.5 695.503 1085.67C701.795 1092.33 710.577 1095.55 719.417 1097.07C741.858 1100.93 764.876 1102.51 787.499 1105.08L907.946 1118.78C906.186 1134.78 906.055 1150.53 906.862 1166.72L907.322 1175.55C907.699 1182.66 908.148 1189.78 909.169 1196.81C910.449 1205.63 914.485 1213.1 920.43 1219.69C925.889 1225.75 932.521 1230.91 938.972 1235.86C945.668 1241 952.587 1245.96 960.46 1249.13L961.482 1249.54C968.389 1252.23 981.346 1256.41 990.786 1254.88C989.552 1261.07 987.164 1267.72 989.281 1273.83C990.263 1276.67 993.978 1278.09 996.254 1275.67C1000.76 1270.88 1001.12 1264.56 1002.18 1258.31C1003.29 1251.8 1004.25 1245.27 1005.1 1238.73C1006.75 1226.08 1008.03 1213.31 1008.42 1200.56C1008.82 1187.45 1008.67 1174.33 1007.96 1161.25C1007.6 1154.52 1007.15 1147.81 1006.3 1141.13C1005.93 1138.28 1005.56 1135.43 1005.14 1132.59C1004.98 1131.55 1004.81 1130.52 1004.62 1129.49L1015.43 1130.71C1032.01 1132.57 1048.6 1134.24 1065.29 1134.5C1067.27 1134.53 1068.79 1133.63 1069.78 1132.31C1070.84 1134.04 1072.68 1135.27 1075.33 1135.26C1098.64 1135.18 1120.35 1127.55 1141.55 1118.57C1152.24 1114.04 1162.76 1109.14 1173.47 1104.64C1183.46 1100.45 1194.14 1097.46 1203.89 1092.74L1229.51 1106.18C1229.7 1106.84 1229.94 1107.46 1230.19 1107.99C1231.86 1111.39 1235.15 1113.24 1238.51 1114.63C1241.73 1115.97 1245.07 1116.38 1248.33 1116.05C1267.76 1126.23 1287.19 1136.4 1306.64 1146.55L1326.09 1156.69C1364.85 1176.87 1403.45 1197.38 1442.45 1217.08L1445.32 1218.53C1458.79 1225.28 1473.26 1232.13 1488.21 1237.24C1488.47 1241.02 1488.3 1244.7 1487.99 1248.71L1487.91 1249.58C1487.46 1254.31 1486.51 1260.24 1490.31 1263.61C1492.28 1265.36 1495.81 1265.37 1497.15 1262.73C1499.59 1257.94 1497.4 1250.39 1496.63 1245.18C1496.35 1243.33 1496.02 1241.43 1495.53 1239.58C1512.66 1244.68 1530.32 1247.16 1547.76 1244.29C1564.74 1241.5 1577.89 1230.81 1588.49 1217.72C1599.68 1203.92 1607.63 1187.83 1611.9 1170.58C1616.76 1150.95 1617.07 1130.68 1616.96 1110.57C1616.84 1089.16 1616.05 1067.65 1613.44 1046.38C1616.29 1045.71 1619.46 1045.13 1622.34 1045.33C1623.77 1047.62 1626.54 1048.58 1629.04 1048.28C1634.49 1054.29 1620.68 1060.42 1616.27 1061.96C1614.74 1062.49 1614.9 1064.98 1616.67 1064.9L1617.78 1064.85C1624.6 1064.49 1631.64 1063.33 1635.65 1056.99C1638.86 1051.91 1637.9 1045.9 1634.07 1041.75C1631.54 1017.84 1625.49 994.558 1619.86 971.232C1614.34 948.337 1608.2 925.589 1601.69 902.956L1598.77 892.826C1588.53 857.337 1577.81 821.562 1563.68 787.484C1556.62 770.468 1548.49 753.765 1537.46 738.928C1527.19 725.097 1515.06 713.262 1501.11 703.154C1475.12 684.308 1444.62 672.921 1414.65 662.072L1413.3 661.587C1397.77 655.969 1382.28 650.284 1366.93 644.197C1353.35 638.814 1340.34 631.989 1326.82 626.525C1327.26 625.728 1327.69 624.922 1328.09 624.107L1328.34 624.317C1328.39 624.351 1328.43 624.384 1328.48 624.415C1329.84 625.357 1331.84 624.894 1332.96 623.837C1336.12 620.853 1335.05 617.54 1332.94 614.446L1332.66 614.052C1330.08 610.435 1327.78 606.611 1325.39 602.863L1323.9 600.519C1319.9 594.257 1315.7 587.954 1310.37 582.779C1307.9 580.381 1305.19 578.587 1302.33 577.25C1302.57 576.732 1300.42 575.673 1299.81 576.206C1290.74 572.884 1280.29 573.58 1270.4 574.496M913.774 1119.45L926.394 1120.88C940.278 1122.46 954.168 1123.99 968.059 1125.5L998.231 1128.78C998.308 1130.5 998.517 1132.18 998.555 1133.48C998.752 1140.18 998.899 1146.88 999.038 1153.58C999.317 1167.01 999.011 1180.45 998.127 1193.85C997.27 1206.84 996.142 1219.82 994.388 1232.72L994.029 1235.3L993.821 1236.66C992.39 1236.79 990.984 1237.47 989.815 1238.87C987.263 1241.92 978.022 1238.96 974.413 1237.67C968.478 1235.56 962.889 1231.99 957.732 1228.41C952.696 1224.92 948.161 1220.85 943.803 1216.55L940.238 1213.03C936.691 1209.5 933.14 1205.75 930.967 1201.32C928.02 1195.3 927.639 1187.92 926.775 1181.38C925.711 1173.32 924.444 1165.27 923.105 1157.25M1280.13 1034.9L1281.44 1035.25C1328.99 1047.88 1376.47 1060.89 1424.17 1072.97C1447.77 1078.95 1471.49 1084.49 1495.12 1090.35L1498.95 1091.31C1517.59 1096.02 1536.46 1101.69 1550.73 1115.22C1551.26 1115.71 1552.03 1114.95 1551.53 1114.42C1536.14 1098.04 1514.26 1091.11 1493.25 1085.09C1489.36 1083.98 1485.47 1082.9 1481.59 1081.79C1510.17 1071.61 1539.19 1062.74 1568.89 1056.42C1576.54 1054.79 1584.27 1053.6 1591.91 1051.97C1597.24 1050.83 1602.45 1049.18 1607.72 1047.81L1611.87 1046.77L1611.92 1059.87C1611.99 1078.44 1611.96 1096.99 1611.01 1115.55L1610.83 1118.99C1609.73 1139.65 1608 1160.73 1600.67 1180.21C1594.71 1196.04 1585.22 1210.95 1572.8 1222.48C1566.52 1228.31 1559.76 1232.85 1551.41 1235.1C1543.66 1237.18 1535.54 1237.42 1527.57 1236.87C1489.34 1234.2 1455.31 1213.43 1422.1 1196.24C1367.78 1168.11 1313.46 1140.01 1259.09 1111.99C1260.56 1110.99 1261.94 1109.83 1263.2 1108.53C1270.49 1101 1274.34 1090.69 1276.86 1080.71C1279.55 1070.08 1281.16 1058.69 1281.35 1047.72M1210.95 1122.85C1210.47 1122.59 1209.91 1122.91 1209.89 1123.45C1209.72 1127.61 1212.02 1131.7 1213.73 1135.44L1213.91 1135.84C1215.99 1140.48 1218.28 1145.05 1220.63 1149.55C1225.35 1158.54 1230.25 1167.43 1235.36 1176.2C1245.65 1193.84 1257.08 1210.74 1270.58 1226.1C1273.63 1229.57 1278.65 1225.12 1276.69 1221.39C1267.25 1203.38 1256.25 1186.37 1244.92 1169.52C1239.25 1161.08 1233.58 1152.63 1227.86 1144.23C1225.47 1140.72 1223.05 1137.23 1220.56 1133.79L1219.06 1131.73M646.991 782.771C694.708 784.212 742.369 787.324 789.859 792.201C834.025 796.736 878.029 802.773 921.785 810.299C930.924 811.87 940.052 813.507 949.169 815.208L954.637 816.236C963.755 817.964 974.894 818.677 983.012 823.548C991.571 828.683 993.884 839.415 996.732 848.265C1000.08 858.673 1003.34 869.111 1006.52 879.574C1019.13 921.117 1030.64 963.02 1040.92 1005.2C1046.02 1026.14 1050.54 1047.19 1055.31 1068.2C1059.55 1086.87 1064.22 1105.33 1069.1 1123.82C1068.5 1123.35 1067.76 1122.99 1066.87 1122.8C1042.62 1117.64 1017.87 1115.4 993.262 1112.55L990.881 1112.27C965.422 1109.28 939.963 1106.31 914.489 1103.44L745.83 1084.48C735.883 1083.36 725.227 1083.21 715.547 1080.54C699.089 1076 695.232 1057.6 692.471 1042.94L692.387 1042.5C684.062 998.228 677.435 953.57 669.671 909.185M1065.18 1072.35C1071.73 1071.92 1080.69 1065.92 1085.66 1066.35C1083.05 1070.73 1081.87 1075.72 1083.37 1081.05C1087.56 1095.88 1106.47 1088.21 1115.59 1083.67C1123.06 1079.96 1130.27 1075.41 1138.54 1073.67C1147.91 1071.7 1154.26 1075.42 1162.18 1079.72C1168.68 1083.25 1175.76 1085.78 1183.04 1087.09C1186.91 1087.79 1190.59 1087.86 1194.26 1087.59C1194.48 1087.77 1194.73 1087.94 1195.02 1088.09L1196.96 1089.11C1188.18 1089.51 1179.23 1092.22 1171.06 1094.7C1162.59 1097.27 1154.28 1100.37 1146.01 1103.53L1137.88 1106.66C1117.81 1114.35 1097.04 1121.64 1075.33 1121.58C1073.76 1121.57 1072.49 1122.01 1071.48 1122.71M1101.81 1025.88C1095.34 1025.08 1089.37 1025.93 1084.2 1030.14C1077.97 1035.22 1073.78 1043.64 1064.82 1044.2C1062.21 1044.36 1061.6 1048.03 1064.2 1048.8C1070.87 1050.77 1076.27 1047.17 1080.81 1042.48L1083.87 1039.29C1088.36 1034.64 1092.5 1031.04 1100.13 1031.32C1108.29 1031.62 1116.46 1033.5 1124.57 1034.46C1133.76 1035.55 1142.94 1036.47 1152.16 1037.27C1152.59 1037.31 1152.66 1036.64 1152.26 1036.54L1141.94 1033.97M1108.06 999.43L1106.99 999.323C1097.6 998.411 1089.01 998.375 1080.62 1003.43L1079.01 1004.4C1071.44 1009 1063.21 1014.42 1058.48 1021.86C1057.71 1023.08 1058.99 1024.51 1060.28 1024.2C1069.37 1022.02 1076.02 1015.35 1083.66 1010.36C1092.24 1004.75 1101.11 1005.68 1110.89 1006.55C1120.36 1007.39 1129.83 1008.55 1139.21 1010.13C1148.02 1011.61 1156.86 1013.95 1165.76 1014.7L1165.76 1014.68C1166.78 1014.68 1167.36 1013.15 1166.32 1012.63C1157.29 1008.12 1146.82 1005.99 1137 1003.92M822.693 906.585C823.601 902.242 818.259 900.228 815.783 903.673L815.257 904.399C809.908 911.728 802.172 920.924 802.565 930.244C797.863 930.347 792.988 933.204 791.156 937.447C790.309 939.41 790.022 941.736 790.209 944.144C785.935 944.476 781.274 947.282 778.661 950.014C774.33 954.543 773.988 960.943 777.095 966.235C783.87 977.77 798.669 981.967 811.162 982.904L811.607 982.936C824.511 983.828 843.105 983.587 851.953 972.516C860.488 961.837 851.055 953.191 841.382 948.496C843.9 946.197 845.204 942.9 843.978 939.423C841.825 933.312 834.224 930.951 829.929 926.703C824.694 921.523 821.234 914.418 822.613 906.99M815.602 915.976C817.025 922.16 820.521 927.816 825.39 932.298C827.252 934.012 829.289 935.538 831.453 936.849L831.713 937C833.633 938.078 838.354 940.098 837.991 942.517C837.617 945.003 829.926 948.894 827.83 948.896C827.353 948.896 827.083 949.641 827.57 949.857C831.369 951.535 834.686 952.254 838.401 950.481C840.883 953.015 843.294 955.637 845.682 958.236C849.905 962.835 848.461 967.691 843.471 971.115C835.453 976.617 823.264 976.483 813.909 976.083C804.493 975.681 794.428 973.581 787.073 967.309L786.753 967.03C782.756 963.475 779.105 957.45 785.227 954.027C787.624 952.686 790.214 952.765 792.49 952.113C794.62 956.288 798.075 959.632 802.291 960.277C805.698 960.798 808.044 956.515 804.945 954.467L804.249 954.034C800.357 951.55 797.036 947.724 797.124 942.742C797.184 939.283 802.014 934.914 805.161 938.164L805.305 938.32C807.938 941.288 812.575 937.548 810.844 934.259L810.76 934.11M1429.72 743.996C1429.73 743.253 1428.69 742.975 1428.32 743.618C1422.21 754.371 1419.02 767.552 1415.76 779.399C1412.35 791.809 1409.6 804.345 1407.12 816.973C1402.11 842.544 1399.45 867.968 1399.26 894.03C1399.24 897.751 1405.3 898.741 1405.89 894.928C1409.83 869.577 1413.6 844.2 1417.57 818.856C1419.57 806.109 1421.89 793.411 1424.11 780.702M1369.21 762.726C1369.66 761.243 1367.5 760.747 1366.95 762.103C1354.69 792.212 1350.53 826.334 1358.41 858.099C1359.61 862.958 1366.73 860.853 1365.82 856.055M1211 735.972C1211.06 734.862 1209.62 734.687 1209.07 735.451C1203.26 743.64 1200.85 754.607 1190.65 758.839C1185.56 760.952 1179.83 760.584 1175.34 764.153C1172.33 766.54 1170.02 770.308 1172.28 773.923C1173.01 775.091 1175.05 775.676 1176.03 774.407C1177.48 772.558 1178.24 770.344 1180.2 768.958C1182.96 767.003 1186.69 766.882 1189.85 765.963C1193.95 764.775 1197.56 762.696 1200.52 759.607M1113.9 599.388C1113.3 599.083 1112.72 599.278 1112.34 599.796C1111.79 600.534 1111.86 601.252 1112.53 601.758C1111.63 603.587 1110.58 608.169 1110.43 608.836C1109.81 611.54 1109.16 614.228 1108.48 616.914C1107.11 622.331 1105.9 627.79 1104.53 633.209C1103.07 638.953 1101.33 644.636 1099.4 650.237C1099.28 650.6 1099.14 650.97 1099 651.346L1098.78 651.913L1098.72 651.827C1098.33 651.206 1097.51 651.64 1097.61 652.296C1097.7 652.894 1097.82 653.489 1097.92 654.087L1097.72 654.623C1096.45 658.026 1095.59 661.61 1097.91 664.613C1098.78 665.736 1099.73 666.401 1100.92 666.599C1102.83 672.889 1105.22 679.062 1107.79 684.99L1108.54 686.721C1112.31 695.372 1116.33 703.908 1122.33 711.272C1128.88 719.312 1137.9 724.802 1143.61 733.612C1146.26 737.71 1148.11 742.019 1149.61 746.647L1150.18 748.404C1151.24 751.677 1152.47 754.85 1155.54 756.77C1156.52 757.382 1157.99 757.187 1158.78 756.352C1165.08 749.691 1158.48 737.253 1154.69 730.804C1149.41 721.836 1141.77 716.099 1134.12 709.333C1125.88 702.04 1120.62 692.284 1115.53 682.673C1112.41 676.785 1109.41 670.77 1106.24 664.856C1109.55 661.932 1110.61 656.123 1111.73 652.085L1111.83 651.723C1113.68 645.257 1115.15 638.623 1116.08 631.96C1116.98 625.554 1117.35 619.239 1117.12 612.797L1117.05 611.156M1101.59 629.88C1102.33 628.878 1101.12 627.743 1100.11 627.952C1094.01 629.213 1088.05 632.904 1082.58 635.889L1081.99 636.206C1077.63 638.562 1073.23 641.448 1070.94 646.025C1068.44 651 1068.65 656.729 1068.99 662.135L1069.02 662.641C1069.44 669.124 1069.5 675.86 1070.87 682.226C1071.58 685.484 1074.53 686.402 1077.05 685.632C1080.05 695.111 1088.49 702.095 1094.65 709.575C1102.5 719.111 1101.02 731.986 1100.2 743.471C1099.87 748.121 1105.65 749.443 1108.63 746.962L1115.5 741.26C1116.64 740.308 1117.78 739.354 1118.92 738.397C1119.9 737.576 1120.86 736.749 1121.82 735.912L1123.25 734.648C1123.89 734.08 1126.69 730.951 1127.51 730.821C1129.49 730.506 1134.2 735.734 1135.82 737.373L1136.02 737.578C1139.06 740.555 1141.8 743.758 1144.36 747.155C1144.83 747.779 1145.74 747.261 1145.41 746.54C1143.12 741.636 1140.46 736.947 1137.3 732.559L1136.66 731.685C1134.55 728.851 1131.73 723.847 1128.02 723.01C1123.49 721.989 1118.96 726.534 1115.66 729.057L1115.45 729.215C1113.89 730.392 1112.33 731.59 1110.79 732.796C1110.95 724.245 1109.87 715.605 1105.45 708.236C1102.34 703.039 1097.68 699.19 1093.69 694.724C1089.24 689.751 1086.92 683.639 1082.9 678.46C1082.38 677.794 1081.67 677.435 1080.9 677.321C1080.74 673.157 1080.13 668.952 1079.65 664.834L1079.52 663.601C1079.04 659.126 1077.91 653.66 1080.1 649.469C1082.17 645.51 1086.91 642.716 1090.43 640.031L1093.3 637.803M1299.51 582.562C1301.35 583.624 1303.06 584.945 1304.62 586.596C1309.52 591.795 1313.02 598.265 1316.43 604.489C1318.27 607.841 1320.04 611.23 1321.89 614.574C1322.7 616.029 1323.52 617.468 1324.36 618.905C1324.75 619.567 1325.9 620.883 1326.47 621.694C1325.83 622.581 1325.18 623.455 1324.51 624.319C1324.26 624.649 1306.68 643.801 1300.55 651.296C1291.16 662.777 1282.78 674.904 1275.6 687.884C1268.58 700.595 1263.24 714.053 1256.73 727.01C1253.48 733.497 1249.84 739.938 1245.2 745.552C1245.03 745.771 1244.84 745.978 1244.65 746.194C1242.88 741.415 1238.35 736.298 1236.13 733.36L1235.92 733.083C1230.87 726.277 1225.54 719.676 1220.09 713.187C1215.11 707.261 1210.01 701.464 1204.78 695.763L1202.82 693.629C1199.18 689.696 1194.55 683.811 1189.22 681.001C1189.79 679.983 1190.45 678.976 1191.21 677.982C1196.21 671.456 1203.27 666.72 1210.23 662.447L1214.75 659.699C1231.78 649.322 1248.54 638.464 1263.32 624.982C1271.15 617.848 1278.86 610.375 1285.43 602.054L1287.76 599.112M1271.1 577.425C1279.07 578.094 1287.68 577.935 1295.05 580.533C1288.5 586.726 1282.27 593.413 1275.88 599.71C1275.31 595.451 1274.14 591.244 1273.16 587.091" fill="black"/>
<path fill-rule="evenodd" clip-rule="evenodd" d="M523.576 150.298C580.357 150.298 651.473 215.069 672.286 242.632C689.785 265.805 687.31 385.186 687.31 456.003C687.31 470.814 680.615 498.845 678.184 513.013C669.278 564.927 630.475 608.467 553.677 608.467C491.144 608.467 443.022 588.66 396.487 538.001C385.87 526.444 334.022 567.818 323.418 552.918C295.721 552.918 272.562 294.141 326.941 216.522C381.32 138.904 466.796 150.298 523.576 150.298Z" fill="#FAC9A6"/>
<path fill-rule="evenodd" clip-rule="evenodd" d="M352.917 168.526C385.727 138.676 429.437 124.316 473.537 125.376C496.377 125.926 519.137 130.276 540.707 137.726C551.497 141.466 561.947 146.346 571.937 151.866C575.537 153.85 578.856 156.176 582.05 158.645L582.847 159.266H582.857C591.427 162.346 599.077 167.876 606.017 174.346C619.927 173.236 633.947 174.486 647.397 178.776C666.117 184.756 683.447 195.706 695.617 211.256C709.793 229.359 714.505 251.318 712.824 273.986L712.513 277.837C710.85 297.862 707.872 323.618 691.437 336.776C690.187 337.776 688.807 338.536 687.377 338.996C697.967 357.136 706.657 377.276 711.857 397.616C731.707 475.306 716.447 556.326 692.577 631.206C690.617 637.376 681.287 641.476 676.537 635.446C668.057 624.666 655.737 616.446 641.877 614.906C633.327 613.956 624.817 615.676 616.737 611.796C613.567 610.266 610.507 607.766 608.307 604.726C594.667 609.896 579.977 612.336 565.407 611.736C541.497 610.756 515.937 602.476 499.487 584.316C496.847 581.401 496.178 578.128 496.786 575.178C498.849 574.442 500.967 573.894 503.149 573.551C524.009 585.845 547.003 594.06 571.715 594.576C585.994 594.874 599.922 592.877 611.5 583.961C614.005 582.031 616.309 579.894 618.439 577.598C642.646 562.026 659.713 535.577 667.827 507.246C675.387 480.826 674.457 453.316 671.857 426.216L670.485 411.915C668.486 390.926 666.631 369.874 666.111 348.796L666.268 348.788C671.38 348.458 671.417 340.455 666.268 340.788C652.949 341.65 639.731 339.465 626.453 340.417C626.342 334.14 625.89 327.891 624.045 321.837C622.992 318.378 616.969 317.696 616.331 321.837C615.477 327.377 615.165 332.886 615.072 338.451C595.201 338.187 575.349 336.515 555.475 337.202C551.809 333.292 550.642 326.359 548.927 321.536C548.677 320.826 548.427 320.126 548.167 319.416C546.66 326.308 544.524 333.049 541.714 339.648L536.84 339.664C509.185 339.794 480.967 340.621 453.963 346.364C452.086 344.923 450.969 342.409 450.667 340.126C448.708 325.27 445.912 310.809 440.958 296.652L440.249 294.655C440.191 294.489 440.13 294.313 440.066 294.128C436.415 300.021 432.059 305.514 427.308 310.629C424.508 313.644 421.572 316.527 418.559 319.328C415.632 322.578 412.607 325.779 409.675 329.039C409.79 329.632 409.89 330.234 409.971 330.847C410.868 337.612 410.961 344.473 410.304 351.264C409.116 363.541 405.65 375.371 400.082 386.315L399.906 387.41C399.06 392.539 397.857 397.84 395.048 401.702C398.554 405.63 401.255 410.322 402.821 415.535C404.215 420.176 397.794 424.198 394.464 420.4C391.819 417.383 388.88 414.886 385.652 412.894C385.448 413.171 385.08 413.307 384.667 413.076C375.677 408.086 360.407 409.596 351.427 414.296C340.257 420.136 335.897 432.126 337.137 444.276C338.327 455.886 343.407 469.456 353.257 475.406C357.777 478.136 361.297 478.366 366.097 477.056C367.631 476.639 369.534 475.36 370.351 474.725L371.155 474.081C374.301 471.594 377.232 469.891 380.947 469.826C384.746 468.641 388.564 470.284 390.017 474.268L390.107 474.526C390.787 476.556 392.027 479.106 391.757 482.206C391.477 485.526 389.957 488.546 387.687 490.976C387.297 491.396 386.877 491.816 386.447 492.206C425.547 534.536 430.567 600.496 410.517 653.376C409.647 655.696 408.717 657.986 407.747 660.256C404.397 668.036 391.497 665.626 389.857 657.916C389.367 655.606 388.827 653.306 388.237 651.026C387.152 646.812 385.91 642.639 384.509 638.525L383.977 636.986C382.787 633.586 381.677 630.156 380.477 626.756L380.357 626.367C380.312 626.213 380.262 626.036 380.207 625.836L378.177 630.266L372.007 643.636C369.12 649.875 359.946 646.484 359.605 640.472L359.597 640.266C359.567 639.156 359.527 638.056 359.457 636.966C359.017 628.796 357.607 620.856 355.367 613.086L354.559 614.09C342.525 628.968 328.401 642.913 309.027 646.346C304.167 647.206 298.667 642.126 302.007 637.216C303.387 635.186 304.717 633.106 305.977 630.996C304.887 630.486 303.857 629.956 302.907 629.416C295.557 625.286 289.437 619.406 284.377 612.736C273.647 598.596 269.807 580.796 268.867 563.376C267.867 544.966 269.487 525.556 274.517 507.796C276.697 500.116 279.647 492.746 283.057 485.596C282.817 484.956 282.587 484.316 282.357 483.676C278.677 473.416 275.657 462.926 273.147 452.316C268.087 430.896 265.367 408.796 265.037 386.786C264.437 347.356 271.237 307.296 285.567 270.526C300.367 232.606 322.627 196.076 352.917 168.526ZM334.487 513.266C331.769 508.987 324.969 512.843 327.493 517.152L327.587 517.306C331.897 524.096 333.917 531.816 336.397 539.386C337.987 544.256 345.717 542.176 344.107 537.256L343.574 535.613C341.106 527.936 338.855 520.135 334.487 513.266ZM358.157 431.586L359.962 430.712C365.657 427.994 370.648 426.143 377.377 428.516C386.387 431.686 396.037 441.776 389.947 451.566C387.707 455.176 383.727 456.616 379.627 455.766C372.715 454.332 370.931 448.108 367.423 442.998L366.82 442.133C364.681 439.041 361.977 434.767 358.417 433.556C357.607 433.276 357.267 432.016 358.157 431.586ZM363.235 223.727L363.817 223.206C367.687 219.786 362.007 214.146 358.157 217.546C340.537 233.116 334.417 257.486 325.277 278.256C323.227 282.926 330.117 287.006 332.187 282.296C340.905 262.476 346.693 238.768 363.235 223.727ZM574.977 216.916C570.373 214.841 566.345 221.541 570.771 223.747L570.937 223.826C586.497 230.856 593.117 246.776 599.457 261.556C601.477 266.276 608.367 262.206 606.367 257.526L605.223 254.874C598.607 239.642 590.891 224.117 574.977 216.916ZM599.367 207.296C594.487 205.606 592.397 213.326 597.237 215.016C610.427 219.606 619.477 229.506 627.107 240.826C629.967 245.066 636.897 241.066 634.007 236.786C625.147 223.646 614.627 212.616 599.367 207.296Z" fill="black"/>
<path fill-rule="evenodd" clip-rule="evenodd" d="M1017.85 413.323C1020 394.408 1017.22 354.872 1017.03 352.47C1015.85 337.285 1022.96 277.322 1036.41 282.847C1058.98 264.986 1089.03 261.042 1117.13 259.158C1175.49 255.244 1237.59 264.229 1282.66 303.509C1304.95 323.908 1326.64 353.577 1324.9 384.469C1345.15 413.751 1373.7 453.918 1348.47 488.151C1339.89 499.088 1326.26 503.161 1315.49 511.444C1293.81 528.924 1280.22 554.01 1258.34 571.386C1200.38 623.469 1101.96 634.349 1045.02 575.109C1000.98 532.205 1008.1 468.019 1015.85 413.323C1021.06 376.551 1013.65 450.224 1017.85 413.323Z" fill="#D08B5B"/>
<path fill-rule="evenodd" clip-rule="evenodd" d="M1195.1 178.945C1179.49 175.795 1163.46 173.835 1147.52 174.425L1146.29 174.473C1134.29 174.952 1119.1 176.013 1108.64 182.987C1108.04 182.383 1107.07 182.073 1106.19 182.492C1093.76 188.427 1080.08 192.718 1066.99 196.982C1053.96 201.225 1040.44 204.026 1026.78 205.155C1021.64 205.58 1017.24 211.129 1020.5 216.106C1021.27 217.292 1022.03 218.49 1022.78 219.691C1021.52 219.56 1020.26 219.425 1019.01 219.298C1014.87 218.882 1010.75 223.293 1010.99 227.317C1011.14 229.848 1011.42 232.349 1011.82 234.82C1010.25 234.787 1008.68 235.023 1007.17 235.662C999.514 238.895 1000.05 248.014 1000.62 254.952C1001.41 264.58 1005.01 274.778 1011.7 281.984C1006.71 287.169 1003.18 293.361 1001.07 300.715C999.538 306.085 998.687 311.805 999.107 317.395L999.241 319.069C999.76 325.135 1000.79 331.851 1005.16 336.215C1007.4 338.465 1010.16 339.285 1012.79 339.025C1011.2 353.005 1010.18 367.065 1009.22 381.075L1008.77 387.772C1006.63 420.151 1005.02 452.742 1005.44 485.175C1005.83 515.485 1011.82 544.905 1030.41 569.515C1047.34 591.925 1071.65 608.445 1099.15 614.725C1113.97 618.115 1129.1 618.355 1144.1 616.195C1151.37 615.145 1158.69 613.535 1165.59 610.995C1173.23 608.175 1178.72 604.025 1183.86 597.805C1186.29 594.855 1185.12 588.575 1180.28 589.165C1172.96 590.053 1166.27 591.123 1159.25 593.288L1158.25 593.605C1151.26 595.845 1144.02 597.515 1136.71 598.225C1121.74 599.675 1106.54 598.215 1092.2 593.675C1068.85 586.275 1048.74 569.785 1035.85 549.065C1020.55 524.505 1018.82 496.625 1019.04 468.385C1019.27 437.397 1020.28 406.391 1021.93 375.434L1022.21 370.275C1023.08 354.345 1023.92 338.405 1024.66 322.465C1024.89 317.465 1025.24 312.425 1025.87 307.435C1031.64 304.055 1036.81 299.395 1040.18 293.645C1046.95 296.445 1054.07 298.465 1060.62 300.075C1075.79 303.807 1091.55 304.713 1106.99 302.376C1111.16 304.097 1115.41 305.61 1119.72 306.912C1120.89 307.429 1122.05 307.937 1123.22 308.435C1133.62 312.885 1144.17 316.655 1155.15 319.415L1157.84 320.088C1163.62 321.512 1169.9 322.915 1176.05 323.355C1177.06 323.745 1178.15 324.075 1179.34 324.365C1184.94 325.725 1190.75 326.155 1196.49 325.675C1202.08 325.205 1206.12 319.555 1203.04 314.265C1200.79 310.405 1198.52 306.555 1196.23 302.715C1204.2 306.035 1212.43 308.795 1220.73 311.135C1229.11 313.495 1237.61 315.485 1246.12 317.315C1250.67 318.285 1255.24 319.145 1259.78 320.115C1263.03 320.805 1268.02 321.165 1270.67 323.305C1273.6 325.655 1274.43 331.135 1275.54 334.515C1277 338.905 1278.37 343.315 1279.62 347.775C1282.11 356.675 1284.15 365.705 1285.73 374.825C1287.31 383.955 1288.37 393.175 1288.96 402.425C1289.55 411.665 1289.29 420.965 1290.24 430.165C1290.75 435.045 1295.99 437.555 1299.86 434.145C1300.31 433.745 1300.77 433.341 1301.22 432.932L1301.9 432.315C1305.21 429.315 1308.42 426.135 1311.07 422.555C1311.55 421.895 1312.01 421.205 1312.44 420.505C1312.51 420.505 1312.57 420.485 1312.64 420.435L1313.37 419.883C1321.46 413.863 1334.97 406.015 1342.86 416.015C1345.37 419.201 1346.66 423.258 1347.72 427.172L1349.6 434.176C1350.81 438.749 1351.95 443.347 1352.62 448.025C1354.13 458.505 1353.37 470.585 1346.16 478.985C1343.28 482.345 1339.31 484.745 1334.88 485.375C1332.41 485.715 1329.97 485.295 1327.52 484.985C1325.03 484.675 1322.63 485.175 1320.14 484.935C1316.18 484.545 1314.45 489.285 1315.93 492.265C1316.73 493.865 1317.67 495.245 1318.74 496.415C1317.88 497.155 1317.06 497.955 1316.27 498.795C1313.93 499.545 1311.83 501.155 1310.26 503.285C1308.99 505.005 1308.33 506.875 1308.22 508.845C1308.08 509.335 1307.96 509.835 1307.85 510.345L1305.7 513.827C1305.23 514.591 1304.76 515.345 1304.29 516.085C1298.83 524.685 1292.77 531.965 1285.24 538.825C1277.99 545.425 1270.12 551.335 1263.31 558.415L1262.5 559.256C1256.15 565.947 1249.46 574.046 1251.95 583.775C1252.59 586.275 1256.08 588.075 1258.36 586.385C1265.69 580.945 1269.38 572.325 1275.6 565.725C1282 558.925 1289.09 552.815 1295.51 546.035C1301.58 539.635 1306.37 532.385 1309.98 524.405C1311.42 525.995 1313.52 527.125 1316.43 527.565C1321.43 528.315 1326.09 525.385 1328.27 521.055C1329.67 521.675 1331.1 522.235 1332.54 522.675C1340.12 524.995 1344.89 516.565 1342.03 510.335C1340.5 506.995 1338.59 504.095 1336.22 501.655C1343.63 500.635 1351.17 496.805 1356.04 492.025C1368.26 480.015 1369.94 461.965 1367.19 445.915C1365.73 437.405 1363.21 428.795 1359.94 420.805C1359.37 419.415 1358.76 418.015 1358.09 416.635C1358.46 416.625 1358.84 416.465 1359.08 416.155C1361.29 413.135 1363.98 410.665 1365.62 407.285C1367.13 404.185 1368.81 401.045 1370 397.815C1372.45 391.205 1373.65 383.745 1374.45 376.755C1376.1 362.445 1375.46 348.225 1373.27 334.005C1369.54 309.785 1360.53 286.607 1347.26 266.269C1347.98 265.89 1348.67 265.431 1349.32 264.889L1349.64 264.611L1350.16 264.143C1353.94 260.716 1353.62 254.293 1350.16 250.822L1349.06 249.727C1347.68 248.352 1346.49 247.263 1344.25 245.766C1343.92 245.545 1343.58 245.337 1343.24 245.143C1344.41 242.981 1344.82 240.453 1344 237.664C1341.16 227.948 1327.18 228.292 1318.32 232.529C1308.52 223.78 1297.65 216.185 1285.87 210.035C1257.81 195.395 1226.08 185.185 1195.1 178.945ZM1340.15 434.845C1334.91 433.135 1327.95 436.725 1323.24 438.885C1317.27 441.625 1312.19 445.675 1307.27 449.955C1304.82 452.095 1304.38 455.595 1304.99 458.585C1305.05 458.885 1305.11 459.195 1305.18 459.505C1305.83 462.695 1309.39 465.205 1312.54 465.115C1319.13 464.935 1322.27 459.245 1326 454.425C1326.44 455.205 1326.99 455.925 1327.67 456.465L1328.13 456.825C1329.68 458.004 1331.38 458.946 1333.43 458.855C1334.88 458.785 1336.27 458.415 1337.55 457.745C1340.75 456.055 1342.16 451.915 1341.29 448.545C1340.75 446.425 1339.51 444.765 1337.89 443.615L1338.49 443.202C1339.78 442.303 1340.96 441.355 1341.88 439.956L1342.09 439.625H1342.01C1343.01 437.905 1342.36 435.565 1340.15 434.845Z" fill="black"/>
<path fill-rule="evenodd" clip-rule="evenodd" d="M1094.96 541.48C1102.32 543.613 1110.23 543.804 1117.74 541.601C1124.55 539.602 1131.55 535.203 1136.56 529.383C1141.01 524.212 1143.89 517.929 1143.78 511.222C1143.77 510.456 1143.49 509.816 1143.07 509.32C1142.62 508.786 1141.99 508.419 1141.31 508.26C1140.61 508.096 1139.87 508.154 1139.24 508.439C1138.67 508.698 1138.19 509.137 1137.88 509.778C1137.11 510.79 1136.34 511.787 1135.57 512.756C1129.38 520.404 1123.38 526.12 1114.07 528.17C1109.01 529.283 1103.97 528.79 1099.34 527.092C1094.38 525.275 1089.9 522.08 1086.39 517.992C1084.8 516.145 1082.93 515.391 1081.09 515.378C1079.02 515.364 1076.97 516.328 1075.42 517.87C1073.9 519.386 1072.88 521.445 1072.79 523.599C1072.71 525.49 1073.33 527.465 1074.97 529.228C1080.37 535.032 1087.38 539.284 1094.96 541.48ZM1095.19 445.688C1087.63 450.278 1076.13 460.981 1084.25 472.36C1093.81 482.394 1107.58 470.89 1114.37 465.687C1120.66 461.655 1127.72 472.025 1121.89 476.734C1072.86 513.029 1052.97 446.888 1091.37 440.291C1095.59 439.564 1097.16 444.268 1095.19 445.688ZM1165.83 425.491C1168.25 423.939 1171.11 423.406 1174.27 424.845C1176.74 425.97 1181.08 429.718 1184.1 434.646C1186.16 438.017 1187.63 441.972 1187.32 446.092C1187.25 447.048 1187.61 447.754 1188.16 448.275C1188.6 448.687 1189.24 448.99 1189.99 449.085C1190.62 449.165 1191.33 449.093 1191.91 448.912C1193.01 448.57 1193.59 447.857 1193.81 447.276C1195.92 441.664 1195.01 435.401 1192.64 429.751C1189.45 422.126 1183.64 415.739 1179.84 413.679C1173.33 410.154 1165.65 409.992 1159.14 413.583C1153.59 416.64 1150.12 421.574 1146.67 426.604C1145.94 427.673 1145.21 428.735 1144.46 429.778C1142.95 431.867 1142.8 433.939 1143.38 435.716C1144.03 437.685 1145.68 439.346 1147.74 440.216C1149.65 441.019 1151.86 441.132 1153.82 440.307C1155.47 439.609 1156.99 438.25 1157.95 435.942C1159.57 432.057 1162.26 427.77 1165.83 425.491ZM1042.56 434.135C1044.22 435.001 1045.52 435.262 1047.37 434.71C1048.39 434.404 1049.39 433.817 1050.18 433.028C1050.96 432.246 1051.53 431.273 1051.75 430.195C1052.29 427.532 1053.74 425.04 1055.82 423.416C1057.59 422.027 1059.83 421.291 1062.32 421.706C1065 422.154 1067.55 423.873 1069.31 425.899C1069.9 426.578 1070.36 427.348 1070.82 428.113C1071.69 429.544 1072.53 430.873 1073.73 431.924C1074.18 432.324 1074.86 432.601 1075.52 432.601C1075.79 432.601 1076.06 432.557 1076.32 432.476C1078.99 429.798 1079.51 427.767 1079.42 425.752C1079.33 423.639 1078.5 421.5 1077.15 419.504C1073.99 414.822 1068 410.984 1063.95 410.114C1058.41 408.924 1052.91 410.353 1048.5 413.447C1043.96 416.631 1040.59 421.575 1039.55 427.146C1039.29 428.488 1039.4 429.936 1039.91 431.192C1040.41 432.419 1041.28 433.47 1042.56 434.135ZM1153.61 375.573C1156.93 378.813 1160.87 379.315 1164.85 379.761C1167.06 380.011 1168.83 380.213 1170.56 380.605C1175.34 381.683 1180.06 383.307 1184.37 385.646C1188.87 388.091 1193.78 391.039 1197.31 394.816C1198.15 395.715 1198.94 396.658 1199.73 397.603C1200.45 398.465 1201.15 399.295 1201.88 400.095C1202.73 401.014 1203.53 401.977 1204.32 402.938C1204.81 403.748 1204.91 403.948 1205.01 404.155C1205.16 404.467 1205.33 404.816 1205.53 405.19C1205.8 405.703 1206.12 406.264 1206.45 406.773C1207.01 407.703 1207.3 407.96 1207.56 408.074C1207.99 408.264 1208.39 408.357 1208.78 408.307C1209.15 408.259 1209.5 408.083 1209.84 407.794C1211.54 406.352 1212.05 403.985 1212 401.472C1211.92 397.659 1210.51 393.438 1209.22 390.843C1206.2 384.813 1202.02 378.545 1196.99 374.045C1191.26 368.908 1184.98 365.019 1177.77 362.339C1173.29 360.673 1168.11 359.144 1163.23 359.337C1159.72 359.476 1156.36 360.52 1153.59 363.128C1151.89 364.729 1151.08 367.005 1151.08 369.281C1151.08 371.601 1151.92 373.935 1153.61 375.573ZM1035.8 405.238C1036.01 405.585 1036.3 405.824 1036.63 405.967C1036.97 406.118 1037.35 406.161 1037.71 406.099C1038.08 406.038 1038.43 405.873 1038.7 405.621C1038.96 405.379 1039.16 405.058 1039.25 404.665C1041.46 394.97 1045.75 387.756 1054.9 383.104C1059.4 380.816 1064.57 379.362 1069.47 378.203C1070.89 377.866 1072.4 377.648 1073.91 377.427C1078.66 376.733 1083.44 375.939 1086.54 372.102C1088.4 369.79 1089.19 366.833 1088.74 364.13C1088.33 361.584 1086.84 359.25 1084.14 357.851C1077.4 354.37 1069.04 357.785 1062.24 360.695C1061.73 360.911 1061.24 361.123 1060.75 361.327C1054.1 364.134 1048.04 367.838 1043.06 373.136C1039.1 377.339 1035.44 383.552 1033.96 389.944C1032.73 395.261 1033.02 400.69 1035.8 405.238Z" fill="black"/>
<path fill-rule="evenodd" clip-rule="evenodd" d="M496.832 514.078C504.834 498.078 578.223 505.27 578.223 505.27L584.422 556.128C584.422 556.128 549.011 567.51 527.933 565.125C506.854 562.74 488.83 530.078 496.832 514.078Z" fill="white"/>
<path fill-rule="evenodd" clip-rule="evenodd" d="M502.003 540.791C499.468 535.368 551.934 520.577 568.178 530.684C584.422 540.791 579.343 554.577 579.343 554.577C579.343 554.577 511.021 570.161 502.003 540.791Z" fill="#FF8181"/>
<path fill-rule="evenodd" clip-rule="evenodd" d="M492.281 504.61C504.527 490.38 525.152 489.389 542.237 492.947C553.201 495.231 563.876 499.035 575.012 500.445C580.213 501.104 585.47 501.301 590.709 501.204C595.855 501.109 601.009 500.072 606.137 500.265C606.925 500.294 607.223 501.329 606.54 501.75C599.505 506.071 590.028 507.457 581.718 508.302C581.744 508.917 581.781 509.517 581.866 510.026C582.093 511.383 582.3 512.731 582.467 514.097C582.844 517.178 583.266 520.249 583.687 523.324C584.517 529.376 584.778 535.619 586.237 541.566L586.492 542.555C586.83 543.805 586.907 544.932 586.794 545.948L587.132 545.794L588.199 545.277L588.899 544.947C591.453 543.763 593.89 542.901 596.893 543.188C599.179 543.406 601.098 544.965 601.112 547.406C601.169 558.361 586.405 561.885 577.96 563.982L575.483 564.592C564.734 567.213 553.758 569.512 542.703 570.061C524.961 570.942 505.024 566.048 493.418 551.657C482.589 538.23 480.604 518.178 492.281 504.61ZM572.852 550.638C570.99 534.145 550.722 533.238 544.891 543.697C542.304 529.118 504.028 542.438 507.021 545.336C518.365 556.322 535.58 557.311 550.379 555.279C557.916 554.244 565.459 552.558 572.852 550.638ZM550.358 507.409L545.262 506.675L543.255 506.399C530.623 504.707 516.416 503.834 506.03 511.932C502.238 514.888 500.104 518.744 499.307 522.886C509.134 521.43 518.998 520.319 528.891 519.393L531.59 519.146C537.78 518.588 543.967 518 550.151 517.383L554.546 516.938L558.939 516.482C560.485 516.32 570.904 515.786 572.863 516.144C573.072 514.384 573.345 510.575 573.787 508.862C566.385 509.114 559.015 508.564 551.656 507.586L550.358 507.409ZM573.814 433.688C581.366 438.278 592.872 448.981 584.748 460.36C575.186 470.394 561.419 458.89 554.634 453.687C548.343 449.655 541.275 460.025 547.112 464.734C596.136 501.029 616.031 434.888 577.634 428.291C573.406 427.564 571.836 432.268 573.814 433.688ZM587.328 453.025L587.691 452.827L587.814 452.753C588.026 452.616 587.891 452.63 587.408 452.798L587.046 452.928V453.184C587.139 453.127 587.238 453.084 587.328 453.025ZM490.617 412.245L490.616 412.019C490.63 405.643 494.344 391.083 503.524 391.083C509.259 391.083 512.741 400.992 513.344 411.206L513.365 411.623C513.631 417.973 511.888 431.854 503.524 431.854C495.072 431.854 490.704 418.707 490.617 412.245ZM625.773 410.245L625.774 410.019C625.76 403.643 622.046 389.083 612.866 389.083C607.274 389.083 603.824 398.503 603.097 408.441L603.046 409.206C602.684 415.342 604.314 429.854 612.866 429.854C621.318 429.854 625.686 416.707 625.773 410.245ZM495.855 347.606C503.347 346.467 513.268 348.631 516.761 356.249C518.317 359.643 516.474 363.396 512.551 363.584C503.07 364.038 494.567 361.928 486.245 368.093C482.664 370.746 479.653 374.42 477.126 378.085L476.17 379.48L475.378 380.629C473.662 383.152 472.037 385.892 472.291 388.936C472.366 389.837 471.445 390.692 470.57 390.656C465.116 390.432 464.529 383.594 465.246 379.487C466.58 371.865 470.269 364.71 475.382 358.947C480.752 352.895 487.841 348.825 495.855 347.606ZM599.044 356.856C604.21 353.535 610.818 352.259 616.87 352.748C628.803 353.709 648.822 363.853 646.187 378.428C645.374 382.923 639.122 385.295 635.438 382.801C631.477 380.12 630.513 375.953 627.565 372.449C625.213 369.65 622.232 367.625 619.04 365.9C615.894 364.199 612.254 363.168 608.684 362.792L608.089 362.735C605.94 362.552 595.088 362.601 596.681 366.652C596.993 367.445 595.813 368.073 595.271 367.473C591.944 363.793 595.712 358.998 599.044 356.856Z" fill="black"/>
<path fill-rule="evenodd" clip-rule="evenodd" d="M664.197 452.639C657.481 461.684 645.031 464.565 633.547 463.57C608.78 461.18 600.985 432.979 600.173 411.06C616.781 415.744 598.768 382.57 655.542 378.922C675.556 377.25 670.038 389.368 678.88 398.222C678.699 416.804 675.614 436.995 664.197 452.639ZM546.228 431.287C531.605 499.94 451.532 483.61 443.12 421.724C450.888 416.228 448.842 402.657 458.491 397.74C473.784 387.944 492.901 388.363 510.268 388.593C532.466 390.122 538.792 399.341 550.195 409.399C549.646 416.117 548.064 424.079 546.228 431.287ZM695.917 367.552C695.096 367.415 694.274 367.286 693.452 367.165C692.811 366.8 692.058 366.519 691.182 366.35C689.182 365.841 687.196 365.498 685.213 365.313C656.754 358.892 590.915 368.009 588.198 392.357C579.136 395.39 571.294 392.674 560.789 392.944C552.794 359.439 414.564 364.168 407.916 384.368C407.892 384.361 407.867 384.355 407.841 384.347C401.453 382.365 392.036 382.843 384.725 382.529C369.114 382.201 353.485 383.596 338.211 386.897C309.609 391.454 270.574 396.789 290.466 432.597C290.47 432.603 290.473 432.61 290.478 432.616L290.481 432.613C293.909 436.136 299.727 433.299 299.944 428.53C293.256 411.566 308.361 409.529 319.983 404.654C348.902 394.238 378.345 392.794 408.255 396.016C410.505 398.672 413.919 400.988 417.528 402.2C437.526 405.528 426.987 420.4 439.627 422.563C437.305 474.405 500.086 502.703 536.462 468.624C550.986 454.388 554.448 433.299 557.815 414.29C559.596 413.889 560.728 412.913 561.389 411.621C565.671 407.335 568.361 403.377 576.828 402.2C585.296 401.024 591.814 403.385 592.696 404.108C592.918 404.557 593.157 405.007 593.434 405.457C593.821 406.128 594.348 406.663 594.946 407.084C586.585 458.708 626.559 491.356 666.915 464.581C684.45 448.044 688.156 422.726 688.888 400.128C691.265 398.69 692.77 395.903 691.947 392.399C690.813 387.569 693.472 383.387 697.707 381.287C703.21 378.56 702.237 368.601 695.917 367.552Z" fill="black"/>
</svg>
