<svg width="609" height="832" viewBox="0 0 609 832" fill="none" xmlns="http://www.w3.org/2000/svg">
<path fill-rule="evenodd" clip-rule="evenodd" d="M167.5 832C260.008 832 335 757.008 335 664.5C335 571.992 260.008 497 167.5 497C74.9923 497 0 571.992 0 664.5C0 757.008 74.9923 832 167.5 832Z" fill="#6AABB4"/>
<path fill-rule="evenodd" clip-rule="evenodd" d="M592.315 454.37C589.77 453.64 586.591 453.452 583.807 453.319C573.968 452.741 563.935 457.425 554.288 459.536C550.064 460.578 545.593 461.806 541.074 462.72C537.061 463.264 532.914 463.672 528.743 463.931C525.373 464.032 521.45 463.774 520.299 467.312C513.524 468.624 507.527 469.17 501.068 468.055C501.673 466 502.018 463.852 501.392 461.639C501.708 461.115 502.137 460.405 502.367 459.927H501.591C490.255 455.397 477.996 452.303 466.6 447.608C451.726 442.256 429.82 431.915 412.634 424.853C413.799 418.482 414.231 412.01 413.737 405.717L414.428 405.16C414.655 403.923 415.007 402.444 415.646 401.323C416.457 399.175 416.476 396.244 416.798 393.816C417.469 389.068 417.917 381.919 416.695 376.281C416.162 368.636 411 362.742 405.435 358.015C398.601 351.267 391.759 344.684 385.088 337.676C348.167 300.096 345.248 252.764 287.45 238.379L287.422 238.156C286.967 237.649 286.78 237.246 286.261 238.048C284.353 237.318 281.974 237.379 280.375 236.144C277.538 233.561 275.525 230.578 274.209 227.038C273.195 220.346 273.913 210.033 268.041 205.751C261.52 201.851 226.869 199.074 223.881 207.602C222.027 209.34 221.184 211.549 220.604 214.253C218.674 217.899 217.456 221.942 215.511 225.644C211.376 233.948 208.696 232.108 201.396 234.005C200.604 232.242 198.198 232.597 196.445 232.853C175.216 235.832 149.333 243.961 140.244 263.884L141.017 263.785C125.328 293.217 135.503 330.645 138.309 361.835C140.579 389.559 137.983 417.414 131.814 443.274C124.243 470.708 123.808 501.395 138.831 526.227C140.358 529.07 142.217 533.086 145.506 531.303C147.309 532.664 149.334 533.604 152.131 534.423C152.902 534.981 153.7 535.919 154.508 536.32C154.546 536.374 155.845 535.626 155.913 535.606C158.37 539.106 293.223 550.801 307.217 552.616C319.546 554.101 335.838 557.891 345.885 549.011C354.188 546.642 362.877 540.476 369.512 534.353C373.539 592.658 375.766 712.065 379.358 712.897C380.931 713.429 383.053 714.066 384.833 714.576C384.843 718.764 385.156 723.524 384.826 727.642C384.274 732.293 382.877 737.785 382.244 742.674C379.526 742.492 378.727 745.214 378.41 747.063C376.064 762.338 376.134 774.653 376.302 791.443C403.892 807.668 436.227 816.592 467.272 827.078C470.245 829.309 476.689 826.896 480.122 826.293C492.042 823.949 505.587 817.018 502.578 804.309C500.375 794.74 491.125 789.234 483.339 783.605C474.82 777.443 465.84 771.286 458.006 763.949C451.721 758.037 447.027 753.451 441.785 746.78C439.46 743.677 436.981 738.58 433.854 736.293C437.158 732.38 430.482 736.047 427.955 736.274C426.468 729.286 424.627 722.577 422.42 715.875L424.565 715.972C431.611 709.402 435.56 677.865 436.051 668.51C439.582 607.518 439.498 537.221 425.331 485.855C436.092 492.472 447.893 497.998 458.594 504.541C465.342 508.488 472.189 513.969 479.754 515.883C480.246 517.296 482.05 517.845 483.034 516.461C484.388 516.628 486.133 516.067 486.282 515.451C487.666 512.624 489.673 509.577 489.431 506.505C489.431 506.505 487.573 502.202 487.573 502.202C491.736 503.891 496.261 507.446 500.704 507.772C509.679 537.693 527.361 520.932 544.376 509.287C554.644 502.123 565.877 494.212 576.684 486.573C585.852 479.291 603.752 472.381 594.977 457.957" fill="#F7CFC3"/>
<path fill-rule="evenodd" clip-rule="evenodd" d="M200.623 236.497C200.192 235.629 199.671 234.789 198.873 234.623C188.806 235.614 178.834 238.354 169.582 242.588C135.379 252.448 130.447 292.429 134.56 322.727C134.6 323.278 134.796 324.44 135.091 326.189C136.537 334.773 140.37 357.516 140 391.862C139.852 405.582 136.558 419.92 133.281 434.184C130.013 448.408 126.763 462.556 126.667 475.941C126.49 500.547 138.722 523.036 143.479 528.655C152.586 539.413 169.251 516.228 187.865 490.334C207.854 462.526 230.089 431.592 247.621 436.221C257.546 438.841 307.055 434.448 323.275 430.034C324.367 429.737 324.205 416.721 324.071 405.971C323.976 398.299 323.895 391.782 324.294 391.862C340.299 395.087 366.101 383.98 375.257 380.038C376.827 379.362 377.907 378.897 378.365 378.751C389.093 375.326 400.532 373.178 410.667 377.701C410.434 374.192 409.077 370.833 407.186 367.865C404.852 367.286 403.114 365.318 401.454 363.437C400.87 362.775 400.295 362.123 399.707 361.547C397.215 358.874 394.701 356.223 392.186 353.571C387.475 348.603 382.764 343.636 378.204 338.528C368.176 327.753 360.083 314.654 351.98 301.538C335.968 275.62 319.913 249.633 288.794 241.375C285.696 267.285 252.504 271.419 232.503 262.552L231.744 262.262L230.996 261.971C218.752 257.178 205.172 249.973 200.892 237.059L200.711 236.677L200.623 236.497ZM411.924 391.862C412.233 388.569 411.668 385.622 408.991 383.718C405.787 386.003 402.351 387.9 398.711 389.398C398.723 389.816 398.518 390.264 398.333 390.593C403.125 390.973 408.115 392.209 411.478 395.699C411.641 394.422 411.801 393.142 411.924 391.862Z" fill="#B6F5FE"/>
<path fill-rule="evenodd" clip-rule="evenodd" d="M434.247 737.409L434.699 738.043C451.21 761.175 469.478 778.588 488.863 787.505L489.515 787.801L489.575 787.836C495.102 791.06 499.69 796.172 501.489 801.421C503.595 807.564 501.814 813.356 495.832 817.591L495.65 817.718L495.619 817.739C488.09 822.653 479.205 825.708 470.477 826.318L470.154 826.339L469.731 826.366L469.37 826.143C467.054 824.717 464.828 823.897 460.071 822.534L458.067 821.961L457.239 821.72L456.828 821.597C455.092 821.078 453.928 820.682 452.709 820.189L452.322 820.03L451.027 819.593C427.749 811.721 404.753 802.7 382.124 792.577L380.793 791.98L378.754 791.06L378.707 790.257C377.671 772.666 377.714 758.625 379.188 745.397L379.237 744.966L381.891 745.216C381.503 750.374 386.672 754.738 391.554 753.092L391.701 753.04L391.77 753.017L391.973 752.954C393.349 752.512 394.493 751.87 396.526 750.489L398.033 749.458L398.416 749.201L398.694 749.018C398.828 748.93 398.958 748.847 399.091 748.763L399.277 748.646C407.637 743.421 416.635 739.9 425.773 738.403C426.527 738.265 427.306 738.147 428.157 738.041L429.098 737.929L430.066 737.828L433.069 737.534L434.247 737.409ZM588.556 453.722L589.154 454.361C591.135 456.479 592.637 458.553 593.587 460.693C594.773 463.363 595.024 466.006 594.14 468.563L594.069 468.761L594.053 468.799C592.566 472.206 589.081 475.218 582.41 479.612L581.396 480.274C580.327 480.965 577.443 482.824 576.571 483.401L576.187 483.656C574.619 484.704 573.439 485.551 572.495 486.322L572.34 486.45L570.11 487.998L565.521 491.187L562.117 493.557L559.774 495.189C550.821 501.431 542.179 507.49 533.736 513.445L533.308 513.735L532.97 513.967L532.485 514.305L531.802 514.789V514.789L529.53 516.413L529.076 516.734L528.628 517.048L528.175 517.361L527.717 517.675L527.266 517.979C522.649 521.067 519.247 522.595 515.623 522.807C513.043 522.957 510.612 522.322 508.351 520.821L508.189 520.712L508.119 520.664L507.876 520.446L507.673 520.26L507.473 520.074L507.278 519.888C506.239 518.886 505.295 517.801 503.813 515.969L502.564 514.417L502.066 513.803L501.698 513.356L501.435 513.041C500.624 512.075 500.007 511.403 499.311 510.725L499.08 510.503L497.505 509.005L499.558 508.284C507.838 505.377 514.607 496.134 517.389 485.554L517.487 485.173L517.507 485.115C518.01 483.703 518.191 482.256 518.241 479.893L518.265 478.091L518.276 477.498L518.287 477.097L518.3 476.704C518.406 473.875 518.719 472.265 519.614 470.481L519.728 470.26L519.766 470.188L519.812 470.122C519.867 470.041 519.874 470.028 519.851 469.986L519.379 469.188L519.938 468.473C520.186 468.156 520.458 467.845 520.775 467.511L520.914 467.366L521.224 467.046L521.665 466.976C535.517 464.79 549.735 461.566 566.677 456.955L568.382 456.489L569.231 456.261L569.805 456.109L570.372 455.961C575.975 454.505 579.397 453.945 583.311 453.995L583.643 454.001C584.005 454.007 584.313 454.027 584.837 454.075L585.379 454.124L585.628 454.145L585.868 454.163C586.748 454.222 587.217 454.19 587.675 454.036L587.731 454.016L588.556 453.722Z" fill="white"/>
<path fill-rule="evenodd" clip-rule="evenodd" d="M206.611 232.178C215.278 230.074 216.759 209.326 221.992 212.28C225.018 214.908 220.069 219.864 219.193 222.83L218.809 223.583C217.033 227.037 215.025 230.479 211.526 232.47C209.277 234.835 202.553 232.513 203.542 236.28C206.994 247.63 225.315 255.49 236.113 259.025C252.896 265.32 280.047 263.19 283.99 242.087C274.784 240.404 267.978 223.817 273.652 216.911C273.845 223.62 275.681 230.543 280.954 235.088L281.245 235.354C282.173 236.2 283.374 237.209 284.572 237.021C285.74 235.397 288.007 236.321 288.674 238.035C341.089 247.083 352.765 303.536 385.774 336.764C392.367 343.696 399.26 350.333 406.064 357.054C413.013 362.56 417.93 370.236 418.273 379.248C418.894 384.26 418.586 389.277 417.922 394.298L417.876 394.751C417.568 397.863 417.385 401.205 415.902 403.967C415.646 404.903 415.75 406.086 414.939 406.747C415.293 412.475 414.956 418.306 413.985 424.017L416.514 425.144C444.342 437.52 472.491 449.186 501.508 458.464C503.987 458.014 503.785 460.893 502.585 462.202C502.901 463.742 502.936 465.343 502.564 466.865C507.877 467.628 513.274 466.994 518.519 466.027C520.178 462.378 524.587 462.573 527.995 462.47C532.23 462.205 536.457 461.792 540.661 461.206C551.02 458.895 561.192 455.854 571.45 453.182C578.315 451.254 585.718 451.345 592.605 453.121C593.775 454.43 594.855 455.828 595.767 457.313C602.062 467.06 595.859 475.991 587.072 481.111C572.974 491.09 558.872 501.056 544.711 510.943L543.682 511.676C526.834 523.717 507.88 538.96 498.882 509.651C495.858 509.297 493.208 507.27 490.39 506.074C491.148 509.592 488.885 513.144 487.324 516.159C486.652 517.877 484.816 518.443 483.12 518.427C481.667 519.85 478.942 519.29 477.993 517.603C470.291 515.401 463.927 510.261 457.11 506.267C447.417 500.388 437.248 495.376 427.415 489.746C443.75 557.28 439.755 627.626 435.408 696.37L435.377 696.991C434.838 707.027 432.534 711.775 424.197 717.927C425.649 722.35 426.949 726.791 427.939 731.342C428.289 732.397 429.899 731.404 429.912 732.853C432.874 732.161 438.893 732.902 436.793 736.993C442.739 741.976 446.765 748.726 451.977 754.407C461.157 765.394 473.157 773.572 484.923 781.629C511.97 795.391 513.52 819.24 481.875 827.388L481.557 827.462C477.2 828.509 471.951 830.903 467.727 828.887C461.407 827.672 455.136 825.213 448.953 823.339C424.057 815.113 399.707 805.48 376.114 794.41C375.258 794.008 374.774 793.089 374.752 792.17C375.015 784.574 372.949 742.949 380.837 742.053C382.598 733.55 382.875 724.771 382.555 716.092C379.996 715.288 377.409 714.513 374.759 714.011C372.186 713.202 368.162 713.02 366.439 710.939C365.82 710.715 365.366 710.162 365.459 709.289C366.852 696.246 367.909 683.168 368.679 670.073C371.319 626.157 370.423 582.104 367.417 538.236C361.222 543.586 354.162 548.27 346.303 550.761C341.965 555.101 335.01 556.032 329.089 556.558C321.474 557.029 313.993 555.51 306.479 554.565C293.718 552.961 281.046 554.381 268.378 555.954L264.049 556.493C233.035 559.89 199.518 560.592 170.612 547.356C165.17 547.839 158.413 541.965 155.018 538.041C153.519 538.965 152.046 537.159 150.851 536.209C148.88 535.611 146.643 534.752 144.854 533.498C140.314 534.981 137.866 529.097 136.142 525.897C108.775 479.102 139.252 432.523 136.96 382.9C138.348 343.997 120.577 303.466 137.752 266.153C141.227 250.364 161.548 239.451 176.845 235.438C181.774 234.626 200.434 227.889 202.489 233.554C203.461 232.279 205.121 232.183 206.611 232.178ZM433.614 738.815C431.049 739.09 428.548 739.248 426.014 739.712C416.761 741.228 407.936 744.805 399.985 749.775C397.41 751.378 395.111 753.398 392.157 754.291C386.084 756.493 380.116 751.027 380.562 745.116C378.869 759.969 379.159 775.252 380.038 790.179C403.789 800.908 428.072 810.474 452.796 818.785C458.364 821.114 464.957 821.86 470.07 825.011C478.789 824.461 487.566 821.405 494.889 816.625C507.037 808.208 498.973 794.859 488.902 788.986C466.734 778.997 447.865 758.782 433.614 738.815ZM385.044 716.851C384.58 721.254 387.931 728.112 387.458 736.887C387.094 739.627 386.239 742.498 386.536 745.249C387.9 755.452 398.965 742.485 403.538 741.064C410.029 737.499 417.084 735.072 424.333 733.745C424.289 731.391 422.729 730.452 422.524 728.127C422.23 724.701 422.245 721.41 422.09 717.95C412.661 722.232 395.046 719.205 385.044 716.851ZM435.849 738.15C435.685 738.259 435.511 738.352 435.333 738.436C436.644 740.02 437.779 741.779 439.333 743.142L438.672 742.116C437.786 740.747 436.881 739.383 435.849 738.15ZM142.992 373.068C142.517 374.996 141.652 376.809 140.356 378.351C147.049 432.545 112.61 477.723 144.274 528.111C144.674 528.297 145.039 528.529 145.391 528.819C145.577 528.695 145.763 528.564 145.946 528.434C160.787 502.211 181.914 479.591 198.747 454.496C201.978 448.197 207.297 441.857 209.333 434.58C175.505 421.242 161.992 401.781 142.992 373.068ZM588.18 455.27C586.746 455.782 585.15 455.359 583.619 455.332C578.185 455.216 572.874 456.632 567.676 458.063C552.559 462.191 537.361 465.846 521.873 468.291C521.56 468.615 521.261 468.945 520.989 469.292C521.257 469.746 521.299 470.314 520.909 470.877C518.573 475.334 520.461 480.791 518.764 485.561C516.305 495.219 509.763 506.112 500 509.54C503.256 512.638 505.589 516.625 508.943 519.614C517.186 525.256 526.264 516.848 532.994 512.339C545.806 503.302 558.652 494.327 571.533 485.389C577.303 480.614 590.069 474.594 592.83 468.267C594.599 463.416 591.38 458.691 588.18 455.27ZM499.883 467.583C494.368 478.814 491.185 490.754 488 502.812C491.312 503.722 494.364 505.147 497.62 506.105C502.206 507.136 508.68 498.286 510.98 494.773C513.35 490.845 515.01 486.528 515.78 482.006C516.429 477.577 515.737 472.977 517.667 468.875C511.692 469.484 505.632 469.612 499.883 467.583ZM172.022 444.411C177.2 442.963 165.419 454.661 164.741 455.91C157.08 464.941 150.062 474.479 143.097 484.047L140.986 486.951C140.783 487.246 139.385 489.309 140.396 489.047C140.488 489.022 140.532 489.144 140.458 489.194C134.017 490.332 168.916 445.207 172.022 444.411ZM298.276 438.889C298.695 437.629 296.706 437.09 296.287 438.343L294.967 442.313C289.985 457.313 285.034 472.333 279.079 486.982C278.581 488.211 280.573 488.746 281.068 487.531C287.544 471.59 292.836 455.209 298.276 438.889ZM356.187 433.638C354.371 442.243 349.782 450.001 347 458.227C352.224 457.077 356.249 452.216 359.295 448.035L359.386 447.895C360.823 445.687 362.493 442.238 365.755 443.796C370.708 446.669 367.16 456.858 367.068 461.687C366.44 468.307 364.284 474.5 362.815 480.93C366.591 478.354 367.676 473.273 369.516 469.315L376.598 452.349V452.349C381.805 445.225 379.387 466.557 379.118 468.57C378.694 472.992 376.829 477.441 377.561 481.894C380.497 478.739 382.347 474.774 383.901 470.751C386.057 465.157 388.024 459.49 390.076 453.858C390.785 452.054 393.474 452.687 393.084 454.674C392.952 461.066 392.847 467.457 392.744 473.849L392.668 478.643C392.654 479.551 392.204 482.206 393.776 481.472C402.032 472.819 404.149 455.517 403.075 443.892C386.845 444.283 370.287 442.181 356.187 433.638ZM500.61 465.919C500.543 466.131 500.467 466.342 500.39 466.553C500.437 466.563 500.487 466.572 500.533 466.585C500.563 466.361 500.59 466.14 500.61 465.919ZM140.411 465.919C138.61 464.592 168.869 425.797 166.909 436.996C158.467 446.97 148.623 455.71 140.411 465.919ZM407.635 380.194C379.338 373.556 354.418 398.354 326 394.607C326.329 403.489 326.786 412.431 326.606 421.316C364.345 424.425 360.051 440.463 403.494 438.849C409.108 435.094 411.414 412.083 410.94 405.136C411.303 396.922 404.224 393.235 397.174 391.795C394.626 393.331 390.055 388.748 393.838 387.136C398.818 385.64 403.476 383.288 407.635 380.194ZM198.873 234.623C188.806 235.614 178.834 238.354 169.582 242.588C135.379 252.448 130.447 292.429 134.56 322.727C136.264 345.767 142.844 368.301 156.677 387.037C193.507 443.124 254.508 434.243 312.289 426.825C314.371 425.377 317.901 426.405 319.908 424.493C319.698 424.421 319.509 424.322 319.347 424.198C320.312 423.447 321.058 422.128 321.281 420.727L321.697 420.768V420.768C322.105 412.07 321.779 403.542 321.91 394.911C302.924 389.712 282.563 387.055 263.321 381.876C261.134 383.399 258.612 381.646 256.476 380.818C250.938 378.466 245.35 376.231 239.721 374.104L238.313 373.574C234.644 372.201 230.977 370.792 227.343 369.324L225.981 368.771C223.899 367.921 218.641 364.773 216.369 366.738L216.553 367.133C217.899 370.067 222.539 380.926 216.835 378.778C212.204 375.531 209.803 352.883 205.215 352.683C203.637 356.899 202.507 361.275 202.249 365.783C202.156 366.797 200.821 367.652 200.019 366.705C194.578 359.549 202.796 351.755 203.016 344.203C203.534 335.421 199.643 327.204 197.705 318.798L197.586 318.218C196.449 312.765 194.681 306.153 195.15 301.263L196.279 305.508C197.411 309.756 198.571 314.005 199.902 318.194C203.205 328.655 209.169 339.433 205.855 350.626C212.503 350.847 213.627 361.327 216.125 366.113C220.165 360.877 248.598 373.431 255.086 375.445L256.338 374.028C276.658 351.018 291.327 335.446 322.821 353.647C317.38 336.12 316.855 317.503 315.927 299.303C316.245 295.84 314.241 286.707 317.067 284.817C317.557 284.888 318.034 285.036 318.485 285.233L318.484 287.027C318.498 290.502 318.66 296.265 320.119 297.574L320.789 304.456C322.543 322.349 324.531 340.228 329.882 357.471C342.725 364.642 354.445 373.621 365.47 383.308L366.726 382.85C380.348 377.869 396.739 371.485 410.667 377.701C410.434 374.192 409.077 370.833 407.185 367.865C404.03 367.083 401.965 363.76 399.707 361.547C392.548 353.867 385.199 346.363 378.204 338.528C348.359 306.463 335.662 253.812 288.794 241.375C285.696 267.285 252.504 271.419 232.503 262.552L231.744 262.262C219.31 257.469 205.259 250.236 200.892 237.059L200.711 236.677C200.262 235.748 199.727 234.8 198.873 234.623ZM206.25 382.068C206.286 382.028 206.357 382.082 206.326 382.126C200.498 389.429 195.756 399.39 201.548 408.114C202.618 410.078 200.116 411.965 198.515 410.467C190.477 401.351 199.395 388.994 206.25 382.068ZM408.991 383.718C405.787 386.003 402.351 387.9 398.711 389.398C398.723 389.816 398.518 390.264 398.333 390.593C403.125 390.973 408.115 392.209 411.478 395.699C411.641 394.422 411.801 393.142 411.924 391.862C412.233 388.569 411.669 385.622 408.991 383.718ZM188.642 351.434L188.679 351.258C188.705 351.059 189.009 351.045 189 351.258C188.888 353.869 186.987 355.726 185.376 357.585C182.985 360.343 180.594 363.1 178.203 365.857C174.204 370.661 168.314 375.491 169.638 382.452C169.663 384.924 166.561 385.454 165.302 383.636C160.297 374.102 176.053 365.99 181.365 359.839C183.859 357.177 187.789 355.219 188.642 351.434V351.434ZM263.667 380.057C263.741 380.176 263.795 380.304 263.823 380.436C264.662 380.525 265.498 380.62 266.333 380.723L263.667 380.057V380.057ZM138.333 357.759C138.483 358.756 138.623 359.754 138.757 360.754L138.889 361.753L138.91 361.666C138.978 361.406 139.107 361.181 139.276 361.001L139.333 360.943C138.986 359.887 138.653 358.826 138.333 357.759ZM368.378 347.448C370.386 347.234 361.288 353.767 360.785 354.575C360.052 355.212 359.195 354.08 359.977 353.529C362.804 351.537 365.59 349.493 368.378 347.448ZM350.678 328.23C352.075 327.658 353.024 329.982 351.699 330.629C346.872 332.988 341.768 334.656 337.32 337.758C337.125 337.894 336.881 337.577 337.066 337.431L337.6 337.009C341.697 333.76 345.788 330.229 350.678 328.23ZM140 298.854C141.349 305.198 148.648 307.282 154.312 308.972L156.082 309.645C161.084 311.557 166.266 313.708 169.865 317.748C171.275 322.305 161.211 314.367 159.806 313.965C152.933 309.709 140.515 308.985 140 298.854ZM289 239.615C289.038 239.938 289.057 240.267 289.066 240.597C289.49 240.597 289.91 240.6 290.333 240.614C289.84 240.325 289.389 239.996 289 239.615Z" fill="black"/>
<path fill-rule="evenodd" clip-rule="evenodd" d="M252.936 61.0685C274.737 61.0685 297.288 78.0679 305.279 88.9156C314.52 101.459 321.81 161.673 318.39 182.105C314.971 202.537 297.984 224.806 268.496 224.806C239.008 224.806 221.063 221.153 220.343 215.846C219.623 210.539 200.894 180.999 200.894 180.999C200.894 180.999 181.737 175.579 181.663 162.633C181.588 149.686 191.928 144.976 191.928 144.976C191.928 144.976 188.241 93.8842 197.526 80.5823C206.811 67.2804 231.134 61.0685 252.936 61.0685Z" fill="#F7CFC3"/>
<path fill-rule="evenodd" clip-rule="evenodd" d="M238.236 28.0778C241.168 24.6067 246.34 27.8877 246.223 31.6807C247.393 31.9994 248.774 33.0991 249.307 34.5327C250.459 34.4576 251.621 34.6879 252.667 35.29L252.888 35.0166C256.514 30.5627 261.314 26.7408 266.266 30.0207C267.614 30.9133 268.217 32.3885 267.92 33.9875L267.897 34.1007L268.007 33.607C268.118 33.1379 267.952 34.0765 267.889 34.2751L267.881 34.2976C267.75 34.632 267.62 34.8004 267.502 35.0532C272.572 31.4299 280.292 33.5508 276.224 40.5649L277.878 39.9159C283.602 37.691 290.718 35.3018 295.935 39.302C298.268 41.5589 295.679 44.5681 293.302 45.2976L293.711 45.2289C298.271 44.4499 307.785 42.5245 309.144 48.4961C309.633 50.6448 308.208 52.2152 306.409 53.0797C310.214 53.0657 313.968 53.6967 317.261 55.5649C320.393 57.804 317.861 61.5094 314.586 61.3478C315.601 62.6111 315.938 64.7489 314.958 66.1135C316.819 66.605 318.537 67.2373 320.119 68.2228L320.554 68.2791C323.719 68.6761 327.328 68.9125 329.069 72.0383C331.631 78.8208 322.509 78.5507 318.593 76.1685C318.826 76.5483 318.998 76.9631 319.095 77.406L320.363 77.7642C325.15 79.1034 330.567 80.5828 333.649 84.6351C335.061 86.9671 333.095 90.9301 330.142 90.2219C338.145 94.0559 335.078 104.156 327.251 98.902C326.885 99.2428 326.44 99.496 325.973 99.6078L327.625 100.508C331.82 102.819 336.865 105.981 335.989 111.226C335.155 114.002 331.328 113.495 329.382 112.432C332.782 115.373 335.989 118.557 338.903 121.998L339.709 122.963C341.975 125.695 345.917 130.724 341.647 133.352C336.382 136.048 333.759 128.089 330.697 125.248C333.145 131.043 325.186 135.084 322.408 129.247C321.941 129.33 321.472 129.338 321.013 129.276C323.408 131.83 329.885 149.303 321.828 145.472C320.545 144.106 319.419 142.614 318.384 141.047C319.677 151.058 320.623 161.117 321.235 171.183L321.453 174.832C321.675 178.617 321.844 182.418 321.421 186.19C320.933 190.582 319.678 194.703 317.777 198.681C316.026 202.351 313.768 205.75 311.184 208.874C309.802 210.547 308.335 212.173 306.531 213.397C305.094 214.371 303.416 215.012 301.8 215.63C299.17 218.272 295.795 220.269 292.497 221.864C287.06 224.486 281.166 225.935 275.203 226.661C269.106 227.398 262.947 227.221 256.899 226.167C251.121 225.162 244.927 222.594 241.368 217.7C241.061 217.279 241.632 216.881 242.009 217.055C252.338 221.864 263.945 223.119 275.203 221.601C280.455 220.894 285.623 219.434 290.42 217.167C294.467 215.255 297.88 212.474 301.512 209.956C302.219 209.01 302.933 208.079 303.747 207.214L305.018 205.873C305.967 204.867 306.9 203.846 307.748 202.745C310.367 199.35 312.536 195.499 313.968 191.447C316.754 183.56 316.001 174.999 315.508 166.78L315.466 166.055C314.959 157.265 314.133 148.505 312.989 139.775C312.513 136.143 311.984 132.516 311.404 128.898C310.475 127.377 309.483 125.906 308.372 124.528C309.276 128.061 306.146 132.973 302.309 130.641C297.914 126.862 298.127 120.762 294.444 116.135C290.626 110.202 264.282 98.6644 256.45 97.0443C257.712 98.8907 260.017 100.177 260.555 102.356C270.187 110.917 254.486 115.474 249.583 103.274C249.691 107.336 250.101 111.362 250.999 115.327C252.307 118.967 253.334 129.518 246.774 126.334C243.634 127.247 241.239 124.556 240.845 121.52C238.577 128.381 240.722 139.34 236.563 144.396C235.287 145.726 233.316 144.841 232.653 143.322C228.806 142.309 229.134 137.798 228.668 134.569C225.159 147.439 220.768 156.372 220.164 169.798C222.878 173.686 216.924 176.544 214.368 173.429C210.781 168.216 214.089 161.09 214.933 155.383C213.924 155.331 212.925 154.88 212.092 153.896C211.638 155.687 211.899 158.046 212.052 159.989C209.777 168.934 201.13 163.204 201.487 155.948C201.114 157.995 200.831 160.063 200.652 162.146C202.322 164.079 203.56 166.393 204.292 168.848C204.818 170.622 203.025 171.686 201.657 171.429C200.929 173.928 197.77 175.731 195.693 173.342C193.64 171.254 193.283 168.235 193.12 165.23C192.834 164.924 192.66 164.524 192.688 164.039C192.715 163.584 192.826 163.197 193.002 162.872C192.968 162.258 192.924 161.655 192.857 161.073C191.268 166.046 192.302 171.257 192.441 176.35C195.248 177.94 198.453 178.62 201.671 179.291L202.138 179.389C203.132 179.597 203.447 181.088 202.699 181.714C204.691 183.676 206.412 186.017 208.09 188.176C210.317 191.04 212.448 194.018 214.521 197.002L215.738 198.755C219.291 203.847 224.204 210.745 222.004 217.016C221.705 217.878 220.453 218.187 219.965 217.283C218.364 214.309 217.469 211.034 215.949 208.025C214.456 205.074 212.597 202.339 210.754 199.605L209.691 198.02C207.92 195.373 206.167 192.698 204.541 189.972L203.409 188.084C202.346 186.302 201.293 184.46 200.51 182.544C197.718 183.221 194.797 182.735 192.12 181.565L192.086 181.752L192.018 182.088C191.636 183.707 189.416 184.814 187.997 183.755C184.602 181.18 183.22 177.348 182.86 173.25C182.175 172.093 181.595 170.87 181.122 169.606C180.899 172.129 179.931 174.576 176.949 174.5C171.774 174.073 171.266 169.156 172.665 164.266C166.538 166.148 165.82 157.432 167.754 152.839C167.036 152.623 166.371 152.193 165.991 151.613L165.673 152.173C164.496 154.224 163.161 156.215 161.301 157.28C158.701 158.766 154.922 156.925 155.095 153.65C155.652 148.314 160.302 144.25 163.132 139.973C162.628 140.045 162.104 140.027 161.59 139.93C155.933 143.105 153.232 135.633 155.225 131.304C156.685 127.414 159.328 124.07 162.161 121.121L161.331 121.62C159.832 122.508 158.161 123.365 156.514 123.016C145.735 130.141 142.198 118.159 154.293 114.414L154.289 114.358V114.358C153.075 113.18 152.548 111.317 153.492 109.455C149.055 111.023 142.721 107.476 146.632 102.629C149.183 100.213 152.192 98.1343 155.528 97.0467C155.362 96.1572 155.308 95.2521 155.377 94.3413L155.178 94.3685C153.072 94.6735 150.475 95.5386 149.176 93.2573C148.517 92.1086 148.595 90.2155 149.675 89.3224C153.393 86.2473 157.635 83.6894 162.243 82.6524C162.412 82.0881 162.588 81.527 162.775 80.9687C158.844 80.8952 154.43 75.6432 158.946 72.6673C162.915 70.6327 167.005 69.3241 171.487 69.4454C168.859 66.8389 170.41 62.1143 173.905 61.388C171.616 56.4865 177.27 53.9575 181.487 54.7304C181.332 52.5528 182.491 50.1256 184.721 49.5789C183.551 42.6879 190.805 43.3398 195.35 44.9732C193.828 42.3165 195.392 39.1911 198.077 38.2594C202.474 37.2582 206.681 41.4712 210.029 44.0548C208.887 41.3595 209.85 38.8744 212.569 37.8004C215.369 36.6979 218.387 38.8286 220.724 40.2763C221.995 38.671 224.165 38.1477 226.111 38.247C226.319 37.6441 226.624 37.1413 227.016 36.7437C227.005 33.0291 233.292 30.9869 235.486 34.4471C235.86 32.0412 236.844 29.7261 238.236 28.0778ZM316.894 95.4518L316.966 95.8517V95.8517C317.059 95.9345 317.147 96.0218 317.236 96.1066C317.516 96.1733 317.787 96.2436 318.043 96.3156C317.67 96.0113 317.285 95.7296 316.894 95.4518ZM321.747 85.7035L321.662 85.8224C321.647 85.842 321.632 85.8613 321.617 85.8799C321.854 85.9702 322.09 86.0625 322.325 86.1576L322.678 86.3027L322.802 86.3578C322.452 86.1367 322.1 85.9177 321.747 85.7035ZM265.151 36.6284L264.939 36.6813C264.871 36.6978 264.807 36.7132 264.749 36.7273C264.727 36.7329 264.707 36.7353 264.687 36.7433L264.743 36.7313V36.7313C264.643 36.8081 264.511 36.8985 264.402 36.9708C264.509 36.962 264.616 36.9515 264.724 36.9455C264.865 36.8394 265.008 36.7337 265.151 36.6284Z" fill="black"/>
<path fill-rule="evenodd" clip-rule="evenodd" d="M281.12 188.368C281.709 187.339 283.066 186.386 284.307 186.532C289.869 187.187 289.859 193.957 287.712 197.91C285.808 201.414 281.867 203.471 277.924 203.171C273.78 202.855 270.25 200.409 268.697 196.517C267.669 193.943 267.195 189.19 269.928 187.461C269.978 187.428 270.062 187.436 270.102 187.483C271.413 189.014 271.464 191.312 272.612 193.016C273.679 194.601 275.336 195.91 277.278 196.112C278.729 196.264 280.196 195.738 280.763 194.431C281.07 193.724 281.035 193.34 280.92 192.853L280.815 192.43C280.452 190.949 280.288 189.821 281.12 188.368ZM282.607 158.677C285.507 160.448 289.926 164.575 286.806 168.964C283.134 172.834 277.846 168.397 275.24 166.39C272.824 164.835 270.109 168.835 272.351 170.651C291.18 184.649 298.821 159.14 284.074 156.596C282.45 156.316 281.847 158.13 282.607 158.677ZM251.979 146.539C253.759 143.857 257.823 144.252 258.803 147.434C259.335 149.158 258.601 150.708 258.639 152.429C258.671 153.884 258.576 155.504 258.132 156.913C257.12 160.125 254.243 162.393 250.839 162.299C247.447 162.205 244.459 160.049 243.039 157.013C241.613 153.965 241.915 150.811 242.956 147.712C243.006 147.563 243.2 147.491 243.317 147.616C244.548 148.929 245.448 150.315 246.38 151.785L247.335 153.292C248.065 154.427 249.126 155.876 250.489 155.785L250.693 155.765C251.072 155.732 251.014 155.807 251.306 155.289C251.441 155.049 251.417 154.603 251.482 154.32L251.505 154.225V154.225L251.492 154.173C251.463 154.036 251.435 153.778 251.412 153.329L251.407 153.23C251.308 151.134 250.718 148.439 251.979 146.539ZM297.106 148.324C296.786 144.894 301.589 144.132 303.186 146.67C304.018 147.994 304.261 149.657 304.445 151.232L304.531 151.98C304.72 153.597 304.795 155.28 304.096 156.79C302.994 159.166 300.598 160.423 298.014 160.224C295.547 160.033 293.295 158.597 292.108 156.416C291.05 154.47 289.998 150.67 291.283 148.64C291.361 148.517 291.516 148.502 291.622 148.597C292.837 149.679 293.035 151.654 293.757 153.064C294.502 154.519 295.631 155.936 297.343 156.157C298.981 156.369 299.606 155.471 299.188 153.903C298.65 151.879 297.308 150.502 297.106 148.324ZM253.276 126.146L254.062 125.844C256.753 124.823 260.447 123.643 262.635 125.841C263.984 127.195 264.241 129.191 263.278 130.845C262.111 132.847 260.017 132.897 257.995 133.192C255.696 133.527 253.357 134.165 251.216 135.075C248.805 136.099 246.567 137.377 244.374 138.803C242.29 140.159 240.213 142.374 237.719 142.792C237.617 142.809 237.501 142.765 237.475 142.653C236.908 140.204 238.482 137.794 239.887 135.883C241.587 133.57 243.647 131.671 245.949 129.969C248.171 128.326 250.71 127.138 253.276 126.146ZM302.157 134.853L302.397 134.811C304.029 134.538 305.508 134.601 306.738 135.899C307.676 136.889 308.038 138.172 307.591 139.481C307.178 140.688 306.254 141.915 304.914 142.168C300.39 143.023 295.379 142.881 290.832 142.234C288.752 141.938 286.653 141.576 284.627 141.004L283.695 140.733C282.003 140.248 280.067 139.741 278.838 138.491C278.396 138.043 278.651 137.4 279.179 137.192C281.323 136.349 284.262 136.798 286.548 136.732C289.207 136.655 291.871 136.455 294.518 136.179C297.104 135.909 299.607 135.323 302.157 134.853Z" fill="black"/>
<path fill-rule="evenodd" clip-rule="evenodd" d="M309.019 138.978C318.54 138.978 323.973 140.99 325.964 141.147L326.024 141.151C326.852 141.203 327.595 141.271 328.374 141.567C331.24 142.652 331.707 145.605 330.034 147.466C329.917 151.318 330.433 155.818 329.548 159.682C328.457 175.971 320.661 178.72 316.229 179.723C314.004 180.227 311.367 180.428 309.004 179.896C304.972 179.748 300.986 178.508 297.576 176.348C292.827 173.339 289.299 168.712 288.155 163.222C287.612 160.605 287.358 157.881 287.654 155.221L287.697 154.854C286.154 154.129 284.365 153.992 282.521 153.928C281.64 153.897 280.771 153.869 279.928 153.906C279.104 153.996 278.289 154.117 277.472 154.281C276.579 154.545 275.737 154.982 274.959 155.674L274.905 156.683C274.759 159.204 274.422 161.733 273.902 164.207C273.135 167.856 271.901 171.342 269.275 173.931C268.386 175.236 267.286 176.4 265.95 177.409C261.099 181.079 254.508 182.426 248.459 181.919C236.178 180.889 229.08 171.31 227.444 167.216L227.346 166.968C226.164 163.924 225.222 159.974 221.488 159.32L220.694 159.18C218.99 158.866 217.418 158.428 216.419 156.795C215.981 156.081 215.755 155.284 215.7 154.471C215.117 154.515 214.535 154.557 213.955 154.597C209.328 155.559 181.573 156.374 179.357 156.374C179.357 156.374 175.099 158.136 173.301 156.771C172.054 155.822 171.644 154.557 172.33 153.125C173.366 150.969 178.141 149.673 180.262 149.262C180.262 149.262 214.481 149.541 216.944 149.082C218.468 147.538 221.194 147.75 223.471 147.506C225.357 146.185 227.994 145.3 230.078 144.707C230.503 144.549 230.923 144.397 231.332 144.252C235.152 142.916 239.122 142.208 243.153 141.828C247.31 141.439 251.479 141.615 255.611 142.171C257.353 142.404 259.078 142.704 260.791 143.096C263.858 143.494 266.908 144.148 269.976 144.924L270.59 145.081C273.821 145.914 277.142 146.634 280.487 146.069C283.21 145.613 285.828 144.583 288.339 143.47L288.666 143.324C294.187 140.847 302.808 138.978 309.019 138.978ZM260.459 148.034C258.422 147.594 257.552 150.68 259.595 151.121C261.042 151.434 262.269 152.151 263.097 153.366L263.185 153.498C264.296 155.236 267.108 153.631 265.988 151.882C264.729 149.913 262.771 148.534 260.459 148.034ZM320.119 146.121C319.401 145.624 318.314 145.993 317.897 146.695C317.438 147.469 317.739 148.33 318.411 148.836L318.48 148.885C319.097 149.312 319.698 150.078 319.773 150.863L319.78 150.961C319.861 153.014 323.108 153.025 323.027 150.961C322.948 148.942 321.758 147.255 320.119 146.121Z" fill="black"/>
</svg>
