<svg width="763" height="948" viewBox="0 0 763 948" fill="none" xmlns="http://www.w3.org/2000/svg">
<path fill-rule="evenodd" clip-rule="evenodd" d="M359.157 341.497C382.057 342.627 417.713 352.441 419.495 358.713C422.279 368.507 416.297 405.226 426.302 425.005C430.567 433.436 446.761 432.68 453.036 435.426C474.032 444.613 536.187 462.037 549.002 483.976C554.137 492.766 585.689 601.828 602.454 657.469C604.345 663.742 606.479 669.543 608.8 674.917L609.653 670.741C616.489 637.112 619.907 616.754 619.907 609.667C619.907 598.592 611.07 551.868 619.907 539.986C628.655 528.223 649.738 518.605 659.224 518.414L659.508 518.411C665.736 518.411 671.14 516.464 675.72 512.572L682.435 509.196C716.596 492.06 736.555 482.66 742.311 480.996C751.495 478.342 767.127 483.997 759.311 492.487C754.1 498.147 741.007 508.16 720.031 522.525L712.122 528.807L713.078 529.306C723.299 534.685 729.31 539.213 731.108 542.89C732.962 546.679 732.073 551.161 728.439 556.337L728.99 556.874C733.585 561.381 735.883 564.405 735.883 565.945V573.465C740.454 580.158 741.596 585.739 739.311 590.208C737.025 594.678 733.401 598.552 728.439 601.828C724.783 611.443 720.429 618.287 715.376 622.358C710.324 626.43 701.592 629.819 689.181 632.526L677.95 659.371L668.85 697.086L664.264 739.169L665.596 740.132C671.767 744.625 675.72 747.956 675.72 751.399C675.72 756.761 650.82 882.867 612.08 888.511C603.701 889.732 560.25 883.745 545.984 872.143L546.194 873.396C549.551 893.664 548.841 904.189 544.064 904.972C485.355 914.594 318.618 917.567 43.8518 913.891C42.2171 768.106 49.609 671.015 66.0276 622.619C108.019 498.843 154.317 456.568 170.514 452.947C184.702 449.775 233.9 430.2 247.653 425.005C256.631 421.613 258.554 411.445 268.784 411.445L269.611 411.449C279.505 411.549 288.279 413.317 293.208 408.231C306.144 394.882 302.527 376.405 307.894 358.713C310.851 348.965 331.056 340.111 359.157 341.497Z" fill="#F7CFC3"/>
<path d="M268.784 411.445L269.611 411.449C272.057 411.474 274.433 411.6 276.701 411.7L271.924 427.972L271.82 429.681C268.719 485.783 296.2 512.639 354.264 510.25C412.329 507.861 441.211 489.501 440.91 455.171L440.892 454.126L440.893 432.762L441.806 432.937C446.213 433.762 450.461 434.299 453.036 435.426C474.032 444.613 536.187 462.036 549.002 483.976C554.137 492.766 585.689 601.828 602.454 657.469C603.067 659.502 603.705 661.486 604.367 663.421L604.367 674.418L604.185 675.085C598.309 697.055 606.133 715.018 627.656 728.973C642.912 738.865 658.58 745.286 674.66 748.237C675.35 749.304 675.72 750.346 675.72 751.399C675.72 756.761 650.82 882.867 612.08 888.511C603.701 889.732 560.25 883.745 545.984 872.143L546.194 873.396L546.391 874.6C549.521 894.081 548.745 904.205 544.064 904.972C485.355 914.594 318.618 917.567 43.8518 913.891C42.2171 768.106 49.609 671.015 66.0276 622.619C108.019 498.843 154.317 456.568 170.514 452.947C184.702 449.775 233.9 430.2 247.653 425.005C256.631 421.613 258.554 411.445 268.784 411.445Z" fill="#FFCF77"/>
<path fill-rule="evenodd" clip-rule="evenodd" d="M296.244 376.45C297.588 373.788 301.156 374.133 303.51 375.34C310.572 380.501 303.183 390.504 301.23 396.801C296.205 409.016 287.479 420.953 275.431 426.662C276.43 438.804 277.561 450.92 277.978 463.1C293.381 482.199 319.35 489.17 342.403 494.531C378.61 504.541 419.473 484.032 431.693 448.255C417.785 440.355 413.284 419.671 417.434 405.241C417.795 404.227 419.367 403.779 419.926 404.911C423.734 412.741 423.226 422.294 427.556 430.031C469.113 434.008 522.747 449.683 549.972 483.28C562.037 500.088 566.816 521.949 572.759 541.43C585.438 581.591 595.541 622.565 607.976 662.767L609.442 655.16C613.459 634.206 617.109 612.968 614.396 591.658L614.348 590.638C613.461 573.682 608.153 542.173 621.307 530.725C633.206 521.636 650.443 514.332 665.374 518.522C691.945 506.701 714.879 486.797 743.178 479.044C751.888 477.252 764.418 479.374 762.359 491.186C756.654 511.844 732.762 519.862 716.429 530.515C726.898 533.351 739.662 546.079 731.482 557.177C731.411 557.374 731.348 557.523 731.285 557.641C737.919 560.58 738.848 567.967 737.22 574.3C737.055 575.974 736.615 574.536 737.598 576.053C745.083 583.109 741.775 602.78 730.499 603.445C731.237 612.766 725.248 621.818 717.663 626.902C709.487 632.379 697.665 632.615 690.897 640.112C675.005 668.124 669.523 701.195 667.79 733.273C678.266 737.193 687.665 748.915 678.147 758.859C677.96 758.881 677.772 758.903 677.581 758.919C672.064 773.638 669.934 789.328 667.016 804.7C662.527 830.93 650.828 855.012 635.889 876.863C618.613 905.786 572.157 901.201 548.753 882.535C548.847 887.432 549.654 892.3 548.085 897.032C545.77 902.139 540.123 899.933 539.564 894.903C527.193 901.859 524.279 878.9 538.032 882.542C536.974 865.945 536.36 849.324 535.863 832.699C520.292 837.736 519.621 811.913 535.548 817.077L535.529 809.938C535.412 755.197 536.017 700.268 543.243 645.958C543.911 641.896 545.043 637.967 545.704 633.928C545.774 633.51 546.427 633.629 546.429 634.029C547.548 710.064 542.577 786.262 547.763 862.324C552.081 863.639 553.802 868.592 556.999 871.478C564.097 878.028 573.762 881.218 583.214 882.329C609.68 886.039 621.107 877.958 632.894 854.961C627.578 858.512 620.394 852.241 623.635 846.62L623.736 846.45C627.101 840.495 636.604 844.064 635.4 850.733C647.25 831.763 653.452 810.373 658.033 788.67L658.652 786.077C660.879 776.863 663.769 766.304 669.116 757.968C636.508 749.66 604.611 724.349 599.509 689.621C591.23 715.623 580.014 741.04 569.325 766.329C566.023 775.122 564.648 784.575 559.916 792.732C558.815 794.618 556.025 794.131 555.402 792.142C551.146 773.121 564.042 755.028 570.738 737.905C576.206 728.228 591.901 684.036 601.631 683.93C590.697 636.02 576.113 588.469 562.224 541.156C548.794 477.271 521.426 464.952 463.448 444.838C473.905 498.113 521.651 549.681 496.244 605.56L495.627 607.009C493.028 613.17 490.869 619.378 492.684 626.14C494.444 632.702 498.453 638.399 501.661 644.3C519.59 677.635 507.249 716.566 500.316 751.281C491.559 791.991 482.909 832.739 473.857 873.388C472.073 881.497 470.917 889.851 468.221 897.709C466.83 901.764 459.889 901.379 460.338 896.648C461.194 887.47 463.772 878.519 465.66 869.506C476.931 811.152 492.181 753.485 501.878 694.875C508.116 651.489 483.56 644.822 484.476 616.789C487.814 602.452 496.648 589.657 496.141 574.379C498.105 527.61 464.028 489.026 459.821 443.54L452.392 440.891C448.68 439.563 444.971 438.223 441.274 436.852C460.733 572.896 454.824 711.911 445.097 848.627C443.11 854.935 445 919.434 436.669 915.523C436.248 917.986 434.939 920.407 432.094 920.394C406.256 920.631 380.41 921.04 354.572 921.348C342.144 920.203 325.061 924.946 314.49 917.778C302.285 914.296 300.882 860.821 297.619 849.043L296.347 840.478C275.607 700.518 257.048 557.67 271.955 416.324C251.214 417.121 246.933 439.498 245.395 455.791C241.549 491.752 218.307 522.721 217.192 559.095C217.098 567.919 218.764 576.468 222.293 584.571C231.655 604.422 247.846 627.372 235.745 649.542C221.433 666.802 222.672 671.345 227.923 692.674C242.699 763.186 267.237 830.975 290.579 898.96C285.507 925.384 255.002 827.287 252.132 819.89C238.628 826.678 231.251 804.152 246.74 802.547C236.792 769.258 227.636 735.721 220.014 701.814L219.812 700.858C216.445 685.192 209.822 666.848 221.006 652.951C249.843 623.798 201.954 591.213 207.995 555.896C202.779 559.763 194.883 555.695 195.001 549.201C194.765 541.89 204.589 538.145 209.316 543.723C214.177 515.07 231.087 490.056 236.204 461.487L236.436 460.145C238.17 450.048 238.658 439.424 243.619 430.222C236.866 434.606 229.675 438.15 222.278 441.278C235.503 452.321 209.892 462.4 212.012 445.341C139.483 466.317 123.09 495.57 96.4604 562.749C101.435 557.918 109.956 564.169 106.978 570.331C104.602 576.822 94.2397 574.924 94.2437 568.006L93.03 570.899C76.8821 609.498 62.1849 649.033 54.799 690.341C69.2877 688.296 65.5987 711.444 52.4715 704.918C47.2033 741.654 47.12 778.911 47.7637 815.944C59.9847 809.538 60.3525 831.307 47.8816 825.1C48.3376 855.448 49.0057 885.796 49.5088 916.144C49.611 922.603 39.6437 922.572 39.4865 916.144C38.3223 869.513 36.2007 822.797 37.2093 776.152C36.2605 695.193 59.5421 617.162 94.2311 544.64C124.925 461.135 167.322 451.639 245.325 427.36C252.525 416.676 267.909 406.57 280.46 413.279C287.482 401.948 291.048 388.523 296.244 376.45ZM162.6 667.482C162.891 666.452 164.361 666.711 164.408 667.725C165.06 680.825 164.479 694.01 163.582 707.165C163.039 715.196 162.372 723.219 161.806 731.195C160.305 752.239 159.094 773.307 158.174 794.39C158.497 794.257 158.827 794.138 159.173 794.045C160.76 793.612 162.349 793.612 163.936 794.045C165.352 794.44 166.59 795.131 167.656 796.129L167.882 796.347C168.755 797.156 169.376 798.115 169.737 799.223C170.252 800.209 170.513 801.263 170.512 802.39L170.507 802.673C170.5 804.291 170.099 805.792 169.281 807.191C168.487 808.535 167.418 809.604 166.074 810.404C164.675 811.215 163.173 811.615 161.554 811.622C161.381 811.639 161.208 811.655 161.036 811.662C159.832 811.71 158.709 811.458 157.67 810.916L157.514 810.869C157.121 821.564 156.799 832.266 156.563 842.969C156.351 852.297 156.068 861.624 155.879 870.951L155.791 875.617L155.62 885.929C155.565 890.17 155.592 894.231 154.15 898.23L153.977 898.691C152.939 901.362 152.13 905.08 149.354 906.565C147.138 907.751 144.151 907.311 142.878 905C141.808 903.068 142.735 900.286 144.316 898.981C144.285 898.895 144.237 898.817 144.198 898.73C143.954 898.022 143.584 897.355 143.365 896.64C142.672 894.377 142.862 891.965 142.854 889.614C142.854 885.466 142.995 881.317 143.105 877.175C143.349 868.358 143.632 859.55 143.977 850.741C145.146 821.19 147.346 791.64 149.865 762.173L150.72 752.227C151.86 739.001 153.039 725.761 154.708 712.603C154.786 711.974 154.865 711.346 154.951 710.716C154.055 710.269 153.222 709.648 152.561 708.957C149.913 706.177 148.307 702.021 146.8 698.441L146.454 697.625C144.819 693.806 143.31 689.94 142.532 685.838L142.457 685.461C142.102 683.714 141.402 680.618 143.255 679.772C144.222 679.332 144.834 679.646 145.149 680.613C145.189 680.738 145.156 680.88 145.086 680.99C145.849 682.16 147.044 683.253 147.798 684.337L150.381 688.029L151.658 689.884C153.277 692.266 155.006 694.545 156.791 696.793C158.197 686.923 159.919 677.092 162.6 667.482ZM268.514 887.423C271.745 884.892 277.004 886.267 277.004 890.935C277.004 895.626 271.737 896.978 268.514 894.447L268.354 894.329L268.2 894.204C266.445 892.833 266.386 889.265 268.067 887.777L268.2 887.666C268.301 887.579 268.404 887.501 268.514 887.423ZM128.052 878.307C129.514 878.307 130.874 878.676 132.14 879.415C132.69 879.832 133.232 880.255 133.783 880.68C134.789 881.686 135.48 882.881 135.866 884.256L136.157 886.408C136.196 887.524 135.968 888.561 135.457 889.529C135.127 890.534 134.569 891.406 133.783 892.138C133.044 892.931 132.179 893.489 131.174 893.811C130.287 894.279 129.341 894.517 128.33 894.517L128.052 894.511C126.583 894.511 125.222 894.141 123.957 893.402C123.406 892.986 122.864 892.561 122.314 892.138C121.316 891.132 120.616 889.937 120.232 888.561C120.136 887.846 120.043 887.123 119.94 886.408C119.901 885.292 120.136 884.256 120.64 883.289C120.97 882.283 121.528 881.411 122.314 880.68C123.054 879.887 123.917 879.328 124.924 879.006C125.81 878.538 126.762 878.301 127.775 878.301L128.052 878.307ZM495.741 863.36L497.801 863.636C499.774 864.084 501.361 865.538 502.423 867.196C502.989 868.084 503.295 869.042 503.342 870.072C503.571 871.093 503.523 872.123 503.201 873.152C502.965 874.157 502.502 875.037 501.817 875.785C501.582 876.154 501.306 876.492 500.993 876.791C500.347 877.867 499.373 878.574 498.367 879.297C497.518 879.839 496.598 880.13 495.607 880.177C494.955 880.35 494.295 880.35 493.634 880.177C492.652 880.13 491.732 879.839 490.883 879.297C490.381 878.912 489.878 878.519 489.382 878.134C488.942 877.624 488.533 877.097 488.148 876.547C487.889 875.942 487.637 875.344 487.386 874.747C486.921 873.309 487.149 872.036 487.402 870.598C487.44 870.355 487.504 870.135 487.59 869.898L487.76 869.442C488.213 868.248 488.454 867.843 489.256 866.803L489.562 866.394C489.715 866.191 489.872 865.991 490.051 865.813C490.553 865.294 491.269 864.861 491.834 864.414C493.045 863.715 494.35 863.369 495.741 863.36ZM229.124 858.332C230.264 858.34 231.334 858.622 232.323 859.196L233.613 860.194C234.399 860.988 234.941 861.914 235.248 862.992C235.318 863.557 235.398 864.123 235.476 864.681C235.507 865.553 235.327 866.37 234.925 867.133C234.675 867.919 234.234 868.594 233.613 869.176C233.04 869.789 232.355 870.229 231.569 870.488C230.883 870.845 230.145 871.034 229.361 871.036L229.124 871.03C227.977 871.03 226.907 870.74 225.917 870.165L224.628 869.176C223.842 868.382 223.299 867.447 222.993 866.37C222.922 865.805 222.844 865.247 222.765 864.681C222.733 863.809 222.914 862.992 223.315 862.237C223.575 861.451 224.007 860.768 224.628 860.194C225.202 859.573 225.886 859.133 226.672 858.882C227.358 858.521 228.082 858.339 228.862 858.329L229.124 858.332ZM176.985 855.731C178.627 855.715 180.294 856.179 181.638 857.129C182.943 858.056 183.933 859.055 184.57 860.556C184.743 860.965 184.915 861.365 185.066 861.774C185.742 863.573 185.867 865.38 184.932 867.141C184.028 868.846 182.079 869.592 180.333 870.102C178.856 870.543 177.181 870.614 175.711 870.087C174.98 869.828 174.265 869.553 173.605 869.152C172.371 868.39 171.703 867.486 170.877 866.37C170.233 865.27 169.91 864.075 169.91 862.803C169.91 861.521 170.233 860.335 170.877 859.227C172.142 857.067 174.485 855.746 176.985 855.731ZM93.6618 857.247C95.7378 857.247 97.5607 858.206 98.8113 859.824C100.076 861.467 100.54 863.51 99.9818 865.546C99.3922 867.699 97.6087 869.585 95.399 870.127C93.7648 870.528 92.4277 870.512 90.8006 870.236C89.425 870.001 88.3724 869.183 87.3183 868.334C86.1156 867.352 85.7462 865.561 85.9427 864.115C86.1313 862.669 86.8003 861.726 87.8143 860.869L87.8214 860.846L87.4441 861.137C87.5863 861.011 87.7271 860.878 87.8693 860.744C87.9157 860.666 87.955 860.579 87.9943 860.493C88.576 859.503 89.3621 858.725 90.3446 858.143C91.3744 857.546 92.4749 857.247 93.6618 857.247ZM577.554 833.445C578.694 833.139 579.842 833.139 580.982 833.445C581.824 833.642 582.554 834.027 583.176 834.6C583.805 835.01 584.32 835.535 584.708 836.186L584.833 836.408C585.73 837.932 585.871 839.676 585.486 841.373C585.007 843.471 583.073 845.382 580.982 845.876L580.911 845.889L580.841 845.908C579.992 846.175 579.134 846.215 578.286 846.018C577.429 845.979 576.635 845.728 575.905 845.256C574.977 844.659 574.199 843.889 573.601 842.961C573.129 842.223 572.878 841.429 572.838 840.572C572.69 840.007 572.69 839.441 572.838 838.875C572.878 838.018 573.129 837.224 573.601 836.486L574.607 835.189L574.71 835.103C575.512 834.301 576.462 833.751 577.554 833.445ZM498.414 791.86C508.719 791.86 508.704 807.843 498.414 807.843C488.109 807.843 488.124 791.86 498.414 791.86ZM121.119 789.84C122.204 789.597 123.289 789.644 124.366 789.982C125.018 790.257 125.663 790.532 126.307 790.798L127.958 792.073C128.265 792.331 128.414 792.614 128.697 792.984L129.051 793.446C129.562 794.131 129.574 794.275 130.135 795.734C130.513 797.133 130.513 798.531 130.135 799.931C129.954 800.606 129.68 801.243 129.326 801.832C129.002 802.398 128.615 802.894 128.18 803.351L127.958 803.576C127.219 804.37 126.347 804.928 125.341 805.258C124.704 805.628 124.02 805.808 123.289 805.808C122.204 806.052 121.119 806.005 120.042 805.666C119.39 805.392 118.745 805.117 118.1 804.849L116.45 803.576L115.177 801.926L114.771 800.958L114.359 799.985L114.068 797.824C114.029 796.701 114.257 795.663 114.767 794.689C114.964 794.004 115.31 793.4 115.813 792.896C116.175 792.284 116.662 791.797 117.275 791.436C117.778 790.932 118.384 790.587 119.068 790.39C119.704 790.021 120.388 789.84 121.119 789.84ZM630.818 778.422C631.675 778.392 632.477 778.571 633.216 778.964C633.475 779.052 633.728 779.161 633.971 779.287C634.922 779.844 635.676 780.599 636.235 781.543C636.69 782.266 636.942 783.044 636.981 783.884C637.152 784.641 637.136 785.405 636.931 786.164L636.863 786.391C636.69 787.012 636.431 787.585 636.086 788.111C636.053 788.174 636.014 788.237 635.967 788.292C635.441 789.126 634.741 789.809 633.876 790.32C632.917 790.869 631.888 791.152 630.771 791.161C628.547 791.161 626.629 789.959 625.458 788.111C625.293 787.852 625.198 787.522 625.081 787.255C624.978 787.003 624.813 786.682 624.726 786.391C624.428 785.275 624.428 784.159 624.726 783.044C624.922 782.225 625.293 781.511 625.851 780.905C626.298 780.222 626.887 779.68 627.619 779.287C628.526 778.758 629.501 778.476 630.535 778.429L630.818 778.422ZM195.716 770.604C196.805 770.306 197.887 770.284 198.968 770.535L199.239 770.604C200.102 770.808 200.85 771.201 201.494 771.783C202.209 772.254 202.784 772.875 203.2 773.644C203.798 774.674 204.096 775.79 204.104 776.984C204.096 778.179 203.798 779.295 203.2 780.324C202.61 781.322 201.816 782.108 200.819 782.698L199.954 783.114C199.231 783.57 198.46 783.813 197.626 783.852C197.069 784.002 196.51 784.002 195.961 783.852C195.394 783.852 194.867 783.711 194.381 783.428C193.846 783.279 193.389 783.011 192.996 782.618C192.313 782.178 191.779 781.597 191.386 780.867L190.748 779.365L190.529 777.699L190.748 776.042L191.095 775.224C191.409 774.1 191.975 773.126 192.8 772.301C193.625 771.483 194.6 770.917 195.716 770.604ZM585.541 757.347C586.688 756.986 587.829 756.938 588.969 757.19C589.738 757.19 590.461 757.387 591.13 757.78C591.861 757.983 592.489 758.345 593.025 758.88C593.959 759.484 594.691 760.286 595.234 761.284L596.098 763.335C596.616 764.663 596.428 766.62 596.114 767.956C595.855 769.055 595.352 770.015 594.605 770.831C594.227 771.468 593.724 771.971 593.087 772.349C592.359 773.011 591.52 773.482 590.568 773.761L590.305 773.833L590.211 773.857C590.194 773.864 590.179 773.864 590.164 773.864C590.156 773.873 590.139 773.873 590.131 773.873C589.755 773.967 589.37 774.022 588.969 774.037C587.829 774.289 586.688 774.242 585.541 773.881C584.865 773.597 584.182 773.306 583.498 773.017C582.916 772.576 582.341 772.128 581.76 771.68C581.312 771.099 580.864 770.517 580.416 769.944C579.787 768.962 579.449 767.893 579.402 766.753C579.197 765.991 579.197 765.237 579.402 764.474C579.402 763.697 579.599 762.982 579.983 762.313C580.33 761.245 580.919 760.326 581.76 759.548C582.341 759.099 582.916 758.651 583.498 758.211C584.182 757.92 584.865 757.63 585.541 757.347ZM84.1902 729.215C85.3763 728.893 86.5641 728.893 87.751 729.215L89.3459 729.883C90.132 730.307 90.7538 730.88 91.2254 731.612C91.8228 732.255 92.2229 733.018 92.4273 733.891C92.8919 735.085 92.8369 736.979 92.4674 738.197C92.0508 739.58 91.4062 740.68 90.4079 741.717C88.7493 743.43 86.2017 743.925 83.9465 743.407C83.3247 743.265 82.7352 742.99 82.2006 742.652C80.4957 741.599 79.348 739.761 79.3559 737.725C79.3559 737.505 79.3716 737.285 79.403 737.066C79.293 736.617 79.2529 736.154 79.2694 735.666L79.5052 733.891L79.5202 733.843C79.8354 732.719 80.4013 731.745 81.2259 730.92C81.9885 730.166 82.8777 729.619 83.8941 729.292L84.1509 729.215H84.1902ZM677.346 552.762C675.198 535.162 667.124 516.227 642.499 526.562L640.67 527.247C634.577 529.553 627.477 532.583 623.768 537.909C621.214 541.579 622.077 548.691 621.725 552.973C620.119 566.898 620.98 580.803 622.653 594.668C624.812 627.169 617.977 660.842 604.367 690.38C617.988 712.411 636.216 732.959 661.081 742.141C662.133 717.093 667.039 692.505 672.26 668.063L672.465 666.998C674.553 655.976 675.598 644.665 682.839 635.498C697.569 619.513 717.827 628.56 727.52 602.88C725.484 601.851 726.608 598.33 729.062 599.007C737.563 600.515 738.944 584.76 733.125 580.964C727.063 577.268 733.166 570.45 730.586 565.53C729.147 563.409 726.042 563.338 724.634 560.893C720.904 551.897 739.574 546.131 717.618 535.989C713.124 534.391 708.101 535.382 703.569 535.364C696.901 535.986 691.602 540.682 685.505 542.16C692.144 559.345 675.392 575.893 660.272 562.167C652.045 569.941 642.844 587.662 662.843 579.401C672.632 572.87 681.06 564.428 692.423 560.406L692.663 560.331C696.881 558.95 715.34 549.984 714.425 557.744C707.511 564.415 696.107 564.336 688.1 569.751C676.998 574.883 669.899 587.319 656.609 587.147C653.545 605.745 674.656 594.43 682.518 589.301L684.698 588.118C695.786 582.13 707.042 576.582 719.974 576.508C723.543 576.485 723.527 581.985 719.974 582.033C703.121 582.138 689.404 592.669 675.286 600.498C673.896 611.354 689.799 606.602 695.834 605C702.161 604.112 712.322 597.27 717.86 600.884C720.026 606.447 710.495 606.033 707.177 607.721C722.326 614.994 709.053 619.575 704.991 608.397L703.802 608.802C693.658 612.21 669.06 619.224 671.985 602.047C668.273 603.69 663.746 604.672 659.643 603.76C649.413 618.887 633.093 613.034 656.814 602.723C651.468 600.237 649.683 590.641 654.818 587.07C636.146 585.93 650.009 566.347 657.736 559.821C657.007 559.084 656.3 558.332 655.642 557.57C651.185 559.692 646.501 560.981 641.492 561.436C636.698 561.868 635.63 553.712 640.361 553.044C645.431 552.329 650.101 550.977 654.565 548.43C661.332 545.51 663.641 558.061 670.413 558.505C674.107 559.236 676.606 555.999 677.346 552.762ZM520.149 714.709C521.784 714.709 523.238 715.393 524.425 716.477C525.612 717.561 526.122 719.189 526.193 720.744C526.225 721.577 526.052 722.355 525.674 723.078C525.431 723.824 525.014 724.468 524.425 725.019C523.324 726.111 521.697 726.787 520.149 726.787C518.514 726.787 517.06 726.103 515.872 725.019C514.686 723.926 514.174 722.308 514.104 720.744C514.072 719.919 514.246 719.141 514.622 718.418C514.842 717.746 515.201 717.15 515.701 716.643L515.872 716.477C516.973 715.377 518.6 714.709 520.149 714.709ZM569.692 677.441L569.953 677.445C571.337 677.454 572.619 677.799 573.813 678.49C574.332 678.891 574.851 679.284 575.362 679.686C576.313 680.643 576.965 681.767 577.327 683.065C577.697 684.416 577.697 685.776 577.327 687.126C577.202 687.905 576.911 688.66 576.455 689.312C575.778 690.435 574.883 691.339 573.75 692.006C572.579 692.691 571.313 693.028 569.953 693.036C568.594 693.028 567.328 692.691 566.157 692.006C565.025 691.339 564.129 690.435 563.461 689.312C562.997 688.66 562.706 687.905 562.58 687.126C562.211 685.776 562.211 684.416 562.58 683.065C562.916 681.86 563.502 680.805 564.346 679.893L564.545 679.686C565.237 678.939 566.055 678.413 567.006 678.105C567.842 677.667 568.737 677.445 569.692 677.441ZM191.597 677.862C192.179 677.704 192.753 677.704 193.335 677.862C194.2 677.901 195.009 678.16 195.756 678.632C196.196 678.977 196.636 679.316 197.077 679.654L197.46 680.114C198.281 681.113 198.302 681.284 198.931 682.805C199.191 683.654 199.23 684.502 199.042 685.351C199.042 685.925 198.892 686.459 198.609 686.954C198.452 687.496 198.185 687.968 197.784 688.361C197.5 688.839 197.124 689.224 196.644 689.508C196.031 690.066 195.308 690.451 194.475 690.648L192.784 690.875C192.565 690.844 192.337 690.813 192.117 690.789C191.851 690.781 191.594 690.751 191.341 690.702L191.086 690.647L190.854 690.585C190.546 690.495 190.246 690.375 189.955 690.223C189.405 690.066 188.925 689.791 188.516 689.382C187.809 688.927 187.243 688.313 186.834 687.551L186.724 687.3C186.575 687.032 186.449 686.758 186.354 686.459C186.087 685.988 185.954 685.485 185.946 684.943C185.79 684.221 185.8 683.506 185.987 682.791L186.056 682.553L186.661 681.115C186.976 680.628 187.306 680.133 187.73 679.732C187.985 679.506 188.609 679.019 188.96 678.775L189.176 678.632C189.923 678.16 190.733 677.901 191.597 677.862ZM106.994 663.945C110.176 667.129 108.77 672.974 104.314 674.106L103.802 674.232C99.4947 675.324 95.6115 671.434 96.7041 667.129L96.8299 666.625C97.9618 662.169 103.81 660.763 106.994 663.945ZM636.36 630.281C636.329 629.841 636.895 629.685 637.178 629.944C640.966 633.339 643.38 637.409 647.978 640.041C652.601 642.682 657.364 642.469 662.182 644.174C663.817 644.756 663.825 646.941 662.182 647.514C653.064 650.697 637.052 639.907 636.36 630.281ZM207.916 629.59C208.931 629.276 209.953 629.228 210.967 629.456C211.659 629.456 212.302 629.629 212.892 629.974C213.544 630.156 214.103 630.486 214.582 630.956C215.157 631.295 215.612 631.759 215.958 632.332C216.634 633.071 217.09 633.935 217.325 634.926L217.593 636.961L217.325 638.996C217.066 639.6 216.806 640.214 216.555 640.819L215.853 641.771C215.283 642.529 215.192 642.537 213.812 643.562C212.932 644.119 211.981 644.426 210.967 644.465C210.29 644.654 209.614 644.654 208.931 644.465C208.247 644.465 207.602 644.292 207.005 643.947C206.36 643.766 205.794 643.436 205.314 642.964C204.482 642.422 203.829 641.707 203.349 640.819C203.09 640.214 202.831 639.6 202.579 638.996L202.304 636.961L202.579 634.926L202.594 634.863C202.956 633.59 203.601 632.482 204.528 631.546L206.054 630.367C206.651 629.983 207.272 629.786 207.916 629.59ZM574.859 631.115C577.036 630.517 579.426 631.145 581.021 632.741C582.617 634.336 583.246 636.717 582.649 638.894C582.059 641.016 580.353 642.736 578.223 643.31C577.587 643.482 576.942 643.577 576.29 643.546C575.196 643.538 574.175 643.262 573.224 642.713L571.998 641.761C571.399 641.212 570.984 640.56 570.739 639.806C570.354 639.083 570.181 638.305 570.212 637.464L570.205 637.315C570.181 637.016 570.22 636.717 570.315 636.427C570.315 636.119 570.363 635.821 570.441 635.53C571.015 633.409 572.744 631.695 574.859 631.115ZM105.453 609.835C106.153 609.811 106.805 609.952 107.41 610.274C108.047 610.479 108.589 610.824 109.045 611.327C109.548 611.783 109.894 612.333 110.099 612.962C110.421 613.568 110.562 614.22 110.539 614.919C110.539 615.838 110.303 616.694 109.847 617.48C109.58 617.827 109.313 618.172 109.045 618.51C108.416 619.146 107.67 619.578 106.805 619.822L106.302 619.995C105.563 620.262 104.84 620.278 104.07 620.176C103.26 620.066 102.512 619.846 101.853 619.343C101.207 618.965 100.697 618.455 100.32 617.81L99.8877 616.789C99.7934 616.444 99.7541 615.925 99.7305 615.563C99.7305 615.508 99.7305 615.462 99.7226 615.406C99.7226 615.099 99.8169 614.354 99.8948 614.046C100.068 613.402 100.421 612.789 100.823 612.27C101.169 611.729 101.641 611.304 102.222 610.989L102.274 610.95L102.332 610.911C102.512 610.785 102.702 610.659 102.89 610.525C103.677 610.07 104.533 609.835 105.453 609.835ZM511.369 604.255C512.626 604.255 513.798 604.577 514.882 605.206C514.921 605.221 514.96 605.237 514.992 605.254C516.03 605.866 516.855 606.692 517.469 607.728C518.097 608.805 518.411 609.969 518.411 611.21C518.411 612.459 518.097 613.614 517.469 614.691C516.855 615.729 516.03 616.553 514.992 617.167C514.96 617.19 514.921 617.204 514.882 617.221C513.798 617.85 512.626 618.164 511.369 618.172C510.119 618.164 508.948 617.85 507.862 617.221C505.741 615.979 504.411 613.661 504.411 611.21C504.411 608.757 505.741 606.44 507.862 605.206C508.948 604.577 510.119 604.255 511.369 604.255ZM184.93 595.168L185.144 595.164C185.978 595.132 186.755 595.305 187.47 595.69C188.217 595.933 188.87 596.351 189.421 596.94L190.568 597.898L190.901 598.168C190.956 598.213 191.01 598.26 191.063 598.307C191.834 599.084 192.361 599.996 192.659 601.049C192.754 601.655 192.831 602.251 192.895 602.856C193.067 604.428 192.14 606.04 191.119 607.155C190.568 607.745 189.915 608.16 189.161 608.412C188.438 608.79 187.652 608.962 186.818 608.931C185.112 608.782 183.494 608.42 182.267 607.1C182.125 606.942 181.992 606.777 181.851 606.612L180.868 605.481C180.122 604.727 179.602 603.839 179.32 602.817C179.24 602.275 179.17 601.74 179.1 601.206C179.028 599.595 179.814 598.086 180.868 596.94C181.841 595.877 183.492 595.228 184.93 595.168ZM145.252 578.622C153.426 578.622 153.41 591.298 145.252 591.298C137.084 591.298 137.1 578.622 145.252 578.622ZM556.269 560.85L556.527 560.855C557.88 560.863 559.145 561.201 560.317 561.884L561.841 563.055C562.769 563.998 563.413 565.098 563.775 566.371C563.861 567.038 563.948 567.707 564.043 568.367C564.082 569.405 563.861 570.371 563.39 571.267C563.092 572.194 562.573 573.003 561.841 573.687C561.158 574.418 560.355 574.937 559.421 575.235C558.525 575.707 557.558 575.927 556.527 575.888C555.168 575.879 553.902 575.542 552.73 574.858C552.22 574.465 551.717 574.072 551.206 573.687C550.35 572.817 549.735 571.812 549.367 570.662L549.28 570.371L549.005 568.367C548.966 567.338 549.185 566.371 549.657 565.476C549.956 564.54 550.475 563.739 551.206 563.055C551.89 562.324 552.7 561.805 553.627 561.507C554.448 561.075 555.33 560.853 556.269 560.85ZM519.449 537.124C520.18 537.099 520.856 537.249 521.493 537.579C522.145 537.791 522.711 538.16 523.191 538.671C524.205 539.481 524.826 541.099 524.826 542.411C524.826 543.724 524.205 545.343 523.191 546.152C522.53 546.804 521.752 547.26 520.856 547.511L519.449 547.701C518.081 547.764 516.69 547.048 515.715 546.152C515.519 545.972 515.33 545.791 515.133 545.617C514.246 544.8 513.861 543.582 513.805 542.411C513.781 541.791 513.916 541.21 514.198 540.668C514.38 540.102 514.693 539.622 515.133 539.205C515.33 539.032 515.519 538.852 515.715 538.671C516.777 537.689 518.018 537.194 519.449 537.124ZM752.737 494.855C757.902 488.565 754.895 484.088 747.132 485.644C733.761 487.452 721.177 495.9 709.401 501.958C696.548 508.744 683.302 514.341 670.192 520.718C675.601 524.037 679.624 529.235 682.698 535.167C688.833 530.509 696.676 528.282 704.331 527.992C718.22 514.695 741.221 511.65 752.737 494.855ZM142.501 515.734C143.902 515.741 145.214 516.07 146.443 516.727L146.706 516.873L148.388 518.177C149.205 518.932 149.779 519.827 150.117 520.857C150.636 521.847 150.872 522.924 150.832 524.071C150.872 525.218 150.636 526.287 150.117 527.277C149.779 528.314 149.205 529.202 148.388 529.957C147.924 530.562 147.327 531.033 146.611 531.38C145.942 531.654 145.283 531.937 144.615 532.22C143.868 532.456 143.003 532.487 142.194 532.526C140.724 532.518 139.357 532.149 138.082 531.41L136.432 530.138C135.638 529.399 135.071 528.526 134.741 527.513C134.273 526.62 134.036 525.667 134.036 524.649L134.042 524.37C134.042 524.307 134.042 524.236 134.051 524.165C134.144 523.427 134.247 522.688 134.348 521.95C134.608 520.865 135.103 519.914 135.842 519.112C136.031 518.735 136.282 518.429 136.606 518.177C137.642 517.14 138.868 516.433 140.283 516.031C141.022 515.938 141.761 515.835 142.501 515.734ZM507.469 494.917C508.53 494.917 509.513 495.184 510.426 495.711C510.826 496.018 511.219 496.324 511.612 496.63C512.344 497.361 512.847 498.226 513.121 499.216L513.334 500.771C513.357 501.581 513.192 502.328 512.822 503.028C512.587 503.75 512.186 504.378 511.612 504.913C511.085 505.486 510.457 505.887 509.726 506.123C509.033 506.492 508.279 506.657 507.469 506.627C506.416 506.627 505.425 506.359 504.514 505.824C504.12 505.526 503.72 505.219 503.327 504.913C502.664 504.243 502.186 503.461 501.899 502.572L501.825 502.328L501.614 500.771C501.582 499.962 501.747 499.216 502.116 498.516C502.352 497.786 502.761 497.157 503.327 496.63C503.861 496.056 504.491 495.656 505.214 495.42C505.843 495.088 506.517 494.921 507.23 494.914L507.469 494.917ZM188.446 486.403L188.721 486.407C190.285 486.415 191.739 486.807 193.091 487.593C193.673 488.042 194.255 488.49 194.836 488.946C195.913 490.021 196.652 491.294 197.069 492.764L197.375 495.059C197.422 496.253 197.171 497.361 196.628 498.39C196.283 499.468 195.685 500.394 194.836 501.18C194.059 502.022 193.13 502.618 192.053 502.965C191.024 503.506 189.915 503.758 188.721 503.71C187.156 503.71 185.702 503.317 184.35 502.532C183.769 502.084 183.187 501.629 182.598 501.18C181.528 500.096 180.789 498.823 180.373 497.361L180.066 495.059C180.019 493.872 180.27 492.757 180.813 491.727C181.159 490.659 181.756 489.723 182.598 488.946C183.384 488.097 184.311 487.499 185.388 487.153C186.338 486.653 187.356 486.407 188.446 486.403ZM479.51 464.798C480.225 464.608 480.939 464.608 481.655 464.798C482.724 464.844 483.723 465.166 484.65 465.755L486.278 467.014C486.3 467.036 486.325 467.061 486.348 467.092C487.331 468.081 488.014 469.253 488.391 470.597L488.675 472.711C488.714 473.803 488.486 474.824 487.991 475.767C487.696 476.674 487.208 477.463 486.536 478.145L486.278 478.399C485.546 479.185 484.689 479.743 483.691 480.065C483.063 480.435 482.378 480.616 481.655 480.616C480.586 480.859 479.51 480.812 478.44 480.474C477.804 480.199 477.158 479.931 476.515 479.665L476.31 479.546C473.881 478.219 472.379 475.437 472.379 472.711C472.379 469.983 473.881 467.193 476.31 465.865C476.381 465.835 476.443 465.795 476.515 465.755C477.442 465.166 478.44 464.844 479.51 464.798Z" fill="black"/>
<path fill-rule="evenodd" clip-rule="evenodd" d="M490.953 161.252C482.782 131.74 451.548 118.862 423.418 116.818C347.255 108.897 269.731 151.376 235.965 220.258C208.937 272.562 208.09 327.506 266.19 357.371C269.363 359.121 272.676 360.991 276.06 362.69C279 365.425 282.028 368.052 285.332 370.259C316.969 391.073 355.8 400.075 393.43 398.123C448.99 397.002 468.824 359.283 480.962 310.91C493.763 262.752 500.922 210.497 490.953 161.252V161.252Z" fill="#F7CFC3"/>
<path fill-rule="evenodd" clip-rule="evenodd" d="M527.424 439.432C524.83 431.583 521.578 423.971 518.54 416.281C517.897 412.448 517.469 408.583 517.359 404.686C516.937 390.765 519.54 376.725 522.459 363.17C528.392 335.622 534.682 308.36 537.84 280.305C543.48 230.122 540.124 177.94 517.31 132.13C497.543 92.4476 464.044 59.9952 420.772 47.8365C407.98 44.2405 394.814 42.2571 381.558 41.4651C379.917 41.204 378.278 40.9484 376.647 40.7024C358.209 37.9214 339.544 36.5357 320.907 37.7349C290.002 39.7246 259.386 48.6103 233.647 66.1849C207.732 83.881 189.319 108.694 180.751 138.958C171.838 170.442 172.594 204.54 157.203 234.057C152.656 242.778 147.349 251.068 142.287 259.497C128.856 274.49 114.275 291.157 111.08 311.772C107.137 337.249 121.788 358.781 135.654 378.662C148.188 396.614 165.195 421.408 152.297 443.511C146.213 453.94 136.464 461.741 129.142 471.249C121.55 481.122 115.625 492.456 112.563 504.567C106.812 527.312 112.103 551.019 127.484 568.797C135.496 578.051 145.784 584.17 156.921 588.94C168.32 593.813 179.458 598.44 188.881 606.733C193.189 610.519 197.131 614.67 200.859 619.019C204.334 624.456 208.379 629.535 212.941 634.186C217.962 639.305 227.798 632.297 223.189 626.273C222.848 625.829 222.515 625.392 222.174 624.948C218.803 620.551 215.416 616.154 211.87 611.9C201.296 595.137 197.226 574.614 202.486 555.035C203.85 549.948 205.77 545.122 208.158 540.567C208.665 541.892 209.22 543.202 209.807 544.495C212.092 549.511 215.297 555.455 219.374 560.535C219.533 564.018 220.057 567.471 221.071 570.852C227.354 591.813 248.359 602.154 267.302 610.202C269.158 610.995 270.991 611.757 272.791 612.511C277.741 614.582 282.977 607.527 279.891 603.272C279.082 602.154 278.296 601.011 277.551 599.852C268.666 586.09 264.438 569.63 266.834 553.233C269.357 535.892 279.574 521.543 289.719 507.773C299.682 494.233 310.383 480.416 314.841 463.9C319.775 445.654 315.286 427.463 307.67 410.67C300.698 395.302 291.41 381.138 283.621 366.194C286.288 368.855 289.039 371.429 291.874 373.911C295.063 376.703 298.338 379.898 302.116 381.867C304.91 383.321 307.709 379.839 305.496 377.484C302.588 374.39 298.867 372 295.638 369.239C292.538 366.589 289.527 363.833 286.591 361.002C282.977 357.517 279.538 353.867 276.222 350.108C273.569 343.345 271.383 336.401 269.602 329.352C267.183 319.813 264.946 309.662 265.121 299.773C265.295 289.63 270.562 282.527 277.575 275.717C280.545 272.834 283.543 269.985 286.536 267.13C292.91 262.448 298.923 257.218 304.764 252.002C315.171 242.708 325.238 232.883 334.851 222.771C337.43 220.059 339.987 217.316 342.513 214.541C351.338 205.481 359.754 196.021 367.688 186.233C375.573 183.36 383.148 179.559 390.256 175.083C387.162 178.217 384.037 181.313 380.927 184.432C374.002 191.384 366.808 198.368 358.779 204.034C357.955 204.622 358.454 205.868 359.47 205.67C369.679 203.63 379.229 200.233 388.146 194.821C397.212 189.313 405.2 181.829 412.657 174.321C416.877 172.416 420.947 169.963 424.667 167.551C424.865 167.424 425.063 167.289 425.262 167.161C421.597 178.781 416.219 191.94 404.756 196.083C404.383 196.217 404.407 196.837 404.851 196.813C414.508 196.246 422.27 191.899 428.397 185.563C433.324 182.016 438.027 178.256 442.514 174.163C446.861 170.198 450.979 165.946 454.89 161.543C449.424 172.375 443.302 182.967 437.264 193.44C436.946 193.995 437.613 194.749 438.184 194.36C450.931 185.725 460.601 174.583 468.51 161.407C469.677 159.467 470.792 157.496 471.879 155.51C471.058 158.618 470.163 161.707 469.204 164.78C467.467 170.343 465.758 175.918 464.018 181.478C463.081 184.475 461.938 187.405 460.683 190.284C459.785 192.344 458.61 194.401 458.427 196.66C458.416 196.81 458.579 196.909 458.71 196.876C463.793 195.605 468.526 189.805 472.148 186.212C474.165 184.211 476.055 182.015 477.793 179.699C478.116 193.038 478.338 206.379 478.044 219.757C477.498 244.329 475.911 268.892 473.88 293.383C472.087 315.035 470.762 337.757 458.689 356.575C449.345 371.138 434.194 381.217 417.734 386.098C416.282 386.535 414.823 386.924 413.355 387.273C389.526 392.932 365.792 386.519 344.723 375.186C338.393 371.781 332.983 381.018 339.091 384.82C361.952 399.059 390.93 403.908 416.806 397.527C415.989 428.106 431.052 457.114 446.037 483.051C454.422 497.567 462.814 511.987 468.74 527.725C473.769 541.09 477.188 554.956 478.338 569.217C479.702 586.027 478.362 602.932 476.014 619.598C475.887 620.502 475.76 621.416 475.625 622.32C475.102 625.9 478.314 628.899 481.797 627.067C497.193 618.971 503.833 601.717 507.871 585.765C511.647 570.821 514.209 555.583 515.637 540.241C517.731 546.027 519.428 551.956 520.745 558.002C520.928 558.868 521.102 559.733 521.277 560.598C522.276 565.654 529.923 565.297 531.145 560.598C531.367 559.749 531.581 558.9 531.779 558.043C538.086 532.527 539.783 505.916 536.451 479.828C534.698 466.106 531.771 452.567 527.424 439.432" fill="black"/>
<path fill-rule="evenodd" clip-rule="evenodd" d="M415.715 363.619C409.827 365.33 403.507 365.483 397.505 363.716C392.061 362.113 386.471 358.585 382.464 353.917C378.905 349.77 376.6 344.73 376.69 339.351C376.701 338.736 376.92 338.223 377.256 337.825C377.619 337.397 378.125 337.103 378.668 336.975C379.226 336.844 379.816 336.89 380.318 337.119C380.772 337.326 381.162 337.678 381.405 338.193C382.021 339.004 382.635 339.804 383.25 340.581C388.201 346.716 392.996 351.3 400.44 352.944C404.48 353.836 408.514 353.441 412.215 352.079C416.178 350.622 419.759 348.06 422.566 344.781C423.835 343.299 425.332 342.694 426.796 342.684C428.456 342.672 430.096 343.446 431.332 344.683C432.546 345.898 433.36 347.55 433.433 349.278C433.498 350.795 433.005 352.379 431.693 353.792C427.373 358.448 421.773 361.858 415.715 363.619ZM415.533 286.789C421.569 290.471 430.766 299.055 424.273 308.182C416.63 316.229 405.625 307.002 400.202 302.829C395.174 299.595 389.525 307.913 394.19 311.689C433.375 340.8 449.277 287.752 418.586 282.461C415.207 281.878 413.952 285.65 415.533 286.789ZM359.071 270.59C357.131 269.345 354.849 268.918 352.319 270.073C350.343 270.975 346.877 273.981 344.464 277.933C342.814 280.637 341.643 283.809 341.887 287.113C341.944 287.881 341.661 288.446 341.215 288.865C340.863 289.195 340.355 289.438 339.758 289.514C339.251 289.578 338.683 289.52 338.222 289.376C337.344 289.101 336.879 288.529 336.704 288.063C335.015 283.562 335.743 278.539 337.636 274.007C340.191 267.891 344.83 262.769 347.87 261.117C353.072 258.29 359.208 258.16 364.417 261.04C368.851 263.491 371.624 267.449 374.382 271.483C374.968 272.341 375.55 273.192 376.151 274.029C377.356 275.704 377.476 277.366 377.009 278.792C376.492 280.371 375.174 281.703 373.526 282.4C372.002 283.045 370.234 283.136 368.669 282.473C367.347 281.914 366.134 280.823 365.366 278.973C364.074 275.857 361.92 272.419 359.071 270.59V270.59ZM457.598 277.523C456.269 278.218 455.23 278.428 453.756 277.984C452.941 277.739 452.136 277.268 451.505 276.635C450.88 276.008 450.429 275.228 450.254 274.363C449.823 272.228 448.658 270.229 446.999 268.926C445.581 267.812 443.791 267.222 441.805 267.555C439.663 267.914 437.622 269.293 436.216 270.918C435.746 271.462 435.378 272.08 435.007 272.693C434.315 273.841 433.641 274.907 432.686 275.75C432.324 276.071 431.778 276.293 431.25 276.293C431.035 276.293 430.817 276.258 430.609 276.193C428.477 274.045 428.067 272.416 428.135 270.8C428.207 269.105 428.873 267.39 429.949 265.789C432.473 262.034 437.265 258.955 440.499 258.257C444.927 257.303 449.326 258.449 452.852 260.931C456.48 263.485 459.168 267.449 460.007 271.918C460.208 272.994 460.123 274.156 459.714 275.163C459.315 276.147 458.619 276.99 457.598 277.523ZM368.838 230.554C366.18 233.152 363.034 233.555 359.852 233.913C358.084 234.114 356.672 234.275 355.283 234.59C351.466 235.455 347.692 236.757 344.249 238.633C340.65 240.594 336.728 242.958 333.906 245.988C333.235 246.709 332.603 247.465 331.969 248.223C331.392 248.914 330.836 249.58 330.249 250.222C329.576 250.959 328.936 251.731 328.3 252.502C327.907 253.152 327.829 253.312 327.75 253.478C327.631 253.728 327.492 254.008 327.334 254.308C327.117 254.72 326.863 255.17 326.597 255.578C326.154 256.324 325.917 256.529 325.712 256.621C325.371 256.774 325.048 256.848 324.735 256.808C324.441 256.77 324.164 256.628 323.891 256.396C322.527 255.24 322.124 253.341 322.165 251.326C322.228 248.268 323.352 244.882 324.388 242.801C326.798 237.965 330.139 232.937 334.157 229.328C338.742 225.208 343.758 222.089 349.519 219.939C353.1 218.603 357.245 217.377 361.146 217.532C363.954 217.643 366.634 218.481 368.848 220.572C370.207 221.856 370.859 223.682 370.859 225.507C370.859 227.368 370.182 229.24 368.838 230.554ZM463.003 254.347C462.834 254.625 462.6 254.816 462.34 254.931C462.067 255.052 461.762 255.087 461.47 255.037C461.179 254.988 460.902 254.856 460.683 254.653C460.473 254.46 460.312 254.202 460.241 253.887C458.476 246.111 455.05 240.325 447.737 236.594C444.14 234.759 440.004 233.593 436.088 232.663C434.95 232.393 433.747 232.218 432.537 232.04C428.742 231.484 424.919 230.848 422.445 227.77C420.954 225.915 420.329 223.544 420.682 221.376C421.016 219.334 422.205 217.462 424.366 216.34C429.747 213.548 436.435 216.287 441.869 218.621C442.272 218.794 442.668 218.964 443.055 219.128C448.369 221.379 453.216 224.35 457.201 228.599C460.362 231.97 463.291 236.953 464.471 242.08C465.452 246.345 465.221 250.699 463.003 254.347Z" fill="black"/>
<path fill-rule="evenodd" clip-rule="evenodd" d="M489.731 315.014C480.316 324.741 464.598 327.533 452.071 322.316C419.906 308.88 435.649 266.971 460.456 255.717C463.554 254.945 467.693 253.112 471.468 252.697C471.809 252.529 472.552 253.014 473.452 252.556C500.805 255.609 507.034 298.062 489.731 315.014M385.985 317.504C375.425 331.508 355.792 335.828 339.751 329.318C308.062 316.841 319.302 279.679 340.983 265.11C386.782 247.904 405.694 291.684 385.985 317.504M317.29 286.476C317.261 286.462 317.231 286.455 317.201 286.441C317.368 286.367 317.536 286.293 317.703 286.218C317.648 286.36 317.59 286.5 317.537 286.642C317.455 286.586 317.382 286.52 317.29 286.476M511.532 271.338C508.947 271.344 505.212 271.768 503.071 273.562C497.793 255.765 478.311 239.294 461.368 251.304C448.025 255.594 438.124 265.109 432.497 277.758C422.351 271.724 406.397 274.301 397.599 282.28C391.837 263.244 377.656 256.578 360.777 255.594C342.354 252.577 323.991 270.466 318.262 284.816C313.498 284.274 306.38 282.758 301.898 285.698C272.811 278.071 221.957 273.867 216.043 278.104C211.829 279.721 209.517 289.665 215.403 290.202C220.532 289.474 214.804 282.915 219.974 282.199C247.523 280.492 274.266 286.039 301.523 288.367C303.957 291.639 311.82 292.734 316.014 291.419C309.408 315.763 323.67 332.324 345.039 337.285C378.127 344.884 406.915 315.29 398.263 284.508C408.286 279.523 419.816 279.737 430.735 282.363C412.489 349.502 520.639 346.489 503.748 275.862C514.989 281.453 517.43 272.466 511.532 271.338" fill="black"/>
</svg>
