<svg width="818" height="1182" viewBox="0 0 818 1182" fill="none" xmlns="http://www.w3.org/2000/svg">
<path fill-rule="evenodd" clip-rule="evenodd" d="M765.567 1094.49C763.141 1071.96 761.646 1049.27 760.788 1026.62C759.931 1004 761.052 981.108 761.544 958.481C762.547 912.452 764.177 866.314 760.512 820.355C757.049 776.92 749.098 733.788 736.551 692.054C730.441 671.729 724.002 650.586 713.953 631.806C703.848 612.924 687.842 600.35 670.26 588.819C651.541 576.542 632.972 564.033 614.326 551.642C598.674 541.241 570.507 529.135 557.665 515.23C544.152 500.599 541.612 464.332 532.613 447C523.849 430.118 499.041 419.105 479.939 419.105C448.322 419.105 424.366 417.49 398.368 446.737C385.397 461.33 395.717 476.082 382.121 490.088C369.621 502.965 337.654 516.199 321.543 523.671C302.247 532.62 282.464 540.521 262.394 547.559C241.921 554.739 220.932 560.09 200.344 566.866C180.61 573.361 154.842 600.132 139.522 614.297C125.279 627.467 121.744 625.992 110.916 641.991C87.1519 677.102 63.3619 712.616 44.4379 750.631C35.0119 769.567 25.8849 789.486 22.4649 810.516C18.8169 832.946 22.4339 854.622 28.3499 876.339C34.3719 898.44 53.4949 919.482 59.7249 941.527C62.5959 951.686 52.7409 962.773 57.2739 972.347C59.5379 977.128 62.3889 981.385 65.6349 985.551C68.1359 988.761 77.8892 988.049 79.1512 991.978C80.4262 995.946 73.3699 1004.18 73.2649 1008.29C73.1159 1014.16 72.8819 1020.04 72.6889 1025.92L71.5489 1060.66C70.7999 1083.5 70.0509 1106.33 69.3019 1129.16C69.0569 1136.61 68.6999 1143.9 70.4869 1150.97C69.8419 1150.37 69.2289 1149.72 68.6689 1148.99C67.0299 1146.85 63.5539 1148.66 64.9449 1151.16C67.2669 1155.34 70.6059 1158.28 74.5289 1160.39C79.0879 1167.11 769.512 1182.13 772.909 1162.48C774.815 1151.45 771.346 1139.65 769.959 1128.69C768.515 1117.29 766.799 1105.93 765.567 1094.49Z" fill="white"/>
<path fill-rule="evenodd" clip-rule="evenodd" d="M68.2284 807.555C69.9174 802.717 77.6434 804.811 75.9424 809.681C67.1984 834.727 73.4014 861.982 82.8544 885.891C84.7514 890.688 77.0114 892.749 75.1404 888.017C65.1964 862.867 59.0444 833.858 68.2284 807.555M126.857 950.617C151.517 954.086 176.197 956.226 201.027 957.956C202.137 958.036 203.097 957.867 203.927 957.506C203.187 968.876 202.587 980.256 202.117 991.636C195.347 991.447 188.437 991.896 181.727 991.716C172.957 991.476 164.197 991.036 155.447 990.367C138.507 989.086 121.597 987.046 104.847 984.226C98.5874 983.176 90.6374 982.536 83.5074 980.456C76.7674 978.487 70.7674 975.226 67.6174 969.086C64.9374 963.886 64.4474 957.517 64.4474 951.767C64.4474 947.806 65.1274 943.786 65.5374 939.796C66.0474 939.437 66.5074 939.006 66.8774 938.527C74.3174 940.876 82.0374 942.527 89.5974 944.126C101.907 946.746 114.397 948.867 126.857 950.617M112.949 858.155C113.085 865.798 115.2 872.741 119.315 879.176C122.099 883.531 115.172 887.538 112.407 883.214C107.563 875.637 105.109 867.132 104.949 858.155C104.857 852.996 112.857 853.013 112.949 858.155M745.077 941.536C748.416 941.723 751.776 941.837 755.125 942.015C758.079 944.541 762.169 945.836 765.904 945.032C766.033 945.355 766.15 945.718 766.257 946.136C766.917 948.706 767.247 951.466 767.627 954.086C768.007 956.666 768.297 959.267 768.497 961.867C768.597 963.176 769.227 966.136 768.427 967.277C767.707 968.306 766.117 968.216 765.017 968.346C762.057 968.666 759.057 968.817 756.077 969.067C750.447 969.556 744.817 970.046 739.197 970.536C733.687 971.017 727.637 970.867 722.247 972.317C721.327 961.506 720.487 950.697 719.707 939.876C728.057 941.107 736.787 941.076 745.077 941.536M44.9574 923.607C48.3174 930.096 51.4174 936.476 57.8474 940.376C58.6874 940.876 59.6274 941.146 60.5874 941.216C59.8674 944.306 59.4174 947.466 59.0174 950.386C58.1374 956.817 57.9474 963.467 59.5574 969.807C61.1274 975.977 63.7274 981.488 68.8274 985.438C71.1974 987.278 73.7874 988.676 76.5074 989.786C76.0474 991.076 75.7774 992.358 75.9174 993.768C75.2674 997.037 74.8374 1000.37 74.3674 1003.56C73.3374 1010.64 72.3074 1017.73 71.4974 1024.85C69.8774 1039.01 68.6074 1053.17 67.5374 1067.38C66.4674 1081.55 65.6974 1095.74 65.0574 1109.94C64.7274 1117.2 64.4374 1124.46 64.1674 1131.73C63.8974 1139.2 62.6874 1146.84 65.9874 1153.77C68.6474 1159.37 77.6374 1159.05 80.3974 1153.77C83.8974 1147.06 82.8674 1139.09 82.9574 1131.73C83.0474 1124.8 83.1674 1117.86 83.3174 1110.93C83.6174 1096.74 84.0574 1082.56 84.4074 1068.37C84.7474 1054.52 85.1674 1040.68 85.4474 1026.83C85.5874 1019.58 85.5974 1012.33 85.6374 1005.08C85.6574 1001.06 85.8274 996.767 85.5274 992.576C88.0274 993.166 90.5474 993.667 93.0374 994.177C112.047 998.077 131.257 1000.92 150.587 1002.68C160.297 1003.56 170.037 1004.18 179.777 1004.53C186.937 1004.79 194.357 1005.29 201.627 1005.02C201.057 1022.38 200.797 1039.75 200.827 1057.12C200.847 1069.65 201.017 1082.18 201.327 1094.71C201.497 1101.3 201.637 1107.89 201.837 1114.48C201.927 1117.44 201.927 1120.43 202.127 1123.38C202.187 1124.3 202.317 1125.19 202.487 1126.07C201.827 1127.94 201.277 1129.79 200.827 1131.52C198.627 1139.92 198.627 1147.99 199.607 1156.55C200.447 1163.81 206.557 1170.54 214.627 1167.99C215.937 1167.58 217.247 1167.15 218.547 1166.71C230.427 1168.06 242.377 1168.37 254.427 1168.6C272.037 1168.94 289.657 1169.05 307.277 1169.14C341.837 1169.32 376.407 1169.41 410.977 1169.51C480.447 1169.71 549.917 1169.9 619.387 1170.1C638.667 1170.16 657.947 1170.21 677.227 1170.27C687.207 1170.3 697.167 1170.31 707.137 1170.69C711.787 1170.87 716.447 1171.12 721.097 1171.19C726.487 1171.28 731.257 1169.73 736.407 1168.32C739.317 1167.51 740.467 1164.59 739.847 1162.12C744.507 1163.23 750.157 1160.87 751.747 1155.62C752.907 1151.81 752.477 1147.68 750.747 1144.15V1144.14C747.407 1123.05 743.167 1102.06 739.837 1080.96C736.187 1057.85 732.677 1034.69 729.587 1011.49C727.267 993.966 725.357 1006.39 723.707 988.786C730.897 989.346 739.027 987.158 746.147 986.227C751.257 985.568 756.407 985.036 761.527 984.336C761.147 989.496 761.257 994.756 761.117 999.706C760.847 1009.54 760.967 1019.33 761.217 1029.16C761.697 1048.13 762.767 1037.09 764.477 1055.98C766.207 1075.01 768.327 1093.97 770.897 1112.91C772.217 1122.66 773.627 1132.4 775.117 1142.13C775.807 1146.67 776.517 1151.2 777.247 1155.74C778.117 1161.09 778.397 1166.16 782.407 1170.18C785.457 1173.23 791.687 1172.97 793.707 1168.72C796.267 1163.35 795.107 1158.75 794.157 1153.11C793.387 1148.58 792.647 1144.05 791.917 1139.52C790.357 1129.81 788.877 1120.09 787.487 1110.36C784.807 1091.61 782.277 1072.83 780.017 1054.03C777.737 1035.08 775.377 1046.15 773.137 1027.2C772.007 1017.64 770.877 1008.1 769.557 998.568C768.887 993.667 768.467 988.447 767.587 983.396C767.867 983.357 768.147 983.306 768.427 983.256C774.507 982.146 779.697 978.716 781.227 972.456C782.687 966.466 780.947 959.577 779.717 953.698C778.667 948.69 777.718 942.296 774.494 938.005C785.854 923.535 793.243 905.327 797.956 887.822C803.09 868.751 805.239 848.845 805.694 829.137C806.222 806.305 804.501 783.604 800.588 761.28C800.496 756.549 800.278 751.82 799.927 747.096C796.487 700.737 782.047 645.867 736.267 624.206C736.087 624.117 735.897 624.036 735.707 623.956C732.117 619.666 727.637 615.806 724.017 612.197C717.607 605.796 710.907 599.676 703.807 594.036C689.747 582.867 674.327 573.947 658.297 565.916C642.087 557.786 625.637 550.157 609.797 541.286C595.997 533.546 583.577 524.226 571.787 513.706C558.537 501.876 549.107 485.926 545.407 468.516C545.217 467.607 543.867 467.857 543.847 468.726C542.877 500.636 564.417 528.836 589.207 546.676C618.847 567.987 654.637 578.076 684.697 598.737C692.167 603.867 699.157 609.657 705.807 615.806C695.617 614.766 685.247 615.426 675.697 618.246C671.937 618.016 668.157 617.947 664.387 617.766C655.767 617.336 647.137 616.937 638.507 616.556C620.917 615.777 603.317 615.067 585.717 614.447C551.187 613.226 516.647 612.306 482.107 611.697C412.697 610.466 343.197 610.226 273.797 612.237C254.977 612.777 156.017 609.027 146.857 610.086C160.327 598.426 175.107 588.907 191.357 581.076C211.687 571.306 232.697 564.786 254.407 558.826C299.117 546.556 345.547 534.726 381.327 503.556C390.217 495.806 398.117 486.897 404.587 477.027C410.767 467.607 417.637 455.546 417.807 444.056C417.927 435.897 406.567 432.926 402.527 439.916C400.017 444.246 398.777 448.996 396.727 453.536C394.687 458.036 392.267 462.376 389.577 466.527C384.287 474.687 377.727 481.966 370.587 488.536C355.367 502.556 336.927 512.826 317.847 520.596C274.527 538.226 227.147 545.666 186.097 568.907C168.137 579.076 150.947 593.107 140.157 611.006C138.417 611.277 136.687 611.596 134.957 611.956C136.247 610.326 137.547 608.697 138.857 607.076C139.717 606.016 138.387 604.617 137.337 605.556C116.927 623.716 98.1274 643.326 81.0874 664.706C64.7874 685.166 49.5874 706.608 38.8274 730.568C19.4874 773.608 15.2274 822.836 25.2174 868.857C27.9374 881.396 31.7774 893.676 36.6674 905.546C39.1874 911.676 41.9174 917.716 44.9574 923.607" fill="black"/>
<path fill-rule="evenodd" clip-rule="evenodd" d="M690.901 226.053C687.111 163.851 666.927 93.3305 607.523 62.7905C476.564 10.2325 304.38 142.588 295.264 277.8C292.086 324.084 317.784 374.659 364.745 387.527C375.186 401.36 390.976 409.808 406.561 417.14C592.188 513.447 712.095 435.16 690.901 226.053V226.053Z" fill="white"/>
<path fill-rule="evenodd" clip-rule="evenodd" d="M733.5 199.517C726.94 181.297 720.205 163.217 712.915 145.277C705.815 127.817 699.402 109.98 690.585 93.3471C637.925 -5.99291 542.166 -5.99291 492.666 6.98709C466.996 -4.07291 418.915 -0.95317 392.185 9.02709C348.913 25.1841 283.932 121.723 271.506 165.5C251.006 237.723 176.5 587 193.006 609.5C196.463 619.022 412.305 1035.26 330.395 734C347.772 1090.26 151.067 815.851 193.006 768.5C181.158 780.222 250.735 761.845 240.5 775.066C230.329 788.205 175.506 710.053 193.006 609.5C182.506 652.553 153.858 662.279 169.506 690C183.12 714.12 144.835 732.287 172.006 734C170.153 739.086 216.006 740.5 193.006 736C239.006 779.5 228.496 763.74 233.506 768.5C248.856 783.1 250.636 785.02 271.506 785.5C206.648 879.853 340.285 721.15 341.365 722C354.135 732.05 378.405 778.35 393.065 785.5C402.995 790.35 408.375 666.457 418.735 662.957C423.435 666.097 431.145 665.437 435.805 662.867C443.465 658.647 449.695 651.047 453.485 643.267C462.675 624.377 460.466 603.707 458.106 583.527C455.506 561.237 453.005 538.937 450.465 516.647C448.475 499.217 451.8 473.79 446.5 457C443.76 448.3 445.736 445.617 441.096 437.757C441.216 437.097 433.19 434.62 433 434C425 430.5 430.726 433.86 427.006 430.5C426.526 430.07 420.695 426.087 420.225 425.637C418.365 423.517 416.375 421.547 414.245 419.877C413.425 419.047 412.615 418.207 411.805 417.367C405.075 410.317 398.715 402.907 393.065 394.967C387.585 387.267 382.635 379.227 377.925 371.037C373.135 362.707 369.965 353.517 365.185 345.247C364.775 344.537 363.735 344.397 363.155 344.987C361.675 346.517 360.725 348.217 360.905 350.007L360.165 350.117C359.885 347.417 357.395 345.217 354.015 345.807C348.955 346.687 344.795 347.017 340.415 345.337C341.185 340.227 341.895 335.107 342.595 329.977C343.875 320.537 345.065 311.067 346.085 301.597C348.555 302.187 351.005 303.037 353.405 304.117C356.825 305.647 360.055 307.707 362.815 310.237C365.535 312.737 367.415 316.107 370.735 317.847C374.555 319.837 379.165 316.547 378.045 312.227C375.775 303.497 362.925 298.497 354.975 296.847C352.245 296.277 349.455 296.037 346.665 296.097C347.295 290.017 347.855 283.937 348.315 277.847C348.535 274.967 348.735 272.087 348.925 269.197C355.105 267.327 361.725 266.767 368.155 267.647C370.275 269.337 372.395 271.007 374.445 272.697C380.955 278.077 387.435 283.487 393.835 288.997C394.415 289.487 394.985 289.977 395.565 290.477C399.365 293.747 404.106 290.507 403.466 285.877C398.246 247.937 408.595 222.897 435.805 199.517C465.925 173.627 579.686 171.345 615.506 126.5C632.004 129.858 626.395 141.28 641.595 165.5C662.875 199.44 656.425 222.527 658.045 261.027C659.665 299.557 663.786 339.747 655.036 377.737C646.966 412.767 625.116 442.697 591.215 456.457C590.375 456.797 589.526 457.127 588.676 457.447C571.146 464.057 552.016 465.927 533.576 462.447C513.166 458.587 496.125 449.247 479.145 437.757C478.165 437.107 476.736 438.447 477.476 439.427C499.856 469.087 543.816 478.997 578.686 471.167C580.316 470.797 567.785 678.94 569.395 678.5C561.595 700.93 578.516 656.66 588.676 678.5C594.786 691.64 579.763 839.173 635.012 709.5C647.522 719.38 598.326 708.13 607.006 722C614.956 734.71 620.616 763.16 607.006 770.5C581.068 924.613 637.925 869.103 641.595 768.5C642.895 769.5 653.706 767.5 655.036 768.5C662.656 774.25 687.195 770.1 690.585 770.5C720.685 774.07 720.725 811.57 733.695 785.5C748.925 754.9 767.385 814.64 750.605 785.5C737.145 762.12 746.64 823.09 757.18 793.5C764.581 916.133 771.036 793.64 778.506 785.5C787.026 776.23 782.731 725.853 765.5 690C761.48 701.96 773.62 680.47 765.5 690C771.37 672.52 762.416 329.677 758.006 312.227C752 272.697 746.57 235.847 733.5 199.517Z" fill="black"/>
<path fill-rule="evenodd" clip-rule="evenodd" d="M580.548 412.159C573.182 414.293 565.274 414.483 557.765 412.28C550.954 410.281 543.961 405.882 538.949 400.062C534.496 394.892 531.612 388.608 531.725 381.901C531.738 381.135 532.012 380.496 532.433 379.999C532.887 379.465 533.52 379.098 534.199 378.939C534.897 378.775 535.635 378.833 536.263 379.119C536.832 379.377 537.319 379.816 537.624 380.457C538.394 381.469 539.162 382.466 539.932 383.435C546.126 391.084 552.124 396.799 561.438 398.85C566.492 399.962 571.539 399.469 576.17 397.771C581.127 395.954 585.608 392.76 589.119 388.671C590.706 386.824 592.58 386.07 594.412 386.057C596.488 386.043 598.54 387.007 600.086 388.549C601.605 390.065 602.623 392.124 602.715 394.279C602.796 396.17 602.179 398.145 600.538 399.907C595.133 405.711 588.128 409.964 580.548 412.159Z" fill="black"/>
<path fill-rule="evenodd" clip-rule="evenodd" d="M580.321 316.367C587.872 320.957 599.378 331.66 591.255 343.04C581.692 353.073 567.925 341.569 561.141 336.366C554.85 332.334 547.782 342.705 553.618 347.413C602.642 383.708 622.537 317.567 584.14 310.97C579.912 310.243 578.342 314.947 580.321 316.367Z" fill="#231F20"/>
<path fill-rule="evenodd" clip-rule="evenodd" d="M509.681 296.17C507.254 294.618 504.399 294.085 501.235 295.525C498.762 296.649 494.426 300.398 491.407 305.325C489.343 308.697 487.879 312.651 488.183 316.771C488.254 317.728 487.901 318.433 487.343 318.955C486.903 319.367 486.267 319.669 485.519 319.764C484.885 319.844 484.175 319.772 483.598 319.592C482.5 319.249 481.918 318.536 481.699 317.955C479.586 312.343 480.497 306.08 482.865 300.43C486.061 292.805 491.866 286.418 495.669 284.359C502.176 280.833 509.853 280.671 516.37 284.262C521.918 287.319 525.387 292.253 528.837 297.283C529.57 298.353 530.298 299.414 531.05 300.457C532.558 302.546 532.708 304.619 532.124 306.396C531.477 308.364 529.828 310.026 527.766 310.895C525.859 311.699 523.647 311.812 521.689 310.986C520.036 310.288 518.518 308.929 517.558 306.622C515.94 302.736 513.246 298.45 509.681 296.17V296.17Z" fill="black"/>
<path fill-rule="evenodd" clip-rule="evenodd" d="M632.947 304.814C631.285 305.68 629.985 305.942 628.141 305.389C627.121 305.083 626.113 304.496 625.324 303.707C624.542 302.925 623.978 301.953 623.759 300.874C623.219 298.211 621.763 295.719 619.687 294.095C617.913 292.706 615.673 291.97 613.189 292.385C610.509 292.833 607.955 294.552 606.196 296.579C605.608 297.257 605.148 298.027 604.684 298.792C603.818 300.223 602.975 301.553 601.78 302.603C601.327 303.003 600.644 303.28 599.983 303.28C599.715 303.28 599.442 303.236 599.182 303.155C596.514 300.478 596.001 298.446 596.087 296.431C596.177 294.319 597.01 292.179 598.356 290.184C601.514 285.502 607.509 281.663 611.555 280.793C617.095 279.603 622.598 281.032 627.009 284.126C631.548 287.31 634.912 292.254 635.961 297.825C636.213 299.167 636.106 300.615 635.595 301.871C635.095 303.098 634.225 304.149 632.947 304.814Z" fill="#231F20"/>
<g filter="url(#filter0_d_2_38)">
<path fill-rule="evenodd" clip-rule="evenodd" d="M650 258.518C649.749 258.706 649.401 258.836 649.015 258.914C648.609 258.995 648.157 259.019 647.723 258.985C647.291 258.952 646.88 258.862 646.554 258.726C646.241 258.594 646.003 258.42 645.897 258.207C643.276 252.945 638.188 249.03 627.326 246.505C621.984 245.263 615.84 244.474 610.024 243.844C608.334 243.662 606.548 243.543 604.749 243.423C599.113 243.047 593.436 242.616 589.761 240.533C587.547 239.278 586.618 237.674 587.143 236.206C587.638 234.824 589.404 233.557 592.614 232.798C600.607 230.909 610.539 232.763 618.611 234.342C619.209 234.459 619.797 234.574 620.372 234.685C628.265 236.208 635.464 238.219 641.382 241.094C646.077 243.375 650.427 246.748 652.179 250.217C653.637 253.103 653.294 256.049 650 258.518Z" fill="black"/>
<path fill-rule="evenodd" clip-rule="evenodd" d="M650 258.518C649.749 258.706 649.401 258.836 649.015 258.914C648.609 258.995 648.157 259.019 647.723 258.985C647.291 258.952 646.88 258.862 646.554 258.726C646.241 258.594 646.003 258.42 645.897 258.207C643.276 252.945 638.188 249.03 627.326 246.505C621.984 245.263 615.84 244.474 610.024 243.844C608.334 243.662 606.548 243.543 604.749 243.423C599.113 243.047 593.436 242.616 589.761 240.533C587.547 239.278 586.618 237.674 587.143 236.206C587.638 234.824 589.404 233.557 592.614 232.798C600.607 230.909 610.539 232.763 618.611 234.342C619.209 234.459 619.797 234.574 620.372 234.685C628.265 236.208 635.464 238.219 641.382 241.094C646.077 243.375 650.427 246.748 652.179 250.217C653.637 253.103 653.294 256.049 650 258.518Z" stroke="black"/>
</g>
<g filter="url(#filter1_d_2_38)">
<path fill-rule="evenodd" clip-rule="evenodd" d="M461 258.518C461.251 258.706 461.599 258.836 461.985 258.914C462.391 258.995 462.843 259.019 463.277 258.985C463.709 258.952 464.12 258.862 464.446 258.726C464.759 258.594 464.997 258.42 465.103 258.207C467.724 252.945 472.812 249.03 483.674 246.505C489.016 245.263 495.16 244.474 500.976 243.844C502.666 243.662 504.452 243.543 506.251 243.423C511.887 243.047 517.564 242.616 521.239 240.533C523.453 239.278 524.382 237.674 523.857 236.206C523.362 234.824 521.596 233.557 518.386 232.798C510.393 230.909 500.461 232.763 492.389 234.342C491.791 234.459 491.203 234.574 490.628 234.685C482.735 236.208 475.536 238.219 469.618 241.094C464.923 243.375 460.573 246.748 458.821 250.217C457.363 253.103 457.706 256.049 461 258.518Z" fill="black"/>
<path fill-rule="evenodd" clip-rule="evenodd" d="M461 258.518C461.251 258.706 461.599 258.836 461.985 258.914C462.391 258.995 462.843 259.019 463.277 258.985C463.709 258.952 464.12 258.862 464.446 258.726C464.759 258.594 464.997 258.42 465.103 258.207C467.724 252.945 472.812 249.03 483.674 246.505C489.016 245.263 495.16 244.474 500.976 243.844C502.666 243.662 504.452 243.543 506.251 243.423C511.887 243.047 517.564 242.616 521.239 240.533C523.453 239.278 524.382 237.674 523.857 236.206C523.362 234.824 521.596 233.557 518.386 232.798C510.393 230.909 500.461 232.763 492.389 234.342C491.791 234.459 491.203 234.574 490.628 234.685C482.735 236.208 475.536 238.219 469.618 241.094C464.923 243.375 460.573 246.748 458.821 250.217C457.363 253.103 457.706 256.049 461 258.518Z" stroke="black"/>
</g>
<defs>
<filter id="filter0_d_2_38" x="582.497" y="231.5" width="75.0034" height="35.9995" filterUnits="userSpaceOnUse" color-interpolation-filters="sRGB">
<feFlood flood-opacity="0" result="BackgroundImageFix"/>
<feColorMatrix in="SourceAlpha" type="matrix" values="0 0 0 0 0 0 0 0 0 0 0 0 0 0 0 0 0 0 127 0" result="hardAlpha"/>
<feOffset dy="4"/>
<feGaussianBlur stdDeviation="2"/>
<feComposite in2="hardAlpha" operator="out"/>
<feColorMatrix type="matrix" values="0 0 0 0 0 0 0 0 0 0 0 0 0 0 0 0 0 0 0.25 0"/>
<feBlend mode="normal" in2="BackgroundImageFix" result="effect1_dropShadow_2_38"/>
<feBlend mode="normal" in="SourceGraphic" in2="effect1_dropShadow_2_38" result="shape"/>
</filter>
<filter id="filter1_d_2_38" x="453.5" y="231.5" width="75.0034" height="35.9995" filterUnits="userSpaceOnUse" color-interpolation-filters="sRGB">
<feFlood flood-opacity="0" result="BackgroundImageFix"/>
<feColorMatrix in="SourceAlpha" type="matrix" values="0 0 0 0 0 0 0 0 0 0 0 0 0 0 0 0 0 0 127 0" result="hardAlpha"/>
<feOffset dy="4"/>
<feGaussianBlur stdDeviation="2"/>
<feComposite in2="hardAlpha" operator="out"/>
<feColorMatrix type="matrix" values="0 0 0 0 0 0 0 0 0 0 0 0 0 0 0 0 0 0 0.25 0"/>
<feBlend mode="normal" in2="BackgroundImageFix" result="effect1_dropShadow_2_38"/>
<feBlend mode="normal" in="SourceGraphic" in2="effect1_dropShadow_2_38" result="shape"/>
</filter>
</defs>
</svg>
