<svg xmlns="http://www.w3.org/2000/svg" xmlns:xlink="http://www.w3.org/1999/xlink" width="1000" zoomAndPan="magnify" viewBox="0 0 750 374.999991" height="500" preserveAspectRatio="xMidYMid meet" version="1.0"><defs><g/><clipPath id="id1"><path d="M 19.371094 112.078125 L 730.371094 112.078125 L 730.371094 264.328125 L 19.371094 264.328125 Z M 19.371094 112.078125 " clip-rule="nonzero"/></clipPath></defs><g clip-path="url(#id1)"><path fill="#ffdcba" d="M 603.558594 139.191406 C 614.097656 138.660156 624.585938 137.851562 635.101562 137.210938 C 656.1875 136.046875 677.058594 134.117188 698.023438 132.507812 C 697 137.894531 696.035156 143.492188 699.074219 148.128906 C 699.074219 148.128906 702.316406 147.707031 706.332031 146.929688 C 710.355469 146.199219 715.1875 145.328125 718.40625 144.742188 C 745.652344 152.691406 741.898438 171.394531 729.941406 186.449219 C 726.832031 189.628906 723.320312 193.21875 719.328125 196.886719 C 715.96875 196.960938 712.601562 197.03125 709.277344 197.105469 C 694.125 197.519531 679.195312 198.25 664.136719 199.519531 C 649.171875 200.429688 634.144531 201.648438 618.921875 203.003906 C 588.519531 205.371094 579.519531 208.046875 546.65625 208.460938 C 500.554688 207.734375 592.4375 204.871094 546.65625 208.460938 C 601.019531 206.550781 512.644531 212.371094 567.949219 209.347656 C 581.792969 208.652344 573.429688 207.957031 587.183594 207.269531 C 600.972656 206.769531 614.699219 206.265625 628.34375 205.769531 C 642.039062 205.273438 655.597656 205.222656 669.191406 205.003906 C 682.820312 204.683594 696.289062 204.785156 709.816406 204.914062 C 699.625 212.585938 687.273438 219.078125 672.296875 221.25 C 636.585938 223.59375 601.371094 225.898438 566.457031 228.1875 C 566.296875 225.621094 539.164062 230.292969 515.171875 231.832031 C 491.191406 233.203125 467.566406 228.488281 443.785156 229.039062 C 396.199219 230.296875 301.464844 245.050781 300.808594 246.75 C 300.570312 246.773438 300.335938 246.792969 300.113281 246.8125 C 300.335938 246.792969 300.570312 246.773438 300.808594 246.75 C 300.21875 248.242188 300.667969 249.332031 306.773438 248.902344 C 300.667969 249.332031 300.21875 248.242188 300.808594 246.75 C 397.296875 237.449219 465.46875 233.03125 562.484375 228.480469 C 487.242188 233.515625 435.878906 239.449219 361.871094 245.597656 C 287.878906 251.707031 213.464844 257.894531 136.714844 262.605469 C 130.183594 263.003906 117.089844 263.800781 110.542969 264.199219 C 84.09375 258.125 57.804688 257.109375 31.691406 258.601562 C 37.769531 245.484375 10.722656 221.515625 63.203125 223.589844 C 63.113281 221.042969 62.933594 215.945312 62.84375 213.398438 C 36.421875 208.558594 18.234375 197.445312 12.441406 186.011719 C 9.777344 180.324219 10.109375 174.410156 14.894531 169.144531 C 19.867188 163.84375 28.167969 159.230469 41.175781 155.929688 C 99.539062 142.367188 178.195312 147.808594 249.703125 137.878906 C 301.765625 131.84375 353.761719 125.566406 406.054688 126.609375 C 478.035156 128.691406 533.761719 119.511719 605.539062 121.796875 C 618.550781 121.582031 636.183594 118.132812 652.257812 115.578125 C 668.25 112.851562 682.527344 110.664062 689.292969 113.589844 C 698.808594 115.921875 699.722656 121.253906 698.890625 127.464844 C 677.703125 130.015625 656.640625 132.9375 635.386719 134.957031 C 624.785156 136.03125 614.234375 137.25 603.644531 138.164062 C 593.054688 139.039062 582.488281 139.910156 571.953125 140.777344 " fill-opacity="1" fill-rule="nonzero"/></g><g fill="#000000" fill-opacity="1"><g transform="translate(148.160958, 224.391079)"><g><path d="M 6.464844 -73.519531 C 12.453125 -73.519531 16.285156 -73.519531 17.960938 -73.398438 L 29.335938 -73.28125 C 30.292969 -65.015625 30.773438 -56.636719 30.773438 -48.015625 C 30.773438 -31.96875 29.097656 -20.117188 25.625 -12.453125 C 23.828125 -8.621094 22.75 -7.183594 19.757812 -6.707031 C 14.367188 -6.824219 11.496094 -10.175781 11.496094 -15.328125 C 11.496094 -16.285156 11.734375 -17.722656 12.09375 -19.757812 C 11.496094 -21.433594 10.058594 -22.269531 7.664062 -22.269531 C 2.992188 -22.269531 1.914062 -19.996094 1.914062 -15.207031 C 1.914062 -6.464844 8.742188 -1.914062 20.117188 -1.914062 C 24.425781 -1.914062 28.855469 -3.113281 31.371094 -5.988281 C 38.4375 -13.769531 40.230469 -26.703125 40.230469 -47.773438 L 40.230469 -49.691406 C 40.230469 -57.953125 39.753906 -66.695312 38.675781 -75.675781 C 38.078125 -77.230469 36.28125 -78.070312 33.527344 -78.070312 L 19.996094 -78.1875 C 17.960938 -78.308594 13.53125 -78.308594 6.464844 -78.308594 C 5.148438 -78.1875 4.191406 -77.949219 3.351562 -77.351562 C 2.515625 -76.871094 2.15625 -76.394531 2.15625 -75.914062 C 2.15625 -74.714844 3.59375 -73.878906 6.464844 -73.519531 Z M 6.464844 -73.519531 "/></g></g></g><g fill="#000000" fill-opacity="1"><g transform="translate(191.727548, 224.391079)"><g><path d="M 52.324219 -79.386719 C 47.894531 -79.386719 41.429688 -79.503906 32.808594 -79.746094 C 26.34375 -79.984375 19.875 -80.105469 13.410156 -80.105469 L 12.332031 -79.984375 C 10.777344 -79.625 9.699219 -79.027344 9.101562 -78.070312 C 8.5 -68.25 8.140625 -59.03125 8.140625 -50.527344 C 8.140625 -46.097656 8.140625 -43.226562 8.261719 -41.90625 L 3.953125 -41.90625 C 2.632812 -41.789062 1.675781 -41.550781 0.839844 -40.949219 C 0 -40.472656 -0.359375 -39.992188 -0.359375 -39.511719 C -0.359375 -38.316406 1.078125 -37.476562 3.953125 -37.117188 L 8.5 -37.117188 C 8.980469 -28.378906 9.460938 -22.152344 10.058594 -18.558594 C 10.417969 -15.445312 10.894531 -12.691406 11.375 -10.296875 C 12.214844 -5.628906 14.128906 -1.914062 17.003906 0.839844 C 18.917969 2.394531 24.066406 3.234375 28.738281 3.234375 L 31.132812 3.351562 C 36.757812 3.351562 48.375 1.4375 55.679688 -0.839844 C 59.390625 -1.914062 61.304688 -2.992188 61.304688 -4.070312 C 61.304688 -5.507812 59.152344 -6.464844 56.636719 -6.464844 C 55.679688 -6.464844 54.480469 -6.226562 53.164062 -5.867188 L 49.453125 -4.789062 C 41.308594 -2.394531 36.398438 -1.4375 31.011719 -1.4375 C 28.976562 -1.4375 26.820312 -1.675781 24.785156 -2.15625 L 22.871094 -4.191406 C 19.996094 -13.289062 19.039062 -22.03125 18.558594 -37.238281 L 26.820312 -37.117188 C 30.773438 -37.117188 34.246094 -37.359375 37.238281 -37.71875 C 39.753906 -38.078125 41.070312 -38.796875 41.070312 -39.871094 C 41.070312 -40.472656 40.589844 -41.070312 39.753906 -41.550781 C 38.914062 -42.027344 37.597656 -42.265625 36.042969 -42.265625 L 18.441406 -42.027344 L 18.082031 -51.605469 C 17.722656 -59.152344 17.480469 -67.171875 17.480469 -75.675781 C 22.628906 -75.675781 28.496094 -75.554688 34.964844 -75.195312 C 41.550781 -74.835938 47.417969 -74.597656 52.324219 -74.597656 C 53.882812 -74.597656 55.199219 -74.835938 56.039062 -75.316406 C 56.875 -75.792969 57.355469 -76.394531 57.355469 -76.992188 C 57.355469 -77.589844 56.875 -78.070312 56.039062 -78.546875 C 55.320312 -78.90625 54.121094 -79.265625 52.324219 -79.386719 Z M 52.324219 -79.386719 "/></g></g></g><g fill="#000000" fill-opacity="1"><g transform="translate(250.135514, 224.391079)"><g><path d="M 8.859375 -27.417969 L 10.777344 -27.417969 C 9.460938 -19.515625 8.621094 -11.015625 8.140625 -2.035156 C 8.140625 -0.121094 9.9375 0.839844 12.453125 0.839844 C 15.328125 0.839844 17.003906 0 17.601562 -1.675781 C 17.960938 -9.21875 18.796875 -17.960938 20.234375 -27.660156 L 33.046875 -28.496094 C 42.148438 -29.214844 48.015625 -29.574219 50.527344 -29.695312 C 50.769531 -24.308594 50.886719 -18.917969 50.886719 -13.53125 C 50.886719 -5.628906 50.769531 0.957031 50.410156 6.105469 C 50.410156 8.023438 52.207031 8.980469 54.71875 8.980469 C 57.59375 8.980469 59.269531 8.140625 59.867188 6.464844 C 60.226562 -1.796875 60.46875 -8.621094 60.46875 -14.007812 L 60.46875 -19.875 C 60.46875 -57.953125 53.402344 -76.992188 39.152344 -76.992188 C 33.765625 -76.992188 29.214844 -74.957031 25.742188 -70.882812 C 19.15625 -63.222656 16.164062 -54 12.933594 -38.316406 L 11.855469 -33.40625 L 8.859375 -33.40625 C 7.066406 -33.167969 5.628906 -32.808594 4.789062 -32.210938 C 3.710938 -31.609375 3.234375 -31.011719 3.234375 -30.292969 C 3.234375 -29.574219 3.710938 -28.976562 4.789062 -28.496094 C 5.746094 -27.898438 7.066406 -27.539062 8.859375 -27.417969 Z M 48.851562 -46.699219 L 50.050781 -35.683594 L 38.675781 -34.964844 L 35.800781 -34.722656 C 27.898438 -34.125 22.988281 -33.886719 21.195312 -33.765625 C 23.828125 -47.894531 27.539062 -58.671875 32.210938 -66.09375 C 34.003906 -69.089844 36.519531 -71.84375 38.4375 -71.84375 C 41.429688 -71.84375 43.585938 -69.328125 45.140625 -64.300781 C 46.457031 -59.628906 47.773438 -53.761719 48.851562 -46.699219 Z M 48.851562 -46.699219 "/></g></g></g><g fill="#000000" fill-opacity="1"><g transform="translate(317.639755, 224.391079)"><g><path d="M 14.367188 -1.316406 L 20.953125 -63.101562 L 43.945312 -1.199219 C 44.78125 0.121094 46.9375 0.957031 48.972656 0.957031 C 51.367188 0.957031 52.804688 0.121094 53.402344 -1.554688 C 53.402344 -8.5 53.882812 -21.671875 54.71875 -40.949219 C 55.558594 -59.988281 55.917969 -73.160156 55.917969 -80.222656 C 55.320312 -81.660156 53.164062 -82.738281 50.769531 -82.738281 C 48.375 -82.738281 46.457031 -81.660156 46.457031 -79.863281 C 46.457031 -75.675781 46.097656 -66.8125 45.261719 -53.285156 C 44.421875 -39.753906 44.0625 -31.011719 44.0625 -27.179688 C 37.597656 -44.183594 30.652344 -62.980469 23.230469 -83.695312 C 21.433594 -85.492188 20.234375 -86.089844 18.199219 -86.089844 C 16.285156 -86.089844 13.648438 -84.894531 13.648438 -83.578125 L 13.648438 -83.097656 C 11.613281 -65.015625 8.742188 -37.957031 4.910156 -1.675781 C 4.910156 0.238281 6.707031 1.199219 9.21875 1.199219 C 12.09375 1.199219 13.769531 0.359375 14.367188 -1.316406 Z M 14.367188 -1.316406 "/></g></g></g><g fill="#000000" fill-opacity="1"><g transform="translate(379.638351, 224.391079)"><g><path d="M 52.324219 -79.386719 C 47.894531 -79.386719 41.429688 -79.503906 32.808594 -79.746094 C 26.34375 -79.984375 19.875 -80.105469 13.410156 -80.105469 L 12.332031 -79.984375 C 10.777344 -79.625 9.699219 -79.027344 9.101562 -78.070312 C 8.5 -68.25 8.140625 -59.03125 8.140625 -50.527344 C 8.140625 -46.097656 8.140625 -43.226562 8.261719 -41.90625 L 3.953125 -41.90625 C 2.632812 -41.789062 1.675781 -41.550781 0.839844 -40.949219 C 0 -40.472656 -0.359375 -39.992188 -0.359375 -39.511719 C -0.359375 -38.316406 1.078125 -37.476562 3.953125 -37.117188 L 8.5 -37.117188 C 8.980469 -28.378906 9.460938 -22.152344 10.058594 -18.558594 C 10.417969 -15.445312 10.894531 -12.691406 11.375 -10.296875 C 12.214844 -5.628906 14.128906 -1.914062 17.003906 0.839844 C 18.917969 2.394531 24.066406 3.234375 28.738281 3.234375 L 31.132812 3.351562 C 36.757812 3.351562 48.375 1.4375 55.679688 -0.839844 C 59.390625 -1.914062 61.304688 -2.992188 61.304688 -4.070312 C 61.304688 -5.507812 59.152344 -6.464844 56.636719 -6.464844 C 55.679688 -6.464844 54.480469 -6.226562 53.164062 -5.867188 L 49.453125 -4.789062 C 41.308594 -2.394531 36.398438 -1.4375 31.011719 -1.4375 C 28.976562 -1.4375 26.820312 -1.675781 24.785156 -2.15625 L 22.871094 -4.191406 C 19.996094 -13.289062 19.039062 -22.03125 18.558594 -37.238281 L 26.820312 -37.117188 C 30.773438 -37.117188 34.246094 -37.359375 37.238281 -37.71875 C 39.753906 -38.078125 41.070312 -38.796875 41.070312 -39.871094 C 41.070312 -40.472656 40.589844 -41.070312 39.753906 -41.550781 C 38.914062 -42.027344 37.597656 -42.265625 36.042969 -42.265625 L 18.441406 -42.027344 L 18.082031 -51.605469 C 17.722656 -59.152344 17.480469 -67.171875 17.480469 -75.675781 C 22.628906 -75.675781 28.496094 -75.554688 34.964844 -75.195312 C 41.550781 -74.835938 47.417969 -74.597656 52.324219 -74.597656 C 53.882812 -74.597656 55.199219 -74.835938 56.039062 -75.316406 C 56.875 -75.792969 57.355469 -76.394531 57.355469 -76.992188 C 57.355469 -77.589844 56.875 -78.070312 56.039062 -78.546875 C 55.320312 -78.90625 54.121094 -79.265625 52.324219 -79.386719 Z M 52.324219 -79.386719 "/></g></g></g><g fill="#000000" fill-opacity="1"><g transform="translate(438.046317, 224.391079)"><g><path d="M 22.152344 -82.378906 C 22.152344 -81.78125 21.671875 -81.542969 20.59375 -81.421875 C 19.15625 -81.300781 17.363281 -81.183594 15.207031 -81.183594 L 13.53125 -81.183594 C 10.417969 -81.183594 8.023438 -81.0625 6.226562 -80.824219 C 4.429688 -80.464844 3.472656 -79.746094 3.472656 -78.789062 C 3.472656 -77.589844 4.910156 -76.75 7.78125 -76.394531 C 12.453125 -76.394531 17.121094 -76.511719 21.792969 -76.75 C 19.875 -38.554688 19.15625 -22.628906 19.15625 -1.675781 C 19.15625 0.238281 20.953125 1.199219 23.46875 1.199219 C 26.34375 1.199219 28.019531 0.359375 28.617188 -1.316406 C 29.097656 -9.699219 29.574219 -22.390625 30.054688 -39.273438 C 30.414062 -53.285156 30.890625 -65.855469 31.371094 -77.230469 C 32.089844 -77.351562 33.765625 -77.351562 36.519531 -77.351562 C 42.027344 -77.46875 46.21875 -77.710938 48.972656 -78.070312 C 51.726562 -78.429688 53.042969 -79.148438 53.042969 -80.222656 C 53.042969 -80.824219 52.566406 -81.421875 51.726562 -81.902344 C 50.886719 -82.378906 49.691406 -82.617188 48.015625 -82.617188 C 41.429688 -82.617188 35.921875 -82.5 31.492188 -82.140625 C 30.890625 -83.578125 29.214844 -84.414062 27.179688 -84.414062 C 25.144531 -84.414062 23.109375 -83.695312 22.152344 -82.378906 Z M 22.152344 -82.378906 "/></g></g></g><g fill="#000000" fill-opacity="1"><g transform="translate(490.70924, 224.391079)"><g><path d="M 22.152344 -82.378906 C 22.152344 -81.78125 21.671875 -81.542969 20.59375 -81.421875 C 19.15625 -81.300781 17.363281 -81.183594 15.207031 -81.183594 L 13.53125 -81.183594 C 10.417969 -81.183594 8.023438 -81.0625 6.226562 -80.824219 C 4.429688 -80.464844 3.472656 -79.746094 3.472656 -78.789062 C 3.472656 -77.589844 4.910156 -76.75 7.78125 -76.394531 C 12.453125 -76.394531 17.121094 -76.511719 21.792969 -76.75 C 19.875 -38.554688 19.15625 -22.628906 19.15625 -1.675781 C 19.15625 0.238281 20.953125 1.199219 23.46875 1.199219 C 26.34375 1.199219 28.019531 0.359375 28.617188 -1.316406 C 29.097656 -9.699219 29.574219 -22.390625 30.054688 -39.273438 C 30.414062 -53.285156 30.890625 -65.855469 31.371094 -77.230469 C 32.089844 -77.351562 33.765625 -77.351562 36.519531 -77.351562 C 42.027344 -77.46875 46.21875 -77.710938 48.972656 -78.070312 C 51.726562 -78.429688 53.042969 -79.148438 53.042969 -80.222656 C 53.042969 -80.824219 52.566406 -81.421875 51.726562 -81.902344 C 50.886719 -82.378906 49.691406 -82.617188 48.015625 -82.617188 C 41.429688 -82.617188 35.921875 -82.5 31.492188 -82.140625 C 30.890625 -83.578125 29.214844 -84.414062 27.179688 -84.414062 C 25.144531 -84.414062 23.109375 -83.695312 22.152344 -82.378906 Z M 22.152344 -82.378906 "/></g></g></g><g fill="#000000" fill-opacity="1"><g transform="translate(543.372162, 224.391079)"><g><path d="M 52.324219 -79.386719 C 47.894531 -79.386719 41.429688 -79.503906 32.808594 -79.746094 C 26.34375 -79.984375 19.875 -80.105469 13.410156 -80.105469 L 12.332031 -79.984375 C 10.777344 -79.625 9.699219 -79.027344 9.101562 -78.070312 C 8.5 -68.25 8.140625 -59.03125 8.140625 -50.527344 C 8.140625 -46.097656 8.140625 -43.226562 8.261719 -41.90625 L 3.953125 -41.90625 C 2.632812 -41.789062 1.675781 -41.550781 0.839844 -40.949219 C 0 -40.472656 -0.359375 -39.992188 -0.359375 -39.511719 C -0.359375 -38.316406 1.078125 -37.476562 3.953125 -37.117188 L 8.5 -37.117188 C 8.980469 -28.378906 9.460938 -22.152344 10.058594 -18.558594 C 10.417969 -15.445312 10.894531 -12.691406 11.375 -10.296875 C 12.214844 -5.628906 14.128906 -1.914062 17.003906 0.839844 C 18.917969 2.394531 24.066406 3.234375 28.738281 3.234375 L 31.132812 3.351562 C 36.757812 3.351562 48.375 1.4375 55.679688 -0.839844 C 59.390625 -1.914062 61.304688 -2.992188 61.304688 -4.070312 C 61.304688 -5.507812 59.152344 -6.464844 56.636719 -6.464844 C 55.679688 -6.464844 54.480469 -6.226562 53.164062 -5.867188 L 49.453125 -4.789062 C 41.308594 -2.394531 36.398438 -1.4375 31.011719 -1.4375 C 28.976562 -1.4375 26.820312 -1.675781 24.785156 -2.15625 L 22.871094 -4.191406 C 19.996094 -13.289062 19.039062 -22.03125 18.558594 -37.238281 L 26.820312 -37.117188 C 30.773438 -37.117188 34.246094 -37.359375 37.238281 -37.71875 C 39.753906 -38.078125 41.070312 -38.796875 41.070312 -39.871094 C 41.070312 -40.472656 40.589844 -41.070312 39.753906 -41.550781 C 38.914062 -42.027344 37.597656 -42.265625 36.042969 -42.265625 L 18.441406 -42.027344 L 18.082031 -51.605469 C 17.722656 -59.152344 17.480469 -67.171875 17.480469 -75.675781 C 22.628906 -75.675781 28.496094 -75.554688 34.964844 -75.195312 C 41.550781 -74.835938 47.417969 -74.597656 52.324219 -74.597656 C 53.882812 -74.597656 55.199219 -74.835938 56.039062 -75.316406 C 56.875 -75.792969 57.355469 -76.394531 57.355469 -76.992188 C 57.355469 -77.589844 56.875 -78.070312 56.039062 -78.546875 C 55.320312 -78.90625 54.121094 -79.265625 52.324219 -79.386719 Z M 52.324219 -79.386719 "/></g></g></g></svg>