<svg xmlns="http://www.w3.org/2000/svg" xmlns:xlink="http://www.w3.org/1999/xlink" width="1000" zoomAndPan="magnify" viewBox="0 0 750 374.999991" height="500" preserveAspectRatio="xMidYMid meet" version="1.0"><defs><g/><clipPath id="id1"><path d="M 19.371094 112.078125 L 730.371094 112.078125 L 730.371094 264.328125 L 19.371094 264.328125 Z M 19.371094 112.078125 " clip-rule="nonzero"/></clipPath></defs><g clip-path="url(#id1)"><path fill="#ffdcba" d="M 603.558594 139.191406 C 614.097656 138.660156 624.585938 137.851562 635.101562 137.210938 C 656.1875 136.046875 677.058594 134.117188 698.023438 132.507812 C 697 137.894531 696.035156 143.492188 699.074219 148.128906 C 699.074219 148.128906 702.316406 147.707031 706.332031 146.929688 C 710.355469 146.199219 715.1875 145.328125 718.40625 144.742188 C 745.652344 152.691406 741.898438 171.394531 729.941406 186.449219 C 726.832031 189.628906 723.320312 193.21875 719.328125 196.886719 C 715.96875 196.960938 712.601562 197.03125 709.277344 197.105469 C 694.125 197.519531 679.195312 198.25 664.136719 199.519531 C 649.171875 200.429688 634.144531 201.648438 618.921875 203.003906 C 588.519531 205.371094 579.519531 208.046875 546.65625 208.460938 C 500.554688 207.734375 592.4375 204.871094 546.65625 208.460938 C 601.019531 206.550781 512.644531 212.371094 567.949219 209.347656 C 581.792969 208.652344 573.429688 207.957031 587.183594 207.269531 C 600.972656 206.769531 614.699219 206.265625 628.34375 205.769531 C 642.039062 205.273438 655.597656 205.222656 669.191406 205.003906 C 682.820312 204.683594 696.289062 204.785156 709.816406 204.914062 C 699.625 212.585938 687.273438 219.078125 672.296875 221.25 C 636.585938 223.59375 601.371094 225.898438 566.457031 228.1875 C 566.296875 225.621094 539.164062 230.292969 515.171875 231.832031 C 491.191406 233.203125 467.566406 228.488281 443.785156 229.039062 C 396.199219 230.296875 301.464844 245.050781 300.808594 246.75 C 300.570312 246.773438 300.335938 246.792969 300.113281 246.8125 C 300.335938 246.792969 300.570312 246.773438 300.808594 246.75 C 300.21875 248.242188 300.667969 249.332031 306.773438 248.902344 C 300.667969 249.332031 300.21875 248.242188 300.808594 246.75 C 397.296875 237.449219 465.46875 233.03125 562.484375 228.480469 C 487.242188 233.515625 435.878906 239.449219 361.871094 245.597656 C 287.878906 251.707031 213.464844 257.894531 136.714844 262.605469 C 130.183594 263.003906 117.089844 263.800781 110.542969 264.199219 C 84.09375 258.121094 57.804688 257.109375 31.691406 258.601562 C 37.769531 245.484375 10.722656 221.515625 63.203125 223.589844 C 63.113281 221.042969 62.933594 215.945312 62.84375 213.398438 C 36.421875 208.558594 18.234375 197.445312 12.441406 186.011719 C 9.777344 180.324219 10.109375 174.40625 14.894531 169.144531 C 19.867188 163.84375 28.167969 159.230469 41.175781 155.929688 C 99.539062 142.367188 178.195312 147.808594 249.703125 137.878906 C 301.765625 131.84375 353.761719 125.566406 406.054688 126.609375 C 478.035156 128.691406 533.761719 119.511719 605.539062 121.796875 C 618.550781 121.582031 636.183594 118.132812 652.257812 115.578125 C 668.25 112.851562 682.527344 110.664062 689.292969 113.589844 C 698.808594 115.921875 699.722656 121.253906 698.890625 127.464844 C 677.703125 130.015625 656.640625 132.9375 635.386719 134.957031 C 624.785156 136.03125 614.234375 137.25 603.644531 138.164062 C 593.054688 139.039062 582.488281 139.90625 571.953125 140.777344 " fill-opacity="1" fill-rule="nonzero"/></g><g fill="#000000" fill-opacity="1"><g transform="translate(160.588843, 224.396116)"><g><path d="M 16.761719 -0.238281 C 15.925781 -14.007812 15.445312 -28.976562 15.085938 -45.378906 L 14.128906 -73.519531 L 18.917969 -69.207031 C 21.792969 -66.695312 24.1875 -64.417969 25.984375 -62.621094 C 27.300781 -61.304688 28.738281 -60.707031 30.414062 -60.707031 C 31.730469 -60.707031 32.6875 -61.1875 34.722656 -62.980469 L 41.667969 -71.601562 L 42.027344 -52.207031 L 42.148438 -48.132812 L 42.265625 -41.90625 C 42.386719 -34.722656 42.746094 -13.289062 42.746094 -2.15625 C 42.746094 -0.238281 44.542969 0.71875 47.058594 0.71875 C 49.929688 0.71875 51.605469 -0.121094 52.207031 -1.796875 C 52.207031 -12.933594 52.085938 -26.582031 51.726562 -42.746094 C 51.367188 -59.390625 51.128906 -72.921875 51.128906 -83.578125 C 50.527344 -85.132812 49.09375 -85.972656 46.9375 -85.972656 C 45.140625 -85.972656 43.464844 -85.492188 42.148438 -84.65625 L 41.789062 -84.296875 L 36.28125 -77.589844 L 29.574219 -69.449219 C 22.390625 -75.792969 17.003906 -80.703125 13.410156 -84.296875 C 12.332031 -85.253906 10.058594 -85.972656 8.023438 -85.972656 C 5.507812 -85.972656 4.191406 -85.015625 4.191406 -83.21875 C 4.191406 -60.347656 4.910156 -42.867188 7.304688 0.121094 C 8.261719 1.4375 10.296875 2.273438 12.332031 2.273438 C 14.726562 2.273438 16.164062 1.4375 16.761719 -0.238281 Z M 16.761719 -0.238281 "/></g></g></g><g fill="#000000" fill-opacity="1"><g transform="translate(217.081794, 224.396116)"><g><path d="M 7.066406 0.480469 C 17.003906 1.078125 22.75 1.4375 24.308594 1.4375 C 27.0625 1.4375 28.496094 0.71875 28.496094 -0.839844 C 28.496094 -1.914062 27.417969 -2.753906 25.382812 -3.113281 C 24.785156 -3.472656 23.230469 -3.59375 20.714844 -3.59375 L 18.917969 -42.265625 C 18.917969 -43.105469 18.796875 -44.542969 18.679688 -46.816406 C 18.320312 -56.515625 17.839844 -67.890625 17.121094 -80.941406 L 18.917969 -80.941406 C 20.59375 -80.941406 21.792969 -81.183594 22.628906 -81.660156 C 23.46875 -82.140625 23.949219 -82.738281 23.949219 -83.335938 C 23.949219 -83.9375 23.46875 -84.414062 22.628906 -84.894531 C 21.910156 -85.253906 20.714844 -85.613281 18.917969 -85.730469 L 5.746094 -85.730469 C 4.429688 -85.613281 3.472656 -85.371094 2.632812 -84.773438 C 1.796875 -84.296875 1.4375 -83.816406 1.4375 -83.335938 C 1.4375 -82.140625 2.875 -81.300781 5.746094 -80.941406 L 7.542969 -80.941406 L 7.664062 -77.828125 C 8.5 -62.382812 8.980469 -52.566406 9.101562 -48.375 L 9.9375 -30.054688 L 10.175781 -24.664062 C 10.296875 -21.910156 10.535156 -18.917969 10.65625 -15.566406 C 10.777344 -12.09375 11.015625 -8.382812 11.253906 -4.191406 L 9.460938 -4.3125 C 6.105469 -4.3125 3.113281 -2.875 3.113281 -1.4375 C 3.113281 -0.597656 4.429688 0.121094 7.066406 0.480469 Z M 7.066406 0.480469 "/></g></g></g><g fill="#000000" fill-opacity="1"><g transform="translate(247.602353, 224.396116)"><g><path d="M 55.679688 -76.035156 C 48.132812 -80.34375 39.394531 -82.976562 31.132812 -82.976562 C 13.769531 -82.976562 3.234375 -70.40625 3.234375 -46.457031 C 3.234375 -41.070312 3.953125 -35.203125 5.269531 -28.855469 C 8.140625 -15.085938 16.042969 -5.027344 28.976562 -5.027344 C 36.160156 -5.027344 39.753906 -6.585938 48.253906 -11.855469 L 52.324219 -14.367188 C 53.042969 -15.085938 53.402344 -15.6875 53.402344 -16.042969 C 53.402344 -16.644531 52.925781 -17.121094 51.847656 -17.480469 C 50.769531 -17.722656 49.570312 -17.839844 48.253906 -17.839844 C 47.65625 -17.839844 46.699219 -17.722656 45.261719 -17.601562 C 38.675781 -13.171875 33.285156 -11.015625 29.097656 -11.015625 C 26.582031 -11.015625 24.425781 -11.734375 22.871094 -13.050781 C 19.636719 -15.566406 18.441406 -18.199219 15.445312 -25.984375 C 13.410156 -31.011719 12.453125 -37.71875 12.453125 -45.980469 C 12.453125 -64.539062 18.679688 -78.308594 32.089844 -78.308594 C 36.757812 -78.308594 42.265625 -76.511719 48.613281 -72.800781 C 49.210938 -72.5625 50.171875 -72.441406 51.605469 -72.441406 C 53.042969 -72.441406 54.242188 -72.5625 55.320312 -72.921875 C 56.277344 -73.28125 56.753906 -73.757812 56.753906 -74.355469 C 56.753906 -74.714844 56.394531 -75.316406 55.679688 -76.035156 Z M 55.679688 -76.035156 "/></g></g></g><g fill="#000000" fill-opacity="1"><g transform="translate(306.369332, 224.396116)"><g><path d="M 7.304688 -34.484375 L 11.136719 -34.722656 L 13.53125 3.351562 C 14.367188 4.667969 16.523438 5.507812 18.558594 5.507812 C 20.953125 5.507812 22.390625 4.667969 22.988281 2.992188 C 22.75 0.121094 22.390625 -6.347656 21.792969 -16.402344 L 20.714844 -35.203125 L 29.457031 -35.441406 C 40.949219 -35.800781 49.570312 -36.160156 55.320312 -36.519531 C 55.917969 -22.511719 56.15625 -9.699219 56.15625 1.675781 C 56.15625 3.59375 57.953125 4.550781 60.46875 4.550781 C 63.339844 4.550781 65.015625 3.710938 65.617188 2.035156 C 65.617188 -4.789062 65.375 -16.882812 64.898438 -34.363281 L 64.777344 -39.871094 C 64.179688 -59.628906 63.820312 -73.636719 63.820312 -81.660156 C 63.222656 -83.097656 61.066406 -84.175781 58.671875 -84.175781 C 56.277344 -84.175781 54.359375 -83.097656 54.359375 -81.300781 C 54.359375 -69.207031 54.601562 -55.917969 55.199219 -41.308594 C 49.332031 -40.949219 40.710938 -40.589844 29.097656 -40.230469 L 20.355469 -39.992188 L 17.960938 -80.34375 C 17.363281 -81.78125 15.207031 -82.859375 12.8125 -82.859375 C 10.417969 -82.859375 8.5 -81.78125 8.5 -79.984375 C 8.742188 -77.109375 9.101562 -70.40625 9.699219 -59.75 L 10.777344 -39.511719 L 5.386719 -39.152344 C 2.515625 -38.796875 1.078125 -38.078125 1.078125 -37 C 1.078125 -36.28125 1.675781 -35.683594 2.875 -35.203125 C 3.953125 -34.722656 5.507812 -34.484375 7.304688 -34.484375 Z M 7.304688 -34.484375 "/></g></g></g><g fill="#000000" fill-opacity="1"><g transform="translate(375.908314, 224.396116)"><g><path d="M 52.324219 -79.386719 C 47.894531 -79.386719 41.429688 -79.503906 32.808594 -79.746094 C 26.34375 -79.984375 19.875 -80.105469 13.410156 -80.105469 L 12.332031 -79.984375 C 10.777344 -79.625 9.699219 -79.027344 9.101562 -78.070312 C 8.5 -68.25 8.140625 -59.03125 8.140625 -50.527344 C 8.140625 -46.097656 8.140625 -43.226562 8.261719 -41.90625 L 3.953125 -41.90625 C 2.632812 -41.789062 1.675781 -41.550781 0.839844 -40.949219 C 0 -40.472656 -0.359375 -39.992188 -0.359375 -39.511719 C -0.359375 -38.316406 1.078125 -37.476562 3.953125 -37.117188 L 8.5 -37.117188 C 8.980469 -28.378906 9.460938 -22.152344 10.058594 -18.558594 C 10.417969 -15.445312 10.894531 -12.691406 11.375 -10.296875 C 12.214844 -5.628906 14.128906 -1.914062 17.003906 0.839844 C 18.917969 2.394531 24.066406 3.234375 28.738281 3.234375 L 31.132812 3.351562 C 36.757812 3.351562 48.375 1.4375 55.679688 -0.839844 C 59.390625 -1.914062 61.304688 -2.992188 61.304688 -4.070312 C 61.304688 -5.507812 59.152344 -6.464844 56.636719 -6.464844 C 55.679688 -6.464844 54.480469 -6.226562 53.164062 -5.867188 L 49.453125 -4.789062 C 41.308594 -2.394531 36.398438 -1.4375 31.011719 -1.4375 C 28.976562 -1.4375 26.820312 -1.675781 24.785156 -2.15625 L 22.871094 -4.191406 C 19.996094 -13.289062 19.039062 -22.03125 18.558594 -37.238281 L 26.820312 -37.117188 C 30.773438 -37.117188 34.246094 -37.359375 37.238281 -37.71875 C 39.753906 -38.078125 41.070312 -38.796875 41.070312 -39.871094 C 41.070312 -40.472656 40.589844 -41.070312 39.753906 -41.550781 C 38.914062 -42.027344 37.597656 -42.265625 36.042969 -42.265625 L 18.441406 -42.027344 L 18.082031 -51.605469 C 17.722656 -59.152344 17.480469 -67.171875 17.480469 -75.675781 C 22.628906 -75.675781 28.496094 -75.554688 34.964844 -75.195312 C 41.550781 -74.835938 47.417969 -74.597656 52.324219 -74.597656 C 53.882812 -74.597656 55.199219 -74.835938 56.039062 -75.316406 C 56.875 -75.792969 57.355469 -76.394531 57.355469 -76.992188 C 57.355469 -77.589844 56.875 -78.070312 56.039062 -78.546875 C 55.320312 -78.90625 54.121094 -79.265625 52.324219 -79.386719 Z M 52.324219 -79.386719 "/></g></g></g><g fill="#000000" fill-opacity="1"><g transform="translate(434.31628, 224.396116)"><g><path d="M 2.15625 -81.902344 L 2.394531 -75.675781 C 2.992188 -63.699219 3.351562 -53.402344 3.710938 -44.78125 C 4.191406 -30.175781 4.789062 -15.6875 5.507812 -1.4375 C 6.464844 0 7.664062 0.480469 10.058594 0.480469 L 11.375 0.480469 L 19.15625 -0.121094 C 28.496094 -0.839844 35.800781 -1.554688 40.949219 -2.273438 C 46.21875 -2.875 48.851562 -3.832031 48.851562 -4.910156 C 48.851562 -6.226562 46.578125 -7.304688 43.703125 -7.421875 C 39.632812 -6.824219 33.527344 -6.226562 25.382812 -5.628906 L 14.847656 -4.667969 C 14.25 -18.199219 14.007812 -26.582031 13.890625 -30.054688 L 13.769531 -33.40625 C 13.171875 -49.570312 12.453125 -66.933594 11.613281 -82.257812 C 11.015625 -83.695312 8.859375 -84.773438 6.464844 -84.773438 C 4.070312 -84.773438 2.15625 -83.695312 2.15625 -81.902344 Z M 2.15625 -81.902344 "/></g></g></g><g fill="#000000" fill-opacity="1"><g transform="translate(482.67038, 224.396116)"><g><path d="M 2.15625 -81.902344 L 2.394531 -75.675781 C 2.992188 -63.699219 3.351562 -53.402344 3.710938 -44.78125 C 4.191406 -30.175781 4.789062 -15.6875 5.507812 -1.4375 C 6.464844 0 7.664062 0.480469 10.058594 0.480469 L 11.375 0.480469 L 19.15625 -0.121094 C 28.496094 -0.839844 35.800781 -1.554688 40.949219 -2.273438 C 46.21875 -2.875 48.851562 -3.832031 48.851562 -4.910156 C 48.851562 -6.226562 46.578125 -7.304688 43.703125 -7.421875 C 39.632812 -6.824219 33.527344 -6.226562 25.382812 -5.628906 L 14.847656 -4.667969 C 14.25 -18.199219 14.007812 -26.582031 13.890625 -30.054688 L 13.769531 -33.40625 C 13.171875 -49.570312 12.453125 -66.933594 11.613281 -82.257812 C 11.015625 -83.695312 8.859375 -84.773438 6.464844 -84.773438 C 4.070312 -84.773438 2.15625 -83.695312 2.15625 -81.902344 Z M 2.15625 -81.902344 "/></g></g></g><g fill="#000000" fill-opacity="1"><g transform="translate(531.024479, 224.396116)"><g><path d="M 52.324219 -79.386719 C 47.894531 -79.386719 41.429688 -79.503906 32.808594 -79.746094 C 26.34375 -79.984375 19.875 -80.105469 13.410156 -80.105469 L 12.332031 -79.984375 C 10.777344 -79.625 9.699219 -79.027344 9.101562 -78.070312 C 8.5 -68.25 8.140625 -59.03125 8.140625 -50.527344 C 8.140625 -46.097656 8.140625 -43.226562 8.261719 -41.90625 L 3.953125 -41.90625 C 2.632812 -41.789062 1.675781 -41.550781 0.839844 -40.949219 C 0 -40.472656 -0.359375 -39.992188 -0.359375 -39.511719 C -0.359375 -38.316406 1.078125 -37.476562 3.953125 -37.117188 L 8.5 -37.117188 C 8.980469 -28.378906 9.460938 -22.152344 10.058594 -18.558594 C 10.417969 -15.445312 10.894531 -12.691406 11.375 -10.296875 C 12.214844 -5.628906 14.128906 -1.914062 17.003906 0.839844 C 18.917969 2.394531 24.066406 3.234375 28.738281 3.234375 L 31.132812 3.351562 C 36.757812 3.351562 48.375 1.4375 55.679688 -0.839844 C 59.390625 -1.914062 61.304688 -2.992188 61.304688 -4.070312 C 61.304688 -5.507812 59.152344 -6.464844 56.636719 -6.464844 C 55.679688 -6.464844 54.480469 -6.226562 53.164062 -5.867188 L 49.453125 -4.789062 C 41.308594 -2.394531 36.398438 -1.4375 31.011719 -1.4375 C 28.976562 -1.4375 26.820312 -1.675781 24.785156 -2.15625 L 22.871094 -4.191406 C 19.996094 -13.289062 19.039062 -22.03125 18.558594 -37.238281 L 26.820312 -37.117188 C 30.773438 -37.117188 34.246094 -37.359375 37.238281 -37.71875 C 39.753906 -38.078125 41.070312 -38.796875 41.070312 -39.871094 C 41.070312 -40.472656 40.589844 -41.070312 39.753906 -41.550781 C 38.914062 -42.027344 37.597656 -42.265625 36.042969 -42.265625 L 18.441406 -42.027344 L 18.082031 -51.605469 C 17.722656 -59.152344 17.480469 -67.171875 17.480469 -75.675781 C 22.628906 -75.675781 28.496094 -75.554688 34.964844 -75.195312 C 41.550781 -74.835938 47.417969 -74.597656 52.324219 -74.597656 C 53.882812 -74.597656 55.199219 -74.835938 56.039062 -75.316406 C 56.875 -75.792969 57.355469 -76.394531 57.355469 -76.992188 C 57.355469 -77.589844 56.875 -78.070312 56.039062 -78.546875 C 55.320312 -78.90625 54.121094 -79.265625 52.324219 -79.386719 Z M 52.324219 -79.386719 "/></g></g></g></svg>