<svg xmlns="http://www.w3.org/2000/svg" xmlns:xlink="http://www.w3.org/1999/xlink" width="1000" zoomAndPan="magnify" viewBox="0 0 750 374.999991" height="500" preserveAspectRatio="xMidYMid meet" version="1.0"><defs><g/><clipPath id="id1"><path d="M 19.371094 112.078125 L 730.371094 112.078125 L 730.371094 264.328125 L 19.371094 264.328125 Z M 19.371094 112.078125 " clip-rule="nonzero"/></clipPath></defs><g clip-path="url(#id1)"><path fill="#ffdcba" d="M 603.558594 139.191406 C 614.097656 138.660156 624.585938 137.851562 635.101562 137.210938 C 656.1875 136.046875 677.058594 134.117188 698.023438 132.507812 C 697 137.894531 696.035156 143.492188 699.074219 148.128906 C 699.074219 148.128906 702.316406 147.707031 706.332031 146.929688 C 710.355469 146.199219 715.1875 145.328125 718.40625 144.742188 C 745.652344 152.691406 741.898438 171.394531 729.941406 186.449219 C 726.832031 189.628906 723.320312 193.21875 719.328125 196.886719 C 715.96875 196.960938 712.601562 197.03125 709.277344 197.105469 C 694.125 197.519531 679.195312 198.25 664.136719 199.519531 C 649.171875 200.429688 634.144531 201.648438 618.921875 203.003906 C 588.519531 205.371094 579.519531 208.046875 546.65625 208.460938 C 500.554688 207.734375 592.4375 204.871094 546.65625 208.460938 C 601.019531 206.550781 512.644531 212.371094 567.949219 209.347656 C 581.792969 208.652344 573.429688 207.957031 587.183594 207.269531 C 600.972656 206.769531 614.699219 206.265625 628.34375 205.769531 C 642.039062 205.273438 655.597656 205.222656 669.191406 205.003906 C 682.820312 204.683594 696.289062 204.785156 709.816406 204.914062 C 699.625 212.585938 687.273438 219.078125 672.296875 221.25 C 636.585938 223.59375 601.371094 225.898438 566.457031 228.1875 C 566.296875 225.621094 539.164062 230.292969 515.171875 231.832031 C 491.191406 233.203125 467.566406 228.488281 443.785156 229.039062 C 396.199219 230.296875 301.464844 245.050781 300.808594 246.75 C 300.570312 246.773438 300.335938 246.792969 300.113281 246.8125 C 300.335938 246.792969 300.570312 246.773438 300.808594 246.75 C 300.21875 248.242188 300.667969 249.332031 306.773438 248.902344 C 300.667969 249.332031 300.21875 248.242188 300.808594 246.75 C 397.296875 237.449219 465.46875 233.03125 562.484375 228.480469 C 487.242188 233.515625 435.878906 239.449219 361.871094 245.597656 C 287.878906 251.707031 213.464844 257.894531 136.714844 262.605469 C 130.183594 263.003906 117.089844 263.800781 110.542969 264.199219 C 84.09375 258.121094 57.804688 257.109375 31.691406 258.601562 C 37.769531 245.484375 10.722656 221.515625 63.203125 223.589844 C 63.113281 221.042969 62.933594 215.945312 62.84375 213.398438 C 36.421875 208.558594 18.234375 197.445312 12.441406 186.011719 C 9.777344 180.324219 10.109375 174.40625 14.894531 169.144531 C 19.867188 163.84375 28.167969 159.230469 41.175781 155.929688 C 99.539062 142.367188 178.195312 147.808594 249.703125 137.878906 C 301.765625 131.84375 353.761719 125.566406 406.054688 126.609375 C 478.035156 128.691406 533.761719 119.511719 605.539062 121.796875 C 618.550781 121.582031 636.183594 118.132812 652.257812 115.578125 C 668.25 112.851562 682.527344 110.664062 689.292969 113.589844 C 698.808594 115.921875 699.722656 121.253906 698.890625 127.464844 C 677.703125 130.015625 656.640625 132.9375 635.386719 134.957031 C 624.785156 136.03125 614.234375 137.25 603.644531 138.164062 C 593.054688 139.039062 582.488281 139.90625 571.953125 140.777344 " fill-opacity="1" fill-rule="nonzero"/></g><g fill="#000000" fill-opacity="1"><g transform="translate(294.552487, 224.396162)"><g><path d="M 48.492188 -68.488281 L 34.605469 -47.296875 C 28.019531 -56.515625 21.195312 -66.453125 14.007812 -77.230469 C 12.933594 -78.1875 10.65625 -78.90625 8.621094 -78.90625 C 6.105469 -78.90625 4.789062 -77.949219 4.789062 -76.152344 C 12.332031 -64.539062 20.714844 -52.445312 29.816406 -39.871094 L 18.320312 -22.269531 L -0.121094 5.988281 C -0.121094 7.902344 1.199219 8.859375 3.832031 8.859375 C 5.867188 8.859375 8.023438 8.140625 9.101562 7.183594 L 34.964844 -32.570312 L 36.640625 -30.292969 C 43.585938 -20.59375 50.410156 -10.777344 57.113281 -0.597656 C 57.953125 0.71875 59.988281 1.4375 62.382812 1.4375 C 64.777344 1.4375 66.453125 0.597656 66.453125 -0.839844 C 66.453125 -1.316406 66.453125 -1.554688 66.335938 -1.675781 C 60.828125 -9.9375 51.964844 -22.75 39.753906 -39.992188 L 57.714844 -67.292969 C 57.832031 -67.414062 57.832031 -67.652344 57.832031 -68.011719 C 57.832031 -69.566406 56.515625 -70.40625 53.761719 -70.40625 C 51.007812 -70.40625 49.332031 -69.808594 48.492188 -68.488281 Z M 48.492188 -68.488281 "/></g></g></g><g fill="#000000" fill-opacity="1"><g transform="translate(362.894537, 224.396162)"><g><path d="M 7.066406 0.480469 C 17.003906 1.078125 22.75 1.4375 24.308594 1.4375 C 27.0625 1.4375 28.496094 0.71875 28.496094 -0.839844 C 28.496094 -1.914062 27.417969 -2.753906 25.382812 -3.113281 C 24.785156 -3.472656 23.230469 -3.59375 20.714844 -3.59375 L 18.917969 -42.265625 C 18.917969 -43.105469 18.796875 -44.542969 18.679688 -46.816406 C 18.320312 -56.515625 17.839844 -67.890625 17.121094 -80.941406 L 18.917969 -80.941406 C 20.59375 -80.941406 21.792969 -81.183594 22.628906 -81.660156 C 23.46875 -82.140625 23.949219 -82.738281 23.949219 -83.335938 C 23.949219 -83.9375 23.46875 -84.414062 22.628906 -84.894531 C 21.910156 -85.253906 20.714844 -85.613281 18.917969 -85.730469 L 5.746094 -85.730469 C 4.429688 -85.613281 3.472656 -85.371094 2.632812 -84.773438 C 1.796875 -84.296875 1.4375 -83.816406 1.4375 -83.335938 C 1.4375 -82.140625 2.875 -81.300781 5.746094 -80.941406 L 7.542969 -80.941406 L 7.664062 -77.828125 C 8.5 -62.382812 8.980469 -52.566406 9.101562 -48.375 L 9.9375 -30.054688 L 10.175781 -24.664062 C 10.296875 -21.910156 10.535156 -18.917969 10.65625 -15.566406 C 10.777344 -12.09375 11.015625 -8.382812 11.253906 -4.191406 L 9.460938 -4.3125 C 6.105469 -4.3125 3.113281 -2.875 3.113281 -1.4375 C 3.113281 -0.597656 4.429688 0.121094 7.066406 0.480469 Z M 7.066406 0.480469 "/></g></g></g><g fill="#000000" fill-opacity="1"><g transform="translate(393.415096, 224.396162)"><g><path d="M 14.367188 -1.316406 L 20.953125 -63.101562 L 43.945312 -1.199219 C 44.78125 0.121094 46.9375 0.957031 48.972656 0.957031 C 51.367188 0.957031 52.804688 0.121094 53.402344 -1.554688 C 53.402344 -8.5 53.882812 -21.671875 54.71875 -40.949219 C 55.558594 -59.988281 55.917969 -73.160156 55.917969 -80.222656 C 55.320312 -81.660156 53.164062 -82.738281 50.769531 -82.738281 C 48.375 -82.738281 46.457031 -81.660156 46.457031 -79.863281 C 46.457031 -75.675781 46.097656 -66.8125 45.261719 -53.285156 C 44.421875 -39.753906 44.0625 -31.011719 44.0625 -27.179688 C 37.597656 -44.183594 30.652344 -62.980469 23.230469 -83.695312 C 21.433594 -85.492188 20.234375 -86.089844 18.199219 -86.089844 C 16.285156 -86.089844 13.648438 -84.894531 13.648438 -83.578125 L 13.648438 -83.097656 C 11.613281 -65.015625 8.742188 -37.957031 4.910156 -1.675781 C 4.910156 0.238281 6.707031 1.199219 9.21875 1.199219 C 12.09375 1.199219 13.769531 0.359375 14.367188 -1.316406 Z M 14.367188 -1.316406 "/></g></g></g></svg>