<svg width="356" height="480" viewBox="0 0 356 480" fill="none" xmlns="http://www.w3.org/2000/svg">
<path fill-rule="evenodd" clip-rule="evenodd" d="M252.877 268.329C250.156 267.36 247.533 266.24 245.143 264.593C238.254 259.47 233.762 251.76 229.517 244.454C223.539 233.83 219.279 222.508 216.335 210.697C215.07 205.623 214.64 199.74 211.766 195.241C205.25 185.821 186.144 187.042 175.998 188.695C169.204 189.896 167.8 197.493 166.257 203.114C164.972 207.785 164.131 212.508 163.425 217.295C161.745 218.399 159.849 219.295 158.041 220.075C138.342 226.111 134.88 237.299 127.356 254.583C114.648 279.703 80.1656 289.539 74.9569 319.269C71.6009 338.896 81.1443 357.361 90.9835 373.678C100.147 391.501 112.939 400.055 133.312 395.844C152.42 391.561 170.784 384.397 189.556 378.861C198.648 376.627 207.726 370.818 217.29 372.844C236.997 377.266 257.245 379.345 277.441 378.771C305.797 379.916 305.792 352.724 302.882 331.667C300.844 298.896 284.3 277.854 252.877 268.329V268.329Z" fill="#D08B5B"/>
<path fill-rule="evenodd" clip-rule="evenodd" d="M254.773 315.748C257.142 317.314 259.135 319.688 260.735 322.186C254.056 321.492 247.389 320.691 240.736 319.78C241.607 319.224 242.486 318.68 243.385 318.167C246.666 316.32 251.11 313.329 254.773 315.748ZM143.809 335.474C142.586 334.995 142.112 333.131 141.635 332.062C140.14 328.711 138.775 325.303 137.355 321.919C142.746 320.383 147.989 318.68 153.574 317.861C159.58 316.982 165.674 316.769 171.734 316.967C184.011 317.367 196.173 319.371 208.243 321.521C220.298 323.668 232.353 325.731 244.493 327.35C256.386 328.935 268.318 330.096 280.271 331.115C282.594 331.313 286.466 332.148 288.334 330.322C289.813 328.875 289.861 326.208 288.01 325.032C286.858 324.299 285.188 324.289 283.871 324.12C282.212 323.906 280.547 323.764 278.879 323.654C278.199 323.609 277.519 323.568 276.839 323.526C282.298 321.47 287.998 320.349 293.915 320.662C294.25 322.693 295.758 324.782 296.583 326.458C298.024 329.382 299.147 332.342 299.884 335.522C301.426 342.169 301.493 349.067 301.057 355.846C300.658 361.498 299.799 367.751 295.361 371.754C292.001 374.785 287.261 375.907 282.864 376.26C277.752 376.67 272.562 376.232 267.494 375.547C260.385 374.587 253.243 373.317 246.274 371.615C232.777 368.319 219.839 363.073 207.903 355.962C202.082 352.494 196.527 348.593 190.626 345.257C184.613 341.857 178.215 339.22 171.497 337.582C163.979 335.75 156.119 334.968 148.392 335.42C147.051 335.498 145.114 335.984 143.809 335.474ZM135.097 332.071C135.887 334.633 136.491 337.557 138.178 339.71C139.848 341.843 142.368 342.595 144.978 342.785C148.126 343.013 151.311 342.867 154.465 342.984C160.935 343.224 167.316 344.274 173.501 346.2C179.264 347.995 184.615 350.795 189.769 353.901C194.534 356.774 199.161 359.857 203.928 362.721C202.659 363.302 201.405 363.931 200.143 364.478C197.498 365.626 194.836 366.734 192.162 367.814C186.89 369.943 181.595 372.02 176.246 373.95C165.46 377.842 154.496 381.242 143.401 384.138C138.109 385.52 132.742 387.133 127.245 387.363C122.37 387.567 117.854 386.19 113.923 383.294C105.768 377.287 99.28 368.617 94.0353 360.065C90.9193 354.984 88.2001 349.646 85.951 344.126C84.8134 341.334 83.7818 338.5 82.8532 335.633C82.4177 334.286 82.0046 332.932 81.6135 331.572C81.4415 330.974 81.2766 330.374 81.1134 329.774C89.4521 327.231 97.8899 324.936 106.526 323.662C111.136 322.982 115.809 322.637 120.47 322.687C122.784 322.712 125.096 322.837 127.397 323.076C128.636 323.204 129.87 323.369 131.098 323.574C131.606 323.658 132.128 323.783 132.651 323.875C133.451 326.612 134.257 329.346 135.097 332.071ZM307.469 321.189C307.919 320.281 308.108 319.387 308.269 318.398C308.392 317.644 308.718 316.582 308.433 315.603C308.113 314.506 307.242 313.525 306.617 312.59C305.926 311.556 305.237 310.521 304.548 309.486C303.17 307.416 301.795 305.344 300.423 303.271C294.817 294.804 289.25 286.313 283.674 277.827C278.726 270.296 273.861 262.698 268.762 255.268C264.402 248.915 259.649 242.667 253.681 237.726C246.135 231.479 237.15 228.536 227.765 226.24C226.74 225.177 225.37 224.596 223.907 224.714C221.839 222.371 220.196 220.734 219.451 217.755C219.094 216.327 219.206 212.317 217.815 211.473C216.162 210.47 215.299 211.798 214.844 213.294C213.319 218.301 215.069 225.032 219.096 230.047C217.399 235.906 215.15 244.232 211.137 248.925C206.84 253.951 200.897 255.516 194.486 255.619C182.258 255.815 170.043 251.275 160.717 243.406C157.882 241.014 155.249 238.343 152.867 235.502C151.081 233.371 148.967 230.081 147.57 227.595C147.57 226.627 146.425 225.613 158.08 224.831C169.736 224.048 170.62 208.102 170.879 205.932C171.09 204.17 171.985 201.434 170.743 199.997C170.215 199.387 169.133 199.289 168.464 199.703C167.203 200.486 166.789 202.487 166.392 203.845C165.837 205.749 164.022 217.561 160.582 218.929C158.971 219.569 157.124 219.581 155.421 219.7C153.317 219.846 151.209 219.954 149.113 220.198C148.341 220.289 147.498 220.538 146.735 220.546C146.239 220.55 145.727 220.31 145.248 220.14C143.63 219.569 142.013 219.998 140.345 220.222C125.605 222.201 110.428 226.718 97.8551 234.846C86.7733 242.01 78.9661 252.313 73.8144 264.359C68.5581 276.652 65.5453 289.946 63.0204 303.033C62.1745 307.418 61.4359 311.823 60.8013 316.243C60.188 320.514 59.4209 324.881 59.2372 329.195C59.1645 330.902 59.5729 332.488 60.2012 334.048C60.9088 335.803 62.5813 336.495 64.1855 337.314C67.707 339.114 71.4218 340.51 75.2491 341.498C77.5872 345.748 79.5549 350.164 81.1362 354.747C80.5496 355.908 80.5374 357.642 80.4245 358.771C80.1447 361.582 80.025 364.408 79.9999 367.231C79.9495 372.891 80.2901 378.545 80.5571 384.195C80.8279 389.926 81.7279 412.539 81.8746 415.3C81.9886 417.446 81.8351 420.446 82.9661 422.35C84.7041 425.278 88.9936 425.179 90.9805 422.806C140.345 433.409 233.137 430.215 270.509 424.88C275.372 424.186 273.845 424.956 275.082 423.729C276.01 422.807 276.799 421.229 277.056 419.96C277.399 418.267 276.845 416.734 275.875 415.364C274.855 413.924 274.669 411.591 274.29 409.879C273.394 405.83 272.949 388.048 272.53 386.078C272.4 385.464 272.274 384.815 272.121 384.165C278.977 384.814 286.12 384.814 292.641 382.523C296.339 381.224 299.789 379.184 302.443 376.27C305.658 372.742 307.447 368.301 308.366 363.666C309.553 357.688 309.805 351.496 309.572 345.42C309.248 338.238 308.056 330.955 305.097 324.362C306.071 323.458 306.887 322.368 307.469 321.189Z" fill="black"/>
<path fill-rule="evenodd" clip-rule="evenodd" d="M240.791 110.742C230.48 96.1177 204.567 94.4703 188.19 94.563C155.849 94.2933 149.077 131.514 147.388 157.597C143.938 158.184 140.583 159.388 138.307 162.103C135.535 165.408 134.578 171.081 137.177 174.778C138.903 177.232 141.628 178.053 144.479 178.189C153.92 177.287 155.856 185.713 160.506 192.031C172.438 208.171 193.109 213.406 212.067 213.487C218.507 213.658 226.264 214.142 230.388 208.076C243.413 185.47 243.697 155.489 244.5 129.872C244.611 123.314 244.583 116.371 240.791 110.742V110.742Z" fill="#D08B5B"/>
<path fill-rule="evenodd" clip-rule="evenodd" d="M263.047 123.427C263.177 123.675 263.274 123.949 263.327 124.247C263.497 125.194 263.149 125.919 262.691 126.622C262.751 127.112 262.785 127.588 262.81 128.006C262.956 130.353 262.419 133.57 260.352 134.528C260.33 134.554 260.308 134.58 260.286 134.607C260.275 134.619 260.264 134.631 260.253 134.644C260.094 134.904 259.85 135.129 259.53 135.293C259.451 135.348 259.371 135.401 259.289 135.446C259.268 135.464 259.246 135.48 259.223 135.496C259.206 135.508 259.19 135.52 259.174 135.533C259.217 135.488 259.258 135.44 259.301 135.394C258.158 135.851 257.054 135.945 255.875 135.806C255.146 136.07 254.416 136.267 253.8 136.419C251.876 136.895 249.396 137.276 247.521 136.465C246.975 136.229 246.522 135.916 246.181 135.543C246.209 136.996 246.252 138.448 246.315 139.901C246.443 143.574 246.437 147.244 246.408 150.92C246.377 155.056 246.261 159.195 246.039 163.328C245.936 165.404 245.77 167.477 245.548 169.544C245.361 171.557 245.142 173.567 244.889 175.571C244.291 179.691 243.306 183.843 242.105 187.826C241.583 189.555 241.011 191.305 240.36 193.014C240.085 193.8 239.794 194.577 239.478 195.347C237.812 199.383 235.735 203.278 232.93 206.641C231.398 208.476 229.706 210.126 227.817 211.513C226.301 212.697 224.659 213.699 222.854 214.488C218.977 216.185 214.649 216.567 210.455 216.504C208.855 216.483 207.16 216.199 205.574 215.935L205.477 215.918C204.238 215.715 202.984 215.443 201.743 215.123C200.642 214.866 199.554 214.569 198.481 214.221C197.189 213.88 195.951 213.389 194.772 212.753L192.683 211.967C191.811 211.638 190.963 211.247 190.141 210.799L187.87 209.738C186.929 209.284 186.013 208.786 185.119 208.238C185.025 208.188 184.918 208.103 184.878 208.009C184.781 207.956 184.684 207.903 184.587 207.851C184.451 207.777 184.315 207.704 184.18 207.627C184.143 207.609 184.171 207.499 184.221 207.392C184.18 207.308 184.187 207.214 184.299 207.129C184.384 207.064 184.518 207.082 184.659 207.126C184.646 207.117 184.637 207.108 184.628 207.098C184.578 207.071 184.529 207.045 184.48 207.019C184.374 206.962 184.269 206.905 184.165 206.848C184.008 206.763 183.983 206.544 184.13 206.428C184.171 206.397 184.218 206.381 184.265 206.378C184.262 206.378 184.259 206.375 184.255 206.375C184.227 206.356 184.249 206.268 184.29 206.171C184.212 206.071 184.187 205.949 184.324 205.843C184.513 205.694 184.936 205.937 185.133 206.05C185.148 206.059 185.162 206.067 185.175 206.074C185.298 206.143 185.421 206.208 185.545 206.274C185.62 206.314 185.695 206.353 185.769 206.394C185.781 206.365 185.807 206.34 185.847 206.315C185.557 206.162 185.269 206.006 184.982 205.849L184.981 205.849C184.803 205.755 184.571 205.558 184.806 205.373C184.993 205.223 185.478 205.479 185.71 205.611C185.738 205.589 185.769 205.58 185.807 205.573C185.766 205.551 185.725 205.528 185.683 205.506C185.622 205.473 185.56 205.44 185.5 205.404C185.219 205.248 185.409 204.759 185.7 204.922C185.717 204.933 185.735 204.943 185.752 204.953C185.769 204.964 185.786 204.974 185.803 204.985C186.003 204.967 186.278 205.121 186.42 205.201L186.441 205.213C187.42 205.83 188.44 206.369 189.497 206.832C190.21 207.17 190.926 207.505 191.645 207.831C192.352 208.182 193.08 208.485 193.828 208.742C195.707 209.475 197.605 210.157 199.522 210.79C202.209 211.526 204.989 212.117 207.778 212.349C208.141 212.377 208.504 212.402 208.866 212.415C209.263 212.412 209.66 212.409 210.057 212.407C210.454 212.405 210.85 212.402 211.246 212.399C212.646 212.254 214.045 212.112 215.443 211.97L215.868 211.926C216.406 211.851 216.931 211.757 217.451 211.648C217.723 211.582 217.995 211.513 218.264 211.435C218.326 211.426 218.389 211.415 218.451 211.404C218.483 211.399 218.514 211.393 218.545 211.388C219.205 211.212 219.852 211.003 220.5 210.758C220.906 210.592 221.31 210.417 221.71 210.232C223.033 209.616 224.334 208.801 225.559 207.868C226.327 207.103 227.095 206.338 227.863 205.573C228.63 204.809 229.398 204.044 230.166 203.278L231.57 201.362C233.384 198.766 234.819 195.873 236.01 192.92L237.906 187.454C238.103 186.796 238.29 186.138 238.468 185.478C238.828 184 239.188 182.522 239.547 181.047C239.666 180.506 239.782 179.967 239.894 179.428C240.586 176.075 240.967 172.672 241.295 169.268C241.896 163.075 242.058 156.863 242.102 150.644C242.13 146.927 242.099 143.211 242.024 139.497C241.98 137.343 241.949 135.189 241.918 133.035C241.877 130.749 241.833 128.46 241.774 126.174C241.771 126.124 241.789 126.081 241.815 126.043C241.808 125.774 241.805 125.504 241.802 125.232C241.799 125.054 241.868 124.975 241.968 124.96C241.949 123.328 241.936 121.7 241.933 120.072C241.933 119.965 241.983 119.897 242.049 119.856V119.443C241.777 118.309 241.408 117.198 240.93 116.139C240.767 115.757 240.586 115.385 240.385 115.021C240.138 114.477 239.816 113.982 239.422 113.528C239.094 112.974 238.69 112.482 238.221 112.044C238.126 111.975 238.03 111.906 237.934 111.837C237.838 111.768 237.741 111.699 237.646 111.63C237.486 111.546 237.252 111.399 237.046 111.23C236.859 111.115 236.674 111 236.489 110.885C236.304 110.77 236.118 110.655 235.932 110.541C235.716 110.428 235.857 110.146 236.01 110.071V110.062C235.976 110.046 235.939 110.027 235.898 109.993C235.448 109.567 234.978 109.166 234.491 108.791C234.403 108.825 234.3 108.812 234.222 108.747C233.934 108.477 233.64 108.218 233.34 107.967C232.667 107.526 231.964 107.122 231.229 106.765C230.05 106.207 228.843 105.728 227.605 105.321C227.364 105.242 227.122 105.17 226.88 105.099L226.801 105.075C226.655 105.068 226.509 105.061 226.363 105.054C226.129 105.042 225.894 105.03 225.659 105.02C211.489 104.398 197.282 104.659 183.144 105.801C179.661 106.082 176.182 106.418 172.709 106.806C172.054 106.88 171.372 106.937 170.676 106.995C168.123 107.208 165.389 107.437 163.181 108.538C163.062 108.598 162.949 108.661 162.839 108.725C163.029 109.947 163.486 111.143 163.93 112.305C163.998 112.482 164.065 112.658 164.131 112.833C164.901 114.88 165.591 116.966 165.523 119.182C165.474 120.727 165.143 122.213 164.665 123.666C164.42 125.736 163.775 127.736 163.091 129.701C159.724 139.368 157.891 149.265 158.08 159.527C158.085 159.802 158.021 160.042 157.913 160.246L157.918 160.287C157.978 160.722 158.038 161.157 158.108 161.591C158.389 163.32 156.111 164.18 155.325 163.034C155.273 163.086 155.199 163.122 155.132 163.128C154.932 163.147 154.603 162.818 154.51 162.668C154.388 162.442 154.259 162.223 154.122 162.013C154.103 162.004 154.087 161.998 154.072 161.991C154.113 162.077 154.155 162.163 154.196 162.249C154.24 162.339 154.283 162.428 154.325 162.514C154.463 162.79 153.934 162.924 153.778 162.671C153.637 162.448 153.496 162.236 153.356 162.032C153.274 162.091 153.184 162.107 153.124 162.01C152.621 161.177 152.039 160.463 151.401 159.856C150.397 159.036 149.3 158.538 148.052 158.246C147.07 158.106 146.063 158.099 145.09 158.212C143.974 158.344 142.798 158.622 141.788 159.133C140.966 159.699 140.14 160.266 139.315 160.833C139.111 161.046 138.917 161.268 138.736 161.5C138.164 162.242 137.704 163.034 137.326 163.876C137.31 163.929 137.294 163.983 137.279 164.033C137.047 164.74 136.897 165.467 136.832 166.212C136.827 166.683 136.823 167.154 136.819 167.624C136.815 168.095 136.811 168.565 136.807 169.036C136.932 170.261 137.244 171.45 137.723 172.581C137.948 173.248 138.301 173.843 138.78 174.369C139.036 174.813 139.327 175.217 139.652 175.593C140.312 176.031 141.031 176.404 141.798 176.698C141.985 176.748 142.173 176.798 142.364 176.836C143.349 177.215 144.368 177.418 145.422 177.446C146.754 177.537 148.058 177.421 149.334 177.099C150.122 176.958 150.885 176.729 151.623 176.413C152.33 176.056 152.996 175.627 153.618 175.126C153.687 175.082 153.79 175.108 153.903 175.164C153.927 175.146 153.951 175.129 153.975 175.112C154.088 175.029 154.202 174.948 154.313 174.857C154.375 174.813 154.431 174.866 154.46 174.923L154.497 174.895C154.744 174.726 155.423 175.255 155.116 175.568C155.248 175.649 155.379 175.746 155.498 175.846C156.042 175.868 157.14 176.87 156.933 177.027C156.627 177.293 156.305 177.537 155.976 177.769C156.267 177.985 156.649 178.32 156.47 178.455C156.151 178.758 155.804 179.021 155.435 179.247C155.185 179.438 154.929 179.619 154.66 179.785C154.369 179.958 154.072 180.105 153.765 180.243C154.3 181.279 154.81 182.325 155.285 183.389C155.601 184.144 155.967 184.873 156.389 185.575C156.927 186.643 157.571 187.645 158.325 188.578C158.938 189.611 159.657 190.56 160.479 191.427C161.496 192.585 162.587 193.675 163.747 194.683C164.21 195.012 164.682 195.331 165.173 195.626C166.427 196.571 167.763 197.382 169.179 198.059C169.345 198.149 169.476 198.35 169.282 198.506C169.28 198.507 169.278 198.508 169.276 198.509C169.272 198.51 169.268 198.512 169.264 198.516C169.726 198.779 170.192 199.039 170.662 199.295L170.677 199.304C170.866 199.406 171.217 199.596 170.943 199.818C170.762 199.969 170.202 199.699 169.867 199.524C169.888 199.535 169.909 199.547 169.931 199.559C169.958 199.574 169.986 199.59 170.014 199.605C170.019 199.608 170.025 199.611 170.031 199.615C170.17 199.689 170.695 199.971 170.346 200.153C170.161 200.185 169.986 200.153 169.817 200.063C169.642 199.997 169.467 199.925 169.295 199.85C169.301 199.906 169.27 199.959 169.179 200.003C169.107 200.016 169.039 200.016 168.97 200.009C169.351 200.225 169.733 200.438 170.117 200.648C170.23 200.708 170.762 201.002 170.411 201.183C170.239 201.218 170.074 201.19 169.914 201.102C169.623 200.992 169.336 200.864 169.057 200.723C169.024 200.704 168.991 200.686 168.959 200.668C168.926 200.65 168.893 200.632 168.86 200.614C168.81 200.614 168.76 200.607 168.71 200.598C169.017 200.764 169.326 200.924 169.639 201.08C169.823 201.18 170.133 201.384 169.867 201.591C169.683 201.731 169.185 201.478 168.892 201.312C168.873 201.334 168.851 201.359 168.82 201.384C168.628 201.529 168.172 201.266 167.942 201.133C167.91 201.115 167.882 201.098 167.86 201.086C166.308 200.254 164.811 199.392 163.369 198.406C162.487 197.839 161.627 197.245 160.786 196.596C159.175 195.35 157.712 193.9 156.37 192.373C155.454 191.327 154.957 190.738 154.069 189.47C152.643 187.428 151.567 185.299 150.532 183.042C150.516 183.007 150.547 182.92 150.594 182.832C150.382 182.309 150.175 181.78 149.969 181.232C149.431 181.304 148.89 181.354 148.355 181.385C147.095 181.457 145.872 181.345 144.687 181.085C143.252 180.9 141.832 180.493 140.575 179.854C139.821 179.475 139.096 179.072 138.408 178.621C137.792 178.292 137.197 177.916 136.628 177.478C134.205 175.624 132.888 172.747 132.566 169.76C132.319 168.445 132.266 167.092 132.413 165.786C132.519 164.837 132.732 163.898 133.041 162.993C133.614 160.986 134.68 159.129 136.225 157.724C136.484 157.457 136.757 157.204 137.047 156.966C137.907 156.261 138.883 155.695 139.921 155.281C140.121 155.184 140.325 155.093 140.528 155.009L140.281 154.439C140.193 154.464 139.89 154.414 139.852 154.308C139.791 154.14 139.732 153.971 139.673 153.802C139.636 153.695 139.599 153.589 139.562 153.484C139.505 153.519 139.433 153.537 139.355 153.54V153.857C139.358 153.947 139.186 154.511 139.093 154.217C139.033 154.052 138.978 153.885 138.922 153.718C138.886 153.612 138.851 153.505 138.814 153.4C138.736 153.349 138.677 153.29 138.655 153.221C138.645 153.193 138.636 153.165 138.623 153.136C138.619 153.135 138.614 153.134 138.609 153.133C138.607 153.132 138.604 153.131 138.602 153.13V153.227C138.605 153.287 138.448 153.738 138.42 153.65C137.879 152.16 137.438 150.638 137.094 149.091C136.86 148.239 136.675 147.378 136.534 146.505C136.381 145.719 136.247 144.93 136.131 144.135L136.103 143.937C136.1 143.922 136.097 143.909 136.094 143.893L136.091 143.871C136.082 143.793 136.074 143.714 136.062 143.637C135.937 142.738 135.834 141.836 135.756 140.928C135.59 139.062 135.524 137.187 135.543 135.314C135.518 135.324 135.494 135.336 135.469 135.349C135.454 135.356 135.44 135.364 135.424 135.371C134.612 135.717 133.753 136 132.88 136.225C131.377 138.4 128.979 139.871 126.104 140.026C125.13 140.078 124.11 139.96 123.164 139.684C123.066 139.707 122.965 139.725 122.86 139.739C122.366 139.803 121.969 139.698 121.558 139.588C121.327 139.527 121.092 139.464 120.834 139.43C120.74 139.417 120.648 139.405 120.557 139.394C119.524 139.261 118.643 139.147 117.957 138.531C117.727 138.537 117.506 138.503 117.297 138.441C115.319 138.916 113.216 137.869 112.52 135.674C111.334 134.978 110.388 133.945 109.752 132.746C108.528 131.175 107.549 129.247 106.941 127.222C106.937 127.215 106.934 127.207 106.93 127.2C106.924 127.188 106.918 127.177 106.912 127.165C106.604 126.496 106.458 125.779 106.445 125.059C106.118 123.01 106.204 120.958 106.827 119.154C106.801 118.176 107.03 117.157 107.451 116.232C107.96 115.111 108.737 113.822 109.745 113.074C109.747 111.925 110.24 110.66 110.887 109.803C112.177 108.09 114.047 107.185 116.072 107.054C117.101 104.412 120.221 103.795 122.911 104.674C124.029 103.531 125.666 102.985 127.3 103.179C128.682 103.344 129.863 104.005 130.84 104.917C131.098 104.991 131.355 105.067 131.611 105.147C132.467 104.771 133.465 104.686 134.379 104.922C135.962 105.33 136.995 106.531 137.71 107.909C137.938 108.066 138.16 108.228 138.378 108.398C138.616 108.505 138.833 108.648 139.03 108.817C139.315 108.969 139.558 109.22 139.706 109.584C140.109 110 140.485 110.441 140.817 110.913C141.065 110.337 141.322 109.766 141.587 109.198C142.018 109.328 142.539 109.16 142.756 108.583L142.812 108.436C144.199 104.751 146.668 98.1887 148.997 95.1432C146.243 97.021 142.88 98.0107 139.539 97.9111C139.396 97.9068 139.252 97.9008 139.107 97.893C137.311 98.203 135.487 98.2318 133.812 97.8955C132.685 97.4856 131.586 96.9972 130.521 96.4445C130.262 96.3099 130.005 96.1684 129.749 96.0256C129.669 95.9579 129.593 95.8847 129.517 95.8114C129.488 95.7826 129.458 95.7538 129.428 95.7253C129.207 95.7413 128.977 95.7241 128.732 95.6589C127.81 95.415 126.957 94.801 126.423 94.012C126.323 93.8651 126.243 93.7139 126.172 93.5614C125.592 92.9934 125.089 92.35 124.72 91.5976C124.285 90.7177 124.019 89.7283 123.991 88.7388C123.81 87.7682 123.822 86.7694 124.16 85.8426C124.184 85.7794 124.21 85.7176 124.236 85.6554C124.252 85.6188 124.267 85.5822 124.282 85.5451C124.29 85.5195 124.296 85.4933 124.303 85.4671C124.313 85.4292 124.322 85.3911 124.335 85.3541C124.434 85.0238 124.56 84.7295 124.712 84.4508C124.769 84.1643 124.862 83.8803 124.992 83.6038C125.007 83.4701 125.025 83.3364 125.047 83.2034C124.053 81.3262 124.405 78.8715 125.893 77.3457C125.687 76.3594 125.896 75.3136 126.496 74.4384C126.936 73.7953 127.548 73.2877 128.241 72.9355C128.314 72.8988 128.505 72.8359 128.734 72.7636C128.99 72.5366 129.261 72.3218 129.557 72.1327C129.627 70.2979 131.457 69.2394 133.041 68.3231C133.117 68.2788 133.193 68.2349 133.268 68.1912C133.784 67.8914 134.158 67.4606 134.533 67.0295C134.926 66.5769 135.319 66.124 135.877 65.8222C136.853 65.2947 138.052 65.1734 139.178 65.0596C139.427 65.0344 139.672 65.0096 139.91 64.9809C143.014 64.6064 146.32 64.3171 149.44 64.6556C151.172 64.8434 152.607 65.681 153.2 67.0531C154.69 67.2293 156.018 68.3058 157.069 69.413C158.38 70.7947 159.497 72.2657 159.882 74.0815C160.139 74.2202 160.371 74.3899 160.582 74.5815C160.574 75.8584 160.408 77.1374 160.056 78.3426C160.159 79.0631 159.942 79.751 159.576 80.3747C159.632 80.9652 159.592 81.5467 159.468 82.1262C160.181 83.3928 159.514 85.3068 158.515 86.5627L158.508 87.271C158.567 87.24 158.625 87.2034 158.679 87.1573C161.552 84.7095 164.476 84.0348 167.634 83.306C169.458 82.8851 171.36 82.4462 173.375 81.6375C178.34 80.6778 183.408 80.0669 188.494 79.8637C188.427 79.8537 188.36 79.8465 188.293 79.8355C185.73 79.4153 183.268 78.3598 181.151 76.8434C180.591 76.7013 180.059 76.448 179.584 76.0243C179.122 75.6129 178.802 75.1382 178.618 74.6291C178.534 74.5392 178.451 74.4488 178.369 74.3567C176.78 73.9659 175.57 72.5892 175.773 70.7794C174.766 69.5868 174.396 68.1142 174.737 66.5809C174.174 65.63 174.125 64.4311 174.545 63.4269C173.661 62.3523 173.592 60.8268 174.285 59.611C173.653 58.7108 173.513 57.5179 174.293 56.4517C174.662 55.9482 175.172 55.6307 175.728 55.4773C175.885 54.8971 176.204 54.3583 176.706 53.9421C176.964 53.7283 177.234 53.5695 177.51 53.4512C177.614 52.8522 177.952 52.2842 178.603 51.8374C178.898 51.6348 179.2 51.5039 179.5 51.4313C179.784 50.7268 180.28 50.109 180.978 49.7079C181.821 49.2242 182.8 49.16 183.693 49.4136C184.859 47.6495 187.417 46.9657 189.19 48.2742C190.667 47.3593 192.525 47.5522 193.852 48.6646C195.457 47.715 197.45 48.0982 198.708 49.4224C200.725 48.319 203.387 49.134 204.467 51.2246C206.502 50.9986 208.42 52.3324 208.962 54.2631C209.051 54.3346 209.138 54.4083 209.225 54.4819L209.248 54.5017C210.467 54.5602 211.626 55.0387 212.309 56.174C212.651 56.741 212.808 57.4073 212.785 58.0602C213.514 58.4547 214.103 59.1019 214.355 59.9407C214.592 60.7273 214.503 61.5053 214.192 62.1832C215.207 63.2644 215.475 64.9496 214.756 66.3075C215.054 66.8185 215.208 67.4225 215.184 68.0503C215.148 68.9799 214.717 69.7292 214.132 70.3689C214.868 71.6996 214.581 73.4067 213.384 74.3398C212.696 76.7808 210.956 78.4049 208.289 79.4012C206.949 79.9016 205.548 80.287 204.12 80.5701C209.835 81.34 215.457 82.6933 220.858 84.711C221.152 84.8209 221.401 84.778 221.592 84.6499C221.643 84.6775 221.696 84.704 221.748 84.7306C221.815 84.7645 221.882 84.7984 221.947 84.8344C223.436 85.6516 224.893 86.5377 226.313 87.4864C226.313 87.3298 226.316 87.1733 226.322 87.0136C226.295 85.7252 226.43 84.4561 226.772 83.2328C226.325 82.6225 225.99 81.9268 225.808 81.2098C225.354 79.4207 226.218 76.8747 227.771 76.2635C228.315 74.7525 229.552 73.6591 231.069 73.2289C231.19 73.1202 231.317 73.0147 231.46 72.9167C231.78 72.6969 232.129 72.5469 232.488 72.4599C232.675 71.6411 233.131 70.8874 233.888 70.3586C234.956 69.6118 236.219 69.5307 237.328 69.9381C237.539 69.867 237.754 69.8053 237.97 69.7518C239.756 68.2294 242.54 68.3415 244.112 70.1228C245.191 69.629 246.462 69.6071 247.567 70.2715C248.45 70.8032 249 71.6605 249.216 72.6014C250.889 72.6527 252.419 73.7643 252.902 75.4232C254.443 75.5979 255.705 76.8059 255.972 78.3263C256.956 78.4635 257.864 78.9262 258.417 79.8465C258.672 80.272 258.811 80.7376 258.847 81.2038C259.344 81.4427 259.79 81.8044 260.127 82.2769C260.716 83.1047 260.83 84.0713 260.614 84.9809C260.634 85.0221 260.655 85.0629 260.676 85.1037C260.707 85.1627 260.737 85.2218 260.765 85.2821C260.926 85.624 261.055 85.9907 261.169 86.363C261.688 87.1116 261.927 88.0268 261.88 88.9461C261.99 89.335 262.097 89.7248 262.185 90.1165C262.535 91.6539 262.667 93.2915 262.426 94.8571C262.307 95.6148 262.135 96.36 261.891 97.0833C261.866 97.221 261.825 97.3494 261.778 97.4715C261.644 98.0414 261.472 98.6019 261.253 99.1498C260.728 99.848 260.177 100.528 259.599 101.185C259.111 101.918 258.554 102.594 257.926 103.214C257.472 103.662 256.975 104.078 256.447 104.454C255.397 105.296 254.224 105.952 252.971 106.38C252.747 106.333 252.523 106.296 252.297 106.26C250.875 107.044 248.637 107.133 247.269 107.127C245.761 107.122 244.38 106.74 243.232 106.02C243.365 106.285 243.498 106.551 243.631 106.817C243.624 106.821 243.617 106.825 243.61 106.829C243.583 106.843 243.556 106.858 243.533 106.875C243.285 106.463 243.008 106.098 242.681 105.835C242.236 105.475 241.517 105.443 241.208 106.025C241.205 106.03 241.202 106.036 241.199 106.042C241.197 106.046 241.194 106.051 241.192 106.055C241.027 106.366 241.05 106.664 241.176 106.907C241.222 106.973 241.268 107.039 241.313 107.106C241.318 107.111 241.322 107.116 241.327 107.122C241.338 107.135 241.35 107.149 241.363 107.162L241.355 107.163C241.782 107.507 242.202 108.35 242.6 109.169C242.87 109.648 243.126 110.134 243.367 110.628C243.507 110.835 243.756 111.017 244.022 111.07C243.97 111.464 244.151 111.872 244.449 112.075C244.527 111.917 244.622 111.755 244.744 111.589C246.088 109.761 248.729 108.972 250.718 109.808C251.114 109.74 251.513 109.685 251.915 109.653C253.228 109.567 254.558 109.67 255.855 109.942C256.257 110.184 256.642 110.456 257 110.766C257.303 111.029 257.585 111.305 257.848 111.59C258.051 111.742 258.251 111.904 258.447 112.072C259.242 112.5 259.826 113.321 260.316 114.138C260.705 114.689 261.045 115.274 261.339 115.894C262.703 118.23 264.276 121.13 263.047 123.427ZM153.696 168.567C154.197 169.146 154.588 169.791 154.869 170.502C154.982 170.73 154.844 170.868 154.613 170.827C154.509 170.812 154.369 170.737 154.225 170.636C154.236 170.663 154.248 170.688 154.259 170.713C154.271 170.738 154.283 170.763 154.294 170.79C154.416 171.031 154.312 171.203 154.034 171.112C154.027 171.108 154.021 171.104 154.014 171.1C154.005 171.095 153.997 171.089 153.99 171.084C154.134 171.341 154.266 171.604 154.378 171.879C154.5 172.124 154.391 172.293 154.115 172.199C153.972 172.117 153.834 172.023 153.703 171.92C153.719 171.956 153.735 171.991 153.751 172.027C153.795 172.122 153.839 172.216 153.878 172.315C154.003 172.562 153.859 172.69 153.615 172.634C153.406 172.518 153.212 172.38 153.03 172.221C153.002 172.199 152.977 172.174 152.952 172.152C153.033 172.355 152.88 172.481 152.677 172.44C152.389 172.383 151.848 171.898 151.717 171.641C151.708 171.626 151.701 171.61 151.692 171.594C151.539 171.491 151.373 171.347 151.248 171.209C151.148 171.353 150.954 171.46 150.866 171.284C150.604 170.567 150.194 169.954 149.634 169.437C149.315 168.971 148.927 168.573 148.474 168.244C148.23 168.038 147.977 167.84 147.717 167.652C147.258 167.443 146.779 167.283 146.279 167.176C146.222 167.159 146.164 167.145 146.107 167.131C146.063 167.121 146.019 167.11 145.975 167.098C145.753 167.057 145.534 167.017 145.312 166.985C144.409 166.86 143.502 166.838 142.595 166.92C142.432 166.926 142.276 166.801 142.207 166.657C142.004 166.666 141.804 166.675 141.6 166.694C141.266 166.707 141.338 166.234 141.591 166.187C141.91 166.128 142.229 166.084 142.542 166.046C142.535 166.018 142.532 165.987 142.539 165.962C141.966 165.933 141.397 165.946 140.822 166.005C140.572 166.018 140.869 165.555 141.006 165.529C141.039 165.523 141.071 165.518 141.104 165.513C141.135 165.509 141.165 165.504 141.197 165.498C141.191 165.489 141.188 165.483 141.185 165.473H141.169C140.825 165.489 140.59 164.941 141.003 164.866C141.053 164.857 141.101 164.849 141.15 164.842C141.202 164.833 141.254 164.825 141.306 164.816C141.288 164.762 141.285 164.715 141.303 164.672C141.125 164.668 140.95 164.668 140.772 164.668C140.818 164.665 140.859 164.566 140.902 164.463C140.948 164.352 140.996 164.235 141.056 164.227C141.147 164.214 141.241 164.202 141.332 164.189C141.338 164.074 141.513 163.804 141.588 163.789C142.182 163.688 142.764 163.619 143.339 163.598C143.395 163.466 143.477 163.291 143.555 163.291C144.209 163.281 144.837 163.288 145.463 163.353C145.488 163.335 145.513 163.325 145.534 163.328C145.638 163.353 145.731 163.375 145.832 163.4C146.179 163.45 146.526 163.522 146.879 163.626C147.714 163.873 148.549 164.265 149.271 164.75C149.953 165.207 150.632 165.683 151.226 166.253C151.435 166.431 151.632 166.625 151.82 166.826C152.123 167.076 152.417 167.333 152.699 167.587C153.043 167.903 153.377 168.229 153.696 168.567Z" fill="black"/>
<path fill-rule="evenodd" clip-rule="evenodd" d="M220.006 189.795C217.697 190.463 215.22 190.523 212.866 189.833C210.732 189.207 208.54 187.83 206.97 186.008C205.574 184.389 204.67 182.421 204.706 180.321C204.71 180.081 204.796 179.881 204.928 179.726C205.07 179.559 205.268 179.444 205.481 179.394C205.7 179.342 205.931 179.361 206.128 179.45C206.306 179.531 206.459 179.668 206.554 179.869C206.796 180.186 207.036 180.498 207.278 180.802C209.219 183.196 211.099 184.986 214.017 185.628C215.601 185.976 217.183 185.822 218.634 185.29C220.187 184.722 221.592 183.721 222.692 182.441C223.189 181.863 223.777 181.627 224.351 181.623C225.001 181.618 225.644 181.92 226.129 182.403C226.605 182.877 226.924 183.522 226.953 184.197C226.978 184.789 226.785 185.407 226.271 185.959C224.577 187.777 222.381 189.108 220.006 189.795ZM219.935 159.802C222.301 161.239 225.907 164.59 223.361 168.153C220.365 171.295 216.05 167.693 213.924 166.064C211.953 164.801 209.738 168.048 211.567 169.523C226.93 180.887 233.165 160.178 221.132 158.112C219.807 157.884 219.315 159.357 219.935 159.802ZM197.798 153.478C197.037 152.992 196.142 152.825 195.151 153.276C194.376 153.628 193.017 154.802 192.071 156.345C191.424 157.4 190.965 158.638 191.061 159.928C191.083 160.228 190.972 160.449 190.797 160.612C190.659 160.741 190.46 160.836 190.226 160.865C190.027 160.891 189.805 160.868 189.624 160.811C189.28 160.704 189.097 160.481 189.029 160.299C188.367 158.542 188.652 156.581 189.394 154.812C190.396 152.424 192.215 150.424 193.406 149.78C195.446 148.676 197.852 148.625 199.894 149.749C201.632 150.706 202.719 152.252 203.801 153.827C204.03 154.161 204.259 154.494 204.494 154.82C204.967 155.474 205.014 156.123 204.831 156.68C204.628 157.296 204.111 157.816 203.465 158.088C202.868 158.34 202.174 158.375 201.561 158.117C201.043 157.899 200.567 157.473 200.266 156.75C199.759 155.534 198.915 154.192 197.798 153.478V153.478ZM236.427 156.185C235.906 156.456 235.498 156.537 234.921 156.365C234.601 156.269 234.285 156.085 234.038 155.838C233.793 155.593 233.616 155.288 233.547 154.951C233.378 154.117 232.922 153.337 232.271 152.828C231.715 152.393 231.014 152.163 230.235 152.293C229.395 152.433 228.595 152.971 228.044 153.606C227.859 153.818 227.715 154.059 227.57 154.299C227.298 154.747 227.034 155.163 226.66 155.492C226.518 155.617 226.304 155.704 226.097 155.704C226.012 155.704 225.927 155.69 225.846 155.665C225.009 154.827 224.849 154.191 224.876 153.56C224.904 152.898 225.165 152.228 225.587 151.603C226.576 150.137 228.455 148.936 229.723 148.663C231.459 148.29 233.184 148.738 234.566 149.707C235.989 150.704 237.043 152.252 237.371 153.996C237.45 154.416 237.417 154.87 237.257 155.263C237.1 155.647 236.827 155.976 236.427 156.185ZM201.627 137.848C200.585 138.863 199.352 139.02 198.104 139.159C197.411 139.238 196.858 139.301 196.313 139.424C194.816 139.761 193.337 140.27 191.987 141.002C190.576 141.767 189.038 142.691 187.932 143.873C187.669 144.155 187.421 144.45 187.172 144.746C186.946 145.016 186.728 145.276 186.498 145.526C186.234 145.814 185.983 146.115 185.734 146.416C185.58 146.67 185.549 146.732 185.518 146.797C185.471 146.895 185.417 147.004 185.355 147.122C185.27 147.282 185.17 147.458 185.066 147.617C184.893 147.908 184.799 147.989 184.719 148.025C184.585 148.084 184.459 148.113 184.336 148.097C184.221 148.083 184.112 148.027 184.005 147.937C183.47 147.485 183.312 146.744 183.329 145.957C183.353 144.764 183.794 143.442 184.2 142.629C185.145 140.741 186.455 138.779 188.03 137.369C189.828 135.761 191.794 134.543 194.053 133.704C195.457 133.183 197.082 132.704 198.611 132.764C199.712 132.808 200.763 133.135 201.631 133.951C202.164 134.453 202.42 135.165 202.42 135.878C202.42 136.604 202.154 137.335 201.627 137.848ZM238.546 147.137C238.48 147.245 238.388 147.32 238.286 147.365C238.179 147.412 238.06 147.425 237.945 147.406C237.831 147.387 237.722 147.335 237.636 147.256C237.554 147.181 237.491 147.08 237.463 146.957C236.771 143.921 235.428 141.663 232.561 140.206C231.15 139.49 229.529 139.034 227.993 138.672C227.547 138.566 227.076 138.498 226.601 138.428C225.113 138.211 223.615 137.963 222.645 136.761C222.06 136.037 221.815 135.112 221.954 134.265C222.084 133.468 222.55 132.737 223.398 132.299C225.508 131.209 228.13 132.279 230.26 133.19C230.418 133.257 230.573 133.324 230.725 133.388C232.809 134.266 234.709 135.426 236.271 137.085C237.51 138.401 238.659 140.346 239.121 142.348C239.506 144.013 239.416 145.712 238.546 147.137Z" fill="black"/>
<path fill-rule="evenodd" clip-rule="evenodd" d="M246.359 162.605C244.249 165.437 240.337 166.339 236.729 166.027C228.948 165.279 226.499 156.449 226.244 149.586C231.462 151.052 225.802 140.665 243.64 139.523C249.928 138.999 248.194 142.794 250.972 145.566C250.915 151.384 249.946 157.706 246.359 162.605M209.295 155.919C204.701 177.415 179.543 172.302 176.901 152.925C179.341 151.204 178.698 146.955 181.73 145.415C186.534 142.348 192.541 142.479 197.997 142.551C204.971 143.03 206.959 145.916 210.541 149.066C210.369 151.169 209.872 153.662 209.295 155.919M256.325 135.963C256.067 135.92 255.808 135.88 255.55 135.842C255.349 135.727 255.112 135.639 254.837 135.586C254.209 135.427 253.585 135.32 252.962 135.262C244.02 133.251 223.335 136.106 222.481 143.73C219.634 144.679 217.17 143.829 213.87 143.913C211.358 133.423 167.929 134.903 165.84 141.228C165.832 141.226 165.824 141.224 165.816 141.222C163.809 140.601 160.851 140.751 158.554 140.652C153.649 140.55 148.739 140.986 143.94 142.02C134.954 143.447 122.69 145.117 128.939 156.329C128.94 156.331 128.941 156.333 128.943 156.335L128.944 156.334C130.021 157.437 131.849 156.549 131.917 155.056C129.816 149.744 134.562 149.106 138.213 147.58C147.299 144.319 156.549 143.866 165.946 144.875C166.653 145.707 167.726 146.432 168.86 146.812C175.143 147.854 171.832 152.51 175.803 153.187C175.074 169.42 194.798 178.28 206.227 167.61C210.79 163.152 211.878 156.549 212.936 150.597C213.495 150.471 213.851 150.166 214.058 149.761C215.404 148.419 216.249 147.18 218.909 146.812C221.569 146.443 223.617 147.183 223.894 147.409C223.964 147.55 224.039 147.69 224.126 147.831C224.248 148.041 224.413 148.209 224.601 148.341C221.974 164.505 234.534 174.727 247.213 166.344C252.722 161.166 253.886 153.238 254.116 146.163C254.863 145.713 255.336 144.84 255.077 143.743C254.721 142.23 255.556 140.921 256.887 140.263C258.616 139.41 258.31 136.291 256.325 135.963" fill="black"/>
</svg>
